%TF.GenerationSoftware,KiCad,Pcbnew,9.0.4*%
%TF.CreationDate,2025-10-14T17:35:38+07:00*%
%TF.ProjectId,Pi HAT no module,50692048-4154-4206-9e6f-206d6f64756c,rev?*%
%TF.SameCoordinates,Original*%
%TF.FileFunction,Copper,L1,Top*%
%TF.FilePolarity,Positive*%
%FSLAX46Y46*%
G04 Gerber Fmt 4.6, Leading zero omitted, Abs format (unit mm)*
G04 Created by KiCad (PCBNEW 9.0.4) date 2025-10-14 17:35:38*
%MOMM*%
%LPD*%
G01*
G04 APERTURE LIST*
G04 Aperture macros list*
%AMRoundRect*
0 Rectangle with rounded corners*
0 $1 Rounding radius*
0 $2 $3 $4 $5 $6 $7 $8 $9 X,Y pos of 4 corners*
0 Add a 4 corners polygon primitive as box body*
4,1,4,$2,$3,$4,$5,$6,$7,$8,$9,$2,$3,0*
0 Add four circle primitives for the rounded corners*
1,1,$1+$1,$2,$3*
1,1,$1+$1,$4,$5*
1,1,$1+$1,$6,$7*
1,1,$1+$1,$8,$9*
0 Add four rect primitives between the rounded corners*
20,1,$1+$1,$2,$3,$4,$5,0*
20,1,$1+$1,$4,$5,$6,$7,0*
20,1,$1+$1,$6,$7,$8,$9,0*
20,1,$1+$1,$8,$9,$2,$3,0*%
G04 Aperture macros list end*
%TA.AperFunction,SMDPad,CuDef*%
%ADD10RoundRect,0.250000X-0.350000X-0.450000X0.350000X-0.450000X0.350000X0.450000X-0.350000X0.450000X0*%
%TD*%
%TA.AperFunction,SMDPad,CuDef*%
%ADD11RoundRect,0.150000X-0.825000X-0.150000X0.825000X-0.150000X0.825000X0.150000X-0.825000X0.150000X0*%
%TD*%
%TA.AperFunction,ComponentPad*%
%ADD12R,2.000000X2.000000*%
%TD*%
%TA.AperFunction,ComponentPad*%
%ADD13C,2.000000*%
%TD*%
%TA.AperFunction,ComponentPad*%
%ADD14RoundRect,0.250000X0.750000X-0.600000X0.750000X0.600000X-0.750000X0.600000X-0.750000X-0.600000X0*%
%TD*%
%TA.AperFunction,ComponentPad*%
%ADD15O,2.000000X1.700000*%
%TD*%
%TA.AperFunction,SMDPad,CuDef*%
%ADD16RoundRect,0.250000X0.337500X0.475000X-0.337500X0.475000X-0.337500X-0.475000X0.337500X-0.475000X0*%
%TD*%
%TA.AperFunction,ComponentPad*%
%ADD17RoundRect,0.250000X0.725000X-0.600000X0.725000X0.600000X-0.725000X0.600000X-0.725000X-0.600000X0*%
%TD*%
%TA.AperFunction,ComponentPad*%
%ADD18O,1.950000X1.700000*%
%TD*%
%TA.AperFunction,ComponentPad*%
%ADD19R,2.000000X1.600000*%
%TD*%
%TA.AperFunction,ComponentPad*%
%ADD20O,2.000000X1.600000*%
%TD*%
%TA.AperFunction,SMDPad,CuDef*%
%ADD21RoundRect,0.250000X-0.325000X-0.450000X0.325000X-0.450000X0.325000X0.450000X-0.325000X0.450000X0*%
%TD*%
%TA.AperFunction,SMDPad,CuDef*%
%ADD22RoundRect,0.150000X-0.587500X-0.150000X0.587500X-0.150000X0.587500X0.150000X-0.587500X0.150000X0*%
%TD*%
%TA.AperFunction,SMDPad,CuDef*%
%ADD23RoundRect,0.150000X-0.875000X-0.150000X0.875000X-0.150000X0.875000X0.150000X-0.875000X0.150000X0*%
%TD*%
%TA.AperFunction,SMDPad,CuDef*%
%ADD24RoundRect,0.200000X0.200000X0.400000X-0.200000X0.400000X-0.200000X-0.400000X0.200000X-0.400000X0*%
%TD*%
%TA.AperFunction,ComponentPad*%
%ADD25R,1.524000X1.524000*%
%TD*%
%TA.AperFunction,ComponentPad*%
%ADD26C,1.524000*%
%TD*%
%TA.AperFunction,ComponentPad*%
%ADD27C,3.000000*%
%TD*%
%TA.AperFunction,ComponentPad*%
%ADD28C,6.200000*%
%TD*%
%TA.AperFunction,SMDPad,CuDef*%
%ADD29R,1.000000X1.500000*%
%TD*%
%TA.AperFunction,ViaPad*%
%ADD30C,0.600000*%
%TD*%
%TA.AperFunction,Conductor*%
%ADD31C,0.300000*%
%TD*%
%TA.AperFunction,Conductor*%
%ADD32C,0.500000*%
%TD*%
%TA.AperFunction,Conductor*%
%ADD33C,0.800000*%
%TD*%
%TA.AperFunction,Conductor*%
%ADD34C,0.400000*%
%TD*%
G04 APERTURE END LIST*
D10*
%TO.P,R10,1*%
%TO.N,VCC*%
X26000000Y-55500000D03*
%TO.P,R10,2*%
%TO.N,Net-(D2-A)*%
X28000000Y-55500000D03*
%TD*%
%TO.P,R2,1*%
%TO.N,VCC*%
X25950000Y-31450000D03*
%TO.P,R2,2*%
%TO.N,Net-(JP3-B)*%
X27950000Y-31450000D03*
%TD*%
%TO.P,R7,1*%
%TO.N,VCC*%
X26000000Y-46650000D03*
%TO.P,R7,2*%
%TO.N,SQW*%
X28000000Y-46650000D03*
%TD*%
D11*
%TO.P,U4,1,A0*%
%TO.N,Net-(JP1-B)*%
X31725000Y-28195000D03*
%TO.P,U4,2,A1*%
%TO.N,Net-(JP2-B)*%
X31725000Y-29465000D03*
%TO.P,U4,3,A2*%
%TO.N,Net-(JP3-B)*%
X31725000Y-30735000D03*
%TO.P,U4,4,GND*%
%TO.N,GND*%
X31725000Y-32005000D03*
%TO.P,U4,5,SDA*%
%TO.N,SDA*%
X36675000Y-32005000D03*
%TO.P,U4,6,SCL*%
%TO.N,SCL*%
X36675000Y-30735000D03*
%TO.P,U4,7,WP*%
%TO.N,GND*%
X36675000Y-29465000D03*
%TO.P,U4,8,VCC*%
%TO.N,VCC*%
X36675000Y-28195000D03*
%TD*%
D10*
%TO.P,R11,1*%
%TO.N,SIG*%
X44862500Y-29600000D03*
%TO.P,R11,2*%
%TO.N,Net-(Q1-B)*%
X46862500Y-29600000D03*
%TD*%
D12*
%TO.P,BZ1,1,+*%
%TO.N,VCC*%
X60400000Y-37800000D03*
D13*
%TO.P,BZ1,2,-*%
%TO.N,Net-(BZ1--)*%
X60400000Y-30200000D03*
%TD*%
D10*
%TO.P,R6,1*%
%TO.N,VCC*%
X25950000Y-43250000D03*
%TO.P,R6,2*%
%TO.N,SCL*%
X27950000Y-43250000D03*
%TD*%
D14*
%TO.P,J2,1,Pin_1*%
%TO.N,GND*%
X72250000Y-31850000D03*
D15*
%TO.P,J2,2,Pin_2*%
%TO.N,VCC*%
X72250000Y-29350000D03*
%TD*%
D10*
%TO.P,R12,1*%
%TO.N,Net-(BZ1--)*%
X44862500Y-32750000D03*
%TO.P,R12,2*%
%TO.N,VCC*%
X46862500Y-32750000D03*
%TD*%
D16*
%TO.P,C1,1*%
%TO.N,VCC*%
X22875000Y-39500000D03*
%TO.P,C1,2*%
%TO.N,GND*%
X20800000Y-39500000D03*
%TD*%
D10*
%TO.P,R1,1*%
%TO.N,VCC*%
X25950000Y-28500000D03*
%TO.P,R1,2*%
%TO.N,unconnected-(R1-Pad2)*%
X27950000Y-28500000D03*
%TD*%
%TO.P,R3,1*%
%TO.N,VCC*%
X25950000Y-34400000D03*
%TO.P,R3,2*%
%TO.N,Net-(JP2-B)*%
X27950000Y-34400000D03*
%TD*%
%TO.P,R8,1*%
%TO.N,VCC*%
X26000000Y-49600000D03*
%TO.P,R8,2*%
%TO.N,32Khz*%
X28000000Y-49600000D03*
%TD*%
D17*
%TO.P,J1,1,Pin_1*%
%TO.N,GND*%
X72300000Y-46100000D03*
D18*
%TO.P,J1,2,Pin_2*%
%TO.N,VCC*%
X72300000Y-43600000D03*
%TO.P,J1,3,Pin_3*%
%TO.N,SDA*%
X72300000Y-41100000D03*
%TO.P,J1,4,Pin_4*%
%TO.N,SCL*%
X72300000Y-38600000D03*
%TD*%
D19*
%TO.P,BT1,1,+*%
%TO.N,VBAT*%
X54100122Y-42605000D03*
D20*
%TO.P,BT1,2,-*%
%TO.N,GND*%
X54100122Y-63105000D03*
%TD*%
D16*
%TO.P,C2,1*%
%TO.N,VCC*%
X22937500Y-35800000D03*
%TO.P,C2,2*%
%TO.N,GND*%
X20862500Y-35800000D03*
%TD*%
D10*
%TO.P,R9,1*%
%TO.N,VCC*%
X26000000Y-52550000D03*
%TO.P,R9,2*%
%TO.N,Net-(D1-A)*%
X28000000Y-52550000D03*
%TD*%
%TO.P,R5,1*%
%TO.N,VCC*%
X25950000Y-40300000D03*
%TO.P,R5,2*%
%TO.N,SDA*%
X27950000Y-40300000D03*
%TD*%
%TO.P,R4,1*%
%TO.N,VCC*%
X25950000Y-37350000D03*
%TO.P,R4,2*%
%TO.N,Net-(JP1-B)*%
X27950000Y-37350000D03*
%TD*%
D21*
%TO.P,D2,1,K*%
%TO.N,GND*%
X31500000Y-52200000D03*
%TO.P,D2,2,A*%
%TO.N,Net-(D2-A)*%
X33550000Y-52200000D03*
%TD*%
D22*
%TO.P,Q1,1,B*%
%TO.N,Net-(Q1-B)*%
X50625000Y-29600000D03*
%TO.P,Q1,2,E*%
%TO.N,GND*%
X50625000Y-31500000D03*
%TO.P,Q1,3,C*%
%TO.N,Net-(BZ1--)*%
X52500000Y-30550000D03*
%TD*%
D23*
%TO.P,U5,1,32KHZ*%
%TO.N,32Khz*%
X31650000Y-36400000D03*
%TO.P,U5,2,VCC*%
%TO.N,VCC*%
X31650000Y-37670000D03*
%TO.P,U5,3,~{INT}/SQW*%
%TO.N,SQW*%
X31650000Y-38940000D03*
%TO.P,U5,4,~{RST}*%
%TO.N,unconnected-(U5-~{RST}-Pad4)*%
X31650000Y-40210000D03*
%TO.P,U5,5,GND*%
%TO.N,GND*%
X31650000Y-41480000D03*
%TO.P,U5,6,GND*%
X31650000Y-42750000D03*
%TO.P,U5,7,GND*%
X31650000Y-44020000D03*
%TO.P,U5,8,GND*%
X31650000Y-45290000D03*
%TO.P,U5,9,GND*%
X40950000Y-45290000D03*
%TO.P,U5,10,GND*%
X40950000Y-44020000D03*
%TO.P,U5,11,GND*%
X40950000Y-42750000D03*
%TO.P,U5,12,GND*%
X40950000Y-41480000D03*
%TO.P,U5,13,GND*%
X40950000Y-40210000D03*
%TO.P,U5,14,VBAT*%
%TO.N,VBAT*%
X40950000Y-38940000D03*
%TO.P,U5,15,SDA*%
%TO.N,SDA*%
X40950000Y-37670000D03*
%TO.P,U5,16,SCL*%
%TO.N,SCL*%
X40950000Y-36400000D03*
%TD*%
D24*
%TO.P,D1,1,K*%
%TO.N,VBAT*%
X38300000Y-48200000D03*
%TO.P,D1,2,A*%
%TO.N,Net-(D1-A)*%
X36700000Y-48200000D03*
%TD*%
D25*
%TO.P,U1,1,3V3*%
%TO.N,3V3*%
X26120000Y-21020000D03*
D26*
%TO.P,U1,2,5V*%
%TO.N,VCC*%
X26120000Y-18480000D03*
%TO.P,U1,3,GPIO2/SDA1*%
%TO.N,SDA*%
X28660000Y-21020000D03*
%TO.P,U1,4,5V*%
%TO.N,VCC*%
X28660000Y-18480000D03*
%TO.P,U1,5,GPIO3/SCL1*%
%TO.N,SCL*%
X31200000Y-21020000D03*
%TO.P,U1,6,GND*%
%TO.N,GND*%
X31200000Y-18480000D03*
%TO.P,U1,7,GPIO4/GPIO_GCKL*%
%TO.N,unconnected-(U1-GPIO4{slash}GPIO_GCKL-Pad7)*%
X33740000Y-21020000D03*
%TO.P,U1,8,GPIO14/TXD0*%
%TO.N,unconnected-(U1-GPIO14{slash}TXD0-Pad8)*%
X33740000Y-18480000D03*
%TO.P,U1,9,GND*%
%TO.N,GND*%
X36280000Y-21020000D03*
%TO.P,U1,10,GPIO15/RXD0*%
%TO.N,unconnected-(U1-GPIO15{slash}RXD0-Pad10)*%
X36280000Y-18480000D03*
%TO.P,U1,11,GPIO17/GPIO_GEN0*%
%TO.N,unconnected-(U1-GPIO17{slash}GPIO_GEN0-Pad11)*%
X38820000Y-21020000D03*
%TO.P,U1,12,GPIO18/GPIO_GEN1*%
%TO.N,unconnected-(U1-GPIO18{slash}GPIO_GEN1-Pad12)*%
X38820000Y-18480000D03*
%TO.P,U1,13,GPIO27/GPIO_GEN2*%
%TO.N,unconnected-(U1-GPIO27{slash}GPIO_GEN2-Pad13)*%
X41360000Y-21020000D03*
%TO.P,U1,14,GND*%
%TO.N,GND*%
X41360000Y-18480000D03*
%TO.P,U1,15,GPIO22/GPIO_GEN3*%
%TO.N,unconnected-(U1-GPIO22{slash}GPIO_GEN3-Pad15)*%
X43900000Y-21020000D03*
%TO.P,U1,16,GPIO23/GPIO_GEN4*%
%TO.N,unconnected-(U1-GPIO23{slash}GPIO_GEN4-Pad16)*%
X43900000Y-18480000D03*
%TO.P,U1,17,3V3*%
%TO.N,3V3*%
X46440000Y-21020000D03*
%TO.P,U1,18,GPIO24/GPIO_GEN5*%
%TO.N,SIG*%
X46440000Y-18480000D03*
%TO.P,U1,19,GPIO10/SPI_MOSI*%
%TO.N,unconnected-(U1-GPIO10{slash}SPI_MOSI-Pad19)*%
X48980000Y-21020000D03*
%TO.P,U1,20,GND*%
%TO.N,GND*%
X48980000Y-18480000D03*
%TO.P,U1,21,GPIO9/SPI_MISO*%
%TO.N,unconnected-(U1-GPIO9{slash}SPI_MISO-Pad21)*%
X51520000Y-21020000D03*
%TO.P,U1,22,GPIO25/GPIO_GEN6*%
%TO.N,unconnected-(U1-GPIO25{slash}GPIO_GEN6-Pad22)*%
X51520000Y-18480000D03*
%TO.P,U1,23,GPIO11/SPI_SCLK*%
%TO.N,unconnected-(U1-GPIO11{slash}SPI_SCLK-Pad23)*%
X54060000Y-21020000D03*
%TO.P,U1,24,GPIO8/~{SPI_CE0}*%
%TO.N,unconnected-(U1-GPIO8{slash}~{SPI_CE0}-Pad24)*%
X54060000Y-18480000D03*
%TO.P,U1,25,GND*%
%TO.N,GND*%
X56600000Y-21020000D03*
%TO.P,U1,26,GPIO7/~{SPI_CE1}*%
%TO.N,unconnected-(U1-GPIO7{slash}~{SPI_CE1}-Pad26)*%
X56600000Y-18480000D03*
%TO.P,U1,27,ID_SD*%
%TO.N,unconnected-(U1-ID_SD-Pad27)*%
X59140000Y-21020000D03*
%TO.P,U1,28,ID_SC*%
%TO.N,unconnected-(U1-ID_SC-Pad28)*%
X59140000Y-18480000D03*
%TO.P,U1,29,GPIO5*%
%TO.N,unconnected-(U1-GPIO5-Pad29)*%
X61680000Y-21020000D03*
%TO.P,U1,30,GND*%
%TO.N,GND*%
X61680000Y-18480000D03*
%TO.P,U1,31,GPIO6*%
%TO.N,unconnected-(U1-GPIO6-Pad31)*%
X64220000Y-21020000D03*
%TO.P,U1,32,GPIO12*%
%TO.N,unconnected-(U1-GPIO12-Pad32)*%
X64220000Y-18480000D03*
%TO.P,U1,33,GPIO13*%
%TO.N,unconnected-(U1-GPIO13-Pad33)*%
X66760000Y-21020000D03*
%TO.P,U1,34,GND*%
%TO.N,GND*%
X66760000Y-18480000D03*
%TO.P,U1,35,GPIO19*%
%TO.N,unconnected-(U1-GPIO19-Pad35)*%
X69300000Y-21020000D03*
%TO.P,U1,36,GPIO16*%
%TO.N,unconnected-(U1-GPIO16-Pad36)*%
X69300000Y-18480000D03*
%TO.P,U1,37,GPIO26*%
%TO.N,unconnected-(U1-GPIO26-Pad37)*%
X71840000Y-21020000D03*
%TO.P,U1,38,GPIO20*%
%TO.N,unconnected-(U1-GPIO20-Pad38)*%
X71840000Y-18480000D03*
%TO.P,U1,39,GND*%
%TO.N,GND*%
X74380000Y-21020000D03*
%TO.P,U1,40,GPIO21*%
%TO.N,unconnected-(U1-GPIO21-Pad40)*%
X74380000Y-18480000D03*
%TO.P,U1,41,TR01*%
%TO.N,unconnected-(U1-TR01-Pad41)*%
X80480000Y-27143000D03*
%TO.P,U1,42,TR00*%
%TO.N,unconnected-(U1-TR00-Pad42)*%
X80480000Y-24603000D03*
%TO.P,U1,43,TR03*%
%TO.N,unconnected-(U1-TR03-Pad43)*%
X77940000Y-27143000D03*
%TO.P,U1,44,TR02*%
%TO.N,unconnected-(U1-TR02-Pad44)*%
X77940000Y-24603000D03*
D27*
%TO.P,U1,S1,SHIELD*%
%TO.N,Net-(U1-SHIELD-PadS1)*%
X21250000Y-19750000D03*
D28*
%TO.P,U1,S2,SHIELD*%
X79250000Y-19750000D03*
%TO.P,U1,S3,SHIELD*%
X79250000Y-68750000D03*
%TO.P,U1,S4,SHIELD*%
X21250000Y-68750000D03*
%TD*%
D29*
%TO.P,JP3,1,A*%
%TO.N,GND*%
X20650000Y-32250000D03*
%TO.P,JP3,2,B*%
%TO.N,Net-(JP3-B)*%
X21950000Y-32250000D03*
%TD*%
%TO.P,JP1,1,A*%
%TO.N,GND*%
X20650000Y-25150000D03*
%TO.P,JP1,2,B*%
%TO.N,Net-(JP1-B)*%
X21950000Y-25150000D03*
%TD*%
%TO.P,JP2,1,A*%
%TO.N,GND*%
X20650000Y-28700000D03*
%TO.P,JP2,2,B*%
%TO.N,Net-(JP2-B)*%
X21950000Y-28700000D03*
%TD*%
D30*
%TO.N,VCC*%
X31000000Y-24700000D03*
%TO.N,GND*%
X31650000Y-46400000D03*
X41000000Y-46100000D03*
X38600000Y-29000000D03*
X30200000Y-32900000D03*
%TO.N,SCL*%
X28600000Y-42200000D03*
X39500000Y-34100000D03*
%TD*%
D31*
%TO.N,SIG*%
X45200000Y-22100000D02*
X45200000Y-19720000D01*
D32*
X44862500Y-29600000D02*
X44862500Y-22600000D01*
D31*
X45200000Y-19720000D02*
X46440000Y-18480000D01*
X44862500Y-22600000D02*
X44862500Y-22437500D01*
X44862500Y-22437500D02*
X45200000Y-22100000D01*
D33*
%TO.N,VCC*%
X55350000Y-32750000D02*
X60400000Y-37800000D01*
X26300000Y-38700000D02*
X25950000Y-38700000D01*
X60400000Y-35600000D02*
X66650000Y-29350000D01*
X66650000Y-29350000D02*
X72250000Y-29350000D01*
X25950000Y-46600000D02*
X26000000Y-46650000D01*
X31500000Y-65800000D02*
X64000000Y-65800000D01*
X26100000Y-18500000D02*
X26120000Y-18480000D01*
X22875000Y-39500000D02*
X22875000Y-35862500D01*
X26400000Y-38800000D02*
X26300000Y-38700000D01*
X73900000Y-43600000D02*
X72300000Y-43600000D01*
X22875000Y-35862500D02*
X22937500Y-35800000D01*
X22937500Y-35800000D02*
X24550000Y-35800000D01*
X24550000Y-35800000D02*
X25950000Y-34400000D01*
X25950000Y-39000000D02*
X25950000Y-39100000D01*
X25950000Y-38400000D02*
X25950000Y-38700000D01*
X76600000Y-37500000D02*
X76600000Y-41000000D01*
X25100000Y-18500000D02*
X26100000Y-18500000D01*
X64000000Y-65800000D02*
X67400000Y-62400000D01*
X26000000Y-52550000D02*
X26000000Y-55500000D01*
X25950000Y-31450000D02*
X25950000Y-34400000D01*
X46862500Y-32750000D02*
X55350000Y-32750000D01*
X19700000Y-43300000D02*
X19000000Y-42600000D01*
X22875000Y-41625000D02*
X21200000Y-43300000D01*
X60400000Y-37800000D02*
X60700000Y-37800000D01*
X60700000Y-37800000D02*
X63500000Y-35000000D01*
X76600000Y-41000000D02*
X76500000Y-41000000D01*
X22875000Y-39500000D02*
X22875000Y-41625000D01*
X31650000Y-37670000D02*
X29730000Y-37670000D01*
X76500000Y-41000000D02*
X73900000Y-43600000D01*
X25950000Y-38700000D02*
X25950000Y-39100000D01*
X26000000Y-49600000D02*
X26000000Y-52550000D01*
X25950000Y-28500000D02*
X25950000Y-31450000D01*
X25950000Y-40300000D02*
X25950000Y-43250000D01*
X25950000Y-43250000D02*
X25950000Y-46600000D01*
X67400000Y-62400000D02*
X67400000Y-46200000D01*
X60400000Y-37800000D02*
X60400000Y-35600000D01*
X35195000Y-28195000D02*
X36675000Y-28195000D01*
X70000000Y-43600000D02*
X72300000Y-43600000D01*
X26250000Y-38700000D02*
X25950000Y-39000000D01*
X21200000Y-43300000D02*
X19700000Y-43300000D01*
X25950000Y-37350000D02*
X25950000Y-38400000D01*
X22600000Y-22600000D02*
X23800000Y-21400000D01*
X19700000Y-22600000D02*
X22600000Y-22600000D01*
X25950000Y-39100000D02*
X25950000Y-40300000D01*
X19700000Y-43300000D02*
X19700000Y-54000000D01*
X19000000Y-23300000D02*
X19700000Y-22600000D01*
X67400000Y-46200000D02*
X70000000Y-43600000D01*
X63500000Y-35000000D02*
X74100000Y-35000000D01*
X25950000Y-34400000D02*
X25950000Y-37350000D01*
X31700000Y-24700000D02*
X35195000Y-28195000D01*
X19700000Y-54000000D02*
X31500000Y-65800000D01*
X28600000Y-38800000D02*
X26400000Y-38800000D01*
X26300000Y-38700000D02*
X26250000Y-38700000D01*
X23800000Y-19800000D02*
X25100000Y-18500000D01*
X23800000Y-21400000D02*
X23800000Y-19800000D01*
X74100000Y-35000000D02*
X76600000Y-37500000D01*
X26000000Y-49600000D02*
X26000000Y-46650000D01*
X19000000Y-42600000D02*
X19000000Y-23300000D01*
X31000000Y-24700000D02*
X31700000Y-24700000D01*
X26250000Y-38700000D02*
X25950000Y-38400000D01*
X29730000Y-37670000D02*
X28600000Y-38800000D01*
D31*
%TO.N,GND*%
X61700000Y-32200000D02*
X66900000Y-27000000D01*
X27400000Y-17200000D02*
X27900000Y-16700000D01*
X56600000Y-24000000D02*
X57700000Y-24000000D01*
X20862500Y-35800000D02*
X20862500Y-39437500D01*
X30800000Y-16700000D02*
X31200000Y-17100000D01*
X31650000Y-45290000D02*
X31650000Y-41480000D01*
X66900000Y-27000000D02*
X66900000Y-25300000D01*
X31500000Y-51100000D02*
X31500000Y-52200000D01*
X36675000Y-29465000D02*
X38135000Y-29465000D01*
X74380000Y-22520000D02*
X74380000Y-21020000D01*
X23931037Y-23100000D02*
X26800000Y-23100000D01*
X49505000Y-63105000D02*
X36300000Y-49900000D01*
X75100000Y-28900000D02*
X75800000Y-29600000D01*
X30595000Y-32005000D02*
X30200000Y-32400000D01*
X78300000Y-43500000D02*
X75700000Y-46100000D01*
X27900000Y-16700000D02*
X30800000Y-16700000D01*
X50625000Y-31500000D02*
X56300000Y-31500000D01*
X20862500Y-35800000D02*
X20862500Y-32462500D01*
X75875000Y-30075000D02*
X75950000Y-30150000D01*
X75950000Y-30150000D02*
X78300000Y-32500000D01*
X56300000Y-31500000D02*
X57000000Y-32200000D01*
X26800000Y-23100000D02*
X27400000Y-22500000D01*
X20862500Y-39437500D02*
X20800000Y-39500000D01*
X31650000Y-46400000D02*
X31650000Y-46450000D01*
X75700000Y-46100000D02*
X72300000Y-46100000D01*
X31725000Y-32005000D02*
X30595000Y-32005000D01*
X21448000Y-23700000D02*
X23331037Y-23700000D01*
X75800000Y-29600000D02*
X75800000Y-30300000D01*
X75100000Y-25400000D02*
X75100000Y-28900000D01*
X56600000Y-21020000D02*
X56600000Y-24000000D01*
X73300000Y-23600000D02*
X75100000Y-25400000D01*
X55700000Y-24000000D02*
X55600000Y-23900000D01*
X57700000Y-24000000D02*
X55700000Y-24000000D01*
X73300000Y-23600000D02*
X74380000Y-22520000D01*
X72250000Y-31850000D02*
X74250000Y-31850000D01*
X23331037Y-23700000D02*
X23931037Y-23100000D01*
X27400000Y-22500000D02*
X27400000Y-17200000D01*
X40950000Y-45290000D02*
X40950000Y-40210000D01*
X78300000Y-32500000D02*
X78300000Y-43500000D01*
X31650000Y-45290000D02*
X31650000Y-46400000D01*
X20650000Y-28700000D02*
X20650000Y-32250000D01*
X20650000Y-24498000D02*
X21448000Y-23700000D01*
X57000000Y-32200000D02*
X61700000Y-32200000D01*
X20650000Y-28700000D02*
X20650000Y-25150000D01*
X75800000Y-30300000D02*
X75950000Y-30150000D01*
X68600000Y-23600000D02*
X73300000Y-23600000D01*
X40950000Y-45290000D02*
X40950000Y-46050000D01*
X66900000Y-25300000D02*
X68600000Y-23600000D01*
X38135000Y-29465000D02*
X38600000Y-29000000D01*
X36300000Y-49900000D02*
X32700000Y-49900000D01*
X30200000Y-32400000D02*
X30200000Y-32900000D01*
X20650000Y-25150000D02*
X20650000Y-24498000D01*
X31200000Y-17100000D02*
X31200000Y-18480000D01*
X74250000Y-31850000D02*
X75800000Y-30300000D01*
X20862500Y-32462500D02*
X20650000Y-32250000D01*
X32700000Y-49900000D02*
X31500000Y-51100000D01*
X54100122Y-63105000D02*
X49505000Y-63105000D01*
%TO.N,SDA*%
X27950000Y-40300000D02*
X29000000Y-40300000D01*
D33*
X36403496Y-25800000D02*
X38700000Y-25800000D01*
D32*
X29000000Y-40300000D02*
X29900000Y-41200000D01*
X29900000Y-46400000D02*
X30900000Y-47400000D01*
X30900000Y-47400000D02*
X32300000Y-47400000D01*
D33*
X41000000Y-30100000D02*
X39095000Y-32005000D01*
D32*
X29900000Y-41200000D02*
X29900000Y-46400000D01*
D33*
X33900000Y-45700000D02*
X33900000Y-40200000D01*
X36675000Y-32005000D02*
X40305000Y-32005000D01*
D34*
X28660000Y-20740000D02*
X29600000Y-19800000D01*
D33*
X38700000Y-25800000D02*
X41000000Y-28100000D01*
X32500000Y-21896504D02*
X36403496Y-25800000D01*
D32*
X32300000Y-47400000D02*
X33900000Y-45800000D01*
D33*
X40950000Y-37670000D02*
X53270000Y-37670000D01*
X33900000Y-40200000D02*
X36430000Y-37670000D01*
X53270000Y-37670000D02*
X56700000Y-41100000D01*
X43100000Y-36900000D02*
X42330000Y-37670000D01*
D32*
X33900000Y-45800000D02*
X33900000Y-45700000D01*
D31*
X32500000Y-20500000D02*
X31800000Y-19800000D01*
D33*
X40305000Y-32005000D02*
X43100000Y-34800000D01*
X36430000Y-37670000D02*
X40950000Y-37670000D01*
X41000000Y-28100000D02*
X41000000Y-30100000D01*
X43100000Y-34800000D02*
X43100000Y-36900000D01*
X42330000Y-37670000D02*
X40950000Y-37670000D01*
D31*
X32500000Y-21611480D02*
X32500000Y-20500000D01*
D33*
X28660000Y-21020000D02*
X28660000Y-20740000D01*
D31*
X31800000Y-19800000D02*
X29600000Y-19800000D01*
D33*
X39095000Y-32005000D02*
X36675000Y-32005000D01*
X56700000Y-41100000D02*
X72300000Y-41100000D01*
%TO.N,SCL*%
X39800000Y-28500000D02*
X39800000Y-29700000D01*
X37900000Y-36400000D02*
X40950000Y-36400000D01*
X40950000Y-36400000D02*
X39500000Y-34950000D01*
X27950000Y-43250000D02*
X28600000Y-42600000D01*
X39800000Y-29700000D02*
X38765000Y-30735000D01*
X35000000Y-31435001D02*
X35000000Y-33500000D01*
X35700001Y-30735000D02*
X35000000Y-31435001D01*
X35800000Y-27000000D02*
X38300000Y-27000000D01*
X28600000Y-42600000D02*
X28600000Y-42200000D01*
X31200000Y-22400000D02*
X35800000Y-27000000D01*
X35000000Y-33500000D02*
X37900000Y-36400000D01*
X31200000Y-21800000D02*
X31200000Y-22400000D01*
X38765000Y-30735000D02*
X36675000Y-30735000D01*
X38300000Y-27000000D02*
X39800000Y-28500000D01*
X36675000Y-30735000D02*
X35700001Y-30735000D01*
D31*
X40950000Y-36400000D02*
X39925001Y-36400000D01*
D33*
X39500000Y-34950000D02*
X39500000Y-34100000D01*
D32*
X31200000Y-21020000D02*
X31200000Y-21800000D01*
D31*
%TO.N,Net-(JP1-B)*%
X34200000Y-28800000D02*
X33595000Y-28195000D01*
X21950000Y-25150000D02*
X22900000Y-24200000D01*
X27950000Y-37350000D02*
X30200000Y-35100000D01*
X33595000Y-28195000D02*
X31725000Y-28195000D01*
X29000000Y-24200000D02*
X31725000Y-26925000D01*
X33700000Y-35100000D02*
X34200000Y-34600000D01*
X34200000Y-34600000D02*
X34200000Y-28800000D01*
X22900000Y-24200000D02*
X29000000Y-24200000D01*
X31725000Y-26925000D02*
X31725000Y-28195000D01*
X30200000Y-35100000D02*
X33700000Y-35100000D01*
D32*
%TO.N,Net-(D1-A)*%
X28000000Y-52550000D02*
X28350000Y-52550000D01*
X32700000Y-48200000D02*
X36700000Y-48200000D01*
X28350000Y-52550000D02*
X32700000Y-48200000D01*
%TO.N,VBAT*%
X38300000Y-48200000D02*
X48505122Y-48200000D01*
X50435122Y-38940000D02*
X54100122Y-42605000D01*
X40950000Y-38940000D02*
X50435122Y-38940000D01*
X48505122Y-48200000D02*
X54100122Y-42605000D01*
%TO.N,Net-(D2-A)*%
X33550000Y-54150000D02*
X33550000Y-52200000D01*
X32200000Y-55500000D02*
X33550000Y-54150000D01*
X28000000Y-55500000D02*
X32200000Y-55500000D01*
%TO.N,Net-(BZ1--)*%
X48500000Y-31300000D02*
X45600000Y-31300000D01*
X60050000Y-30550000D02*
X60400000Y-30200000D01*
X52500000Y-30550000D02*
X49250000Y-30550000D01*
X44862500Y-32037500D02*
X44862500Y-32750000D01*
X45600000Y-31300000D02*
X44862500Y-32037500D01*
X52500000Y-30550000D02*
X60050000Y-30550000D01*
X49250000Y-30550000D02*
X48500000Y-31300000D01*
%TO.N,Net-(Q1-B)*%
X50625000Y-29600000D02*
X46862500Y-29600000D01*
D31*
%TO.N,Net-(JP2-B)*%
X28800000Y-25200000D02*
X30000000Y-26400000D01*
X32200000Y-34400000D02*
X33500000Y-33100000D01*
X30000000Y-28714999D02*
X30750001Y-29465000D01*
X33500000Y-30265001D02*
X32699999Y-29465000D01*
X23700000Y-25200000D02*
X28800000Y-25200000D01*
X30750001Y-29465000D02*
X31725000Y-29465000D01*
X33500000Y-33100000D02*
X33500000Y-30265001D01*
X21950000Y-28700000D02*
X23300000Y-27350000D01*
X30000000Y-26400000D02*
X30000000Y-28714999D01*
X23300000Y-27350000D02*
X23300000Y-25600000D01*
X23300000Y-25600000D02*
X23700000Y-25200000D01*
X27950000Y-34400000D02*
X32200000Y-34400000D01*
X32699999Y-29465000D02*
X31725000Y-29465000D01*
%TO.N,Net-(JP3-B)*%
X24300000Y-27400000D02*
X25200000Y-26500000D01*
X29400000Y-30000000D02*
X27950000Y-31450000D01*
X28300000Y-26500000D02*
X29400000Y-27600000D01*
X24300000Y-29900000D02*
X24300000Y-27400000D01*
X25200000Y-26500000D02*
X28300000Y-26500000D01*
X21950000Y-32250000D02*
X24300000Y-29900000D01*
X27950000Y-31450000D02*
X28500000Y-30900000D01*
X28500000Y-30900000D02*
X31560000Y-30900000D01*
X29400000Y-27600000D02*
X29400000Y-30000000D01*
X31560000Y-30900000D02*
X31725000Y-30735000D01*
%TD*%
%TA.AperFunction,Conductor*%
%TO.N,GND*%
G36*
X75432268Y-21718715D02*
G01*
X75459364Y-21681422D01*
X75546856Y-21509709D01*
X75594830Y-21458912D01*
X75662651Y-21442117D01*
X75728786Y-21464654D01*
X75766699Y-21507550D01*
X75900388Y-21757664D01*
X75900399Y-21757682D01*
X76113305Y-22076318D01*
X76113315Y-22076332D01*
X76356439Y-22372580D01*
X76627419Y-22643560D01*
X76627424Y-22643564D01*
X76627425Y-22643565D01*
X76923673Y-22886689D01*
X76923680Y-22886694D01*
X76923690Y-22886701D01*
X77155777Y-23041776D01*
X77200583Y-23095388D01*
X77209290Y-23164713D01*
X77179136Y-23227740D01*
X77143185Y-23255361D01*
X77121069Y-23266630D01*
X76922105Y-23411185D01*
X76922100Y-23411189D01*
X76748189Y-23585100D01*
X76748185Y-23585105D01*
X76603632Y-23784067D01*
X76491973Y-24003207D01*
X76491972Y-24003210D01*
X76415974Y-24237112D01*
X76377500Y-24480029D01*
X76377500Y-24725970D01*
X76415974Y-24968887D01*
X76491972Y-25202789D01*
X76491973Y-25202792D01*
X76603632Y-25421932D01*
X76748185Y-25620894D01*
X76748189Y-25620899D01*
X76912609Y-25785319D01*
X76946094Y-25846642D01*
X76941110Y-25916334D01*
X76912609Y-25960681D01*
X76748189Y-26125100D01*
X76748185Y-26125105D01*
X76603632Y-26324067D01*
X76491973Y-26543207D01*
X76491972Y-26543210D01*
X76415974Y-26777112D01*
X76377500Y-27020029D01*
X76377500Y-27265970D01*
X76415974Y-27508887D01*
X76491972Y-27742789D01*
X76491973Y-27742792D01*
X76540985Y-27838982D01*
X76600562Y-27955908D01*
X76603632Y-27961932D01*
X76748185Y-28160894D01*
X76748189Y-28160899D01*
X76922100Y-28334810D01*
X76922105Y-28334814D01*
X77011140Y-28399501D01*
X77121071Y-28479370D01*
X77220075Y-28529815D01*
X77340207Y-28591026D01*
X77340210Y-28591027D01*
X77457161Y-28629026D01*
X77574114Y-28667026D01*
X77817029Y-28705500D01*
X77817030Y-28705500D01*
X78062970Y-28705500D01*
X78062971Y-28705500D01*
X78305886Y-28667026D01*
X78539792Y-28591026D01*
X78758929Y-28479370D01*
X78957901Y-28334809D01*
X79122319Y-28170391D01*
X79183642Y-28136906D01*
X79253334Y-28141890D01*
X79297681Y-28170391D01*
X79462100Y-28334810D01*
X79462105Y-28334814D01*
X79551140Y-28399501D01*
X79661071Y-28479370D01*
X79760075Y-28529815D01*
X79880207Y-28591026D01*
X79880210Y-28591027D01*
X79997161Y-28629026D01*
X80114114Y-28667026D01*
X80357029Y-28705500D01*
X80357030Y-28705500D01*
X80602970Y-28705500D01*
X80602971Y-28705500D01*
X80845886Y-28667026D01*
X81079792Y-28591026D01*
X81298929Y-28479370D01*
X81497901Y-28334809D01*
X81671809Y-28160901D01*
X81816370Y-27961929D01*
X81844575Y-27906572D01*
X81892549Y-27855777D01*
X81960370Y-27838982D01*
X82026505Y-27861519D01*
X82069957Y-27916234D01*
X82079060Y-27963091D01*
X82011295Y-65708326D01*
X81991490Y-65775330D01*
X81938604Y-65820990D01*
X81869428Y-65830809D01*
X81808631Y-65803957D01*
X81576330Y-65613313D01*
X81576318Y-65613305D01*
X81257682Y-65400399D01*
X81257681Y-65400398D01*
X81257676Y-65400395D01*
X81257671Y-65400392D01*
X81257664Y-65400388D01*
X80919697Y-65219740D01*
X80919692Y-65219738D01*
X80565625Y-65073078D01*
X80198877Y-64961827D01*
X80198866Y-64961824D01*
X79823011Y-64887063D01*
X79535763Y-64858772D01*
X79441619Y-64849500D01*
X79058381Y-64849500D01*
X78971394Y-64858067D01*
X78676988Y-64887063D01*
X78301133Y-64961824D01*
X78301122Y-64961827D01*
X77934374Y-65073078D01*
X77580307Y-65219738D01*
X77580302Y-65219740D01*
X77242335Y-65400388D01*
X77242317Y-65400399D01*
X76923681Y-65613305D01*
X76923667Y-65613315D01*
X76627419Y-65856439D01*
X76356439Y-66127419D01*
X76113315Y-66423667D01*
X76113305Y-66423681D01*
X75900399Y-66742317D01*
X75900388Y-66742335D01*
X75719740Y-67080302D01*
X75719738Y-67080307D01*
X75573078Y-67434374D01*
X75461827Y-67801122D01*
X75461824Y-67801133D01*
X75387063Y-68176988D01*
X75349500Y-68558384D01*
X75349500Y-68941615D01*
X75387063Y-69323011D01*
X75461824Y-69698866D01*
X75461827Y-69698877D01*
X75573078Y-70065625D01*
X75719738Y-70419692D01*
X75719740Y-70419697D01*
X75900388Y-70757664D01*
X75900399Y-70757682D01*
X76113305Y-71076318D01*
X76113315Y-71076332D01*
X76356439Y-71372580D01*
X76627419Y-71643560D01*
X76803891Y-71788387D01*
X76843225Y-71846132D01*
X76845096Y-71915977D01*
X76808908Y-71975745D01*
X76746153Y-72006461D01*
X76725420Y-72008240D01*
X23673960Y-72091133D01*
X23606890Y-72071553D01*
X23561052Y-72018821D01*
X23551001Y-71949678D01*
X23579926Y-71886077D01*
X23595090Y-71871290D01*
X23872575Y-71643565D01*
X24143565Y-71372575D01*
X24386689Y-71076327D01*
X24599605Y-70757676D01*
X24780263Y-70419690D01*
X24926922Y-70065624D01*
X25038170Y-69698887D01*
X25038172Y-69698877D01*
X25038175Y-69698866D01*
X25112936Y-69323011D01*
X25150500Y-68941615D01*
X25150500Y-68558384D01*
X25112936Y-68176988D01*
X25038175Y-67801133D01*
X25038172Y-67801122D01*
X25038171Y-67801119D01*
X25038170Y-67801113D01*
X24926922Y-67434376D01*
X24780263Y-67080310D01*
X24737603Y-67000500D01*
X24599611Y-66742335D01*
X24599610Y-66742333D01*
X24599605Y-66742324D01*
X24386689Y-66423673D01*
X24143565Y-66127425D01*
X24143564Y-66127424D01*
X24143560Y-66127419D01*
X23872580Y-65856439D01*
X23576332Y-65613315D01*
X23576329Y-65613313D01*
X23576327Y-65613311D01*
X23257676Y-65400395D01*
X23257671Y-65400392D01*
X23257664Y-65400388D01*
X22919697Y-65219740D01*
X22919692Y-65219738D01*
X22565625Y-65073078D01*
X22198877Y-64961827D01*
X22198866Y-64961824D01*
X21823011Y-64887063D01*
X21535763Y-64858772D01*
X21441619Y-64849500D01*
X21058381Y-64849500D01*
X20971394Y-64858067D01*
X20676988Y-64887063D01*
X20301133Y-64961824D01*
X20301122Y-64961827D01*
X19934374Y-65073078D01*
X19580307Y-65219738D01*
X19580302Y-65219740D01*
X19242335Y-65400388D01*
X19242317Y-65400399D01*
X18923681Y-65613305D01*
X18923667Y-65613315D01*
X18627419Y-65856439D01*
X18356439Y-66127419D01*
X18251644Y-66255113D01*
X18193898Y-66294447D01*
X18124054Y-66296318D01*
X18064286Y-66260130D01*
X18033570Y-66197375D01*
X18031793Y-66175790D01*
X18152154Y-43748607D01*
X18158412Y-43727709D01*
X18159969Y-43705942D01*
X18168239Y-43694894D01*
X18172197Y-43681678D01*
X18188763Y-43667477D01*
X18201841Y-43650009D01*
X18214769Y-43645186D01*
X18225246Y-43636207D01*
X18246859Y-43633217D01*
X18267305Y-43625592D01*
X18280788Y-43628525D01*
X18294456Y-43626635D01*
X18314254Y-43635805D01*
X18335578Y-43640444D01*
X18353928Y-43654181D01*
X18357855Y-43656000D01*
X18363832Y-43661595D01*
X18463181Y-43760944D01*
X18496666Y-43822267D01*
X18499500Y-43848625D01*
X18499500Y-54094486D01*
X18529059Y-54281118D01*
X18587454Y-54460836D01*
X18673240Y-54629199D01*
X18784310Y-54782074D01*
X30717926Y-66715690D01*
X30870801Y-66826760D01*
X31039168Y-66912547D01*
X31218882Y-66970940D01*
X31288870Y-66982025D01*
X31405513Y-67000500D01*
X31405518Y-67000500D01*
X64094486Y-67000500D01*
X64281118Y-66970940D01*
X64460832Y-66912547D01*
X64629199Y-66826760D01*
X64782074Y-66715690D01*
X68315690Y-63182074D01*
X68426760Y-63029199D01*
X68512547Y-62860832D01*
X68570940Y-62681118D01*
X68584077Y-62598168D01*
X68600500Y-62494487D01*
X68600500Y-46748626D01*
X68620185Y-46681587D01*
X68636819Y-46660945D01*
X70460945Y-44836819D01*
X70522268Y-44803334D01*
X70548626Y-44800500D01*
X70914477Y-44800500D01*
X70981516Y-44820185D01*
X71027271Y-44872989D01*
X71037215Y-44942147D01*
X71008190Y-45005703D01*
X71002158Y-45012181D01*
X70982684Y-45031654D01*
X70890643Y-45180875D01*
X70890641Y-45180880D01*
X70835494Y-45347302D01*
X70835493Y-45347309D01*
X70825000Y-45450013D01*
X70825000Y-45850000D01*
X71895854Y-45850000D01*
X71857370Y-45916657D01*
X71825000Y-46037465D01*
X71825000Y-46162535D01*
X71857370Y-46283343D01*
X71895854Y-46350000D01*
X70825001Y-46350000D01*
X70825001Y-46749986D01*
X70835494Y-46852697D01*
X70890641Y-47019119D01*
X70890643Y-47019124D01*
X70982684Y-47168345D01*
X71106654Y-47292315D01*
X71255875Y-47384356D01*
X71255880Y-47384358D01*
X71422302Y-47439505D01*
X71422309Y-47439506D01*
X71525019Y-47449999D01*
X72049999Y-47449999D01*
X72050000Y-47449998D01*
X72050000Y-46504145D01*
X72116657Y-46542630D01*
X72237465Y-46575000D01*
X72362535Y-46575000D01*
X72483343Y-46542630D01*
X72550000Y-46504145D01*
X72550000Y-47449999D01*
X73074972Y-47449999D01*
X73074986Y-47449998D01*
X73177697Y-47439505D01*
X73344119Y-47384358D01*
X73344124Y-47384356D01*
X73493345Y-47292315D01*
X73617315Y-47168345D01*
X73709356Y-47019124D01*
X73709358Y-47019119D01*
X73764505Y-46852697D01*
X73764506Y-46852690D01*
X73774999Y-46749986D01*
X73775000Y-46749973D01*
X73775000Y-46350000D01*
X72704146Y-46350000D01*
X72742630Y-46283343D01*
X72775000Y-46162535D01*
X72775000Y-46037465D01*
X72742630Y-45916657D01*
X72704146Y-45850000D01*
X73774999Y-45850000D01*
X73774999Y-45450028D01*
X73774998Y-45450013D01*
X73764505Y-45347302D01*
X73709358Y-45180880D01*
X73709356Y-45180875D01*
X73617315Y-45031654D01*
X73597842Y-45012181D01*
X73564357Y-44950858D01*
X73569341Y-44881166D01*
X73611213Y-44825233D01*
X73676677Y-44800816D01*
X73685523Y-44800500D01*
X73994486Y-44800500D01*
X74181118Y-44770940D01*
X74360832Y-44712547D01*
X74529199Y-44626760D01*
X74682074Y-44515690D01*
X77096663Y-42101099D01*
X77128042Y-42078301D01*
X77229199Y-42026760D01*
X77382073Y-41915690D01*
X77515690Y-41782073D01*
X77626760Y-41629199D01*
X77712547Y-41460832D01*
X77770940Y-41281118D01*
X77789481Y-41164055D01*
X77800500Y-41094486D01*
X77800500Y-37405513D01*
X77770940Y-37218881D01*
X77718579Y-37057734D01*
X77712547Y-37039168D01*
X77712545Y-37039165D01*
X77712545Y-37039163D01*
X77666859Y-36949500D01*
X77626760Y-36870801D01*
X77515690Y-36717927D01*
X77382073Y-36584310D01*
X74882074Y-34084310D01*
X74729199Y-33973240D01*
X74686206Y-33951334D01*
X74560836Y-33887454D01*
X74381118Y-33829059D01*
X74194486Y-33799500D01*
X74194481Y-33799500D01*
X64197626Y-33799500D01*
X64130587Y-33779815D01*
X64084832Y-33727011D01*
X64074888Y-33657853D01*
X64103913Y-33594297D01*
X64109945Y-33587819D01*
X64920082Y-32777682D01*
X67110944Y-30586818D01*
X67172267Y-30553334D01*
X67198625Y-30550500D01*
X70839477Y-30550500D01*
X70906516Y-30570185D01*
X70952271Y-30622989D01*
X70962215Y-30692147D01*
X70933190Y-30755703D01*
X70927158Y-30762181D01*
X70907684Y-30781654D01*
X70815643Y-30930875D01*
X70815641Y-30930880D01*
X70760494Y-31097302D01*
X70760493Y-31097309D01*
X70750000Y-31200013D01*
X70750000Y-31600000D01*
X71816988Y-31600000D01*
X71784075Y-31657007D01*
X71750000Y-31784174D01*
X71750000Y-31915826D01*
X71784075Y-32042993D01*
X71816988Y-32100000D01*
X70750001Y-32100000D01*
X70750001Y-32499986D01*
X70760494Y-32602697D01*
X70815641Y-32769119D01*
X70815643Y-32769124D01*
X70907684Y-32918345D01*
X71031654Y-33042315D01*
X71180875Y-33134356D01*
X71180880Y-33134358D01*
X71347302Y-33189505D01*
X71347309Y-33189506D01*
X71450019Y-33199999D01*
X71999999Y-33199999D01*
X72000000Y-33199998D01*
X72000000Y-32283012D01*
X72057007Y-32315925D01*
X72184174Y-32350000D01*
X72315826Y-32350000D01*
X72442993Y-32315925D01*
X72500000Y-32283012D01*
X72500000Y-33199999D01*
X73049972Y-33199999D01*
X73049986Y-33199998D01*
X73152697Y-33189505D01*
X73319119Y-33134358D01*
X73319124Y-33134356D01*
X73468345Y-33042315D01*
X73592315Y-32918345D01*
X73684356Y-32769124D01*
X73684358Y-32769119D01*
X73739505Y-32602697D01*
X73739506Y-32602690D01*
X73749999Y-32499986D01*
X73750000Y-32499973D01*
X73750000Y-32100000D01*
X72683012Y-32100000D01*
X72715925Y-32042993D01*
X72750000Y-31915826D01*
X72750000Y-31784174D01*
X72715925Y-31657007D01*
X72683012Y-31600000D01*
X73749999Y-31600000D01*
X73749999Y-31200028D01*
X73749998Y-31200013D01*
X73739505Y-31097302D01*
X73684358Y-30930880D01*
X73684356Y-30930875D01*
X73592315Y-30781654D01*
X73535091Y-30724430D01*
X73501606Y-30663107D01*
X73506590Y-30593415D01*
X73535087Y-30549072D01*
X73658931Y-30425229D01*
X73811634Y-30215051D01*
X73929579Y-29983572D01*
X74009860Y-29736493D01*
X74046320Y-29506290D01*
X74050500Y-29479902D01*
X74050500Y-29220097D01*
X74022022Y-29040297D01*
X74009860Y-28963507D01*
X73929579Y-28716428D01*
X73929577Y-28716425D01*
X73929577Y-28716423D01*
X73886787Y-28632445D01*
X73811634Y-28484949D01*
X73658931Y-28274771D01*
X73475229Y-28091069D01*
X73449543Y-28072407D01*
X73265054Y-27938368D01*
X73265053Y-27938367D01*
X73265051Y-27938366D01*
X73192764Y-27901534D01*
X73033576Y-27820422D01*
X72786493Y-27740140D01*
X72529902Y-27699500D01*
X72529897Y-27699500D01*
X71970103Y-27699500D01*
X71970098Y-27699500D01*
X71713506Y-27740140D01*
X71466423Y-27820422D01*
X71234945Y-27938368D01*
X71024774Y-28091066D01*
X71024768Y-28091071D01*
X71002659Y-28113181D01*
X70941336Y-28146666D01*
X70914978Y-28149500D01*
X66555514Y-28149500D01*
X66368881Y-28179059D01*
X66189163Y-28237454D01*
X66020800Y-28323240D01*
X65962068Y-28365912D01*
X65867927Y-28434310D01*
X65867925Y-28434312D01*
X65867924Y-28434312D01*
X59484312Y-34817923D01*
X59484311Y-34817924D01*
X59414529Y-34913971D01*
X59359198Y-34956636D01*
X59289585Y-34962615D01*
X59227790Y-34930009D01*
X59226530Y-34928766D01*
X56132073Y-31834309D01*
X56127656Y-31831100D01*
X56119009Y-31824817D01*
X56076343Y-31769490D01*
X56070363Y-31699876D01*
X56102969Y-31638081D01*
X56163807Y-31603723D01*
X56191894Y-31600500D01*
X59225431Y-31600500D01*
X59292470Y-31620185D01*
X59300916Y-31626123D01*
X59397550Y-31700273D01*
X59528918Y-31776118D01*
X59601943Y-31818280D01*
X59601948Y-31818282D01*
X59601951Y-31818284D01*
X59820007Y-31908606D01*
X60047986Y-31969693D01*
X60281989Y-32000500D01*
X60281996Y-32000500D01*
X60518004Y-32000500D01*
X60518011Y-32000500D01*
X60752014Y-31969693D01*
X60979993Y-31908606D01*
X61198049Y-31818284D01*
X61402450Y-31700273D01*
X61589699Y-31556592D01*
X61756592Y-31389699D01*
X61900273Y-31202450D01*
X62018284Y-30998049D01*
X62108606Y-30779993D01*
X62169693Y-30552014D01*
X62200500Y-30318011D01*
X62200500Y-30081989D01*
X62169693Y-29847986D01*
X62108606Y-29620007D01*
X62018284Y-29401951D01*
X62018282Y-29401948D01*
X62018280Y-29401943D01*
X61948713Y-29281451D01*
X61900273Y-29197550D01*
X61822040Y-29095594D01*
X61756593Y-29010302D01*
X61756587Y-29010295D01*
X61589704Y-28843412D01*
X61589697Y-28843406D01*
X61402454Y-28699730D01*
X61402453Y-28699729D01*
X61402450Y-28699727D01*
X61307158Y-28644710D01*
X61198056Y-28581719D01*
X61198045Y-28581714D01*
X60979993Y-28491394D01*
X60752010Y-28430306D01*
X60518020Y-28399501D01*
X60518017Y-28399500D01*
X60518011Y-28399500D01*
X60281989Y-28399500D01*
X60281983Y-28399500D01*
X60281979Y-28399501D01*
X60047989Y-28430306D01*
X59820006Y-28491394D01*
X59601954Y-28581714D01*
X59601943Y-28581719D01*
X59397545Y-28699730D01*
X59210302Y-28843406D01*
X59210295Y-28843412D01*
X59043412Y-29010295D01*
X59043406Y-29010302D01*
X58899730Y-29197545D01*
X58899727Y-29197549D01*
X58899727Y-29197550D01*
X58886706Y-29220103D01*
X58781717Y-29401948D01*
X58781708Y-29401965D01*
X58773015Y-29422954D01*
X58729174Y-29477357D01*
X58662879Y-29499421D01*
X58658455Y-29499500D01*
X53412947Y-29499500D01*
X53378835Y-29494716D01*
X53327045Y-29479897D01*
X53256052Y-29459583D01*
X53256051Y-29459582D01*
X53256048Y-29459582D01*
X53167162Y-29451680D01*
X53142638Y-29449500D01*
X53142636Y-29449500D01*
X52281322Y-29449500D01*
X52214283Y-29429815D01*
X52168528Y-29377011D01*
X52157809Y-29336479D01*
X52153812Y-29291523D01*
X52152917Y-29281448D01*
X52099737Y-29095594D01*
X52010234Y-28924249D01*
X51940701Y-28838974D01*
X51888071Y-28774428D01*
X51796200Y-28699518D01*
X51738251Y-28652266D01*
X51621013Y-28591026D01*
X51566905Y-28562762D01*
X51412345Y-28518537D01*
X51381052Y-28509583D01*
X51381051Y-28509582D01*
X51381048Y-28509582D01*
X51292162Y-28501680D01*
X51267638Y-28499500D01*
X49982362Y-28499500D01*
X49970099Y-28500590D01*
X49868951Y-28509582D01*
X49746165Y-28544716D01*
X49712053Y-28549500D01*
X48137303Y-28549500D01*
X48070264Y-28529815D01*
X48041450Y-28504165D01*
X47958910Y-28403590D01*
X47957165Y-28402158D01*
X47798950Y-28272315D01*
X47616454Y-28174768D01*
X47418434Y-28114700D01*
X47418432Y-28114699D01*
X47418434Y-28114699D01*
X47299305Y-28102966D01*
X47264108Y-28099500D01*
X46460892Y-28099500D01*
X46422798Y-28103251D01*
X46306567Y-28114699D01*
X46108541Y-28174769D01*
X46095450Y-28181767D01*
X46027047Y-28196007D01*
X45961803Y-28171005D01*
X45920435Y-28114698D01*
X45913000Y-28072407D01*
X45913000Y-22781106D01*
X45918348Y-22762890D01*
X45918711Y-22743908D01*
X45930107Y-22722844D01*
X45932685Y-22714067D01*
X45933983Y-22712089D01*
X45937762Y-22706447D01*
X45938301Y-22705909D01*
X45945937Y-22694482D01*
X46005100Y-22605938D01*
X46032000Y-22583511D01*
X46058625Y-22561261D01*
X46058703Y-22561250D01*
X46058766Y-22561199D01*
X46073111Y-22559415D01*
X46127511Y-22552483D01*
X46317029Y-22582500D01*
X46317030Y-22582500D01*
X46562970Y-22582500D01*
X46562971Y-22582500D01*
X46805886Y-22544026D01*
X47039792Y-22468026D01*
X47258929Y-22356370D01*
X47457901Y-22211809D01*
X47622319Y-22047391D01*
X47683642Y-22013906D01*
X47753334Y-22018890D01*
X47797681Y-22047391D01*
X47962100Y-22211810D01*
X47962105Y-22211814D01*
X48103903Y-22314835D01*
X48161071Y-22356370D01*
X48304322Y-22429360D01*
X48380207Y-22468026D01*
X48380210Y-22468027D01*
X48461629Y-22494481D01*
X48614114Y-22544026D01*
X48857029Y-22582500D01*
X48857030Y-22582500D01*
X49102970Y-22582500D01*
X49102971Y-22582500D01*
X49345886Y-22544026D01*
X49579792Y-22468026D01*
X49798929Y-22356370D01*
X49997901Y-22211809D01*
X50162319Y-22047391D01*
X50223642Y-22013906D01*
X50293334Y-22018890D01*
X50337681Y-22047391D01*
X50502100Y-22211810D01*
X50502105Y-22211814D01*
X50643903Y-22314835D01*
X50701071Y-22356370D01*
X50844322Y-22429360D01*
X50920207Y-22468026D01*
X50920210Y-22468027D01*
X51001629Y-22494481D01*
X51154114Y-22544026D01*
X51397029Y-22582500D01*
X51397030Y-22582500D01*
X51642970Y-22582500D01*
X51642971Y-22582500D01*
X51885886Y-22544026D01*
X52119792Y-22468026D01*
X52338929Y-22356370D01*
X52537901Y-22211809D01*
X52702319Y-22047391D01*
X52763642Y-22013906D01*
X52833334Y-22018890D01*
X52877681Y-22047391D01*
X53042100Y-22211810D01*
X53042105Y-22211814D01*
X53183903Y-22314835D01*
X53241071Y-22356370D01*
X53384322Y-22429360D01*
X53460207Y-22468026D01*
X53460210Y-22468027D01*
X53541629Y-22494481D01*
X53694114Y-22544026D01*
X53937029Y-22582500D01*
X53937030Y-22582500D01*
X54182970Y-22582500D01*
X54182971Y-22582500D01*
X54425886Y-22544026D01*
X54659792Y-22468026D01*
X54878929Y-22356370D01*
X55077901Y-22211809D01*
X55251809Y-22037901D01*
X55251811Y-22037897D01*
X55251814Y-22037895D01*
X55277938Y-22001936D01*
X55396370Y-21838929D01*
X55426511Y-21779773D01*
X55430145Y-21774210D01*
X55451853Y-21755677D01*
X55471452Y-21734926D01*
X55478086Y-21733282D01*
X55483285Y-21728845D01*
X55511570Y-21724990D01*
X55539273Y-21718130D01*
X55543693Y-21718398D01*
X55547731Y-21718715D01*
X56110504Y-21155941D01*
X56126619Y-21216081D01*
X56193498Y-21331920D01*
X56288080Y-21426502D01*
X56403919Y-21493381D01*
X56464057Y-21509494D01*
X55901283Y-22072268D01*
X55901283Y-22072269D01*
X55938567Y-22099358D01*
X56115562Y-22189542D01*
X56304477Y-22250924D01*
X56500679Y-22282000D01*
X56699321Y-22282000D01*
X56895520Y-22250924D01*
X56895523Y-22250924D01*
X57084437Y-22189542D01*
X57261425Y-22099362D01*
X57298716Y-22072268D01*
X56735942Y-21509494D01*
X56796081Y-21493381D01*
X56911920Y-21426502D01*
X57006502Y-21331920D01*
X57073381Y-21216081D01*
X57089495Y-21155942D01*
X57652268Y-21718715D01*
X57656307Y-21718398D01*
X57724684Y-21732763D01*
X57774440Y-21781815D01*
X57776519Y-21785721D01*
X57803632Y-21838932D01*
X57948185Y-22037894D01*
X57948189Y-22037899D01*
X58122100Y-22211810D01*
X58122105Y-22211814D01*
X58263903Y-22314835D01*
X58321071Y-22356370D01*
X58464322Y-22429360D01*
X58540207Y-22468026D01*
X58540210Y-22468027D01*
X58621629Y-22494481D01*
X58774114Y-22544026D01*
X59017029Y-22582500D01*
X59017030Y-22582500D01*
X59262970Y-22582500D01*
X59262971Y-22582500D01*
X59505886Y-22544026D01*
X59739792Y-22468026D01*
X59958929Y-22356370D01*
X60157901Y-22211809D01*
X60322319Y-22047391D01*
X60383642Y-22013906D01*
X60453334Y-22018890D01*
X60497681Y-22047391D01*
X60662100Y-22211810D01*
X60662105Y-22211814D01*
X60803903Y-22314835D01*
X60861071Y-22356370D01*
X61004322Y-22429360D01*
X61080207Y-22468026D01*
X61080210Y-22468027D01*
X61161629Y-22494481D01*
X61314114Y-22544026D01*
X61557029Y-22582500D01*
X61557030Y-22582500D01*
X61802970Y-22582500D01*
X61802971Y-22582500D01*
X62045886Y-22544026D01*
X62279792Y-22468026D01*
X62498929Y-22356370D01*
X62697901Y-22211809D01*
X62862319Y-22047391D01*
X62923642Y-22013906D01*
X62993334Y-22018890D01*
X63037681Y-22047391D01*
X63202100Y-22211810D01*
X63202105Y-22211814D01*
X63343903Y-22314835D01*
X63401071Y-22356370D01*
X63544322Y-22429360D01*
X63620207Y-22468026D01*
X63620210Y-22468027D01*
X63701629Y-22494481D01*
X63854114Y-22544026D01*
X64097029Y-22582500D01*
X64097030Y-22582500D01*
X64342970Y-22582500D01*
X64342971Y-22582500D01*
X64585886Y-22544026D01*
X64819792Y-22468026D01*
X65038929Y-22356370D01*
X65237901Y-22211809D01*
X65402319Y-22047391D01*
X65463642Y-22013906D01*
X65533334Y-22018890D01*
X65577681Y-22047391D01*
X65742100Y-22211810D01*
X65742105Y-22211814D01*
X65883903Y-22314835D01*
X65941071Y-22356370D01*
X66084322Y-22429360D01*
X66160207Y-22468026D01*
X66160210Y-22468027D01*
X66241629Y-22494481D01*
X66394114Y-22544026D01*
X66637029Y-22582500D01*
X66637030Y-22582500D01*
X66882970Y-22582500D01*
X66882971Y-22582500D01*
X67125886Y-22544026D01*
X67359792Y-22468026D01*
X67578929Y-22356370D01*
X67777901Y-22211809D01*
X67942319Y-22047391D01*
X68003642Y-22013906D01*
X68073334Y-22018890D01*
X68117681Y-22047391D01*
X68282100Y-22211810D01*
X68282105Y-22211814D01*
X68423903Y-22314835D01*
X68481071Y-22356370D01*
X68624322Y-22429360D01*
X68700207Y-22468026D01*
X68700210Y-22468027D01*
X68781629Y-22494481D01*
X68934114Y-22544026D01*
X69177029Y-22582500D01*
X69177030Y-22582500D01*
X69422970Y-22582500D01*
X69422971Y-22582500D01*
X69665886Y-22544026D01*
X69899792Y-22468026D01*
X70118929Y-22356370D01*
X70317901Y-22211809D01*
X70482319Y-22047391D01*
X70543642Y-22013906D01*
X70613334Y-22018890D01*
X70657681Y-22047391D01*
X70822100Y-22211810D01*
X70822105Y-22211814D01*
X70963903Y-22314835D01*
X71021071Y-22356370D01*
X71164322Y-22429360D01*
X71240207Y-22468026D01*
X71240210Y-22468027D01*
X71321629Y-22494481D01*
X71474114Y-22544026D01*
X71717029Y-22582500D01*
X71717030Y-22582500D01*
X71962970Y-22582500D01*
X71962971Y-22582500D01*
X72205886Y-22544026D01*
X72439792Y-22468026D01*
X72658929Y-22356370D01*
X72857901Y-22211809D01*
X73031809Y-22037901D01*
X73031811Y-22037897D01*
X73031814Y-22037895D01*
X73057938Y-22001936D01*
X73176370Y-21838929D01*
X73206511Y-21779773D01*
X73210145Y-21774210D01*
X73231853Y-21755677D01*
X73251452Y-21734926D01*
X73258086Y-21733282D01*
X73263285Y-21728845D01*
X73291570Y-21724990D01*
X73319273Y-21718130D01*
X73323693Y-21718398D01*
X73327731Y-21718715D01*
X73890504Y-21155941D01*
X73906619Y-21216081D01*
X73973498Y-21331920D01*
X74068080Y-21426502D01*
X74183919Y-21493381D01*
X74244057Y-21509494D01*
X73681283Y-22072268D01*
X73681283Y-22072269D01*
X73718567Y-22099358D01*
X73895562Y-22189542D01*
X74084477Y-22250924D01*
X74280679Y-22282000D01*
X74479321Y-22282000D01*
X74675520Y-22250924D01*
X74675523Y-22250924D01*
X74864437Y-22189542D01*
X75041425Y-22099362D01*
X75078716Y-22072268D01*
X74515942Y-21509494D01*
X74576081Y-21493381D01*
X74691920Y-21426502D01*
X74786502Y-21331920D01*
X74853381Y-21216081D01*
X74869495Y-21155941D01*
X75432268Y-21718715D01*
G37*
%TD.AperFunction*%
%TA.AperFunction,Conductor*%
G36*
X24492539Y-37020185D02*
G01*
X24538294Y-37072989D01*
X24549500Y-37124500D01*
X24549500Y-37851608D01*
X24551818Y-37875138D01*
X24564699Y-38005932D01*
X24577650Y-38048625D01*
X24624768Y-38203954D01*
X24722315Y-38386450D01*
X24722317Y-38386452D01*
X24722319Y-38386456D01*
X24725702Y-38391520D01*
X24724378Y-38392404D01*
X24748666Y-38449583D01*
X24749500Y-38463943D01*
X24749500Y-39186056D01*
X24729815Y-39253095D01*
X24723529Y-39261730D01*
X24722312Y-39263552D01*
X24624769Y-39446041D01*
X24564699Y-39644067D01*
X24558864Y-39703319D01*
X24549500Y-39798392D01*
X24549500Y-40801608D01*
X24551178Y-40818642D01*
X24564699Y-40955932D01*
X24573461Y-40984815D01*
X24624768Y-41153954D01*
X24722315Y-41336450D01*
X24722317Y-41336452D01*
X24722319Y-41336456D01*
X24725702Y-41341520D01*
X24724378Y-41342404D01*
X24748666Y-41399583D01*
X24749500Y-41413943D01*
X24749500Y-42136056D01*
X24729815Y-42203095D01*
X24723529Y-42211730D01*
X24722312Y-42213552D01*
X24624769Y-42396041D01*
X24564699Y-42594067D01*
X24555811Y-42684312D01*
X24549500Y-42748392D01*
X24549500Y-43751608D01*
X24553997Y-43797263D01*
X24564699Y-43905932D01*
X24594734Y-44004944D01*
X24624768Y-44103954D01*
X24722315Y-44286450D01*
X24722317Y-44286452D01*
X24722319Y-44286456D01*
X24725702Y-44291520D01*
X24724378Y-44292404D01*
X24748666Y-44349583D01*
X24749500Y-44363943D01*
X24749500Y-45625172D01*
X24734858Y-45683625D01*
X24674769Y-45796041D01*
X24614699Y-45994067D01*
X24610049Y-46041283D01*
X24599500Y-46148392D01*
X24599500Y-47151608D01*
X24604502Y-47202398D01*
X24614699Y-47305932D01*
X24614700Y-47305934D01*
X24674768Y-47503954D01*
X24772315Y-47686450D01*
X24772317Y-47686452D01*
X24772319Y-47686456D01*
X24775702Y-47691520D01*
X24774378Y-47692404D01*
X24798666Y-47749583D01*
X24799500Y-47763943D01*
X24799500Y-48486056D01*
X24779815Y-48553095D01*
X24773529Y-48561730D01*
X24772312Y-48563552D01*
X24674769Y-48746041D01*
X24614699Y-48944067D01*
X24599500Y-49098393D01*
X24599500Y-50101604D01*
X24614699Y-50255932D01*
X24614700Y-50255934D01*
X24674768Y-50453954D01*
X24772315Y-50636450D01*
X24772317Y-50636452D01*
X24772319Y-50636456D01*
X24775702Y-50641520D01*
X24774378Y-50642404D01*
X24798666Y-50699583D01*
X24799500Y-50713943D01*
X24799500Y-51436056D01*
X24779815Y-51503095D01*
X24773529Y-51511730D01*
X24772312Y-51513552D01*
X24674769Y-51696041D01*
X24614699Y-51894067D01*
X24607252Y-51969685D01*
X24599500Y-52048392D01*
X24599500Y-53051608D01*
X24604502Y-53102398D01*
X24614699Y-53205932D01*
X24636582Y-53278069D01*
X24674768Y-53403954D01*
X24772315Y-53586450D01*
X24772317Y-53586452D01*
X24772319Y-53586456D01*
X24775702Y-53591520D01*
X24774378Y-53592404D01*
X24798666Y-53649583D01*
X24799500Y-53663943D01*
X24799500Y-54386056D01*
X24779815Y-54453095D01*
X24773529Y-54461730D01*
X24772312Y-54463552D01*
X24674769Y-54646041D01*
X24614699Y-54844067D01*
X24599500Y-54998395D01*
X24599500Y-56001604D01*
X24614699Y-56155932D01*
X24616718Y-56162587D01*
X24674768Y-56353954D01*
X24772315Y-56536450D01*
X24806969Y-56578677D01*
X24903589Y-56696410D01*
X25000000Y-56775531D01*
X25063550Y-56827685D01*
X25246046Y-56925232D01*
X25444066Y-56985300D01*
X25444065Y-56985300D01*
X25482647Y-56989100D01*
X25598392Y-57000500D01*
X25598395Y-57000500D01*
X26401605Y-57000500D01*
X26401608Y-57000500D01*
X26555934Y-56985300D01*
X26753954Y-56925232D01*
X26936450Y-56827685D01*
X26936453Y-56827681D01*
X26941546Y-56824960D01*
X27009949Y-56810718D01*
X27058454Y-56824960D01*
X27063546Y-56827681D01*
X27063550Y-56827685D01*
X27246046Y-56925232D01*
X27444066Y-56985300D01*
X27444065Y-56985300D01*
X27482647Y-56989100D01*
X27598392Y-57000500D01*
X27598395Y-57000500D01*
X28401605Y-57000500D01*
X28401608Y-57000500D01*
X28555934Y-56985300D01*
X28753954Y-56925232D01*
X28936450Y-56827685D01*
X29096410Y-56696410D01*
X29178950Y-56595835D01*
X29236695Y-56556501D01*
X29274803Y-56550500D01*
X32303466Y-56550500D01*
X32303467Y-56550499D01*
X32506420Y-56510130D01*
X32697598Y-56430941D01*
X32711281Y-56421798D01*
X32720424Y-56415690D01*
X32819239Y-56349663D01*
X32869655Y-56315977D01*
X33015977Y-56169655D01*
X33015978Y-56169653D01*
X33023044Y-56162587D01*
X33023047Y-56162583D01*
X34219651Y-54965979D01*
X34219655Y-54965977D01*
X34365977Y-54819655D01*
X34480941Y-54647598D01*
X34560130Y-54456420D01*
X34600500Y-54253465D01*
X34600500Y-53466257D01*
X34620185Y-53399218D01*
X34628647Y-53387592D01*
X34720947Y-53275123D01*
X34752685Y-53236450D01*
X34850232Y-53053954D01*
X34910300Y-52855934D01*
X34925500Y-52701608D01*
X34925500Y-51698392D01*
X34910300Y-51544066D01*
X34850232Y-51346046D01*
X34752685Y-51163550D01*
X34698892Y-51098003D01*
X34621410Y-51003589D01*
X34461452Y-50872317D01*
X34461453Y-50872317D01*
X34461450Y-50872315D01*
X34278954Y-50774768D01*
X34080934Y-50714700D01*
X34080932Y-50714699D01*
X34080934Y-50714699D01*
X33961805Y-50702966D01*
X33926608Y-50699500D01*
X33173392Y-50699500D01*
X33135298Y-50703251D01*
X33019067Y-50714699D01*
X32821043Y-50774769D01*
X32710898Y-50833643D01*
X32638550Y-50872315D01*
X32638548Y-50872316D01*
X32638547Y-50872317D01*
X32478589Y-51003590D01*
X32401106Y-51098003D01*
X32343360Y-51137337D01*
X32273515Y-51139208D01*
X32240156Y-51124877D01*
X32144124Y-51065643D01*
X32144119Y-51065641D01*
X31977697Y-51010494D01*
X31977690Y-51010493D01*
X31874986Y-51000000D01*
X31684992Y-51000000D01*
X31617953Y-50980315D01*
X31572198Y-50927511D01*
X31562254Y-50858353D01*
X31591279Y-50794797D01*
X31597297Y-50788333D01*
X33098812Y-49286819D01*
X33160135Y-49253334D01*
X33186493Y-49250500D01*
X35680583Y-49250500D01*
X35747622Y-49270185D01*
X35776683Y-49296137D01*
X35788891Y-49311109D01*
X35946593Y-49439698D01*
X36126951Y-49533909D01*
X36322582Y-49589886D01*
X36441963Y-49600500D01*
X36958036Y-49600499D01*
X37077418Y-49589886D01*
X37273049Y-49533909D01*
X37442592Y-49445347D01*
X37511123Y-49431757D01*
X37557406Y-49445346D01*
X37726951Y-49533909D01*
X37922582Y-49589886D01*
X38041963Y-49600500D01*
X38558036Y-49600499D01*
X38677418Y-49589886D01*
X38873049Y-49533909D01*
X39053407Y-49439698D01*
X39211109Y-49311109D01*
X39223315Y-49296138D01*
X39280937Y-49256622D01*
X39319417Y-49250500D01*
X48608588Y-49250500D01*
X48608589Y-49250499D01*
X48811542Y-49210130D01*
X49002720Y-49130941D01*
X49051433Y-49098392D01*
X49174777Y-49015977D01*
X49321099Y-48869655D01*
X49321099Y-48869653D01*
X49331307Y-48859446D01*
X49331308Y-48859443D01*
X53948935Y-44241819D01*
X54010258Y-44208334D01*
X54036616Y-44205500D01*
X55145079Y-44205500D01*
X55145080Y-44205499D01*
X55212226Y-44197934D01*
X55279371Y-44190369D01*
X55279374Y-44190368D01*
X55279377Y-44190368D01*
X55449644Y-44130789D01*
X55602384Y-44034816D01*
X55729938Y-43907262D01*
X55825911Y-43754522D01*
X55885490Y-43584255D01*
X55900622Y-43449954D01*
X55900622Y-42242399D01*
X55920307Y-42175360D01*
X55973111Y-42129605D01*
X56042269Y-42119661D01*
X56080915Y-42131913D01*
X56099544Y-42141405D01*
X56239163Y-42212545D01*
X56239165Y-42212545D01*
X56239168Y-42212547D01*
X56331042Y-42242399D01*
X56418881Y-42270940D01*
X56605514Y-42300500D01*
X56605519Y-42300500D01*
X69389586Y-42300500D01*
X69456625Y-42320185D01*
X69502380Y-42372989D01*
X69512324Y-42442147D01*
X69483299Y-42505703D01*
X69445881Y-42534985D01*
X69370800Y-42573240D01*
X69217923Y-42684312D01*
X66484308Y-45417927D01*
X66484304Y-45417932D01*
X66397469Y-45537452D01*
X66397469Y-45537453D01*
X66373240Y-45570800D01*
X66287454Y-45739163D01*
X66229059Y-45918881D01*
X66199500Y-46105513D01*
X66199500Y-61851374D01*
X66179815Y-61918413D01*
X66163181Y-61939055D01*
X63539055Y-64563181D01*
X63477732Y-64596666D01*
X63451374Y-64599500D01*
X54690319Y-64599500D01*
X54623280Y-64579815D01*
X54577525Y-64527011D01*
X54567581Y-64457853D01*
X54596606Y-64394297D01*
X54652000Y-64357569D01*
X54799153Y-64309755D01*
X54981471Y-64216859D01*
X55147016Y-64096582D01*
X55147017Y-64096582D01*
X55291704Y-63951895D01*
X55291704Y-63951894D01*
X55411981Y-63786349D01*
X55504877Y-63604029D01*
X55568112Y-63409413D01*
X55576731Y-63355000D01*
X54446532Y-63355000D01*
X54496159Y-63269044D01*
X54525122Y-63160952D01*
X54525122Y-63049048D01*
X54496159Y-62940956D01*
X54446532Y-62855000D01*
X55576731Y-62855000D01*
X55568112Y-62800586D01*
X55504877Y-62605970D01*
X55411981Y-62423650D01*
X55291704Y-62258105D01*
X55291704Y-62258104D01*
X55147017Y-62113417D01*
X54981471Y-61993140D01*
X54799153Y-61900244D01*
X54604539Y-61837009D01*
X54402439Y-61805000D01*
X54350122Y-61805000D01*
X54350122Y-62758590D01*
X54264166Y-62708963D01*
X54156074Y-62680000D01*
X54044170Y-62680000D01*
X53936078Y-62708963D01*
X53850122Y-62758590D01*
X53850122Y-61805000D01*
X53797805Y-61805000D01*
X53595704Y-61837009D01*
X53401090Y-61900244D01*
X53218772Y-61993140D01*
X53053227Y-62113417D01*
X53053226Y-62113417D01*
X52908539Y-62258104D01*
X52908539Y-62258105D01*
X52788262Y-62423650D01*
X52695366Y-62605970D01*
X52632131Y-62800586D01*
X52623513Y-62855000D01*
X53753712Y-62855000D01*
X53704085Y-62940956D01*
X53675122Y-63049048D01*
X53675122Y-63160952D01*
X53704085Y-63269044D01*
X53753712Y-63355000D01*
X52623513Y-63355000D01*
X52632131Y-63409413D01*
X52695366Y-63604029D01*
X52788262Y-63786349D01*
X52908539Y-63951894D01*
X52908539Y-63951895D01*
X53053226Y-64096582D01*
X53218772Y-64216859D01*
X53401090Y-64309755D01*
X53548244Y-64357569D01*
X53605919Y-64397007D01*
X53633117Y-64461366D01*
X53621202Y-64530212D01*
X53573958Y-64581688D01*
X53509925Y-64599500D01*
X32048626Y-64599500D01*
X31981587Y-64579815D01*
X31960945Y-64563181D01*
X20936819Y-53539055D01*
X20903334Y-53477732D01*
X20900500Y-53451374D01*
X20900500Y-44624500D01*
X20920185Y-44557461D01*
X20972989Y-44511706D01*
X21024500Y-44500500D01*
X21294486Y-44500500D01*
X21481118Y-44470940D01*
X21660832Y-44412547D01*
X21829199Y-44326760D01*
X21982074Y-44215690D01*
X23790690Y-42407073D01*
X23901760Y-42254199D01*
X23987547Y-42085832D01*
X24045940Y-41906118D01*
X24075500Y-41719486D01*
X24075500Y-40619983D01*
X24090142Y-40561529D01*
X24090182Y-40561452D01*
X24090185Y-40561450D01*
X24187732Y-40378954D01*
X24247800Y-40180934D01*
X24263000Y-40026608D01*
X24263000Y-38973392D01*
X24247800Y-38819066D01*
X24187732Y-38621046D01*
X24187730Y-38621043D01*
X24187730Y-38621041D01*
X24090142Y-38438467D01*
X24075500Y-38380014D01*
X24075500Y-37124500D01*
X24078050Y-37115814D01*
X24076762Y-37106853D01*
X24087740Y-37082812D01*
X24095185Y-37057461D01*
X24102025Y-37051533D01*
X24105787Y-37043297D01*
X24128021Y-37029007D01*
X24147989Y-37011706D01*
X24158503Y-37009418D01*
X24164565Y-37005523D01*
X24199500Y-37000500D01*
X24425500Y-37000500D01*
X24492539Y-37020185D01*
G37*
%TD.AperFunction*%
%TA.AperFunction,Conductor*%
G36*
X31443039Y-51969685D02*
G01*
X31488794Y-52022489D01*
X31500000Y-52074000D01*
X31500000Y-52200000D01*
X31626000Y-52200000D01*
X31693039Y-52219685D01*
X31738794Y-52272489D01*
X31750000Y-52324000D01*
X31750000Y-53399999D01*
X31874972Y-53399999D01*
X31874986Y-53399998D01*
X31977697Y-53389505D01*
X32144119Y-53334358D01*
X32144130Y-53334353D01*
X32240157Y-53275123D01*
X32240671Y-53274982D01*
X32241032Y-53274588D01*
X32274356Y-53265764D01*
X32307549Y-53256682D01*
X32308057Y-53256841D01*
X32308574Y-53256705D01*
X32341349Y-53267290D01*
X32374213Y-53277604D01*
X32374725Y-53278069D01*
X32375063Y-53278178D01*
X32401106Y-53301995D01*
X32427664Y-53334356D01*
X32471354Y-53387593D01*
X32498666Y-53451903D01*
X32499500Y-53466257D01*
X32499500Y-53663507D01*
X32479815Y-53730546D01*
X32463181Y-53751188D01*
X31801188Y-54413181D01*
X31739865Y-54446666D01*
X31713507Y-54449500D01*
X29274803Y-54449500D01*
X29207764Y-54429815D01*
X29178950Y-54404165D01*
X29096410Y-54303590D01*
X28936452Y-54172317D01*
X28936453Y-54172317D01*
X28936450Y-54172315D01*
X28865435Y-54134356D01*
X28815593Y-54085395D01*
X28800133Y-54017258D01*
X28823965Y-53951578D01*
X28865435Y-53915643D01*
X28936450Y-53877685D01*
X29096410Y-53746410D01*
X29227685Y-53586450D01*
X29325232Y-53403954D01*
X29385300Y-53205934D01*
X29400500Y-53051608D01*
X29400500Y-53036493D01*
X29420185Y-52969454D01*
X29436819Y-52948812D01*
X29685645Y-52699986D01*
X30425001Y-52699986D01*
X30435494Y-52802697D01*
X30490641Y-52969119D01*
X30490643Y-52969124D01*
X30582684Y-53118345D01*
X30706654Y-53242315D01*
X30855875Y-53334356D01*
X30855880Y-53334358D01*
X31022302Y-53389505D01*
X31022309Y-53389506D01*
X31125019Y-53399999D01*
X31249999Y-53399999D01*
X31250000Y-53399998D01*
X31250000Y-52450000D01*
X30425001Y-52450000D01*
X30425001Y-52699986D01*
X29685645Y-52699986D01*
X30399312Y-51986319D01*
X30460635Y-51952834D01*
X30486993Y-51950000D01*
X31376000Y-51950000D01*
X31443039Y-51969685D01*
G37*
%TD.AperFunction*%
%TA.AperFunction,Conductor*%
G36*
X39009185Y-38873050D02*
G01*
X39018147Y-38871762D01*
X39042187Y-38882740D01*
X39067539Y-38890185D01*
X39073466Y-38897025D01*
X39081703Y-38900787D01*
X39095992Y-38923021D01*
X39113294Y-38942989D01*
X39115581Y-38953503D01*
X39119477Y-38959565D01*
X39124500Y-38994500D01*
X39124500Y-39145136D01*
X39134582Y-39258548D01*
X39187762Y-39444405D01*
X39230273Y-39525788D01*
X39277266Y-39615751D01*
X39399429Y-39765571D01*
X39403911Y-39769226D01*
X39443430Y-39826845D01*
X39445524Y-39896683D01*
X39444630Y-39899922D01*
X39427899Y-39957509D01*
X39427704Y-39959999D01*
X39427705Y-39960000D01*
X39657161Y-39960000D01*
X39714567Y-39974089D01*
X39720594Y-39977237D01*
X39906448Y-40030417D01*
X40019862Y-40040500D01*
X40019870Y-40040500D01*
X41880130Y-40040500D01*
X41880138Y-40040500D01*
X41993552Y-40030417D01*
X42116335Y-39995284D01*
X42150447Y-39990500D01*
X49948629Y-39990500D01*
X50015668Y-40010185D01*
X50036310Y-40026819D01*
X52263303Y-42253812D01*
X52296788Y-42315135D01*
X52299622Y-42341493D01*
X52299622Y-42868506D01*
X52279937Y-42935545D01*
X52263303Y-42956187D01*
X48106310Y-47113181D01*
X48044987Y-47146666D01*
X48018629Y-47149500D01*
X39319417Y-47149500D01*
X39252378Y-47129815D01*
X39223315Y-47103861D01*
X39211109Y-47088891D01*
X39053407Y-46960302D01*
X38873049Y-46866091D01*
X38873048Y-46866090D01*
X38873045Y-46866089D01*
X38755829Y-46832550D01*
X38677418Y-46810114D01*
X38677415Y-46810113D01*
X38677413Y-46810113D01*
X38611102Y-46804217D01*
X38558037Y-46799500D01*
X38558032Y-46799500D01*
X38041971Y-46799500D01*
X38041965Y-46799500D01*
X38041964Y-46799501D01*
X38030316Y-46800536D01*
X37922584Y-46810113D01*
X37726952Y-46866090D01*
X37557411Y-46954651D01*
X37488876Y-46968242D01*
X37442589Y-46954651D01*
X37273047Y-46866090D01*
X37189370Y-46842147D01*
X37077418Y-46810114D01*
X37077415Y-46810113D01*
X37077413Y-46810113D01*
X37011102Y-46804217D01*
X36958037Y-46799500D01*
X36958032Y-46799500D01*
X36441971Y-46799500D01*
X36441965Y-46799500D01*
X36441964Y-46799501D01*
X36430316Y-46800536D01*
X36322584Y-46810113D01*
X36126954Y-46866089D01*
X36036772Y-46913196D01*
X35946593Y-46960302D01*
X35946591Y-46960303D01*
X35946590Y-46960304D01*
X35788893Y-47088889D01*
X35776685Y-47103861D01*
X35719063Y-47143378D01*
X35680583Y-47149500D01*
X34335493Y-47149500D01*
X34314247Y-47143261D01*
X34292160Y-47141682D01*
X34281376Y-47133609D01*
X34268454Y-47129815D01*
X34253955Y-47113083D01*
X34236226Y-47099811D01*
X34231518Y-47087188D01*
X34222699Y-47077011D01*
X34219547Y-47055095D01*
X34211809Y-47034347D01*
X34214672Y-47021185D01*
X34212755Y-47007853D01*
X34221954Y-46987708D01*
X34226661Y-46966074D01*
X34239930Y-46948346D01*
X34241780Y-46944297D01*
X34247792Y-46937839D01*
X34371931Y-46813699D01*
X34403307Y-46790904D01*
X34529199Y-46726760D01*
X34682073Y-46615690D01*
X34815690Y-46482073D01*
X34926760Y-46329199D01*
X35012547Y-46160832D01*
X35070940Y-45981118D01*
X35074651Y-45957685D01*
X35100500Y-45794486D01*
X35100500Y-45540001D01*
X39427704Y-45540001D01*
X39427899Y-45542486D01*
X39473718Y-45700198D01*
X39557314Y-45841552D01*
X39557321Y-45841561D01*
X39673438Y-45957678D01*
X39673447Y-45957685D01*
X39814803Y-46041282D01*
X39814806Y-46041283D01*
X39972504Y-46087099D01*
X39972510Y-46087100D01*
X40009350Y-46089999D01*
X40009366Y-46090000D01*
X40700000Y-46090000D01*
X41200000Y-46090000D01*
X41890634Y-46090000D01*
X41890649Y-46089999D01*
X41927489Y-46087100D01*
X41927495Y-46087099D01*
X42085193Y-46041283D01*
X42085196Y-46041282D01*
X42226552Y-45957685D01*
X42226561Y-45957678D01*
X42342678Y-45841561D01*
X42342685Y-45841552D01*
X42426281Y-45700198D01*
X42472100Y-45542486D01*
X42472295Y-45540001D01*
X42472295Y-45540000D01*
X41200000Y-45540000D01*
X41200000Y-46090000D01*
X40700000Y-46090000D01*
X40700000Y-45540000D01*
X39427705Y-45540000D01*
X39427704Y-45540001D01*
X35100500Y-45540001D01*
X35100500Y-44270001D01*
X39427704Y-44270001D01*
X39427899Y-44272486D01*
X39473718Y-44430198D01*
X39557314Y-44571552D01*
X39562100Y-44577722D01*
X39559753Y-44579542D01*
X39586564Y-44628642D01*
X39581580Y-44698334D01*
X39560541Y-44731069D01*
X39562100Y-44732278D01*
X39557314Y-44738447D01*
X39473718Y-44879801D01*
X39427899Y-45037513D01*
X39427704Y-45039998D01*
X39427705Y-45040000D01*
X40700000Y-45040000D01*
X41200000Y-45040000D01*
X42472295Y-45040000D01*
X42472295Y-45039998D01*
X42472100Y-45037513D01*
X42426281Y-44879801D01*
X42342685Y-44738447D01*
X42337900Y-44732278D01*
X42340252Y-44730453D01*
X42313445Y-44681405D01*
X42318402Y-44611712D01*
X42339465Y-44578936D01*
X42337900Y-44577722D01*
X42342685Y-44571552D01*
X42426281Y-44430198D01*
X42472100Y-44272486D01*
X42472295Y-44270001D01*
X42472295Y-44270000D01*
X41200000Y-44270000D01*
X41200000Y-45040000D01*
X40700000Y-45040000D01*
X40700000Y-44270000D01*
X39427705Y-44270000D01*
X39427704Y-44270001D01*
X35100500Y-44270001D01*
X35100500Y-43000001D01*
X39427704Y-43000001D01*
X39427899Y-43002486D01*
X39473718Y-43160198D01*
X39557314Y-43301552D01*
X39562100Y-43307722D01*
X39559753Y-43309542D01*
X39586564Y-43358642D01*
X39581580Y-43428334D01*
X39560541Y-43461069D01*
X39562100Y-43462278D01*
X39557314Y-43468447D01*
X39473718Y-43609801D01*
X39427899Y-43767513D01*
X39427704Y-43769998D01*
X39427705Y-43770000D01*
X40700000Y-43770000D01*
X41200000Y-43770000D01*
X42472295Y-43770000D01*
X42472295Y-43769998D01*
X42472100Y-43767513D01*
X42426281Y-43609801D01*
X42342685Y-43468447D01*
X42337900Y-43462278D01*
X42340252Y-43460453D01*
X42313445Y-43411405D01*
X42318402Y-43341712D01*
X42339465Y-43308936D01*
X42337900Y-43307722D01*
X42342685Y-43301552D01*
X42426281Y-43160198D01*
X42472100Y-43002486D01*
X42472295Y-43000001D01*
X42472295Y-43000000D01*
X41200000Y-43000000D01*
X41200000Y-43770000D01*
X40700000Y-43770000D01*
X40700000Y-43000000D01*
X39427705Y-43000000D01*
X39427704Y-43000001D01*
X35100500Y-43000001D01*
X35100500Y-41730001D01*
X39427704Y-41730001D01*
X39427899Y-41732486D01*
X39473718Y-41890198D01*
X39557314Y-42031552D01*
X39562100Y-42037722D01*
X39559753Y-42039542D01*
X39586564Y-42088642D01*
X39581580Y-42158334D01*
X39560541Y-42191069D01*
X39562100Y-42192278D01*
X39557314Y-42198447D01*
X39473718Y-42339801D01*
X39427899Y-42497513D01*
X39427704Y-42499998D01*
X39427705Y-42500000D01*
X40700000Y-42500000D01*
X41200000Y-42500000D01*
X42472295Y-42500000D01*
X42472295Y-42499998D01*
X42472100Y-42497513D01*
X42426281Y-42339801D01*
X42342685Y-42198447D01*
X42337900Y-42192278D01*
X42340252Y-42190453D01*
X42313445Y-42141405D01*
X42318402Y-42071712D01*
X42339465Y-42038936D01*
X42337900Y-42037722D01*
X42342685Y-42031552D01*
X42426281Y-41890198D01*
X42472100Y-41732486D01*
X42472295Y-41730001D01*
X42472295Y-41730000D01*
X41200000Y-41730000D01*
X41200000Y-42500000D01*
X40700000Y-42500000D01*
X40700000Y-41730000D01*
X39427705Y-41730000D01*
X39427704Y-41730001D01*
X35100500Y-41730001D01*
X35100500Y-40748626D01*
X35120185Y-40681587D01*
X35136819Y-40660945D01*
X35337763Y-40460001D01*
X39427704Y-40460001D01*
X39427899Y-40462486D01*
X39473718Y-40620198D01*
X39557314Y-40761552D01*
X39562100Y-40767722D01*
X39559753Y-40769542D01*
X39586564Y-40818642D01*
X39581580Y-40888334D01*
X39560541Y-40921069D01*
X39562100Y-40922278D01*
X39557314Y-40928447D01*
X39473718Y-41069801D01*
X39427899Y-41227513D01*
X39427704Y-41229998D01*
X39427705Y-41230000D01*
X40700000Y-41230000D01*
X41200000Y-41230000D01*
X42472295Y-41230000D01*
X42472295Y-41229998D01*
X42472100Y-41227513D01*
X42426281Y-41069801D01*
X42342685Y-40928447D01*
X42337900Y-40922278D01*
X42340252Y-40920453D01*
X42313445Y-40871405D01*
X42318402Y-40801712D01*
X42339465Y-40768936D01*
X42337900Y-40767722D01*
X42342685Y-40761552D01*
X42426281Y-40620198D01*
X42472100Y-40462486D01*
X42472295Y-40460001D01*
X42472295Y-40460000D01*
X41200000Y-40460000D01*
X41200000Y-41230000D01*
X40700000Y-41230000D01*
X40700000Y-40460000D01*
X39427705Y-40460000D01*
X39427704Y-40460001D01*
X35337763Y-40460001D01*
X36890945Y-38906819D01*
X36952268Y-38873334D01*
X36978626Y-38870500D01*
X39000500Y-38870500D01*
X39009185Y-38873050D01*
G37*
%TD.AperFunction*%
%TA.AperFunction,Conductor*%
G36*
X31843039Y-41499685D02*
G01*
X31888794Y-41552489D01*
X31900000Y-41604000D01*
X31900000Y-46090000D01*
X31924503Y-46114503D01*
X31957988Y-46175826D01*
X31953004Y-46245518D01*
X31924505Y-46289863D01*
X31901190Y-46313179D01*
X31839868Y-46346666D01*
X31813507Y-46349500D01*
X31386494Y-46349500D01*
X31357053Y-46340855D01*
X31327067Y-46334332D01*
X31322051Y-46330577D01*
X31319455Y-46329815D01*
X31298813Y-46313181D01*
X31287313Y-46301681D01*
X31253828Y-46240358D01*
X31258812Y-46170666D01*
X31300684Y-46114733D01*
X31366148Y-46090316D01*
X31374994Y-46090000D01*
X31400000Y-46090000D01*
X31400000Y-41604000D01*
X31419685Y-41536961D01*
X31472489Y-41491206D01*
X31524000Y-41480000D01*
X31776000Y-41480000D01*
X31843039Y-41499685D01*
G37*
%TD.AperFunction*%
%TA.AperFunction,Conductor*%
G36*
X20592539Y-25169685D02*
G01*
X20638294Y-25222489D01*
X20649500Y-25274000D01*
X20649500Y-25944960D01*
X20664630Y-26079249D01*
X20664631Y-26079254D01*
X20724211Y-26249523D01*
X20816322Y-26396116D01*
X20820184Y-26402262D01*
X20947738Y-26529816D01*
X21100478Y-26625789D01*
X21270745Y-26685368D01*
X21270750Y-26685369D01*
X21361246Y-26695565D01*
X21405040Y-26700499D01*
X21405043Y-26700500D01*
X21405046Y-26700500D01*
X22225500Y-26700500D01*
X22234185Y-26703050D01*
X22243147Y-26701762D01*
X22267187Y-26712740D01*
X22292539Y-26720185D01*
X22298466Y-26727025D01*
X22306703Y-26730787D01*
X22320992Y-26753021D01*
X22338294Y-26772989D01*
X22340581Y-26783503D01*
X22344477Y-26789565D01*
X22349500Y-26824500D01*
X22349500Y-26904928D01*
X22329815Y-26971967D01*
X22313181Y-26992609D01*
X22192609Y-27113181D01*
X22131286Y-27146666D01*
X22104928Y-27149500D01*
X21405039Y-27149500D01*
X21270750Y-27164630D01*
X21270745Y-27164631D01*
X21100476Y-27224211D01*
X20947737Y-27320184D01*
X20820184Y-27447737D01*
X20724211Y-27600476D01*
X20664631Y-27770745D01*
X20664630Y-27770750D01*
X20649500Y-27905039D01*
X20649500Y-29494960D01*
X20664630Y-29629249D01*
X20664631Y-29629254D01*
X20724211Y-29799523D01*
X20787902Y-29900886D01*
X20820184Y-29952262D01*
X20947738Y-30079816D01*
X21100478Y-30175789D01*
X21212691Y-30215054D01*
X21270745Y-30235368D01*
X21270750Y-30235369D01*
X21361246Y-30245565D01*
X21405040Y-30250499D01*
X21405043Y-30250500D01*
X22305927Y-30250500D01*
X22372966Y-30270185D01*
X22418721Y-30322989D01*
X22428665Y-30392147D01*
X22399640Y-30455703D01*
X22393608Y-30462181D01*
X22192609Y-30663181D01*
X22131286Y-30696666D01*
X22104928Y-30699500D01*
X21405039Y-30699500D01*
X21270750Y-30714630D01*
X21270745Y-30714631D01*
X21100476Y-30774211D01*
X20947737Y-30870184D01*
X20820184Y-30997737D01*
X20724211Y-31150476D01*
X20664631Y-31320745D01*
X20664630Y-31320750D01*
X20649500Y-31455039D01*
X20649500Y-33044960D01*
X20664630Y-33179249D01*
X20664631Y-33179254D01*
X20724211Y-33349523D01*
X20787031Y-33449500D01*
X20820184Y-33502262D01*
X20947738Y-33629816D01*
X21100478Y-33725789D01*
X21270745Y-33785368D01*
X21270750Y-33785369D01*
X21361246Y-33795565D01*
X21405040Y-33800499D01*
X21405043Y-33800500D01*
X21405046Y-33800500D01*
X22494957Y-33800500D01*
X22494958Y-33800499D01*
X22562104Y-33792934D01*
X22629249Y-33785369D01*
X22629252Y-33785368D01*
X22629255Y-33785368D01*
X22799522Y-33725789D01*
X22952262Y-33629816D01*
X23079816Y-33502262D01*
X23175789Y-33349522D01*
X23235368Y-33179255D01*
X23236989Y-33164874D01*
X23250499Y-33044960D01*
X23250500Y-33044956D01*
X23250500Y-32345072D01*
X23270185Y-32278033D01*
X23286819Y-32257391D01*
X24337819Y-31206391D01*
X24399142Y-31172906D01*
X24468834Y-31177890D01*
X24524767Y-31219762D01*
X24549184Y-31285226D01*
X24549500Y-31294072D01*
X24549500Y-31951608D01*
X24550421Y-31960957D01*
X24564699Y-32105932D01*
X24587850Y-32182250D01*
X24624768Y-32303954D01*
X24722315Y-32486450D01*
X24722317Y-32486452D01*
X24722319Y-32486456D01*
X24725702Y-32491520D01*
X24724378Y-32492404D01*
X24748666Y-32549583D01*
X24749500Y-32563943D01*
X24749500Y-33286056D01*
X24729815Y-33353095D01*
X24723529Y-33361730D01*
X24722312Y-33363552D01*
X24624769Y-33546041D01*
X24564699Y-33744067D01*
X24553251Y-33860298D01*
X24550578Y-33887454D01*
X24549500Y-33898395D01*
X24549500Y-34051374D01*
X24529815Y-34118413D01*
X24513181Y-34139055D01*
X24129570Y-34522665D01*
X24068247Y-34556150D01*
X23998555Y-34551166D01*
X23963225Y-34530838D01*
X23861453Y-34447317D01*
X23861451Y-34447316D01*
X23861450Y-34447315D01*
X23678954Y-34349768D01*
X23480934Y-34289700D01*
X23480932Y-34289699D01*
X23480934Y-34289699D01*
X23361805Y-34277966D01*
X23326608Y-34274500D01*
X22548392Y-34274500D01*
X22510298Y-34278251D01*
X22394067Y-34289699D01*
X22196043Y-34349769D01*
X22099499Y-34401374D01*
X22013550Y-34447315D01*
X22013548Y-34447316D01*
X22013547Y-34447317D01*
X21853589Y-34578590D01*
X21776106Y-34673003D01*
X21718360Y-34712337D01*
X21648515Y-34714208D01*
X21615156Y-34699877D01*
X21519124Y-34640643D01*
X21519119Y-34640641D01*
X21352697Y-34585494D01*
X21352690Y-34585493D01*
X21249986Y-34575000D01*
X21112500Y-34575000D01*
X21112500Y-37024999D01*
X21249972Y-37024999D01*
X21249986Y-37024998D01*
X21352695Y-37014506D01*
X21511495Y-36961884D01*
X21581324Y-36959482D01*
X21641366Y-36995213D01*
X21672559Y-37057734D01*
X21674500Y-37079590D01*
X21674500Y-38252855D01*
X21654815Y-38319894D01*
X21602011Y-38365649D01*
X21532853Y-38375593D01*
X21485405Y-38358395D01*
X21456626Y-38340645D01*
X21456619Y-38340641D01*
X21290197Y-38285494D01*
X21290190Y-38285493D01*
X21187486Y-38275000D01*
X21050000Y-38275000D01*
X21050000Y-40724999D01*
X21187472Y-40724999D01*
X21187486Y-40724998D01*
X21290197Y-40714505D01*
X21456619Y-40659358D01*
X21456630Y-40659353D01*
X21485403Y-40641606D01*
X21552795Y-40623165D01*
X21619459Y-40644087D01*
X21664228Y-40697729D01*
X21674500Y-40747144D01*
X21674500Y-41076374D01*
X21654815Y-41143413D01*
X21638181Y-41164055D01*
X20739055Y-42063181D01*
X20677732Y-42096666D01*
X20651374Y-42099500D01*
X20324500Y-42099500D01*
X20257461Y-42079815D01*
X20211706Y-42027011D01*
X20200500Y-41975500D01*
X20200500Y-40840653D01*
X20220185Y-40773614D01*
X20272989Y-40727859D01*
X20337103Y-40717295D01*
X20412519Y-40724999D01*
X20549999Y-40724999D01*
X20550000Y-40724998D01*
X20550000Y-38275000D01*
X20412527Y-38275000D01*
X20412509Y-38275001D01*
X20337101Y-38282705D01*
X20268408Y-38269935D01*
X20217524Y-38222054D01*
X20200500Y-38159347D01*
X20200500Y-37129295D01*
X20220185Y-37062256D01*
X20272989Y-37016501D01*
X20342147Y-37006557D01*
X20363508Y-37011590D01*
X20372308Y-37014506D01*
X20475019Y-37024999D01*
X20612499Y-37024999D01*
X20612500Y-37024998D01*
X20612500Y-34575000D01*
X20475027Y-34575000D01*
X20475012Y-34575001D01*
X20372302Y-34585494D01*
X20363499Y-34588411D01*
X20293670Y-34590809D01*
X20233630Y-34555075D01*
X20202440Y-34492553D01*
X20200500Y-34470703D01*
X20200500Y-33624000D01*
X20220185Y-33556961D01*
X20272989Y-33511206D01*
X20324500Y-33500000D01*
X20400000Y-33500000D01*
X20400000Y-31000000D01*
X20324500Y-31000000D01*
X20257461Y-30980315D01*
X20211706Y-30927511D01*
X20200500Y-30876000D01*
X20200500Y-30074000D01*
X20220185Y-30006961D01*
X20272989Y-29961206D01*
X20324500Y-29950000D01*
X20400000Y-29950000D01*
X20400000Y-27450000D01*
X20324500Y-27450000D01*
X20257461Y-27430315D01*
X20211706Y-27377511D01*
X20200500Y-27326000D01*
X20200500Y-26524000D01*
X20220185Y-26456961D01*
X20272989Y-26411206D01*
X20324500Y-26400000D01*
X20400000Y-26400000D01*
X20400000Y-25274000D01*
X20402550Y-25265314D01*
X20401262Y-25256353D01*
X20412240Y-25232312D01*
X20419685Y-25206961D01*
X20426525Y-25201033D01*
X20430287Y-25192797D01*
X20452521Y-25178507D01*
X20472489Y-25161206D01*
X20483003Y-25158918D01*
X20489065Y-25155023D01*
X20524000Y-25150000D01*
X20525500Y-25150000D01*
X20592539Y-25169685D01*
G37*
%TD.AperFunction*%
%TA.AperFunction,Conductor*%
G36*
X31668039Y-31870185D02*
G01*
X31713794Y-31922989D01*
X31725000Y-31974500D01*
X31725000Y-32005000D01*
X31851000Y-32005000D01*
X31918039Y-32024685D01*
X31963794Y-32077489D01*
X31975000Y-32129000D01*
X31975000Y-32805000D01*
X32151428Y-32805000D01*
X32218467Y-32824685D01*
X32264222Y-32877489D01*
X32274166Y-32946647D01*
X32245141Y-33010203D01*
X32239109Y-33016681D01*
X31842609Y-33413181D01*
X31781286Y-33446666D01*
X31754928Y-33449500D01*
X29297949Y-33449500D01*
X29230910Y-33429815D01*
X29188592Y-33383955D01*
X29177684Y-33363548D01*
X29046410Y-33203589D01*
X28886452Y-33072317D01*
X28886453Y-33072317D01*
X28886450Y-33072315D01*
X28815435Y-33034356D01*
X28765593Y-32985395D01*
X28750133Y-32917258D01*
X28773965Y-32851578D01*
X28815435Y-32815643D01*
X28886450Y-32777685D01*
X29046410Y-32646410D01*
X29177685Y-32486450D01*
X29275232Y-32303954D01*
X29290082Y-32255001D01*
X30252704Y-32255001D01*
X30252899Y-32257486D01*
X30298718Y-32415198D01*
X30382314Y-32556552D01*
X30382321Y-32556561D01*
X30498438Y-32672678D01*
X30498447Y-32672685D01*
X30639803Y-32756282D01*
X30639806Y-32756283D01*
X30797504Y-32802099D01*
X30797510Y-32802100D01*
X30834350Y-32804999D01*
X30834366Y-32805000D01*
X31475000Y-32805000D01*
X31475000Y-32255000D01*
X30252705Y-32255000D01*
X30252704Y-32255001D01*
X29290082Y-32255001D01*
X29335300Y-32105934D01*
X29349858Y-31958118D01*
X29350564Y-31953927D01*
X29364048Y-31926172D01*
X29375603Y-31897559D01*
X29379181Y-31895026D01*
X29381098Y-31891082D01*
X29407453Y-31875020D01*
X29432637Y-31857200D01*
X29438223Y-31856269D01*
X29440762Y-31854722D01*
X29446661Y-31854862D01*
X29472845Y-31850500D01*
X31601000Y-31850500D01*
X31668039Y-31870185D01*
G37*
%TD.AperFunction*%
%TA.AperFunction,Conductor*%
G36*
X35806619Y-21216081D02*
G01*
X35873498Y-21331920D01*
X35968080Y-21426502D01*
X36083919Y-21493381D01*
X36144057Y-21509494D01*
X35581283Y-22072268D01*
X35581283Y-22072269D01*
X35618567Y-22099358D01*
X35795562Y-22189542D01*
X35984477Y-22250924D01*
X36180679Y-22282000D01*
X36379321Y-22282000D01*
X36575520Y-22250924D01*
X36575523Y-22250924D01*
X36764437Y-22189542D01*
X36941425Y-22099362D01*
X36978716Y-22072268D01*
X36415942Y-21509494D01*
X36476081Y-21493381D01*
X36591920Y-21426502D01*
X36686502Y-21331920D01*
X36753381Y-21216081D01*
X36769495Y-21155942D01*
X37332268Y-21718715D01*
X37336307Y-21718398D01*
X37404684Y-21732763D01*
X37454440Y-21781815D01*
X37456519Y-21785721D01*
X37483632Y-21838932D01*
X37628185Y-22037894D01*
X37628189Y-22037899D01*
X37802100Y-22211810D01*
X37802105Y-22211814D01*
X37943903Y-22314835D01*
X38001071Y-22356370D01*
X38144322Y-22429360D01*
X38220207Y-22468026D01*
X38220210Y-22468027D01*
X38301629Y-22494481D01*
X38454114Y-22544026D01*
X38697029Y-22582500D01*
X38697030Y-22582500D01*
X38942970Y-22582500D01*
X38942971Y-22582500D01*
X39185886Y-22544026D01*
X39419792Y-22468026D01*
X39638929Y-22356370D01*
X39837901Y-22211809D01*
X40002319Y-22047391D01*
X40063642Y-22013906D01*
X40133334Y-22018890D01*
X40177681Y-22047391D01*
X40342100Y-22211810D01*
X40342105Y-22211814D01*
X40483903Y-22314835D01*
X40541071Y-22356370D01*
X40684322Y-22429360D01*
X40760207Y-22468026D01*
X40760210Y-22468027D01*
X40841629Y-22494481D01*
X40994114Y-22544026D01*
X41237029Y-22582500D01*
X41237030Y-22582500D01*
X41482970Y-22582500D01*
X41482971Y-22582500D01*
X41725886Y-22544026D01*
X41959792Y-22468026D01*
X42178929Y-22356370D01*
X42377901Y-22211809D01*
X42542319Y-22047391D01*
X42603642Y-22013906D01*
X42673334Y-22018890D01*
X42717681Y-22047391D01*
X42882100Y-22211810D01*
X42882105Y-22211814D01*
X43023903Y-22314835D01*
X43081071Y-22356370D01*
X43224322Y-22429360D01*
X43300207Y-22468026D01*
X43300210Y-22468027D01*
X43534113Y-22544026D01*
X43573284Y-22550230D01*
X43707398Y-22571471D01*
X43770532Y-22601400D01*
X43807464Y-22660711D01*
X43812000Y-22693944D01*
X43812000Y-28307265D01*
X43792315Y-28374304D01*
X43770229Y-28399115D01*
X43770397Y-28399283D01*
X43767521Y-28402158D01*
X43766673Y-28403110D01*
X43766090Y-28403590D01*
X43766088Y-28403592D01*
X43634817Y-28563546D01*
X43537269Y-28746043D01*
X43537268Y-28746045D01*
X43537268Y-28746046D01*
X43530398Y-28768692D01*
X43477199Y-28944067D01*
X43467722Y-29040297D01*
X43463314Y-29085056D01*
X43462000Y-29098395D01*
X43462000Y-30101604D01*
X43477199Y-30255932D01*
X43496033Y-30318020D01*
X43537268Y-30453954D01*
X43634815Y-30636450D01*
X43669469Y-30678677D01*
X43766089Y-30796410D01*
X43855984Y-30870184D01*
X43926050Y-30927685D01*
X44108546Y-31025232D01*
X44125854Y-31030482D01*
X44129201Y-31032675D01*
X44133195Y-31032961D01*
X44158183Y-31051667D01*
X44184294Y-31068778D01*
X44185924Y-31072435D01*
X44189128Y-31074833D01*
X44200035Y-31104075D01*
X44212751Y-31132590D01*
X44212146Y-31136546D01*
X44213545Y-31140297D01*
X44206909Y-31170799D01*
X44202192Y-31201657D01*
X44199298Y-31205784D01*
X44198693Y-31208570D01*
X44177542Y-31236824D01*
X44080849Y-31333517D01*
X44051621Y-31355194D01*
X43926050Y-31422315D01*
X43926048Y-31422316D01*
X43926047Y-31422317D01*
X43766089Y-31553589D01*
X43634817Y-31713547D01*
X43537269Y-31896043D01*
X43477199Y-32094067D01*
X43462000Y-32248395D01*
X43462000Y-33164874D01*
X43442315Y-33231913D01*
X43389511Y-33277668D01*
X43320353Y-33287612D01*
X43256797Y-33258587D01*
X43250319Y-33252555D01*
X41485444Y-31487680D01*
X41451959Y-31426357D01*
X41456943Y-31356665D01*
X41485444Y-31312318D01*
X41647286Y-31150476D01*
X41915690Y-30882073D01*
X42026760Y-30729199D01*
X42112547Y-30560832D01*
X42170940Y-30381118D01*
X42190767Y-30255934D01*
X42200500Y-30194486D01*
X42200500Y-28005519D01*
X42192642Y-27955907D01*
X42192642Y-27955906D01*
X42174123Y-27838982D01*
X42170940Y-27818882D01*
X42112547Y-27639168D01*
X42112545Y-27639165D01*
X42112545Y-27639163D01*
X42067290Y-27550347D01*
X42026760Y-27470801D01*
X41915690Y-27317926D01*
X39482074Y-24884310D01*
X39329199Y-24773240D01*
X39160836Y-24687454D01*
X38981118Y-24629059D01*
X38794486Y-24599500D01*
X38794481Y-24599500D01*
X36952122Y-24599500D01*
X36885083Y-24579815D01*
X36864441Y-24563181D01*
X34718757Y-22417497D01*
X34685272Y-22356174D01*
X34690256Y-22286482D01*
X34732128Y-22230549D01*
X34733463Y-22229563D01*
X34757901Y-22211809D01*
X34931809Y-22037901D01*
X34931811Y-22037897D01*
X34931814Y-22037895D01*
X34957938Y-22001936D01*
X35076370Y-21838929D01*
X35106511Y-21779773D01*
X35110145Y-21774210D01*
X35131853Y-21755677D01*
X35151452Y-21734926D01*
X35158086Y-21733282D01*
X35163285Y-21728845D01*
X35191570Y-21724990D01*
X35219273Y-21718130D01*
X35223693Y-21718398D01*
X35227731Y-21718715D01*
X35790504Y-21155941D01*
X35806619Y-21216081D01*
G37*
%TD.AperFunction*%
%TA.AperFunction,Conductor*%
G36*
X38418189Y-28839555D02*
G01*
X38419274Y-28839542D01*
X38431492Y-28847182D01*
X38473499Y-28871263D01*
X38563181Y-28960945D01*
X38577884Y-28987872D01*
X38594477Y-29013691D01*
X38595368Y-29019891D01*
X38596666Y-29022268D01*
X38599500Y-29048626D01*
X38599500Y-29151374D01*
X38579815Y-29218413D01*
X38563181Y-29239055D01*
X38304055Y-29498181D01*
X38242732Y-29531666D01*
X38216374Y-29534500D01*
X37661873Y-29534500D01*
X37594834Y-29514815D01*
X37549079Y-29462011D01*
X37539135Y-29392853D01*
X37568160Y-29329297D01*
X37626938Y-29291523D01*
X37650893Y-29286987D01*
X37652587Y-29286836D01*
X37668552Y-29285417D01*
X37854406Y-29232237D01*
X37860432Y-29229089D01*
X37917839Y-29215000D01*
X38147295Y-29215000D01*
X38147295Y-29214998D01*
X38147100Y-29212511D01*
X38147099Y-29212508D01*
X38130370Y-29154926D01*
X38130569Y-29085056D01*
X38154732Y-29040297D01*
X38162160Y-29031505D01*
X38175571Y-29020571D01*
X38290428Y-28879709D01*
X38291104Y-28878911D01*
X38319375Y-28860242D01*
X38347337Y-28841066D01*
X38348466Y-28841032D01*
X38349409Y-28840410D01*
X38383287Y-28839989D01*
X38417175Y-28838974D01*
X38418189Y-28839555D01*
G37*
%TD.AperFunction*%
%TA.AperFunction,Conductor*%
G36*
X29918834Y-22073390D02*
G01*
X29974767Y-22115262D01*
X29999184Y-22180726D01*
X29999500Y-22189572D01*
X29999500Y-22494486D01*
X30029059Y-22681118D01*
X30087454Y-22860836D01*
X30173240Y-23029199D01*
X30284310Y-23182074D01*
X30284312Y-23182076D01*
X30518199Y-23415963D01*
X30551684Y-23477286D01*
X30546700Y-23546978D01*
X30504828Y-23602911D01*
X30486813Y-23614129D01*
X30370800Y-23673240D01*
X30217928Y-23784309D01*
X30160904Y-23841333D01*
X30099580Y-23874817D01*
X30029888Y-23869832D01*
X29985542Y-23841332D01*
X29605911Y-23461700D01*
X29605907Y-23461697D01*
X29450233Y-23357678D01*
X29450230Y-23357677D01*
X29355111Y-23318278D01*
X29348863Y-23315690D01*
X29277251Y-23286027D01*
X29179735Y-23266630D01*
X29174409Y-23265570D01*
X29174407Y-23265570D01*
X29093619Y-23249500D01*
X29093617Y-23249500D01*
X29093616Y-23249500D01*
X23947626Y-23249500D01*
X23880587Y-23229815D01*
X23834832Y-23177011D01*
X23824888Y-23107853D01*
X23853913Y-23044297D01*
X23859945Y-23037819D01*
X24036932Y-22860832D01*
X24583163Y-22314599D01*
X24644484Y-22281116D01*
X24714175Y-22286100D01*
X24758523Y-22314601D01*
X24855738Y-22411816D01*
X25008478Y-22507789D01*
X25136206Y-22552483D01*
X25178745Y-22567368D01*
X25178750Y-22567369D01*
X25269246Y-22577565D01*
X25313040Y-22582499D01*
X25313043Y-22582500D01*
X25313046Y-22582500D01*
X26926957Y-22582500D01*
X26926958Y-22582499D01*
X26994104Y-22574934D01*
X27061249Y-22567369D01*
X27061252Y-22567368D01*
X27061255Y-22567368D01*
X27231522Y-22507789D01*
X27384262Y-22411816D01*
X27511816Y-22284262D01*
X27513333Y-22281846D01*
X27514720Y-22280619D01*
X27516159Y-22278816D01*
X27516474Y-22279067D01*
X27565662Y-22235554D01*
X27634714Y-22224900D01*
X27691215Y-22247495D01*
X27830906Y-22348985D01*
X27841071Y-22356370D01*
X27984322Y-22429360D01*
X28060207Y-22468026D01*
X28060210Y-22468027D01*
X28141629Y-22494481D01*
X28294114Y-22544026D01*
X28537029Y-22582500D01*
X28537030Y-22582500D01*
X28782970Y-22582500D01*
X28782971Y-22582500D01*
X29025886Y-22544026D01*
X29259792Y-22468026D01*
X29478929Y-22356370D01*
X29677901Y-22211809D01*
X29787819Y-22101891D01*
X29849142Y-22068406D01*
X29918834Y-22073390D01*
G37*
%TD.AperFunction*%
%TA.AperFunction,Conductor*%
G36*
X76995973Y-16291999D02*
G01*
X77062979Y-16311789D01*
X77108651Y-16364664D01*
X77118486Y-16433838D01*
X77089362Y-16497349D01*
X77064667Y-16519101D01*
X76923681Y-16613305D01*
X76923667Y-16613315D01*
X76627419Y-16856439D01*
X76356439Y-17127419D01*
X76113315Y-17423667D01*
X76113305Y-17423681D01*
X75937014Y-17687518D01*
X75883402Y-17732323D01*
X75814077Y-17741030D01*
X75751049Y-17710875D01*
X75723426Y-17674920D01*
X75716367Y-17661066D01*
X75571814Y-17462105D01*
X75571810Y-17462100D01*
X75397899Y-17288189D01*
X75397894Y-17288185D01*
X75198932Y-17143632D01*
X75198931Y-17143631D01*
X75198929Y-17143630D01*
X75128722Y-17107858D01*
X74979792Y-17031973D01*
X74979789Y-17031972D01*
X74745887Y-16955974D01*
X74624428Y-16936737D01*
X74502971Y-16917500D01*
X74257029Y-16917500D01*
X74176057Y-16930324D01*
X74014112Y-16955974D01*
X73780210Y-17031972D01*
X73780207Y-17031973D01*
X73561067Y-17143632D01*
X73362105Y-17288185D01*
X73362100Y-17288189D01*
X73197681Y-17452609D01*
X73136358Y-17486094D01*
X73066666Y-17481110D01*
X73022319Y-17452609D01*
X72857899Y-17288189D01*
X72857894Y-17288185D01*
X72658932Y-17143632D01*
X72658931Y-17143631D01*
X72658929Y-17143630D01*
X72588722Y-17107858D01*
X72439792Y-17031973D01*
X72439789Y-17031972D01*
X72205887Y-16955974D01*
X72084428Y-16936737D01*
X71962971Y-16917500D01*
X71717029Y-16917500D01*
X71636057Y-16930324D01*
X71474112Y-16955974D01*
X71240210Y-17031972D01*
X71240207Y-17031973D01*
X71021067Y-17143632D01*
X70822105Y-17288185D01*
X70822100Y-17288189D01*
X70657681Y-17452609D01*
X70596358Y-17486094D01*
X70526666Y-17481110D01*
X70482319Y-17452609D01*
X70317899Y-17288189D01*
X70317894Y-17288185D01*
X70118932Y-17143632D01*
X70118931Y-17143631D01*
X70118929Y-17143630D01*
X70048722Y-17107858D01*
X69899792Y-17031973D01*
X69899789Y-17031972D01*
X69665887Y-16955974D01*
X69544428Y-16936737D01*
X69422971Y-16917500D01*
X69177029Y-16917500D01*
X69096057Y-16930324D01*
X68934112Y-16955974D01*
X68700210Y-17031972D01*
X68700207Y-17031973D01*
X68481067Y-17143632D01*
X68282105Y-17288185D01*
X68282100Y-17288189D01*
X68108189Y-17462100D01*
X68108185Y-17462105D01*
X67963630Y-17661069D01*
X67936518Y-17714279D01*
X67888543Y-17765075D01*
X67820722Y-17781869D01*
X67816307Y-17781601D01*
X67812268Y-17781283D01*
X67249494Y-18344057D01*
X67233381Y-18283919D01*
X67166502Y-18168080D01*
X67071920Y-18073498D01*
X66956081Y-18006619D01*
X66895942Y-17990504D01*
X67458716Y-17427731D01*
X67458715Y-17427730D01*
X67421432Y-17400641D01*
X67244437Y-17310457D01*
X67055522Y-17249075D01*
X66859321Y-17218000D01*
X66660679Y-17218000D01*
X66464479Y-17249075D01*
X66464476Y-17249075D01*
X66275562Y-17310457D01*
X66098564Y-17400643D01*
X66061283Y-17427729D01*
X66061282Y-17427730D01*
X66624058Y-17990504D01*
X66563919Y-18006619D01*
X66448080Y-18073498D01*
X66353498Y-18168080D01*
X66286619Y-18283919D01*
X66270504Y-18344057D01*
X65707730Y-17781282D01*
X65703691Y-17781600D01*
X65690525Y-17778834D01*
X65677222Y-17780847D01*
X65656998Y-17771790D01*
X65635314Y-17767235D01*
X65624341Y-17757166D01*
X65613454Y-17752291D01*
X65598865Y-17733789D01*
X65590145Y-17725788D01*
X65586506Y-17720216D01*
X65556370Y-17661071D01*
X65472325Y-17545392D01*
X65472311Y-17545371D01*
X65411814Y-17462105D01*
X65411810Y-17462100D01*
X65237899Y-17288189D01*
X65237894Y-17288185D01*
X65038932Y-17143632D01*
X65038931Y-17143631D01*
X65038929Y-17143630D01*
X64968722Y-17107858D01*
X64819792Y-17031973D01*
X64819789Y-17031972D01*
X64585887Y-16955974D01*
X64464428Y-16936737D01*
X64342971Y-16917500D01*
X64097029Y-16917500D01*
X64016057Y-16930324D01*
X63854112Y-16955974D01*
X63620210Y-17031972D01*
X63620207Y-17031973D01*
X63401067Y-17143632D01*
X63202105Y-17288185D01*
X63202100Y-17288189D01*
X63028189Y-17462100D01*
X63028185Y-17462105D01*
X62883630Y-17661069D01*
X62856518Y-17714279D01*
X62808543Y-17765075D01*
X62740722Y-17781869D01*
X62736307Y-17781601D01*
X62732268Y-17781283D01*
X62169494Y-18344057D01*
X62153381Y-18283919D01*
X62086502Y-18168080D01*
X61991920Y-18073498D01*
X61876081Y-18006619D01*
X61815942Y-17990504D01*
X62378716Y-17427731D01*
X62378715Y-17427730D01*
X62341432Y-17400641D01*
X62164437Y-17310457D01*
X61975522Y-17249075D01*
X61779321Y-17218000D01*
X61580679Y-17218000D01*
X61384479Y-17249075D01*
X61384476Y-17249075D01*
X61195562Y-17310457D01*
X61018564Y-17400643D01*
X60981283Y-17427729D01*
X60981282Y-17427730D01*
X61544058Y-17990504D01*
X61483919Y-18006619D01*
X61368080Y-18073498D01*
X61273498Y-18168080D01*
X61206619Y-18283919D01*
X61190504Y-18344057D01*
X60627730Y-17781282D01*
X60623691Y-17781600D01*
X60610525Y-17778834D01*
X60597222Y-17780847D01*
X60576998Y-17771790D01*
X60555314Y-17767235D01*
X60544341Y-17757166D01*
X60533454Y-17752291D01*
X60518865Y-17733789D01*
X60510145Y-17725788D01*
X60506506Y-17720216D01*
X60476370Y-17661071D01*
X60392325Y-17545392D01*
X60392311Y-17545371D01*
X60331814Y-17462105D01*
X60331810Y-17462100D01*
X60157899Y-17288189D01*
X60157894Y-17288185D01*
X59958932Y-17143632D01*
X59958931Y-17143631D01*
X59958929Y-17143630D01*
X59888722Y-17107858D01*
X59739792Y-17031973D01*
X59739789Y-17031972D01*
X59505887Y-16955974D01*
X59384428Y-16936737D01*
X59262971Y-16917500D01*
X59017029Y-16917500D01*
X58936057Y-16930324D01*
X58774112Y-16955974D01*
X58540210Y-17031972D01*
X58540207Y-17031973D01*
X58321067Y-17143632D01*
X58122105Y-17288185D01*
X58122100Y-17288189D01*
X57957681Y-17452609D01*
X57896358Y-17486094D01*
X57826666Y-17481110D01*
X57782319Y-17452609D01*
X57617899Y-17288189D01*
X57617894Y-17288185D01*
X57418932Y-17143632D01*
X57418931Y-17143631D01*
X57418929Y-17143630D01*
X57348722Y-17107858D01*
X57199792Y-17031973D01*
X57199789Y-17031972D01*
X56965887Y-16955974D01*
X56844428Y-16936737D01*
X56722971Y-16917500D01*
X56477029Y-16917500D01*
X56396057Y-16930324D01*
X56234112Y-16955974D01*
X56000210Y-17031972D01*
X56000207Y-17031973D01*
X55781067Y-17143632D01*
X55582105Y-17288185D01*
X55582100Y-17288189D01*
X55417681Y-17452609D01*
X55356358Y-17486094D01*
X55286666Y-17481110D01*
X55242319Y-17452609D01*
X55077899Y-17288189D01*
X55077894Y-17288185D01*
X54878932Y-17143632D01*
X54878931Y-17143631D01*
X54878929Y-17143630D01*
X54808722Y-17107858D01*
X54659792Y-17031973D01*
X54659789Y-17031972D01*
X54425887Y-16955974D01*
X54304428Y-16936737D01*
X54182971Y-16917500D01*
X53937029Y-16917500D01*
X53856057Y-16930324D01*
X53694112Y-16955974D01*
X53460210Y-17031972D01*
X53460207Y-17031973D01*
X53241067Y-17143632D01*
X53042105Y-17288185D01*
X53042100Y-17288189D01*
X52877681Y-17452609D01*
X52816358Y-17486094D01*
X52746666Y-17481110D01*
X52702319Y-17452609D01*
X52537899Y-17288189D01*
X52537894Y-17288185D01*
X52338932Y-17143632D01*
X52338931Y-17143631D01*
X52338929Y-17143630D01*
X52268722Y-17107858D01*
X52119792Y-17031973D01*
X52119789Y-17031972D01*
X51885887Y-16955974D01*
X51764428Y-16936737D01*
X51642971Y-16917500D01*
X51397029Y-16917500D01*
X51316057Y-16930324D01*
X51154112Y-16955974D01*
X50920210Y-17031972D01*
X50920207Y-17031973D01*
X50701067Y-17143632D01*
X50502105Y-17288185D01*
X50502100Y-17288189D01*
X50328189Y-17462100D01*
X50328185Y-17462105D01*
X50183630Y-17661069D01*
X50156518Y-17714279D01*
X50108543Y-17765075D01*
X50040722Y-17781869D01*
X50036307Y-17781601D01*
X50032268Y-17781283D01*
X49469494Y-18344057D01*
X49453381Y-18283919D01*
X49386502Y-18168080D01*
X49291920Y-18073498D01*
X49176081Y-18006619D01*
X49115942Y-17990504D01*
X49678716Y-17427731D01*
X49678715Y-17427730D01*
X49641432Y-17400641D01*
X49464437Y-17310457D01*
X49275522Y-17249075D01*
X49079321Y-17218000D01*
X48880679Y-17218000D01*
X48684479Y-17249075D01*
X48684476Y-17249075D01*
X48495562Y-17310457D01*
X48318564Y-17400643D01*
X48281283Y-17427729D01*
X48281282Y-17427730D01*
X48844058Y-17990504D01*
X48783919Y-18006619D01*
X48668080Y-18073498D01*
X48573498Y-18168080D01*
X48506619Y-18283919D01*
X48490504Y-18344057D01*
X47927730Y-17781282D01*
X47923691Y-17781600D01*
X47910525Y-17778834D01*
X47897222Y-17780847D01*
X47876998Y-17771790D01*
X47855314Y-17767235D01*
X47844341Y-17757166D01*
X47833454Y-17752291D01*
X47818865Y-17733789D01*
X47810145Y-17725788D01*
X47806506Y-17720216D01*
X47776370Y-17661071D01*
X47692325Y-17545392D01*
X47692311Y-17545371D01*
X47631814Y-17462105D01*
X47631810Y-17462100D01*
X47457899Y-17288189D01*
X47457894Y-17288185D01*
X47258932Y-17143632D01*
X47258931Y-17143631D01*
X47258929Y-17143630D01*
X47188722Y-17107858D01*
X47039792Y-17031973D01*
X47039789Y-17031972D01*
X46805887Y-16955974D01*
X46684428Y-16936737D01*
X46562971Y-16917500D01*
X46317029Y-16917500D01*
X46236057Y-16930324D01*
X46074112Y-16955974D01*
X45840210Y-17031972D01*
X45840207Y-17031973D01*
X45621067Y-17143632D01*
X45422105Y-17288185D01*
X45422100Y-17288189D01*
X45257681Y-17452609D01*
X45196358Y-17486094D01*
X45126666Y-17481110D01*
X45082319Y-17452609D01*
X44917899Y-17288189D01*
X44917894Y-17288185D01*
X44718932Y-17143632D01*
X44718931Y-17143631D01*
X44718929Y-17143630D01*
X44648722Y-17107858D01*
X44499792Y-17031973D01*
X44499789Y-17031972D01*
X44265887Y-16955974D01*
X44144428Y-16936737D01*
X44022971Y-16917500D01*
X43777029Y-16917500D01*
X43696057Y-16930324D01*
X43534112Y-16955974D01*
X43300210Y-17031972D01*
X43300207Y-17031973D01*
X43081067Y-17143632D01*
X42882105Y-17288185D01*
X42882100Y-17288189D01*
X42708189Y-17462100D01*
X42708185Y-17462105D01*
X42563630Y-17661069D01*
X42536518Y-17714279D01*
X42488543Y-17765075D01*
X42420722Y-17781869D01*
X42416307Y-17781601D01*
X42412268Y-17781283D01*
X41849494Y-18344057D01*
X41833381Y-18283919D01*
X41766502Y-18168080D01*
X41671920Y-18073498D01*
X41556081Y-18006619D01*
X41495942Y-17990504D01*
X42058716Y-17427731D01*
X42058715Y-17427730D01*
X42021432Y-17400641D01*
X41844437Y-17310457D01*
X41655522Y-17249075D01*
X41459321Y-17218000D01*
X41260679Y-17218000D01*
X41064479Y-17249075D01*
X41064476Y-17249075D01*
X40875562Y-17310457D01*
X40698564Y-17400643D01*
X40661283Y-17427729D01*
X40661282Y-17427730D01*
X41224058Y-17990504D01*
X41163919Y-18006619D01*
X41048080Y-18073498D01*
X40953498Y-18168080D01*
X40886619Y-18283919D01*
X40870504Y-18344057D01*
X40307730Y-17781282D01*
X40303691Y-17781600D01*
X40290525Y-17778834D01*
X40277222Y-17780847D01*
X40256998Y-17771790D01*
X40235314Y-17767235D01*
X40224341Y-17757166D01*
X40213454Y-17752291D01*
X40198865Y-17733789D01*
X40190145Y-17725788D01*
X40186506Y-17720216D01*
X40156370Y-17661071D01*
X40072325Y-17545392D01*
X40072311Y-17545371D01*
X40011814Y-17462105D01*
X40011810Y-17462100D01*
X39837899Y-17288189D01*
X39837894Y-17288185D01*
X39638932Y-17143632D01*
X39638931Y-17143631D01*
X39638929Y-17143630D01*
X39568722Y-17107858D01*
X39419792Y-17031973D01*
X39419789Y-17031972D01*
X39185887Y-16955974D01*
X39064428Y-16936737D01*
X38942971Y-16917500D01*
X38697029Y-16917500D01*
X38616057Y-16930324D01*
X38454112Y-16955974D01*
X38220210Y-17031972D01*
X38220207Y-17031973D01*
X38001067Y-17143632D01*
X37802105Y-17288185D01*
X37802100Y-17288189D01*
X37637681Y-17452609D01*
X37576358Y-17486094D01*
X37506666Y-17481110D01*
X37462319Y-17452609D01*
X37297899Y-17288189D01*
X37297894Y-17288185D01*
X37098932Y-17143632D01*
X37098931Y-17143631D01*
X37098929Y-17143630D01*
X37028722Y-17107858D01*
X36879792Y-17031973D01*
X36879789Y-17031972D01*
X36645887Y-16955974D01*
X36524428Y-16936737D01*
X36402971Y-16917500D01*
X36157029Y-16917500D01*
X36076057Y-16930324D01*
X35914112Y-16955974D01*
X35680210Y-17031972D01*
X35680207Y-17031973D01*
X35461067Y-17143632D01*
X35262105Y-17288185D01*
X35262100Y-17288189D01*
X35097681Y-17452609D01*
X35036358Y-17486094D01*
X34966666Y-17481110D01*
X34922319Y-17452609D01*
X34757899Y-17288189D01*
X34757894Y-17288185D01*
X34558932Y-17143632D01*
X34558931Y-17143631D01*
X34558929Y-17143630D01*
X34488722Y-17107858D01*
X34339792Y-17031973D01*
X34339789Y-17031972D01*
X34105887Y-16955974D01*
X33984428Y-16936737D01*
X33862971Y-16917500D01*
X33617029Y-16917500D01*
X33536057Y-16930324D01*
X33374112Y-16955974D01*
X33140210Y-17031972D01*
X33140207Y-17031973D01*
X32921067Y-17143632D01*
X32722105Y-17288185D01*
X32722100Y-17288189D01*
X32548189Y-17462100D01*
X32548185Y-17462105D01*
X32403630Y-17661069D01*
X32376518Y-17714279D01*
X32328543Y-17765075D01*
X32260722Y-17781869D01*
X32256307Y-17781601D01*
X32252268Y-17781283D01*
X31689494Y-18344056D01*
X31673381Y-18283919D01*
X31606502Y-18168080D01*
X31511920Y-18073498D01*
X31396081Y-18006619D01*
X31335942Y-17990504D01*
X31898716Y-17427731D01*
X31898715Y-17427730D01*
X31861432Y-17400641D01*
X31684437Y-17310457D01*
X31495522Y-17249075D01*
X31299321Y-17218000D01*
X31100679Y-17218000D01*
X30904479Y-17249075D01*
X30904476Y-17249075D01*
X30715562Y-17310457D01*
X30538564Y-17400643D01*
X30501283Y-17427729D01*
X30501282Y-17427730D01*
X31064058Y-17990504D01*
X31003919Y-18006619D01*
X30888080Y-18073498D01*
X30793498Y-18168080D01*
X30726619Y-18283919D01*
X30710505Y-18344057D01*
X30147730Y-17781282D01*
X30143691Y-17781600D01*
X30130525Y-17778834D01*
X30117222Y-17780847D01*
X30096998Y-17771790D01*
X30075314Y-17767235D01*
X30064341Y-17757166D01*
X30053454Y-17752291D01*
X30038865Y-17733789D01*
X30030145Y-17725788D01*
X30026506Y-17720216D01*
X29996370Y-17661071D01*
X29912325Y-17545392D01*
X29912311Y-17545371D01*
X29851814Y-17462105D01*
X29851810Y-17462100D01*
X29677899Y-17288189D01*
X29677894Y-17288185D01*
X29478932Y-17143632D01*
X29478931Y-17143631D01*
X29478929Y-17143630D01*
X29408722Y-17107858D01*
X29259792Y-17031973D01*
X29259789Y-17031972D01*
X29025887Y-16955974D01*
X28904428Y-16936737D01*
X28782971Y-16917500D01*
X28537029Y-16917500D01*
X28456057Y-16930324D01*
X28294112Y-16955974D01*
X28060210Y-17031972D01*
X28060207Y-17031973D01*
X27841067Y-17143632D01*
X27642105Y-17288185D01*
X27642100Y-17288189D01*
X27477681Y-17452609D01*
X27416358Y-17486094D01*
X27346666Y-17481110D01*
X27302319Y-17452609D01*
X27137899Y-17288189D01*
X27137894Y-17288185D01*
X26938932Y-17143632D01*
X26938931Y-17143631D01*
X26938929Y-17143630D01*
X26868722Y-17107858D01*
X26719792Y-17031973D01*
X26719789Y-17031972D01*
X26485887Y-16955974D01*
X26364428Y-16936737D01*
X26242971Y-16917500D01*
X25997029Y-16917500D01*
X25916057Y-16930324D01*
X25754112Y-16955974D01*
X25520210Y-17031972D01*
X25520207Y-17031973D01*
X25301067Y-17143632D01*
X25119128Y-17275818D01*
X25053322Y-17299298D01*
X25046243Y-17299500D01*
X25005514Y-17299500D01*
X24818881Y-17329059D01*
X24639163Y-17387454D01*
X24470800Y-17473240D01*
X24449299Y-17488862D01*
X24317927Y-17584310D01*
X24317925Y-17584312D01*
X24317923Y-17584312D01*
X23378592Y-18523642D01*
X23317269Y-18557127D01*
X23247577Y-18552143D01*
X23191644Y-18510271D01*
X23183524Y-18497962D01*
X23173154Y-18480001D01*
X23166900Y-18469168D01*
X22983319Y-18229920D01*
X22983314Y-18229914D01*
X22770085Y-18016685D01*
X22770078Y-18016679D01*
X22530831Y-17833099D01*
X22269671Y-17682318D01*
X22269661Y-17682314D01*
X21991060Y-17566913D01*
X21699766Y-17488861D01*
X21400793Y-17449501D01*
X21400788Y-17449500D01*
X21400783Y-17449500D01*
X21099217Y-17449500D01*
X21099211Y-17449500D01*
X21099206Y-17449501D01*
X20800233Y-17488861D01*
X20508939Y-17566913D01*
X20230338Y-17682314D01*
X20230328Y-17682318D01*
X19969168Y-17833099D01*
X19729921Y-18016679D01*
X19729914Y-18016685D01*
X19516685Y-18229914D01*
X19516679Y-18229921D01*
X19333099Y-18469168D01*
X19182318Y-18730328D01*
X19182314Y-18730338D01*
X19066913Y-19008939D01*
X18988861Y-19300233D01*
X18949501Y-19599206D01*
X18949500Y-19599223D01*
X18949500Y-19900776D01*
X18949501Y-19900793D01*
X18988861Y-20199766D01*
X19066913Y-20491060D01*
X19182314Y-20769661D01*
X19182318Y-20769671D01*
X19333099Y-21030831D01*
X19488240Y-21233016D01*
X19513434Y-21298185D01*
X19499395Y-21366630D01*
X19450581Y-21416620D01*
X19423423Y-21427269D01*
X19423516Y-21427554D01*
X19339330Y-21454907D01*
X19251891Y-21483318D01*
X19239167Y-21487452D01*
X19070807Y-21573236D01*
X19070794Y-21573244D01*
X19012791Y-21615385D01*
X19012792Y-21615386D01*
X18922324Y-21681116D01*
X18922322Y-21681117D01*
X18917923Y-21684312D01*
X18917922Y-21684313D01*
X18480371Y-22121863D01*
X18419048Y-22155348D01*
X18349356Y-22150364D01*
X18293423Y-22108492D01*
X18269006Y-22043028D01*
X18268692Y-22033545D01*
X18299337Y-16323527D01*
X18319381Y-16256595D01*
X18372430Y-16211124D01*
X18423526Y-16200193D01*
X76995973Y-16291999D01*
G37*
%TD.AperFunction*%
%TA.AperFunction,Conductor*%
G36*
X35053334Y-19478890D02*
G01*
X35097681Y-19507391D01*
X35262100Y-19671810D01*
X35262105Y-19671814D01*
X35437920Y-19799550D01*
X35461071Y-19816370D01*
X35514278Y-19843480D01*
X35565073Y-19891453D01*
X35581868Y-19959274D01*
X35581600Y-19963691D01*
X35581282Y-19967730D01*
X36144058Y-20530504D01*
X36083919Y-20546619D01*
X35968080Y-20613498D01*
X35873498Y-20708080D01*
X35806619Y-20823919D01*
X35790504Y-20884057D01*
X35227730Y-20321282D01*
X35223691Y-20321600D01*
X35155314Y-20307235D01*
X35105558Y-20258183D01*
X35103498Y-20254313D01*
X35076370Y-20201071D01*
X34951072Y-20028612D01*
X34931814Y-20002105D01*
X34931810Y-20002100D01*
X34767391Y-19837681D01*
X34763052Y-19829735D01*
X34755805Y-19824310D01*
X34746570Y-19799550D01*
X34733906Y-19776358D01*
X34734551Y-19767328D01*
X34731388Y-19758846D01*
X34737004Y-19733025D01*
X34738890Y-19706666D01*
X34744708Y-19697612D01*
X34746240Y-19690573D01*
X34767391Y-19662319D01*
X34922319Y-19507391D01*
X34983642Y-19473906D01*
X35053334Y-19478890D01*
G37*
%TD.AperFunction*%
%TA.AperFunction,Conductor*%
G36*
X37593334Y-19478890D02*
G01*
X37637681Y-19507391D01*
X37792609Y-19662319D01*
X37826094Y-19723642D01*
X37821110Y-19793334D01*
X37792609Y-19837681D01*
X37628189Y-20002100D01*
X37628185Y-20002105D01*
X37483630Y-20201069D01*
X37456518Y-20254279D01*
X37408543Y-20305075D01*
X37340722Y-20321869D01*
X37336307Y-20321601D01*
X37332268Y-20321283D01*
X36769494Y-20884057D01*
X36753381Y-20823919D01*
X36686502Y-20708080D01*
X36591920Y-20613498D01*
X36476081Y-20546619D01*
X36415941Y-20530504D01*
X36978715Y-19967731D01*
X36978398Y-19963693D01*
X36992762Y-19895316D01*
X37041813Y-19845559D01*
X37045641Y-19843521D01*
X37098929Y-19816370D01*
X37297901Y-19671809D01*
X37462319Y-19507391D01*
X37523642Y-19473906D01*
X37593334Y-19478890D01*
G37*
%TD.AperFunction*%
%TA.AperFunction,Conductor*%
G36*
X55373334Y-19478890D02*
G01*
X55417681Y-19507391D01*
X55582100Y-19671810D01*
X55582105Y-19671814D01*
X55757920Y-19799550D01*
X55781071Y-19816370D01*
X55834278Y-19843480D01*
X55885073Y-19891453D01*
X55901868Y-19959274D01*
X55901600Y-19963691D01*
X55901282Y-19967730D01*
X56464058Y-20530504D01*
X56403919Y-20546619D01*
X56288080Y-20613498D01*
X56193498Y-20708080D01*
X56126619Y-20823919D01*
X56110504Y-20884057D01*
X55547730Y-20321282D01*
X55543691Y-20321600D01*
X55475314Y-20307235D01*
X55425558Y-20258183D01*
X55423498Y-20254313D01*
X55396370Y-20201071D01*
X55271072Y-20028612D01*
X55251814Y-20002105D01*
X55251810Y-20002100D01*
X55087391Y-19837681D01*
X55083052Y-19829735D01*
X55075805Y-19824310D01*
X55066570Y-19799550D01*
X55053906Y-19776358D01*
X55054551Y-19767328D01*
X55051388Y-19758846D01*
X55057004Y-19733025D01*
X55058890Y-19706666D01*
X55064708Y-19697612D01*
X55066240Y-19690573D01*
X55087391Y-19662319D01*
X55242319Y-19507391D01*
X55303642Y-19473906D01*
X55373334Y-19478890D01*
G37*
%TD.AperFunction*%
%TA.AperFunction,Conductor*%
G36*
X57886974Y-19477004D02*
G01*
X57913334Y-19478890D01*
X57922387Y-19484708D01*
X57929427Y-19486240D01*
X57957681Y-19507391D01*
X58112609Y-19662319D01*
X58146094Y-19723642D01*
X58141110Y-19793334D01*
X58112609Y-19837681D01*
X57948189Y-20002100D01*
X57948185Y-20002105D01*
X57803630Y-20201069D01*
X57776518Y-20254279D01*
X57728543Y-20305075D01*
X57660722Y-20321869D01*
X57656307Y-20321601D01*
X57652268Y-20321283D01*
X57089494Y-20884057D01*
X57073381Y-20823919D01*
X57006502Y-20708080D01*
X56911920Y-20613498D01*
X56796081Y-20546619D01*
X56735941Y-20530504D01*
X57298715Y-19967731D01*
X57298398Y-19963693D01*
X57312762Y-19895316D01*
X57361813Y-19845559D01*
X57365641Y-19843521D01*
X57418929Y-19816370D01*
X57617901Y-19671809D01*
X57782319Y-19507391D01*
X57790264Y-19503052D01*
X57795690Y-19495805D01*
X57820449Y-19486570D01*
X57843642Y-19473906D01*
X57852671Y-19474551D01*
X57861154Y-19471388D01*
X57886974Y-19477004D01*
G37*
%TD.AperFunction*%
%TA.AperFunction,Conductor*%
G36*
X73153334Y-19478890D02*
G01*
X73197681Y-19507391D01*
X73362100Y-19671810D01*
X73362105Y-19671814D01*
X73537920Y-19799550D01*
X73561071Y-19816370D01*
X73614278Y-19843480D01*
X73665073Y-19891453D01*
X73681868Y-19959274D01*
X73681600Y-19963691D01*
X73681282Y-19967730D01*
X74244058Y-20530504D01*
X74183919Y-20546619D01*
X74068080Y-20613498D01*
X73973498Y-20708080D01*
X73906619Y-20823919D01*
X73890504Y-20884057D01*
X73327730Y-20321282D01*
X73323691Y-20321600D01*
X73255314Y-20307235D01*
X73205558Y-20258183D01*
X73203498Y-20254313D01*
X73176370Y-20201071D01*
X73051072Y-20028612D01*
X73031814Y-20002105D01*
X73031810Y-20002100D01*
X72867391Y-19837681D01*
X72863052Y-19829735D01*
X72855805Y-19824310D01*
X72846570Y-19799550D01*
X72833906Y-19776358D01*
X72834551Y-19767328D01*
X72831388Y-19758846D01*
X72837004Y-19733025D01*
X72838890Y-19706666D01*
X72844708Y-19697612D01*
X72846240Y-19690573D01*
X72867391Y-19662319D01*
X73022319Y-19507391D01*
X73083642Y-19473906D01*
X73153334Y-19478890D01*
G37*
%TD.AperFunction*%
%TA.AperFunction,Conductor*%
G36*
X40886619Y-18676081D02*
G01*
X40953498Y-18791920D01*
X41048080Y-18886502D01*
X41163919Y-18953381D01*
X41224057Y-18969494D01*
X40661283Y-19532268D01*
X40661601Y-19536307D01*
X40647236Y-19604684D01*
X40598184Y-19654440D01*
X40594279Y-19656518D01*
X40541069Y-19683630D01*
X40342105Y-19828185D01*
X40342100Y-19828189D01*
X40177681Y-19992609D01*
X40169735Y-19996947D01*
X40164310Y-20004195D01*
X40139550Y-20013429D01*
X40116358Y-20026094D01*
X40107328Y-20025448D01*
X40098846Y-20028612D01*
X40073025Y-20022995D01*
X40046666Y-20021110D01*
X40037612Y-20015291D01*
X40030573Y-20013760D01*
X40002319Y-19992609D01*
X39847391Y-19837681D01*
X39813906Y-19776358D01*
X39818890Y-19706666D01*
X39847391Y-19662319D01*
X39910504Y-19599206D01*
X40011809Y-19497901D01*
X40156370Y-19298929D01*
X40183481Y-19245718D01*
X40231452Y-19194926D01*
X40299273Y-19178130D01*
X40303693Y-19178398D01*
X40307731Y-19178715D01*
X40870504Y-18615941D01*
X40886619Y-18676081D01*
G37*
%TD.AperFunction*%
%TA.AperFunction,Conductor*%
G36*
X48506619Y-18676081D02*
G01*
X48573498Y-18791920D01*
X48668080Y-18886502D01*
X48783919Y-18953381D01*
X48844057Y-18969494D01*
X48281283Y-19532268D01*
X48281601Y-19536307D01*
X48267236Y-19604684D01*
X48218184Y-19654440D01*
X48214279Y-19656518D01*
X48161069Y-19683630D01*
X47962105Y-19828185D01*
X47962100Y-19828189D01*
X47797681Y-19992609D01*
X47789735Y-19996947D01*
X47784310Y-20004195D01*
X47759550Y-20013429D01*
X47736358Y-20026094D01*
X47727328Y-20025448D01*
X47718846Y-20028612D01*
X47693025Y-20022995D01*
X47666666Y-20021110D01*
X47657612Y-20015291D01*
X47650573Y-20013760D01*
X47622319Y-19992609D01*
X47467391Y-19837681D01*
X47433906Y-19776358D01*
X47438890Y-19706666D01*
X47467391Y-19662319D01*
X47530504Y-19599206D01*
X47631809Y-19497901D01*
X47776370Y-19298929D01*
X47803481Y-19245718D01*
X47851452Y-19194926D01*
X47919273Y-19178130D01*
X47923693Y-19178398D01*
X47927731Y-19178715D01*
X48490504Y-18615941D01*
X48506619Y-18676081D01*
G37*
%TD.AperFunction*%
%TA.AperFunction,Conductor*%
G36*
X61206619Y-18676081D02*
G01*
X61273498Y-18791920D01*
X61368080Y-18886502D01*
X61483919Y-18953381D01*
X61544057Y-18969494D01*
X60981283Y-19532268D01*
X60981601Y-19536307D01*
X60967236Y-19604684D01*
X60918184Y-19654440D01*
X60914279Y-19656518D01*
X60861069Y-19683630D01*
X60662105Y-19828185D01*
X60662100Y-19828189D01*
X60497681Y-19992609D01*
X60489735Y-19996947D01*
X60484310Y-20004195D01*
X60459550Y-20013429D01*
X60436358Y-20026094D01*
X60427328Y-20025448D01*
X60418846Y-20028612D01*
X60393025Y-20022995D01*
X60366666Y-20021110D01*
X60357612Y-20015291D01*
X60350573Y-20013760D01*
X60322319Y-19992609D01*
X60167391Y-19837681D01*
X60133906Y-19776358D01*
X60138890Y-19706666D01*
X60167391Y-19662319D01*
X60230504Y-19599206D01*
X60331809Y-19497901D01*
X60476370Y-19298929D01*
X60503481Y-19245718D01*
X60551452Y-19194926D01*
X60619273Y-19178130D01*
X60623693Y-19178398D01*
X60627731Y-19178715D01*
X61190504Y-18615941D01*
X61206619Y-18676081D01*
G37*
%TD.AperFunction*%
%TA.AperFunction,Conductor*%
G36*
X66286619Y-18676081D02*
G01*
X66353498Y-18791920D01*
X66448080Y-18886502D01*
X66563919Y-18953381D01*
X66624057Y-18969494D01*
X66061283Y-19532268D01*
X66061601Y-19536307D01*
X66047236Y-19604684D01*
X65998184Y-19654440D01*
X65994279Y-19656518D01*
X65941069Y-19683630D01*
X65742105Y-19828185D01*
X65742100Y-19828189D01*
X65577681Y-19992609D01*
X65569735Y-19996947D01*
X65564310Y-20004195D01*
X65539550Y-20013429D01*
X65516358Y-20026094D01*
X65507328Y-20025448D01*
X65498846Y-20028612D01*
X65473025Y-20022995D01*
X65446666Y-20021110D01*
X65437612Y-20015291D01*
X65430573Y-20013760D01*
X65402319Y-19992609D01*
X65247391Y-19837681D01*
X65213906Y-19776358D01*
X65218890Y-19706666D01*
X65247391Y-19662319D01*
X65310504Y-19599206D01*
X65411809Y-19497901D01*
X65556370Y-19298929D01*
X65583481Y-19245718D01*
X65631452Y-19194926D01*
X65699273Y-19178130D01*
X65703693Y-19178398D01*
X65707731Y-19178715D01*
X66270504Y-18615941D01*
X66286619Y-18676081D01*
G37*
%TD.AperFunction*%
%TA.AperFunction,Conductor*%
G36*
X42412268Y-19178715D02*
G01*
X42416307Y-19178398D01*
X42484684Y-19192763D01*
X42534440Y-19241815D01*
X42536519Y-19245721D01*
X42563632Y-19298932D01*
X42708185Y-19497894D01*
X42708189Y-19497899D01*
X42872609Y-19662319D01*
X42876947Y-19670264D01*
X42884195Y-19675690D01*
X42893429Y-19700449D01*
X42906094Y-19723642D01*
X42905448Y-19732671D01*
X42908612Y-19741154D01*
X42902995Y-19766974D01*
X42901110Y-19793334D01*
X42895291Y-19802387D01*
X42893760Y-19809427D01*
X42872609Y-19837681D01*
X42717681Y-19992609D01*
X42656358Y-20026094D01*
X42586666Y-20021110D01*
X42542319Y-19992609D01*
X42377899Y-19828189D01*
X42377894Y-19828185D01*
X42178932Y-19683632D01*
X42178931Y-19683631D01*
X42178929Y-19683630D01*
X42125721Y-19656519D01*
X42074925Y-19608544D01*
X42058130Y-19540723D01*
X42058398Y-19536307D01*
X42058715Y-19532268D01*
X41495942Y-18969494D01*
X41556081Y-18953381D01*
X41671920Y-18886502D01*
X41766502Y-18791920D01*
X41833381Y-18676081D01*
X41849495Y-18615942D01*
X42412268Y-19178715D01*
G37*
%TD.AperFunction*%
%TA.AperFunction,Conductor*%
G36*
X50032268Y-19178715D02*
G01*
X50036307Y-19178398D01*
X50104684Y-19192763D01*
X50154440Y-19241815D01*
X50156519Y-19245721D01*
X50183632Y-19298932D01*
X50328185Y-19497894D01*
X50328189Y-19497899D01*
X50492609Y-19662319D01*
X50496947Y-19670264D01*
X50504195Y-19675690D01*
X50513429Y-19700449D01*
X50526094Y-19723642D01*
X50525448Y-19732671D01*
X50528612Y-19741154D01*
X50522995Y-19766974D01*
X50521110Y-19793334D01*
X50515291Y-19802387D01*
X50513760Y-19809427D01*
X50492609Y-19837681D01*
X50337681Y-19992609D01*
X50276358Y-20026094D01*
X50206666Y-20021110D01*
X50162319Y-19992609D01*
X49997899Y-19828189D01*
X49997894Y-19828185D01*
X49798932Y-19683632D01*
X49798931Y-19683631D01*
X49798929Y-19683630D01*
X49745721Y-19656519D01*
X49694925Y-19608544D01*
X49678130Y-19540723D01*
X49678398Y-19536307D01*
X49678715Y-19532268D01*
X49115942Y-18969494D01*
X49176081Y-18953381D01*
X49291920Y-18886502D01*
X49386502Y-18791920D01*
X49453381Y-18676081D01*
X49469495Y-18615942D01*
X50032268Y-19178715D01*
G37*
%TD.AperFunction*%
%TA.AperFunction,Conductor*%
G36*
X62732268Y-19178715D02*
G01*
X62736307Y-19178398D01*
X62804684Y-19192763D01*
X62854440Y-19241815D01*
X62856519Y-19245721D01*
X62883632Y-19298932D01*
X63028185Y-19497894D01*
X63028189Y-19497899D01*
X63192609Y-19662319D01*
X63196947Y-19670264D01*
X63204195Y-19675690D01*
X63213429Y-19700449D01*
X63226094Y-19723642D01*
X63225448Y-19732671D01*
X63228612Y-19741154D01*
X63222995Y-19766974D01*
X63221110Y-19793334D01*
X63215291Y-19802387D01*
X63213760Y-19809427D01*
X63192609Y-19837681D01*
X63037681Y-19992609D01*
X62976358Y-20026094D01*
X62906666Y-20021110D01*
X62862319Y-19992609D01*
X62697899Y-19828189D01*
X62697894Y-19828185D01*
X62498932Y-19683632D01*
X62498931Y-19683631D01*
X62498929Y-19683630D01*
X62445721Y-19656519D01*
X62394925Y-19608544D01*
X62378130Y-19540723D01*
X62378398Y-19536307D01*
X62378715Y-19532268D01*
X61815942Y-18969494D01*
X61876081Y-18953381D01*
X61991920Y-18886502D01*
X62086502Y-18791920D01*
X62153381Y-18676081D01*
X62169495Y-18615942D01*
X62732268Y-19178715D01*
G37*
%TD.AperFunction*%
%TA.AperFunction,Conductor*%
G36*
X67812268Y-19178715D02*
G01*
X67816307Y-19178398D01*
X67884684Y-19192763D01*
X67934440Y-19241815D01*
X67936519Y-19245721D01*
X67963632Y-19298932D01*
X68108185Y-19497894D01*
X68108189Y-19497899D01*
X68272609Y-19662319D01*
X68276947Y-19670264D01*
X68284195Y-19675690D01*
X68293429Y-19700449D01*
X68306094Y-19723642D01*
X68305448Y-19732671D01*
X68308612Y-19741154D01*
X68302995Y-19766974D01*
X68301110Y-19793334D01*
X68295291Y-19802387D01*
X68293760Y-19809427D01*
X68272609Y-19837681D01*
X68117681Y-19992609D01*
X68056358Y-20026094D01*
X67986666Y-20021110D01*
X67942319Y-19992609D01*
X67777899Y-19828189D01*
X67777894Y-19828185D01*
X67578932Y-19683632D01*
X67578931Y-19683631D01*
X67578929Y-19683630D01*
X67525721Y-19656519D01*
X67474925Y-19608544D01*
X67458130Y-19540723D01*
X67458398Y-19536307D01*
X67458715Y-19532268D01*
X66895942Y-18969494D01*
X66956081Y-18953381D01*
X67071920Y-18886502D01*
X67166502Y-18791920D01*
X67233381Y-18676081D01*
X67249495Y-18615942D01*
X67812268Y-19178715D01*
G37*
%TD.AperFunction*%
%TD*%
M02*
