%TF.GenerationSoftware,KiCad,Pcbnew,9.0.4*%
%TF.CreationDate,2025-10-14T17:35:38+07:00*%
%TF.ProjectId,Pi HAT no module,50692048-4154-4206-9e6f-206d6f64756c,rev?*%
%TF.SameCoordinates,Original*%
%TF.FileFunction,Paste,Top*%
%TF.FilePolarity,Positive*%
%FSLAX46Y46*%
G04 Gerber Fmt 4.6, Leading zero omitted, Abs format (unit mm)*
G04 Created by KiCad (PCBNEW 9.0.4) date 2025-10-14 17:35:38*
%MOMM*%
%LPD*%
G01*
G04 APERTURE LIST*
G04 Aperture macros list*
%AMRoundRect*
0 Rectangle with rounded corners*
0 $1 Rounding radius*
0 $2 $3 $4 $5 $6 $7 $8 $9 X,Y pos of 4 corners*
0 Add a 4 corners polygon primitive as box body*
4,1,4,$2,$3,$4,$5,$6,$7,$8,$9,$2,$3,0*
0 Add four circle primitives for the rounded corners*
1,1,$1+$1,$2,$3*
1,1,$1+$1,$4,$5*
1,1,$1+$1,$6,$7*
1,1,$1+$1,$8,$9*
0 Add four rect primitives between the rounded corners*
20,1,$1+$1,$2,$3,$4,$5,0*
20,1,$1+$1,$4,$5,$6,$7,0*
20,1,$1+$1,$6,$7,$8,$9,0*
20,1,$1+$1,$8,$9,$2,$3,0*%
G04 Aperture macros list end*
%ADD10RoundRect,0.250000X-0.350000X-0.450000X0.350000X-0.450000X0.350000X0.450000X-0.350000X0.450000X0*%
%ADD11RoundRect,0.150000X-0.825000X-0.150000X0.825000X-0.150000X0.825000X0.150000X-0.825000X0.150000X0*%
%ADD12RoundRect,0.250000X0.337500X0.475000X-0.337500X0.475000X-0.337500X-0.475000X0.337500X-0.475000X0*%
%ADD13RoundRect,0.250000X-0.325000X-0.450000X0.325000X-0.450000X0.325000X0.450000X-0.325000X0.450000X0*%
%ADD14RoundRect,0.150000X-0.587500X-0.150000X0.587500X-0.150000X0.587500X0.150000X-0.587500X0.150000X0*%
%ADD15RoundRect,0.150000X-0.875000X-0.150000X0.875000X-0.150000X0.875000X0.150000X-0.875000X0.150000X0*%
%ADD16RoundRect,0.200000X0.200000X0.400000X-0.200000X0.400000X-0.200000X-0.400000X0.200000X-0.400000X0*%
G04 APERTURE END LIST*
D10*
%TO.C,R10*%
X26000000Y-55500000D03*
X28000000Y-55500000D03*
%TD*%
%TO.C,R2*%
X25950000Y-31450000D03*
X27950000Y-31450000D03*
%TD*%
%TO.C,R7*%
X26000000Y-46650000D03*
X28000000Y-46650000D03*
%TD*%
D11*
%TO.C,U4*%
X31725000Y-28195000D03*
X31725000Y-29465000D03*
X31725000Y-30735000D03*
X31725000Y-32005000D03*
X36675000Y-32005000D03*
X36675000Y-30735000D03*
X36675000Y-29465000D03*
X36675000Y-28195000D03*
%TD*%
D10*
%TO.C,R11*%
X44862500Y-29600000D03*
X46862500Y-29600000D03*
%TD*%
%TO.C,R6*%
X25950000Y-43250000D03*
X27950000Y-43250000D03*
%TD*%
%TO.C,R12*%
X44862500Y-32750000D03*
X46862500Y-32750000D03*
%TD*%
D12*
%TO.C,C1*%
X22875000Y-39500000D03*
X20800000Y-39500000D03*
%TD*%
D10*
%TO.C,R1*%
X25950000Y-28500000D03*
X27950000Y-28500000D03*
%TD*%
%TO.C,R3*%
X25950000Y-34400000D03*
X27950000Y-34400000D03*
%TD*%
%TO.C,R8*%
X26000000Y-49600000D03*
X28000000Y-49600000D03*
%TD*%
D12*
%TO.C,C2*%
X22937500Y-35800000D03*
X20862500Y-35800000D03*
%TD*%
D10*
%TO.C,R9*%
X26000000Y-52550000D03*
X28000000Y-52550000D03*
%TD*%
%TO.C,R5*%
X25950000Y-40300000D03*
X27950000Y-40300000D03*
%TD*%
%TO.C,R4*%
X25950000Y-37350000D03*
X27950000Y-37350000D03*
%TD*%
D13*
%TO.C,D2*%
X31500000Y-52200000D03*
X33550000Y-52200000D03*
%TD*%
D14*
%TO.C,Q1*%
X50625000Y-29600000D03*
X50625000Y-31500000D03*
X52500000Y-30550000D03*
%TD*%
D15*
%TO.C,U5*%
X31650000Y-36400000D03*
X31650000Y-37670000D03*
X31650000Y-38940000D03*
X31650000Y-40210000D03*
X31650000Y-41480000D03*
X31650000Y-42750000D03*
X31650000Y-44020000D03*
X31650000Y-45290000D03*
X40950000Y-45290000D03*
X40950000Y-44020000D03*
X40950000Y-42750000D03*
X40950000Y-41480000D03*
X40950000Y-40210000D03*
X40950000Y-38940000D03*
X40950000Y-37670000D03*
X40950000Y-36400000D03*
%TD*%
D16*
%TO.C,D1*%
X38300000Y-48200000D03*
X36700000Y-48200000D03*
%TD*%
M02*
