M48
; DRILL file {KiCad 9.0.4} date 2025-10-14T17:35:42+0700
; FORMAT={-:-/ absolute / metric / decimal}
; #@! TF.CreationDate,2025-10-14T17:35:42+07:00
; #@! TF.GenerationSoftware,Kicad,Pcbnew,9.0.4
; #@! TF.FileFunction,Plated,1,2,PTH
FMAT,2
METRIC
; #@! TA.AperFunction,Plated,PTH,ViaDrill
T1C0.300
; #@! TA.AperFunction,Plated,PTH,ComponentDrill
T2C0.850
; #@! TA.AperFunction,Plated,PTH,ComponentDrill
T3C0.950
; #@! TA.AperFunction,Plated,PTH,ComponentDrill
T4C1.000
; #@! TA.AperFunction,Plated,PTH,ComponentDrill
T5C1.016
; #@! TA.AperFunction,Plated,PTH,ComponentDrill
T6C2.750
%
G90
G05
T1
X28.6Y-42.2
X30.2Y-32.9
X31.0Y-24.7
X31.65Y-46.4
X38.6Y-29.0
X39.5Y-34.1
X41.0Y-46.1
T2
X54.1Y-42.605
X54.1Y-63.105
T3
X72.3Y-38.6
X72.3Y-41.1
X72.3Y-43.6
X72.3Y-46.1
T4
X60.4Y-30.2
X60.4Y-37.8
X72.25Y-29.35
X72.25Y-31.85
T5
X26.12Y-18.48
X26.12Y-21.02
X28.66Y-18.48
X28.66Y-21.02
X31.2Y-18.48
X31.2Y-21.02
X33.74Y-18.48
X33.74Y-21.02
X36.28Y-18.48
X36.28Y-21.02
X38.82Y-18.48
X38.82Y-21.02
X41.36Y-18.48
X41.36Y-21.02
X43.9Y-18.48
X43.9Y-21.02
X46.44Y-18.48
X46.44Y-21.02
X48.98Y-18.48
X48.98Y-21.02
X51.52Y-18.48
X51.52Y-21.02
X54.06Y-18.48
X54.06Y-21.02
X56.6Y-18.48
X56.6Y-21.02
X59.14Y-18.48
X59.14Y-21.02
X61.68Y-18.48
X61.68Y-21.02
X64.22Y-18.48
X64.22Y-21.02
X66.76Y-18.48
X66.76Y-21.02
X69.3Y-18.48
X69.3Y-21.02
X71.84Y-18.48
X71.84Y-21.02
X74.38Y-18.48
X74.38Y-21.02
X77.94Y-24.603
X77.94Y-27.143
X80.48Y-24.603
X80.48Y-27.143
T6
X21.25Y-19.75
X21.25Y-68.75
X79.25Y-19.75
X79.25Y-68.75
M30
