%TF.GenerationSoftware,KiCad,Pcbnew,9.0.4*%
%TF.CreationDate,2025-10-14T17:35:38+07:00*%
%TF.ProjectId,Pi HAT no module,50692048-4154-4206-9e6f-206d6f64756c,rev?*%
%TF.SameCoordinates,Original*%
%TF.FileFunction,Copper,L2,Bot*%
%TF.FilePolarity,Positive*%
%FSLAX46Y46*%
G04 Gerber Fmt 4.6, Leading zero omitted, Abs format (unit mm)*
G04 Created by KiCad (PCBNEW 9.0.4) date 2025-10-14 17:35:38*
%MOMM*%
%LPD*%
G01*
G04 APERTURE LIST*
G04 Aperture macros list*
%AMRoundRect*
0 Rectangle with rounded corners*
0 $1 Rounding radius*
0 $2 $3 $4 $5 $6 $7 $8 $9 X,Y pos of 4 corners*
0 Add a 4 corners polygon primitive as box body*
4,1,4,$2,$3,$4,$5,$6,$7,$8,$9,$2,$3,0*
0 Add four circle primitives for the rounded corners*
1,1,$1+$1,$2,$3*
1,1,$1+$1,$4,$5*
1,1,$1+$1,$6,$7*
1,1,$1+$1,$8,$9*
0 Add four rect primitives between the rounded corners*
20,1,$1+$1,$2,$3,$4,$5,0*
20,1,$1+$1,$4,$5,$6,$7,0*
20,1,$1+$1,$6,$7,$8,$9,0*
20,1,$1+$1,$8,$9,$2,$3,0*%
G04 Aperture macros list end*
%TA.AperFunction,ComponentPad*%
%ADD10R,2.000000X2.000000*%
%TD*%
%TA.AperFunction,ComponentPad*%
%ADD11C,2.000000*%
%TD*%
%TA.AperFunction,ComponentPad*%
%ADD12RoundRect,0.250000X0.750000X-0.600000X0.750000X0.600000X-0.750000X0.600000X-0.750000X-0.600000X0*%
%TD*%
%TA.AperFunction,ComponentPad*%
%ADD13O,2.000000X1.700000*%
%TD*%
%TA.AperFunction,ComponentPad*%
%ADD14RoundRect,0.250000X0.725000X-0.600000X0.725000X0.600000X-0.725000X0.600000X-0.725000X-0.600000X0*%
%TD*%
%TA.AperFunction,ComponentPad*%
%ADD15O,1.950000X1.700000*%
%TD*%
%TA.AperFunction,ComponentPad*%
%ADD16R,2.000000X1.600000*%
%TD*%
%TA.AperFunction,ComponentPad*%
%ADD17O,2.000000X1.600000*%
%TD*%
%TA.AperFunction,ComponentPad*%
%ADD18R,1.524000X1.524000*%
%TD*%
%TA.AperFunction,ComponentPad*%
%ADD19C,1.524000*%
%TD*%
%TA.AperFunction,ComponentPad*%
%ADD20C,3.000000*%
%TD*%
%TA.AperFunction,ComponentPad*%
%ADD21C,6.200000*%
%TD*%
%TA.AperFunction,ViaPad*%
%ADD22C,0.600000*%
%TD*%
%TA.AperFunction,Conductor*%
%ADD23C,0.200000*%
%TD*%
%TA.AperFunction,Conductor*%
%ADD24C,0.800000*%
%TD*%
%TA.AperFunction,Conductor*%
%ADD25C,0.300000*%
%TD*%
G04 APERTURE END LIST*
D10*
%TO.P,BZ1,1,+*%
%TO.N,VCC*%
X60400000Y-37800000D03*
D11*
%TO.P,BZ1,2,-*%
%TO.N,Net-(BZ1--)*%
X60400000Y-30200000D03*
%TD*%
D12*
%TO.P,J2,1,Pin_1*%
%TO.N,GND*%
X72250000Y-31850000D03*
D13*
%TO.P,J2,2,Pin_2*%
%TO.N,VCC*%
X72250000Y-29350000D03*
%TD*%
D14*
%TO.P,J1,1,Pin_1*%
%TO.N,GND*%
X72300000Y-46100000D03*
D15*
%TO.P,J1,2,Pin_2*%
%TO.N,VCC*%
X72300000Y-43600000D03*
%TO.P,J1,3,Pin_3*%
%TO.N,SDA*%
X72300000Y-41100000D03*
%TO.P,J1,4,Pin_4*%
%TO.N,SCL*%
X72300000Y-38600000D03*
%TD*%
D16*
%TO.P,BT1,1,+*%
%TO.N,VBAT*%
X54100122Y-42605000D03*
D17*
%TO.P,BT1,2,-*%
%TO.N,GND*%
X54100122Y-63105000D03*
%TD*%
D18*
%TO.P,U1,1,3V3*%
%TO.N,3V3*%
X26120000Y-21020000D03*
D19*
%TO.P,U1,2,5V*%
%TO.N,VCC*%
X26120000Y-18480000D03*
%TO.P,U1,3,GPIO2/SDA1*%
%TO.N,SDA*%
X28660000Y-21020000D03*
%TO.P,U1,4,5V*%
%TO.N,VCC*%
X28660000Y-18480000D03*
%TO.P,U1,5,GPIO3/SCL1*%
%TO.N,SCL*%
X31200000Y-21020000D03*
%TO.P,U1,6,GND*%
%TO.N,GND*%
X31200000Y-18480000D03*
%TO.P,U1,7,GPIO4/GPIO_GCKL*%
%TO.N,unconnected-(U1-GPIO4{slash}GPIO_GCKL-Pad7)*%
X33740000Y-21020000D03*
%TO.P,U1,8,GPIO14/TXD0*%
%TO.N,unconnected-(U1-GPIO14{slash}TXD0-Pad8)*%
X33740000Y-18480000D03*
%TO.P,U1,9,GND*%
%TO.N,GND*%
X36280000Y-21020000D03*
%TO.P,U1,10,GPIO15/RXD0*%
%TO.N,unconnected-(U1-GPIO15{slash}RXD0-Pad10)*%
X36280000Y-18480000D03*
%TO.P,U1,11,GPIO17/GPIO_GEN0*%
%TO.N,unconnected-(U1-GPIO17{slash}GPIO_GEN0-Pad11)*%
X38820000Y-21020000D03*
%TO.P,U1,12,GPIO18/GPIO_GEN1*%
%TO.N,unconnected-(U1-GPIO18{slash}GPIO_GEN1-Pad12)*%
X38820000Y-18480000D03*
%TO.P,U1,13,GPIO27/GPIO_GEN2*%
%TO.N,unconnected-(U1-GPIO27{slash}GPIO_GEN2-Pad13)*%
X41360000Y-21020000D03*
%TO.P,U1,14,GND*%
%TO.N,GND*%
X41360000Y-18480000D03*
%TO.P,U1,15,GPIO22/GPIO_GEN3*%
%TO.N,unconnected-(U1-GPIO22{slash}GPIO_GEN3-Pad15)*%
X43900000Y-21020000D03*
%TO.P,U1,16,GPIO23/GPIO_GEN4*%
%TO.N,unconnected-(U1-GPIO23{slash}GPIO_GEN4-Pad16)*%
X43900000Y-18480000D03*
%TO.P,U1,17,3V3*%
%TO.N,3V3*%
X46440000Y-21020000D03*
%TO.P,U1,18,GPIO24/GPIO_GEN5*%
%TO.N,SIG*%
X46440000Y-18480000D03*
%TO.P,U1,19,GPIO10/SPI_MOSI*%
%TO.N,unconnected-(U1-GPIO10{slash}SPI_MOSI-Pad19)*%
X48980000Y-21020000D03*
%TO.P,U1,20,GND*%
%TO.N,GND*%
X48980000Y-18480000D03*
%TO.P,U1,21,GPIO9/SPI_MISO*%
%TO.N,unconnected-(U1-GPIO9{slash}SPI_MISO-Pad21)*%
X51520000Y-21020000D03*
%TO.P,U1,22,GPIO25/GPIO_GEN6*%
%TO.N,unconnected-(U1-GPIO25{slash}GPIO_GEN6-Pad22)*%
X51520000Y-18480000D03*
%TO.P,U1,23,GPIO11/SPI_SCLK*%
%TO.N,unconnected-(U1-GPIO11{slash}SPI_SCLK-Pad23)*%
X54060000Y-21020000D03*
%TO.P,U1,24,GPIO8/~{SPI_CE0}*%
%TO.N,unconnected-(U1-GPIO8{slash}~{SPI_CE0}-Pad24)*%
X54060000Y-18480000D03*
%TO.P,U1,25,GND*%
%TO.N,GND*%
X56600000Y-21020000D03*
%TO.P,U1,26,GPIO7/~{SPI_CE1}*%
%TO.N,unconnected-(U1-GPIO7{slash}~{SPI_CE1}-Pad26)*%
X56600000Y-18480000D03*
%TO.P,U1,27,ID_SD*%
%TO.N,unconnected-(U1-ID_SD-Pad27)*%
X59140000Y-21020000D03*
%TO.P,U1,28,ID_SC*%
%TO.N,unconnected-(U1-ID_SC-Pad28)*%
X59140000Y-18480000D03*
%TO.P,U1,29,GPIO5*%
%TO.N,unconnected-(U1-GPIO5-Pad29)*%
X61680000Y-21020000D03*
%TO.P,U1,30,GND*%
%TO.N,GND*%
X61680000Y-18480000D03*
%TO.P,U1,31,GPIO6*%
%TO.N,unconnected-(U1-GPIO6-Pad31)*%
X64220000Y-21020000D03*
%TO.P,U1,32,GPIO12*%
%TO.N,unconnected-(U1-GPIO12-Pad32)*%
X64220000Y-18480000D03*
%TO.P,U1,33,GPIO13*%
%TO.N,unconnected-(U1-GPIO13-Pad33)*%
X66760000Y-21020000D03*
%TO.P,U1,34,GND*%
%TO.N,GND*%
X66760000Y-18480000D03*
%TO.P,U1,35,GPIO19*%
%TO.N,unconnected-(U1-GPIO19-Pad35)*%
X69300000Y-21020000D03*
%TO.P,U1,36,GPIO16*%
%TO.N,unconnected-(U1-GPIO16-Pad36)*%
X69300000Y-18480000D03*
%TO.P,U1,37,GPIO26*%
%TO.N,unconnected-(U1-GPIO26-Pad37)*%
X71840000Y-21020000D03*
%TO.P,U1,38,GPIO20*%
%TO.N,unconnected-(U1-GPIO20-Pad38)*%
X71840000Y-18480000D03*
%TO.P,U1,39,GND*%
%TO.N,GND*%
X74380000Y-21020000D03*
%TO.P,U1,40,GPIO21*%
%TO.N,unconnected-(U1-GPIO21-Pad40)*%
X74380000Y-18480000D03*
%TO.P,U1,41,TR01*%
%TO.N,unconnected-(U1-TR01-Pad41)*%
X80480000Y-27143000D03*
%TO.P,U1,42,TR00*%
%TO.N,unconnected-(U1-TR00-Pad42)*%
X80480000Y-24603000D03*
%TO.P,U1,43,TR03*%
%TO.N,unconnected-(U1-TR03-Pad43)*%
X77940000Y-27143000D03*
%TO.P,U1,44,TR02*%
%TO.N,unconnected-(U1-TR02-Pad44)*%
X77940000Y-24603000D03*
D20*
%TO.P,U1,S1,SHIELD*%
%TO.N,Net-(U1-SHIELD-PadS1)*%
X21250000Y-19750000D03*
D21*
%TO.P,U1,S2,SHIELD*%
X79250000Y-19750000D03*
%TO.P,U1,S3,SHIELD*%
X79250000Y-68750000D03*
%TO.P,U1,S4,SHIELD*%
X21250000Y-68750000D03*
%TD*%
D22*
%TO.N,VCC*%
X31000000Y-24700000D03*
%TO.N,GND*%
X31650000Y-46400000D03*
X41000000Y-46100000D03*
X38600000Y-29000000D03*
X30200000Y-32900000D03*
%TO.N,SCL*%
X28600000Y-42200000D03*
X39500000Y-34100000D03*
%TD*%
D23*
%TO.N,SIG*%
X46440000Y-18480000D02*
X46480000Y-18480000D01*
D24*
%TO.N,VCC*%
X31000000Y-23300000D02*
X29900000Y-22200000D01*
X31000000Y-24700000D02*
X31000000Y-23300000D01*
X26120000Y-18568925D02*
X26120000Y-18480000D01*
D25*
X29900000Y-22200000D02*
X29900000Y-19720000D01*
D24*
X29900000Y-19720000D02*
X28660000Y-18480000D01*
X31650000Y-25350000D02*
X50300000Y-25350000D01*
X26120000Y-18480000D02*
X26030000Y-18390000D01*
X50300000Y-25350000D02*
X60400000Y-35450000D01*
X31000000Y-24700000D02*
X31650000Y-25350000D01*
X60400000Y-35450000D02*
X60400000Y-37800000D01*
D25*
%TO.N,GND*%
X27600000Y-32900000D02*
X30200000Y-32900000D01*
X29600000Y-46400000D02*
X26800000Y-43600000D01*
X26800000Y-43600000D02*
X26800000Y-33700000D01*
X54100122Y-63105000D02*
X61895000Y-63105000D01*
X31650000Y-46400000D02*
X29600000Y-46400000D01*
X40700000Y-46400000D02*
X41000000Y-46100000D01*
X61895000Y-63105000D02*
X72300000Y-52700000D01*
X72300000Y-52700000D02*
X72300000Y-46100000D01*
X31650000Y-46400000D02*
X40700000Y-46400000D01*
X41000000Y-46100000D02*
X72300000Y-46100000D01*
X30200000Y-32900000D02*
X34100000Y-29000000D01*
X26800000Y-33700000D02*
X27600000Y-32900000D01*
X34100000Y-29000000D02*
X38600000Y-29000000D01*
D23*
%TO.N,SDA*%
X28660000Y-21020000D02*
X29000000Y-21360000D01*
D24*
%TO.N,SCL*%
X52300000Y-38300000D02*
X54400000Y-40400000D01*
X54400000Y-40400000D02*
X67600000Y-40400000D01*
X28600000Y-42200000D02*
X28600000Y-38200000D01*
X69400000Y-38600000D02*
X72300000Y-38600000D01*
X67600000Y-40400000D02*
X69400000Y-38600000D01*
X43700000Y-38300000D02*
X52300000Y-38300000D01*
X32700000Y-34100000D02*
X39500000Y-34100000D01*
X39500000Y-34100000D02*
X43700000Y-38300000D01*
X28600000Y-38200000D02*
X32700000Y-34100000D01*
%TD*%
%TA.AperFunction,Conductor*%
%TO.N,GND*%
G36*
X76996164Y-16291872D02*
G01*
X77063170Y-16311663D01*
X77108841Y-16364540D01*
X77118675Y-16433714D01*
X77089549Y-16497224D01*
X77064856Y-16518974D01*
X76923681Y-16613304D01*
X76923667Y-16613315D01*
X76627419Y-16856439D01*
X76356439Y-17127419D01*
X76113315Y-17423667D01*
X76113305Y-17423681D01*
X75937014Y-17687518D01*
X75883402Y-17732323D01*
X75814077Y-17741030D01*
X75751049Y-17710875D01*
X75723426Y-17674920D01*
X75716367Y-17661066D01*
X75571814Y-17462105D01*
X75571810Y-17462100D01*
X75397899Y-17288189D01*
X75397894Y-17288185D01*
X75198932Y-17143632D01*
X75198931Y-17143631D01*
X75198929Y-17143630D01*
X75128722Y-17107858D01*
X74979792Y-17031973D01*
X74979789Y-17031972D01*
X74745887Y-16955974D01*
X74624428Y-16936737D01*
X74502971Y-16917500D01*
X74257029Y-16917500D01*
X74176057Y-16930324D01*
X74014112Y-16955974D01*
X73780210Y-17031972D01*
X73780207Y-17031973D01*
X73561067Y-17143632D01*
X73362105Y-17288185D01*
X73362100Y-17288189D01*
X73197681Y-17452609D01*
X73136358Y-17486094D01*
X73066666Y-17481110D01*
X73022319Y-17452609D01*
X72857899Y-17288189D01*
X72857894Y-17288185D01*
X72658932Y-17143632D01*
X72658931Y-17143631D01*
X72658929Y-17143630D01*
X72588722Y-17107858D01*
X72439792Y-17031973D01*
X72439789Y-17031972D01*
X72205887Y-16955974D01*
X72084428Y-16936737D01*
X71962971Y-16917500D01*
X71717029Y-16917500D01*
X71636057Y-16930324D01*
X71474112Y-16955974D01*
X71240210Y-17031972D01*
X71240207Y-17031973D01*
X71021067Y-17143632D01*
X70822105Y-17288185D01*
X70822100Y-17288189D01*
X70657681Y-17452609D01*
X70596358Y-17486094D01*
X70526666Y-17481110D01*
X70482319Y-17452609D01*
X70317899Y-17288189D01*
X70317894Y-17288185D01*
X70118932Y-17143632D01*
X70118931Y-17143631D01*
X70118929Y-17143630D01*
X70048722Y-17107858D01*
X69899792Y-17031973D01*
X69899789Y-17031972D01*
X69665887Y-16955974D01*
X69544428Y-16936737D01*
X69422971Y-16917500D01*
X69177029Y-16917500D01*
X69096057Y-16930324D01*
X68934112Y-16955974D01*
X68700210Y-17031972D01*
X68700207Y-17031973D01*
X68481067Y-17143632D01*
X68282105Y-17288185D01*
X68282100Y-17288189D01*
X68108189Y-17462100D01*
X68108185Y-17462105D01*
X67963630Y-17661069D01*
X67936518Y-17714279D01*
X67888543Y-17765075D01*
X67820722Y-17781869D01*
X67816307Y-17781601D01*
X67812268Y-17781283D01*
X67249494Y-18344057D01*
X67233381Y-18283919D01*
X67166502Y-18168080D01*
X67071920Y-18073498D01*
X66956081Y-18006619D01*
X66895942Y-17990504D01*
X67458716Y-17427731D01*
X67458715Y-17427730D01*
X67421432Y-17400641D01*
X67244437Y-17310457D01*
X67055522Y-17249075D01*
X66859321Y-17218000D01*
X66660679Y-17218000D01*
X66464479Y-17249075D01*
X66464476Y-17249075D01*
X66275562Y-17310457D01*
X66098564Y-17400643D01*
X66061283Y-17427729D01*
X66061282Y-17427730D01*
X66624058Y-17990504D01*
X66563919Y-18006619D01*
X66448080Y-18073498D01*
X66353498Y-18168080D01*
X66286619Y-18283919D01*
X66270504Y-18344057D01*
X65707730Y-17781282D01*
X65703691Y-17781600D01*
X65690525Y-17778834D01*
X65677222Y-17780847D01*
X65656998Y-17771790D01*
X65635314Y-17767235D01*
X65624341Y-17757166D01*
X65613454Y-17752291D01*
X65598865Y-17733789D01*
X65590145Y-17725788D01*
X65586506Y-17720216D01*
X65556370Y-17661071D01*
X65472325Y-17545392D01*
X65472311Y-17545371D01*
X65411814Y-17462105D01*
X65411810Y-17462100D01*
X65237899Y-17288189D01*
X65237894Y-17288185D01*
X65038932Y-17143632D01*
X65038931Y-17143631D01*
X65038929Y-17143630D01*
X64968722Y-17107858D01*
X64819792Y-17031973D01*
X64819789Y-17031972D01*
X64585887Y-16955974D01*
X64464428Y-16936737D01*
X64342971Y-16917500D01*
X64097029Y-16917500D01*
X64016057Y-16930324D01*
X63854112Y-16955974D01*
X63620210Y-17031972D01*
X63620207Y-17031973D01*
X63401067Y-17143632D01*
X63202105Y-17288185D01*
X63202100Y-17288189D01*
X63028189Y-17462100D01*
X63028185Y-17462105D01*
X62883630Y-17661069D01*
X62856518Y-17714279D01*
X62808543Y-17765075D01*
X62740722Y-17781869D01*
X62736307Y-17781601D01*
X62732268Y-17781283D01*
X62169494Y-18344057D01*
X62153381Y-18283919D01*
X62086502Y-18168080D01*
X61991920Y-18073498D01*
X61876081Y-18006619D01*
X61815942Y-17990504D01*
X62378716Y-17427731D01*
X62378715Y-17427730D01*
X62341432Y-17400641D01*
X62164437Y-17310457D01*
X61975522Y-17249075D01*
X61779321Y-17218000D01*
X61580679Y-17218000D01*
X61384479Y-17249075D01*
X61384476Y-17249075D01*
X61195562Y-17310457D01*
X61018564Y-17400643D01*
X60981283Y-17427729D01*
X60981282Y-17427730D01*
X61544058Y-17990504D01*
X61483919Y-18006619D01*
X61368080Y-18073498D01*
X61273498Y-18168080D01*
X61206619Y-18283919D01*
X61190504Y-18344057D01*
X60627730Y-17781282D01*
X60623691Y-17781600D01*
X60610525Y-17778834D01*
X60597222Y-17780847D01*
X60576998Y-17771790D01*
X60555314Y-17767235D01*
X60544341Y-17757166D01*
X60533454Y-17752291D01*
X60518865Y-17733789D01*
X60510145Y-17725788D01*
X60506506Y-17720216D01*
X60476370Y-17661071D01*
X60392325Y-17545392D01*
X60392311Y-17545371D01*
X60331814Y-17462105D01*
X60331810Y-17462100D01*
X60157899Y-17288189D01*
X60157894Y-17288185D01*
X59958932Y-17143632D01*
X59958931Y-17143631D01*
X59958929Y-17143630D01*
X59888722Y-17107858D01*
X59739792Y-17031973D01*
X59739789Y-17031972D01*
X59505887Y-16955974D01*
X59384428Y-16936737D01*
X59262971Y-16917500D01*
X59017029Y-16917500D01*
X58936057Y-16930324D01*
X58774112Y-16955974D01*
X58540210Y-17031972D01*
X58540207Y-17031973D01*
X58321067Y-17143632D01*
X58122105Y-17288185D01*
X58122100Y-17288189D01*
X57957681Y-17452609D01*
X57896358Y-17486094D01*
X57826666Y-17481110D01*
X57782319Y-17452609D01*
X57617899Y-17288189D01*
X57617894Y-17288185D01*
X57418932Y-17143632D01*
X57418931Y-17143631D01*
X57418929Y-17143630D01*
X57348722Y-17107858D01*
X57199792Y-17031973D01*
X57199789Y-17031972D01*
X56965887Y-16955974D01*
X56844428Y-16936737D01*
X56722971Y-16917500D01*
X56477029Y-16917500D01*
X56396057Y-16930324D01*
X56234112Y-16955974D01*
X56000210Y-17031972D01*
X56000207Y-17031973D01*
X55781067Y-17143632D01*
X55582105Y-17288185D01*
X55582100Y-17288189D01*
X55417681Y-17452609D01*
X55356358Y-17486094D01*
X55286666Y-17481110D01*
X55242319Y-17452609D01*
X55077899Y-17288189D01*
X55077894Y-17288185D01*
X54878932Y-17143632D01*
X54878931Y-17143631D01*
X54878929Y-17143630D01*
X54808722Y-17107858D01*
X54659792Y-17031973D01*
X54659789Y-17031972D01*
X54425887Y-16955974D01*
X54304428Y-16936737D01*
X54182971Y-16917500D01*
X53937029Y-16917500D01*
X53856057Y-16930324D01*
X53694112Y-16955974D01*
X53460210Y-17031972D01*
X53460207Y-17031973D01*
X53241067Y-17143632D01*
X53042105Y-17288185D01*
X53042100Y-17288189D01*
X52877681Y-17452609D01*
X52816358Y-17486094D01*
X52746666Y-17481110D01*
X52702319Y-17452609D01*
X52537899Y-17288189D01*
X52537894Y-17288185D01*
X52338932Y-17143632D01*
X52338931Y-17143631D01*
X52338929Y-17143630D01*
X52268722Y-17107858D01*
X52119792Y-17031973D01*
X52119789Y-17031972D01*
X51885887Y-16955974D01*
X51764428Y-16936737D01*
X51642971Y-16917500D01*
X51397029Y-16917500D01*
X51316057Y-16930324D01*
X51154112Y-16955974D01*
X50920210Y-17031972D01*
X50920207Y-17031973D01*
X50701067Y-17143632D01*
X50502105Y-17288185D01*
X50502100Y-17288189D01*
X50328189Y-17462100D01*
X50328185Y-17462105D01*
X50183630Y-17661069D01*
X50156518Y-17714279D01*
X50108543Y-17765075D01*
X50040722Y-17781869D01*
X50036307Y-17781601D01*
X50032268Y-17781283D01*
X49469494Y-18344057D01*
X49453381Y-18283919D01*
X49386502Y-18168080D01*
X49291920Y-18073498D01*
X49176081Y-18006619D01*
X49115942Y-17990504D01*
X49678716Y-17427731D01*
X49678715Y-17427730D01*
X49641432Y-17400641D01*
X49464437Y-17310457D01*
X49275522Y-17249075D01*
X49079321Y-17218000D01*
X48880679Y-17218000D01*
X48684479Y-17249075D01*
X48684476Y-17249075D01*
X48495562Y-17310457D01*
X48318564Y-17400643D01*
X48281283Y-17427729D01*
X48281282Y-17427730D01*
X48844058Y-17990504D01*
X48783919Y-18006619D01*
X48668080Y-18073498D01*
X48573498Y-18168080D01*
X48506619Y-18283919D01*
X48490504Y-18344057D01*
X47927730Y-17781282D01*
X47923691Y-17781600D01*
X47910525Y-17778834D01*
X47897222Y-17780847D01*
X47876998Y-17771790D01*
X47855314Y-17767235D01*
X47844341Y-17757166D01*
X47833454Y-17752291D01*
X47818865Y-17733789D01*
X47810145Y-17725788D01*
X47806506Y-17720216D01*
X47776370Y-17661071D01*
X47692325Y-17545392D01*
X47692311Y-17545371D01*
X47631814Y-17462105D01*
X47631810Y-17462100D01*
X47457899Y-17288189D01*
X47457894Y-17288185D01*
X47258932Y-17143632D01*
X47258931Y-17143631D01*
X47258929Y-17143630D01*
X47188722Y-17107858D01*
X47039792Y-17031973D01*
X47039789Y-17031972D01*
X46805887Y-16955974D01*
X46684428Y-16936737D01*
X46562971Y-16917500D01*
X46317029Y-16917500D01*
X46236057Y-16930324D01*
X46074112Y-16955974D01*
X45840210Y-17031972D01*
X45840207Y-17031973D01*
X45621067Y-17143632D01*
X45422105Y-17288185D01*
X45422100Y-17288189D01*
X45257681Y-17452609D01*
X45196358Y-17486094D01*
X45126666Y-17481110D01*
X45082319Y-17452609D01*
X44917899Y-17288189D01*
X44917894Y-17288185D01*
X44718932Y-17143632D01*
X44718931Y-17143631D01*
X44718929Y-17143630D01*
X44648722Y-17107858D01*
X44499792Y-17031973D01*
X44499789Y-17031972D01*
X44265887Y-16955974D01*
X44144428Y-16936737D01*
X44022971Y-16917500D01*
X43777029Y-16917500D01*
X43696057Y-16930324D01*
X43534112Y-16955974D01*
X43300210Y-17031972D01*
X43300207Y-17031973D01*
X43081067Y-17143632D01*
X42882105Y-17288185D01*
X42882100Y-17288189D01*
X42708189Y-17462100D01*
X42708185Y-17462105D01*
X42563630Y-17661069D01*
X42536518Y-17714279D01*
X42488543Y-17765075D01*
X42420722Y-17781869D01*
X42416307Y-17781601D01*
X42412268Y-17781283D01*
X41849494Y-18344057D01*
X41833381Y-18283919D01*
X41766502Y-18168080D01*
X41671920Y-18073498D01*
X41556081Y-18006619D01*
X41495942Y-17990504D01*
X42058716Y-17427731D01*
X42058715Y-17427730D01*
X42021432Y-17400641D01*
X41844437Y-17310457D01*
X41655522Y-17249075D01*
X41459321Y-17218000D01*
X41260679Y-17218000D01*
X41064479Y-17249075D01*
X41064476Y-17249075D01*
X40875562Y-17310457D01*
X40698564Y-17400643D01*
X40661283Y-17427729D01*
X40661282Y-17427730D01*
X41224058Y-17990504D01*
X41163919Y-18006619D01*
X41048080Y-18073498D01*
X40953498Y-18168080D01*
X40886619Y-18283919D01*
X40870504Y-18344057D01*
X40307730Y-17781282D01*
X40303691Y-17781600D01*
X40290525Y-17778834D01*
X40277222Y-17780847D01*
X40256998Y-17771790D01*
X40235314Y-17767235D01*
X40224341Y-17757166D01*
X40213454Y-17752291D01*
X40198865Y-17733789D01*
X40190145Y-17725788D01*
X40186506Y-17720216D01*
X40156370Y-17661071D01*
X40072325Y-17545392D01*
X40072311Y-17545371D01*
X40011814Y-17462105D01*
X40011810Y-17462100D01*
X39837899Y-17288189D01*
X39837894Y-17288185D01*
X39638932Y-17143632D01*
X39638931Y-17143631D01*
X39638929Y-17143630D01*
X39568722Y-17107858D01*
X39419792Y-17031973D01*
X39419789Y-17031972D01*
X39185887Y-16955974D01*
X39064428Y-16936737D01*
X38942971Y-16917500D01*
X38697029Y-16917500D01*
X38616057Y-16930324D01*
X38454112Y-16955974D01*
X38220210Y-17031972D01*
X38220207Y-17031973D01*
X38001067Y-17143632D01*
X37802105Y-17288185D01*
X37802100Y-17288189D01*
X37637681Y-17452609D01*
X37576358Y-17486094D01*
X37506666Y-17481110D01*
X37462319Y-17452609D01*
X37297899Y-17288189D01*
X37297894Y-17288185D01*
X37098932Y-17143632D01*
X37098931Y-17143631D01*
X37098929Y-17143630D01*
X37028722Y-17107858D01*
X36879792Y-17031973D01*
X36879789Y-17031972D01*
X36645887Y-16955974D01*
X36524428Y-16936737D01*
X36402971Y-16917500D01*
X36157029Y-16917500D01*
X36076057Y-16930324D01*
X35914112Y-16955974D01*
X35680210Y-17031972D01*
X35680207Y-17031973D01*
X35461067Y-17143632D01*
X35262105Y-17288185D01*
X35262100Y-17288189D01*
X35097681Y-17452609D01*
X35036358Y-17486094D01*
X34966666Y-17481110D01*
X34922319Y-17452609D01*
X34757899Y-17288189D01*
X34757894Y-17288185D01*
X34558932Y-17143632D01*
X34558931Y-17143631D01*
X34558929Y-17143630D01*
X34488722Y-17107858D01*
X34339792Y-17031973D01*
X34339789Y-17031972D01*
X34105887Y-16955974D01*
X33984428Y-16936737D01*
X33862971Y-16917500D01*
X33617029Y-16917500D01*
X33536057Y-16930324D01*
X33374112Y-16955974D01*
X33140210Y-17031972D01*
X33140207Y-17031973D01*
X32921067Y-17143632D01*
X32722105Y-17288185D01*
X32722100Y-17288189D01*
X32548189Y-17462100D01*
X32548185Y-17462105D01*
X32403630Y-17661069D01*
X32376518Y-17714279D01*
X32328543Y-17765075D01*
X32260722Y-17781869D01*
X32256307Y-17781601D01*
X32252268Y-17781283D01*
X31689494Y-18344057D01*
X31673381Y-18283919D01*
X31606502Y-18168080D01*
X31511920Y-18073498D01*
X31396081Y-18006619D01*
X31335942Y-17990504D01*
X31898716Y-17427731D01*
X31898715Y-17427730D01*
X31861432Y-17400641D01*
X31684437Y-17310457D01*
X31495522Y-17249075D01*
X31299321Y-17218000D01*
X31100679Y-17218000D01*
X30904479Y-17249075D01*
X30904476Y-17249075D01*
X30715562Y-17310457D01*
X30538564Y-17400643D01*
X30501283Y-17427729D01*
X30501282Y-17427730D01*
X31064058Y-17990504D01*
X31003919Y-18006619D01*
X30888080Y-18073498D01*
X30793498Y-18168080D01*
X30726619Y-18283919D01*
X30710504Y-18344058D01*
X30147730Y-17781282D01*
X30143691Y-17781600D01*
X30130525Y-17778834D01*
X30117222Y-17780847D01*
X30096998Y-17771790D01*
X30075314Y-17767235D01*
X30064341Y-17757166D01*
X30053454Y-17752291D01*
X30038865Y-17733789D01*
X30030145Y-17725788D01*
X30026506Y-17720216D01*
X29996370Y-17661071D01*
X29912325Y-17545392D01*
X29912311Y-17545371D01*
X29851814Y-17462105D01*
X29851810Y-17462100D01*
X29677899Y-17288189D01*
X29677894Y-17288185D01*
X29478932Y-17143632D01*
X29478931Y-17143631D01*
X29478929Y-17143630D01*
X29408722Y-17107858D01*
X29259792Y-17031973D01*
X29259789Y-17031972D01*
X29025887Y-16955974D01*
X28904428Y-16936737D01*
X28782971Y-16917500D01*
X28537029Y-16917500D01*
X28456057Y-16930324D01*
X28294112Y-16955974D01*
X28060210Y-17031972D01*
X28060207Y-17031973D01*
X27841067Y-17143632D01*
X27642105Y-17288185D01*
X27642100Y-17288189D01*
X27477681Y-17452609D01*
X27416358Y-17486094D01*
X27346666Y-17481110D01*
X27302319Y-17452609D01*
X27137899Y-17288189D01*
X27137894Y-17288185D01*
X26938932Y-17143632D01*
X26938931Y-17143631D01*
X26938929Y-17143630D01*
X26868722Y-17107858D01*
X26719792Y-17031973D01*
X26719789Y-17031972D01*
X26485887Y-16955974D01*
X26364428Y-16936737D01*
X26242971Y-16917500D01*
X25997029Y-16917500D01*
X25916057Y-16930324D01*
X25754112Y-16955974D01*
X25520210Y-17031972D01*
X25520207Y-17031973D01*
X25301067Y-17143632D01*
X25102105Y-17288185D01*
X25102100Y-17288189D01*
X24928189Y-17462100D01*
X24928185Y-17462105D01*
X24783632Y-17661067D01*
X24671973Y-17880207D01*
X24671972Y-17880210D01*
X24595974Y-18114112D01*
X24569079Y-18283919D01*
X24557500Y-18357029D01*
X24557500Y-18602971D01*
X24576737Y-18724428D01*
X24595974Y-18845887D01*
X24671972Y-19079789D01*
X24671973Y-19079792D01*
X24783632Y-19298932D01*
X24892504Y-19448783D01*
X24915984Y-19514589D01*
X24900158Y-19582643D01*
X24861037Y-19623648D01*
X24861188Y-19623837D01*
X24859805Y-19624939D01*
X24858168Y-19626656D01*
X24855741Y-19628180D01*
X24728184Y-19755737D01*
X24632211Y-19908476D01*
X24572631Y-20078745D01*
X24572630Y-20078750D01*
X24557500Y-20213039D01*
X24557500Y-21826960D01*
X24572630Y-21961249D01*
X24572631Y-21961254D01*
X24632211Y-22131523D01*
X24682659Y-22211810D01*
X24728184Y-22284262D01*
X24855738Y-22411816D01*
X25008478Y-22507789D01*
X25145877Y-22555867D01*
X25178745Y-22567368D01*
X25178750Y-22567369D01*
X25269246Y-22577565D01*
X25313040Y-22582499D01*
X25313043Y-22582500D01*
X25313046Y-22582500D01*
X26926957Y-22582500D01*
X26926958Y-22582499D01*
X26994104Y-22574934D01*
X27061249Y-22567369D01*
X27061252Y-22567368D01*
X27061255Y-22567368D01*
X27231522Y-22507789D01*
X27384262Y-22411816D01*
X27511816Y-22284262D01*
X27513333Y-22281846D01*
X27514720Y-22280619D01*
X27516159Y-22278816D01*
X27516474Y-22279067D01*
X27565662Y-22235554D01*
X27634714Y-22224900D01*
X27691215Y-22247495D01*
X27830906Y-22348985D01*
X27841071Y-22356370D01*
X27949888Y-22411815D01*
X28060207Y-22468026D01*
X28060210Y-22468027D01*
X28128022Y-22490060D01*
X28294114Y-22544026D01*
X28537029Y-22582500D01*
X28672153Y-22582500D01*
X28739192Y-22602185D01*
X28784947Y-22654989D01*
X28786719Y-22659059D01*
X28787454Y-22660835D01*
X28792532Y-22670801D01*
X28873240Y-22829199D01*
X28984310Y-22982074D01*
X28984311Y-22982075D01*
X28984312Y-22982076D01*
X29763181Y-23760944D01*
X29796666Y-23822267D01*
X29799500Y-23848625D01*
X29799500Y-24794486D01*
X29829059Y-24981118D01*
X29887454Y-25160836D01*
X29953267Y-25290000D01*
X29973240Y-25329199D01*
X30084310Y-25482074D01*
X30867927Y-26265690D01*
X31020801Y-26376760D01*
X31100347Y-26417290D01*
X31189163Y-26462545D01*
X31189165Y-26462545D01*
X31189168Y-26462547D01*
X31285497Y-26493846D01*
X31368881Y-26520940D01*
X31555514Y-26550500D01*
X31555519Y-26550500D01*
X31744482Y-26550500D01*
X49751374Y-26550500D01*
X49818413Y-26570185D01*
X49839055Y-26586819D01*
X59115368Y-35863132D01*
X59148853Y-35924455D01*
X59143869Y-35994147D01*
X59101997Y-36050080D01*
X59068646Y-36067853D01*
X59050478Y-36074211D01*
X59050475Y-36074212D01*
X58897737Y-36170184D01*
X58770184Y-36297737D01*
X58674211Y-36450476D01*
X58614631Y-36620745D01*
X58614630Y-36620750D01*
X58599500Y-36755039D01*
X58599500Y-38844960D01*
X58614630Y-38979249D01*
X58614633Y-38979262D01*
X58633978Y-39034545D01*
X58637540Y-39104324D01*
X58602812Y-39164951D01*
X58540818Y-39197179D01*
X58516937Y-39199500D01*
X54948626Y-39199500D01*
X54881587Y-39179815D01*
X54860945Y-39163181D01*
X53082076Y-37384312D01*
X53082074Y-37384310D01*
X52929199Y-37273240D01*
X52760836Y-37187454D01*
X52581118Y-37129059D01*
X52394486Y-37099500D01*
X52394481Y-37099500D01*
X44248626Y-37099500D01*
X44181587Y-37079815D01*
X44160945Y-37063181D01*
X40282076Y-33184312D01*
X40282074Y-33184310D01*
X40129199Y-33073240D01*
X39960836Y-32987454D01*
X39781118Y-32929059D01*
X39594486Y-32899500D01*
X39594481Y-32899500D01*
X32794482Y-32899500D01*
X32605519Y-32899500D01*
X32605514Y-32899500D01*
X32418881Y-32929059D01*
X32239163Y-32987454D01*
X32070800Y-33073240D01*
X31986682Y-33134356D01*
X31917927Y-33184310D01*
X31917925Y-33184312D01*
X31917924Y-33184312D01*
X27684310Y-37417924D01*
X27684308Y-37417927D01*
X27676226Y-37429053D01*
X27676221Y-37429060D01*
X27633796Y-37487453D01*
X27573240Y-37570800D01*
X27487454Y-37739163D01*
X27429059Y-37918881D01*
X27399500Y-38105513D01*
X27399500Y-42294486D01*
X27429059Y-42481118D01*
X27487454Y-42660836D01*
X27525215Y-42734945D01*
X27573240Y-42829199D01*
X27684310Y-42982073D01*
X27817927Y-43115690D01*
X27970801Y-43226760D01*
X28050347Y-43267290D01*
X28139163Y-43312545D01*
X28139165Y-43312545D01*
X28139168Y-43312547D01*
X28235497Y-43343846D01*
X28318881Y-43370940D01*
X28505514Y-43400500D01*
X28505519Y-43400500D01*
X28694486Y-43400500D01*
X28881118Y-43370940D01*
X29060832Y-43312547D01*
X29229199Y-43226760D01*
X29382073Y-43115690D01*
X29515690Y-42982073D01*
X29626760Y-42829199D01*
X29712547Y-42660832D01*
X29770940Y-42481118D01*
X29777820Y-42437681D01*
X29800500Y-42294486D01*
X29800500Y-38748625D01*
X29820185Y-38681586D01*
X29836819Y-38660944D01*
X33160944Y-35336819D01*
X33222267Y-35303334D01*
X33248625Y-35300500D01*
X38951374Y-35300500D01*
X39018413Y-35320185D01*
X39039055Y-35336819D01*
X42917926Y-39215690D01*
X43070801Y-39326760D01*
X43150347Y-39367290D01*
X43239163Y-39412545D01*
X43239165Y-39412545D01*
X43239168Y-39412547D01*
X43335497Y-39443846D01*
X43418881Y-39470940D01*
X43605514Y-39500500D01*
X43605519Y-39500500D01*
X43794482Y-39500500D01*
X51751374Y-39500500D01*
X51818413Y-39520185D01*
X51839055Y-39536819D01*
X53099189Y-40796953D01*
X53132674Y-40858276D01*
X53127690Y-40927968D01*
X53085818Y-40983901D01*
X53025392Y-41007854D01*
X52920871Y-41019630D01*
X52920867Y-41019631D01*
X52750598Y-41079211D01*
X52597859Y-41175184D01*
X52470306Y-41302737D01*
X52374333Y-41455476D01*
X52314753Y-41625745D01*
X52314752Y-41625750D01*
X52299622Y-41760039D01*
X52299622Y-43449960D01*
X52314752Y-43584249D01*
X52314753Y-43584254D01*
X52374333Y-43754523D01*
X52470306Y-43907262D01*
X52597860Y-44034816D01*
X52750600Y-44130789D01*
X52920867Y-44190368D01*
X52920872Y-44190369D01*
X53011368Y-44200565D01*
X53055162Y-44205499D01*
X53055165Y-44205500D01*
X53055168Y-44205500D01*
X55145079Y-44205500D01*
X55145080Y-44205499D01*
X55212226Y-44197934D01*
X55279371Y-44190369D01*
X55279374Y-44190368D01*
X55279377Y-44190368D01*
X55449644Y-44130789D01*
X55602384Y-44034816D01*
X55729938Y-43907262D01*
X55825911Y-43754522D01*
X55885490Y-43584255D01*
X55900622Y-43449954D01*
X55900622Y-41760046D01*
X55898181Y-41738381D01*
X55910237Y-41669560D01*
X55957587Y-41618181D01*
X56021402Y-41600500D01*
X67694486Y-41600500D01*
X67881118Y-41570940D01*
X68060832Y-41512547D01*
X68229199Y-41426760D01*
X68382074Y-41315690D01*
X69860945Y-39836819D01*
X69922268Y-39803334D01*
X69948626Y-39800500D01*
X70840978Y-39800500D01*
X70908017Y-39820185D01*
X70953772Y-39872989D01*
X70963716Y-39942147D01*
X70934691Y-40005703D01*
X70928659Y-40012181D01*
X70916071Y-40024768D01*
X70916066Y-40024774D01*
X70763368Y-40234945D01*
X70645422Y-40466423D01*
X70565140Y-40713506D01*
X70524500Y-40970097D01*
X70524500Y-41229902D01*
X70565140Y-41486493D01*
X70645422Y-41733576D01*
X70763368Y-41965054D01*
X70916066Y-42175225D01*
X70916071Y-42175231D01*
X71003159Y-42262319D01*
X71036644Y-42323642D01*
X71031660Y-42393334D01*
X71003159Y-42437681D01*
X70916071Y-42524768D01*
X70916066Y-42524774D01*
X70763368Y-42734945D01*
X70645422Y-42966423D01*
X70565140Y-43213506D01*
X70524500Y-43470097D01*
X70524500Y-43729902D01*
X70565140Y-43986493D01*
X70645422Y-44233576D01*
X70763368Y-44465054D01*
X70916066Y-44675225D01*
X70916071Y-44675231D01*
X71039908Y-44799068D01*
X71073393Y-44860391D01*
X71068409Y-44930083D01*
X71039909Y-44974430D01*
X70982682Y-45031657D01*
X70890643Y-45180875D01*
X70890641Y-45180880D01*
X70835494Y-45347302D01*
X70835493Y-45347309D01*
X70825000Y-45450013D01*
X70825000Y-45850000D01*
X71895854Y-45850000D01*
X71857370Y-45916657D01*
X71825000Y-46037465D01*
X71825000Y-46162535D01*
X71857370Y-46283343D01*
X71895854Y-46350000D01*
X70825001Y-46350000D01*
X70825001Y-46749986D01*
X70835494Y-46852697D01*
X70890641Y-47019119D01*
X70890643Y-47019124D01*
X70982684Y-47168345D01*
X71106654Y-47292315D01*
X71255875Y-47384356D01*
X71255880Y-47384358D01*
X71422302Y-47439505D01*
X71422309Y-47439506D01*
X71525019Y-47449999D01*
X72049999Y-47449999D01*
X72050000Y-47449998D01*
X72050000Y-46504145D01*
X72116657Y-46542630D01*
X72237465Y-46575000D01*
X72362535Y-46575000D01*
X72483343Y-46542630D01*
X72550000Y-46504145D01*
X72550000Y-47449999D01*
X73074972Y-47449999D01*
X73074986Y-47449998D01*
X73177697Y-47439505D01*
X73344119Y-47384358D01*
X73344124Y-47384356D01*
X73493345Y-47292315D01*
X73617315Y-47168345D01*
X73709356Y-47019124D01*
X73709358Y-47019119D01*
X73764505Y-46852697D01*
X73764506Y-46852690D01*
X73774999Y-46749986D01*
X73775000Y-46749973D01*
X73775000Y-46350000D01*
X72704146Y-46350000D01*
X72742630Y-46283343D01*
X72775000Y-46162535D01*
X72775000Y-46037465D01*
X72742630Y-45916657D01*
X72704146Y-45850000D01*
X73774999Y-45850000D01*
X73774999Y-45450028D01*
X73774998Y-45450013D01*
X73764505Y-45347302D01*
X73709358Y-45180880D01*
X73709356Y-45180875D01*
X73617315Y-45031654D01*
X73560091Y-44974430D01*
X73526606Y-44913107D01*
X73531590Y-44843415D01*
X73560087Y-44799072D01*
X73683931Y-44675229D01*
X73836634Y-44465051D01*
X73954579Y-44233572D01*
X74034860Y-43986493D01*
X74071600Y-43754522D01*
X74075500Y-43729902D01*
X74075500Y-43470097D01*
X74050546Y-43312545D01*
X74034860Y-43213507D01*
X73954579Y-42966428D01*
X73954577Y-42966425D01*
X73954577Y-42966423D01*
X73884657Y-42829199D01*
X73836634Y-42734949D01*
X73683931Y-42524771D01*
X73596841Y-42437681D01*
X73563356Y-42376358D01*
X73568340Y-42306666D01*
X73596841Y-42262319D01*
X73683931Y-42175229D01*
X73836634Y-41965051D01*
X73954579Y-41733572D01*
X74034860Y-41486493D01*
X74061912Y-41315690D01*
X74075500Y-41229902D01*
X74075500Y-40970097D01*
X74048076Y-40796953D01*
X74034860Y-40713507D01*
X73954579Y-40466428D01*
X73954577Y-40466425D01*
X73954577Y-40466423D01*
X73911787Y-40382445D01*
X73836634Y-40234949D01*
X73683931Y-40024771D01*
X73596841Y-39937681D01*
X73563356Y-39876358D01*
X73568340Y-39806666D01*
X73596841Y-39762319D01*
X73683931Y-39675229D01*
X73836634Y-39465051D01*
X73954579Y-39233572D01*
X74034860Y-38986493D01*
X74072534Y-38748625D01*
X74075500Y-38729902D01*
X74075500Y-38470097D01*
X74053947Y-38334021D01*
X74034860Y-38213507D01*
X73954579Y-37966428D01*
X73954577Y-37966425D01*
X73954577Y-37966423D01*
X73911787Y-37882445D01*
X73836634Y-37734949D01*
X73683931Y-37524771D01*
X73500229Y-37341069D01*
X73290051Y-37188366D01*
X73217764Y-37151534D01*
X73058576Y-37070422D01*
X72811493Y-36990140D01*
X72554902Y-36949500D01*
X72554897Y-36949500D01*
X72045103Y-36949500D01*
X72045098Y-36949500D01*
X71788506Y-36990140D01*
X71541423Y-37070422D01*
X71309945Y-37188368D01*
X71099774Y-37341066D01*
X71099768Y-37341071D01*
X71077659Y-37363181D01*
X71016336Y-37396666D01*
X70989978Y-37399500D01*
X69305514Y-37399500D01*
X69118881Y-37429059D01*
X68939163Y-37487454D01*
X68770800Y-37573240D01*
X68617923Y-37684312D01*
X67139055Y-39163181D01*
X67077732Y-39196666D01*
X67051374Y-39199500D01*
X62283063Y-39199500D01*
X62216024Y-39179815D01*
X62170269Y-39127011D01*
X62160325Y-39057853D01*
X62166022Y-39034545D01*
X62185366Y-38979262D01*
X62185369Y-38979249D01*
X62200499Y-38844960D01*
X62200500Y-38844956D01*
X62200500Y-36755043D01*
X62200499Y-36755039D01*
X62185369Y-36620750D01*
X62185368Y-36620745D01*
X62125788Y-36450476D01*
X62029815Y-36297737D01*
X61902262Y-36170184D01*
X61749524Y-36074212D01*
X61749523Y-36074211D01*
X61683544Y-36051124D01*
X61626769Y-36010402D01*
X61601022Y-35945449D01*
X61600500Y-35934083D01*
X61600500Y-35355513D01*
X61570940Y-35168881D01*
X61512545Y-34989163D01*
X61426759Y-34820800D01*
X61343285Y-34705908D01*
X61343285Y-34705907D01*
X61315693Y-34667929D01*
X56729759Y-30081995D01*
X58599500Y-30081995D01*
X58599500Y-30318004D01*
X58599501Y-30318020D01*
X58630306Y-30552010D01*
X58691394Y-30779993D01*
X58781714Y-30998045D01*
X58781719Y-30998056D01*
X58839020Y-31097302D01*
X58899727Y-31202450D01*
X58899729Y-31202453D01*
X58899730Y-31202454D01*
X59043406Y-31389697D01*
X59043412Y-31389704D01*
X59210295Y-31556587D01*
X59210301Y-31556592D01*
X59397550Y-31700273D01*
X59528918Y-31776118D01*
X59601943Y-31818280D01*
X59601948Y-31818282D01*
X59601951Y-31818284D01*
X59820007Y-31908606D01*
X60047986Y-31969693D01*
X60281989Y-32000500D01*
X60281996Y-32000500D01*
X60518004Y-32000500D01*
X60518011Y-32000500D01*
X60752014Y-31969693D01*
X60979993Y-31908606D01*
X61198049Y-31818284D01*
X61402450Y-31700273D01*
X61589699Y-31556592D01*
X61756592Y-31389699D01*
X61900273Y-31202450D01*
X62018284Y-30998049D01*
X62108606Y-30779993D01*
X62169693Y-30552014D01*
X62200500Y-30318011D01*
X62200500Y-30081989D01*
X62169693Y-29847986D01*
X62108606Y-29620007D01*
X62018284Y-29401951D01*
X62018282Y-29401948D01*
X62018280Y-29401943D01*
X61946278Y-29277233D01*
X61946277Y-29277232D01*
X61913290Y-29220097D01*
X70449500Y-29220097D01*
X70449500Y-29479902D01*
X70490140Y-29736493D01*
X70570422Y-29983576D01*
X70688368Y-30215054D01*
X70841066Y-30425225D01*
X70841071Y-30425231D01*
X70964908Y-30549068D01*
X70998393Y-30610391D01*
X70993409Y-30680083D01*
X70964909Y-30724430D01*
X70907682Y-30781657D01*
X70815643Y-30930875D01*
X70815641Y-30930880D01*
X70760494Y-31097302D01*
X70760493Y-31097309D01*
X70750000Y-31200013D01*
X70750000Y-31600000D01*
X71816988Y-31600000D01*
X71784075Y-31657007D01*
X71750000Y-31784174D01*
X71750000Y-31915826D01*
X71784075Y-32042993D01*
X71816988Y-32100000D01*
X70750001Y-32100000D01*
X70750001Y-32499986D01*
X70760494Y-32602697D01*
X70815641Y-32769119D01*
X70815643Y-32769124D01*
X70907684Y-32918345D01*
X71031654Y-33042315D01*
X71180875Y-33134356D01*
X71180880Y-33134358D01*
X71347302Y-33189505D01*
X71347309Y-33189506D01*
X71450019Y-33199999D01*
X71999999Y-33199999D01*
X72000000Y-33199998D01*
X72000000Y-32283012D01*
X72057007Y-32315925D01*
X72184174Y-32350000D01*
X72315826Y-32350000D01*
X72442993Y-32315925D01*
X72500000Y-32283012D01*
X72500000Y-33199999D01*
X73049972Y-33199999D01*
X73049986Y-33199998D01*
X73152697Y-33189505D01*
X73319119Y-33134358D01*
X73319124Y-33134356D01*
X73468345Y-33042315D01*
X73592315Y-32918345D01*
X73684356Y-32769124D01*
X73684358Y-32769119D01*
X73739505Y-32602697D01*
X73739506Y-32602690D01*
X73749999Y-32499986D01*
X73750000Y-32499973D01*
X73750000Y-32100000D01*
X72683012Y-32100000D01*
X72715925Y-32042993D01*
X72750000Y-31915826D01*
X72750000Y-31784174D01*
X72715925Y-31657007D01*
X72683012Y-31600000D01*
X73749999Y-31600000D01*
X73749999Y-31200028D01*
X73749998Y-31200013D01*
X73739505Y-31097302D01*
X73684358Y-30930880D01*
X73684356Y-30930875D01*
X73592315Y-30781654D01*
X73535091Y-30724430D01*
X73501606Y-30663107D01*
X73506590Y-30593415D01*
X73535087Y-30549072D01*
X73658931Y-30425229D01*
X73811634Y-30215051D01*
X73929579Y-29983572D01*
X74009860Y-29736493D01*
X74032539Y-29593298D01*
X74050500Y-29479902D01*
X74050500Y-29220097D01*
X74017270Y-29010295D01*
X74009860Y-28963507D01*
X73929579Y-28716428D01*
X73929577Y-28716425D01*
X73929577Y-28716423D01*
X73886787Y-28632445D01*
X73811634Y-28484949D01*
X73658931Y-28274771D01*
X73475229Y-28091069D01*
X73475225Y-28091066D01*
X73265054Y-27938368D01*
X73265053Y-27938367D01*
X73265051Y-27938366D01*
X73192764Y-27901534D01*
X73033576Y-27820422D01*
X72786493Y-27740140D01*
X72529902Y-27699500D01*
X72529897Y-27699500D01*
X71970103Y-27699500D01*
X71970098Y-27699500D01*
X71713506Y-27740140D01*
X71466423Y-27820422D01*
X71234945Y-27938368D01*
X71024774Y-28091066D01*
X71024768Y-28091071D01*
X70841071Y-28274768D01*
X70841066Y-28274774D01*
X70688368Y-28484945D01*
X70570422Y-28716423D01*
X70490140Y-28963506D01*
X70449500Y-29220097D01*
X61913290Y-29220097D01*
X61900273Y-29197550D01*
X61756592Y-29010301D01*
X61756587Y-29010295D01*
X61589704Y-28843412D01*
X61589697Y-28843406D01*
X61402454Y-28699730D01*
X61402453Y-28699729D01*
X61402450Y-28699727D01*
X61320957Y-28652677D01*
X61198056Y-28581719D01*
X61198045Y-28581714D01*
X60979993Y-28491394D01*
X60752010Y-28430306D01*
X60518020Y-28399501D01*
X60518017Y-28399500D01*
X60518011Y-28399500D01*
X60281989Y-28399500D01*
X60281983Y-28399500D01*
X60281979Y-28399501D01*
X60047989Y-28430306D01*
X59820006Y-28491394D01*
X59601954Y-28581714D01*
X59601943Y-28581719D01*
X59397545Y-28699730D01*
X59210302Y-28843406D01*
X59210295Y-28843412D01*
X59043412Y-29010295D01*
X59043406Y-29010302D01*
X58899730Y-29197545D01*
X58781719Y-29401943D01*
X58781714Y-29401954D01*
X58691394Y-29620006D01*
X58630306Y-29847989D01*
X58599501Y-30081979D01*
X58599500Y-30081995D01*
X56729759Y-30081995D01*
X51082076Y-24434312D01*
X51082074Y-24434310D01*
X50929199Y-24323240D01*
X50760836Y-24237454D01*
X50581118Y-24179059D01*
X50394486Y-24149500D01*
X50394481Y-24149500D01*
X32324500Y-24149500D01*
X32257461Y-24129815D01*
X32211706Y-24077011D01*
X32200500Y-24025500D01*
X32200500Y-23205513D01*
X32170940Y-23018881D01*
X32143846Y-22935497D01*
X32112547Y-22839168D01*
X32112545Y-22839165D01*
X32112545Y-22839163D01*
X32026759Y-22670800D01*
X32006969Y-22643562D01*
X31943254Y-22555866D01*
X31919775Y-22490060D01*
X31935600Y-22422006D01*
X31985706Y-22373311D01*
X31987179Y-22372547D01*
X32018929Y-22356370D01*
X32217901Y-22211809D01*
X32382319Y-22047391D01*
X32443642Y-22013906D01*
X32513334Y-22018890D01*
X32557681Y-22047391D01*
X32722100Y-22211810D01*
X32722105Y-22211814D01*
X32814672Y-22279067D01*
X32921071Y-22356370D01*
X33029888Y-22411815D01*
X33140207Y-22468026D01*
X33140210Y-22468027D01*
X33208022Y-22490060D01*
X33374114Y-22544026D01*
X33617029Y-22582500D01*
X33617030Y-22582500D01*
X33862970Y-22582500D01*
X33862971Y-22582500D01*
X34105886Y-22544026D01*
X34339792Y-22468026D01*
X34558929Y-22356370D01*
X34757901Y-22211809D01*
X34931809Y-22037901D01*
X34931811Y-22037897D01*
X34931814Y-22037895D01*
X34987495Y-21961255D01*
X35076370Y-21838929D01*
X35106511Y-21779773D01*
X35110145Y-21774210D01*
X35131853Y-21755677D01*
X35151452Y-21734926D01*
X35158086Y-21733282D01*
X35163285Y-21728845D01*
X35191570Y-21724990D01*
X35219273Y-21718130D01*
X35223693Y-21718398D01*
X35227731Y-21718715D01*
X35790504Y-21155941D01*
X35806619Y-21216081D01*
X35873498Y-21331920D01*
X35968080Y-21426502D01*
X36083919Y-21493381D01*
X36144057Y-21509494D01*
X35581283Y-22072268D01*
X35581283Y-22072269D01*
X35618567Y-22099358D01*
X35795562Y-22189542D01*
X35984477Y-22250924D01*
X36180679Y-22282000D01*
X36379321Y-22282000D01*
X36575520Y-22250924D01*
X36575523Y-22250924D01*
X36764437Y-22189542D01*
X36941425Y-22099362D01*
X36978716Y-22072268D01*
X36415942Y-21509494D01*
X36476081Y-21493381D01*
X36591920Y-21426502D01*
X36686502Y-21331920D01*
X36753381Y-21216081D01*
X36769495Y-21155942D01*
X37332268Y-21718715D01*
X37336307Y-21718398D01*
X37404684Y-21732763D01*
X37454440Y-21781815D01*
X37456519Y-21785721D01*
X37477531Y-21826960D01*
X37483632Y-21838932D01*
X37628185Y-22037894D01*
X37628189Y-22037899D01*
X37802100Y-22211810D01*
X37802105Y-22211814D01*
X37894672Y-22279067D01*
X38001071Y-22356370D01*
X38109888Y-22411815D01*
X38220207Y-22468026D01*
X38220210Y-22468027D01*
X38288022Y-22490060D01*
X38454114Y-22544026D01*
X38697029Y-22582500D01*
X38697030Y-22582500D01*
X38942970Y-22582500D01*
X38942971Y-22582500D01*
X39185886Y-22544026D01*
X39419792Y-22468026D01*
X39638929Y-22356370D01*
X39837901Y-22211809D01*
X40002319Y-22047391D01*
X40063642Y-22013906D01*
X40133334Y-22018890D01*
X40177681Y-22047391D01*
X40342100Y-22211810D01*
X40342105Y-22211814D01*
X40434672Y-22279067D01*
X40541071Y-22356370D01*
X40649888Y-22411815D01*
X40760207Y-22468026D01*
X40760210Y-22468027D01*
X40828022Y-22490060D01*
X40994114Y-22544026D01*
X41237029Y-22582500D01*
X41237030Y-22582500D01*
X41482970Y-22582500D01*
X41482971Y-22582500D01*
X41725886Y-22544026D01*
X41959792Y-22468026D01*
X42178929Y-22356370D01*
X42377901Y-22211809D01*
X42542319Y-22047391D01*
X42603642Y-22013906D01*
X42673334Y-22018890D01*
X42717681Y-22047391D01*
X42882100Y-22211810D01*
X42882105Y-22211814D01*
X42974672Y-22279067D01*
X43081071Y-22356370D01*
X43189888Y-22411815D01*
X43300207Y-22468026D01*
X43300210Y-22468027D01*
X43368022Y-22490060D01*
X43534114Y-22544026D01*
X43777029Y-22582500D01*
X43777030Y-22582500D01*
X44022970Y-22582500D01*
X44022971Y-22582500D01*
X44265886Y-22544026D01*
X44499792Y-22468026D01*
X44718929Y-22356370D01*
X44917901Y-22211809D01*
X45082319Y-22047391D01*
X45143642Y-22013906D01*
X45213334Y-22018890D01*
X45257681Y-22047391D01*
X45422100Y-22211810D01*
X45422105Y-22211814D01*
X45514672Y-22279067D01*
X45621071Y-22356370D01*
X45729888Y-22411815D01*
X45840207Y-22468026D01*
X45840210Y-22468027D01*
X45908022Y-22490060D01*
X46074114Y-22544026D01*
X46317029Y-22582500D01*
X46317030Y-22582500D01*
X46562970Y-22582500D01*
X46562971Y-22582500D01*
X46805886Y-22544026D01*
X47039792Y-22468026D01*
X47258929Y-22356370D01*
X47457901Y-22211809D01*
X47622319Y-22047391D01*
X47683642Y-22013906D01*
X47753334Y-22018890D01*
X47797681Y-22047391D01*
X47962100Y-22211810D01*
X47962105Y-22211814D01*
X48054672Y-22279067D01*
X48161071Y-22356370D01*
X48269888Y-22411815D01*
X48380207Y-22468026D01*
X48380210Y-22468027D01*
X48448022Y-22490060D01*
X48614114Y-22544026D01*
X48857029Y-22582500D01*
X48857030Y-22582500D01*
X49102970Y-22582500D01*
X49102971Y-22582500D01*
X49345886Y-22544026D01*
X49579792Y-22468026D01*
X49798929Y-22356370D01*
X49997901Y-22211809D01*
X50162319Y-22047391D01*
X50223642Y-22013906D01*
X50293334Y-22018890D01*
X50337681Y-22047391D01*
X50502100Y-22211810D01*
X50502105Y-22211814D01*
X50594672Y-22279067D01*
X50701071Y-22356370D01*
X50809888Y-22411815D01*
X50920207Y-22468026D01*
X50920210Y-22468027D01*
X50988022Y-22490060D01*
X51154114Y-22544026D01*
X51397029Y-22582500D01*
X51397030Y-22582500D01*
X51642970Y-22582500D01*
X51642971Y-22582500D01*
X51885886Y-22544026D01*
X52119792Y-22468026D01*
X52338929Y-22356370D01*
X52537901Y-22211809D01*
X52702319Y-22047391D01*
X52763642Y-22013906D01*
X52833334Y-22018890D01*
X52877681Y-22047391D01*
X53042100Y-22211810D01*
X53042105Y-22211814D01*
X53134672Y-22279067D01*
X53241071Y-22356370D01*
X53349888Y-22411815D01*
X53460207Y-22468026D01*
X53460210Y-22468027D01*
X53528022Y-22490060D01*
X53694114Y-22544026D01*
X53937029Y-22582500D01*
X53937030Y-22582500D01*
X54182970Y-22582500D01*
X54182971Y-22582500D01*
X54425886Y-22544026D01*
X54659792Y-22468026D01*
X54878929Y-22356370D01*
X55077901Y-22211809D01*
X55251809Y-22037901D01*
X55251811Y-22037897D01*
X55251814Y-22037895D01*
X55307495Y-21961255D01*
X55396370Y-21838929D01*
X55426511Y-21779773D01*
X55430145Y-21774210D01*
X55451853Y-21755677D01*
X55471452Y-21734926D01*
X55478086Y-21733282D01*
X55483285Y-21728845D01*
X55511570Y-21724990D01*
X55539273Y-21718130D01*
X55543693Y-21718398D01*
X55547731Y-21718715D01*
X56110504Y-21155941D01*
X56126619Y-21216081D01*
X56193498Y-21331920D01*
X56288080Y-21426502D01*
X56403919Y-21493381D01*
X56464057Y-21509494D01*
X55901283Y-22072268D01*
X55901283Y-22072269D01*
X55938567Y-22099358D01*
X56115562Y-22189542D01*
X56304477Y-22250924D01*
X56500679Y-22282000D01*
X56699321Y-22282000D01*
X56895520Y-22250924D01*
X56895523Y-22250924D01*
X57084437Y-22189542D01*
X57261425Y-22099362D01*
X57298716Y-22072268D01*
X56735942Y-21509494D01*
X56796081Y-21493381D01*
X56911920Y-21426502D01*
X57006502Y-21331920D01*
X57073381Y-21216081D01*
X57089495Y-21155942D01*
X57652268Y-21718715D01*
X57656307Y-21718398D01*
X57724684Y-21732763D01*
X57774440Y-21781815D01*
X57776519Y-21785721D01*
X57797531Y-21826960D01*
X57803632Y-21838932D01*
X57948185Y-22037894D01*
X57948189Y-22037899D01*
X58122100Y-22211810D01*
X58122105Y-22211814D01*
X58214672Y-22279067D01*
X58321071Y-22356370D01*
X58429888Y-22411815D01*
X58540207Y-22468026D01*
X58540210Y-22468027D01*
X58608022Y-22490060D01*
X58774114Y-22544026D01*
X59017029Y-22582500D01*
X59017030Y-22582500D01*
X59262970Y-22582500D01*
X59262971Y-22582500D01*
X59505886Y-22544026D01*
X59739792Y-22468026D01*
X59958929Y-22356370D01*
X60157901Y-22211809D01*
X60322319Y-22047391D01*
X60383642Y-22013906D01*
X60453334Y-22018890D01*
X60497681Y-22047391D01*
X60662100Y-22211810D01*
X60662105Y-22211814D01*
X60754672Y-22279067D01*
X60861071Y-22356370D01*
X60969888Y-22411815D01*
X61080207Y-22468026D01*
X61080210Y-22468027D01*
X61148022Y-22490060D01*
X61314114Y-22544026D01*
X61557029Y-22582500D01*
X61557030Y-22582500D01*
X61802970Y-22582500D01*
X61802971Y-22582500D01*
X62045886Y-22544026D01*
X62279792Y-22468026D01*
X62498929Y-22356370D01*
X62697901Y-22211809D01*
X62862319Y-22047391D01*
X62923642Y-22013906D01*
X62993334Y-22018890D01*
X63037681Y-22047391D01*
X63202100Y-22211810D01*
X63202105Y-22211814D01*
X63294672Y-22279067D01*
X63401071Y-22356370D01*
X63509888Y-22411815D01*
X63620207Y-22468026D01*
X63620210Y-22468027D01*
X63688022Y-22490060D01*
X63854114Y-22544026D01*
X64097029Y-22582500D01*
X64097030Y-22582500D01*
X64342970Y-22582500D01*
X64342971Y-22582500D01*
X64585886Y-22544026D01*
X64819792Y-22468026D01*
X65038929Y-22356370D01*
X65237901Y-22211809D01*
X65402319Y-22047391D01*
X65463642Y-22013906D01*
X65533334Y-22018890D01*
X65577681Y-22047391D01*
X65742100Y-22211810D01*
X65742105Y-22211814D01*
X65834672Y-22279067D01*
X65941071Y-22356370D01*
X66049888Y-22411815D01*
X66160207Y-22468026D01*
X66160210Y-22468027D01*
X66228022Y-22490060D01*
X66394114Y-22544026D01*
X66637029Y-22582500D01*
X66637030Y-22582500D01*
X66882970Y-22582500D01*
X66882971Y-22582500D01*
X67125886Y-22544026D01*
X67359792Y-22468026D01*
X67578929Y-22356370D01*
X67777901Y-22211809D01*
X67942319Y-22047391D01*
X68003642Y-22013906D01*
X68073334Y-22018890D01*
X68117681Y-22047391D01*
X68282100Y-22211810D01*
X68282105Y-22211814D01*
X68374672Y-22279067D01*
X68481071Y-22356370D01*
X68589888Y-22411815D01*
X68700207Y-22468026D01*
X68700210Y-22468027D01*
X68768022Y-22490060D01*
X68934114Y-22544026D01*
X69177029Y-22582500D01*
X69177030Y-22582500D01*
X69422970Y-22582500D01*
X69422971Y-22582500D01*
X69665886Y-22544026D01*
X69899792Y-22468026D01*
X70118929Y-22356370D01*
X70317901Y-22211809D01*
X70482319Y-22047391D01*
X70543642Y-22013906D01*
X70613334Y-22018890D01*
X70657681Y-22047391D01*
X70822100Y-22211810D01*
X70822105Y-22211814D01*
X70914672Y-22279067D01*
X71021071Y-22356370D01*
X71129888Y-22411815D01*
X71240207Y-22468026D01*
X71240210Y-22468027D01*
X71308022Y-22490060D01*
X71474114Y-22544026D01*
X71717029Y-22582500D01*
X71717030Y-22582500D01*
X71962970Y-22582500D01*
X71962971Y-22582500D01*
X72205886Y-22544026D01*
X72439792Y-22468026D01*
X72658929Y-22356370D01*
X72857901Y-22211809D01*
X73031809Y-22037901D01*
X73031811Y-22037897D01*
X73031814Y-22037895D01*
X73087495Y-21961255D01*
X73176370Y-21838929D01*
X73206511Y-21779773D01*
X73210145Y-21774210D01*
X73231853Y-21755677D01*
X73251452Y-21734926D01*
X73258086Y-21733282D01*
X73263285Y-21728845D01*
X73291570Y-21724990D01*
X73319273Y-21718130D01*
X73323693Y-21718398D01*
X73327731Y-21718715D01*
X73890504Y-21155941D01*
X73906619Y-21216081D01*
X73973498Y-21331920D01*
X74068080Y-21426502D01*
X74183919Y-21493381D01*
X74244057Y-21509494D01*
X73681283Y-22072268D01*
X73681283Y-22072269D01*
X73718567Y-22099358D01*
X73895562Y-22189542D01*
X74084477Y-22250924D01*
X74280679Y-22282000D01*
X74479321Y-22282000D01*
X74675520Y-22250924D01*
X74675523Y-22250924D01*
X74864437Y-22189542D01*
X75041425Y-22099362D01*
X75078716Y-22072268D01*
X74515942Y-21509494D01*
X74576081Y-21493381D01*
X74691920Y-21426502D01*
X74786502Y-21331920D01*
X74853381Y-21216081D01*
X74869495Y-21155941D01*
X75432268Y-21718715D01*
X75459364Y-21681422D01*
X75546856Y-21509709D01*
X75594830Y-21458912D01*
X75662651Y-21442117D01*
X75728786Y-21464654D01*
X75766699Y-21507550D01*
X75900388Y-21757664D01*
X75900399Y-21757682D01*
X76113305Y-22076318D01*
X76113315Y-22076332D01*
X76356439Y-22372580D01*
X76627419Y-22643560D01*
X76627424Y-22643564D01*
X76627425Y-22643565D01*
X76923673Y-22886689D01*
X76923680Y-22886694D01*
X76923690Y-22886701D01*
X77155777Y-23041776D01*
X77200583Y-23095388D01*
X77209290Y-23164713D01*
X77179136Y-23227740D01*
X77143185Y-23255361D01*
X77121069Y-23266630D01*
X76922105Y-23411185D01*
X76922100Y-23411189D01*
X76748189Y-23585100D01*
X76748185Y-23585105D01*
X76603632Y-23784067D01*
X76491973Y-24003207D01*
X76491972Y-24003210D01*
X76415974Y-24237112D01*
X76377500Y-24480029D01*
X76377500Y-24725970D01*
X76415974Y-24968887D01*
X76491972Y-25202789D01*
X76491973Y-25202792D01*
X76603632Y-25421932D01*
X76748185Y-25620894D01*
X76748189Y-25620899D01*
X76912609Y-25785319D01*
X76946094Y-25846642D01*
X76941110Y-25916334D01*
X76912609Y-25960681D01*
X76748189Y-26125100D01*
X76748185Y-26125105D01*
X76603632Y-26324067D01*
X76491973Y-26543207D01*
X76491972Y-26543210D01*
X76415974Y-26777112D01*
X76377500Y-27020029D01*
X76377500Y-27265970D01*
X76415974Y-27508887D01*
X76491972Y-27742789D01*
X76491973Y-27742792D01*
X76603632Y-27961932D01*
X76748185Y-28160894D01*
X76748189Y-28160899D01*
X76922100Y-28334810D01*
X76922105Y-28334814D01*
X77011140Y-28399501D01*
X77121071Y-28479370D01*
X77264322Y-28552360D01*
X77340207Y-28591026D01*
X77340210Y-28591027D01*
X77457161Y-28629026D01*
X77574114Y-28667026D01*
X77817029Y-28705500D01*
X77817030Y-28705500D01*
X78062970Y-28705500D01*
X78062971Y-28705500D01*
X78305886Y-28667026D01*
X78539792Y-28591026D01*
X78758929Y-28479370D01*
X78957901Y-28334809D01*
X79122319Y-28170391D01*
X79183642Y-28136906D01*
X79253334Y-28141890D01*
X79297681Y-28170391D01*
X79462100Y-28334810D01*
X79462105Y-28334814D01*
X79551140Y-28399501D01*
X79661071Y-28479370D01*
X79804322Y-28552360D01*
X79880207Y-28591026D01*
X79880210Y-28591027D01*
X79997161Y-28629026D01*
X80114114Y-28667026D01*
X80357029Y-28705500D01*
X80357030Y-28705500D01*
X80602970Y-28705500D01*
X80602971Y-28705500D01*
X80845886Y-28667026D01*
X81079792Y-28591026D01*
X81298929Y-28479370D01*
X81497901Y-28334809D01*
X81671809Y-28160901D01*
X81816370Y-27961929D01*
X81844575Y-27906572D01*
X81892549Y-27855777D01*
X81960370Y-27838982D01*
X82026505Y-27861519D01*
X82069957Y-27916234D01*
X82079060Y-27963091D01*
X82011295Y-65708326D01*
X81991490Y-65775330D01*
X81938604Y-65820990D01*
X81869428Y-65830809D01*
X81808631Y-65803957D01*
X81576330Y-65613313D01*
X81576318Y-65613305D01*
X81257682Y-65400399D01*
X81257681Y-65400398D01*
X81257676Y-65400395D01*
X81257671Y-65400392D01*
X81257664Y-65400388D01*
X80919697Y-65219740D01*
X80919692Y-65219738D01*
X80565625Y-65073078D01*
X80198877Y-64961827D01*
X80198866Y-64961824D01*
X79823011Y-64887063D01*
X79535763Y-64858772D01*
X79441619Y-64849500D01*
X79058381Y-64849500D01*
X78971394Y-64858067D01*
X78676988Y-64887063D01*
X78301133Y-64961824D01*
X78301122Y-64961827D01*
X77934374Y-65073078D01*
X77580307Y-65219738D01*
X77580302Y-65219740D01*
X77242335Y-65400388D01*
X77242317Y-65400399D01*
X76923681Y-65613305D01*
X76923667Y-65613315D01*
X76627419Y-65856439D01*
X76356439Y-66127419D01*
X76113315Y-66423667D01*
X76113305Y-66423681D01*
X75900399Y-66742317D01*
X75900388Y-66742335D01*
X75719740Y-67080302D01*
X75719738Y-67080307D01*
X75573078Y-67434374D01*
X75461827Y-67801122D01*
X75461824Y-67801133D01*
X75387063Y-68176988D01*
X75349500Y-68558384D01*
X75349500Y-68941615D01*
X75387063Y-69323011D01*
X75461824Y-69698866D01*
X75461827Y-69698877D01*
X75573078Y-70065625D01*
X75719738Y-70419692D01*
X75719740Y-70419697D01*
X75900388Y-70757664D01*
X75900399Y-70757682D01*
X76113305Y-71076318D01*
X76113315Y-71076332D01*
X76356439Y-71372580D01*
X76627419Y-71643560D01*
X76793851Y-71780147D01*
X76833185Y-71837892D01*
X76835056Y-71907737D01*
X76798869Y-71967505D01*
X76736113Y-71998221D01*
X76715186Y-72000000D01*
X23784814Y-72000000D01*
X23717775Y-71980315D01*
X23672020Y-71927511D01*
X23662076Y-71858353D01*
X23691101Y-71794797D01*
X23706149Y-71780147D01*
X23872575Y-71643565D01*
X24143565Y-71372575D01*
X24386689Y-71076327D01*
X24599605Y-70757676D01*
X24780263Y-70419690D01*
X24926922Y-70065624D01*
X25038170Y-69698887D01*
X25038172Y-69698877D01*
X25038175Y-69698866D01*
X25112936Y-69323011D01*
X25150500Y-68941615D01*
X25150500Y-68558384D01*
X25112936Y-68176988D01*
X25038175Y-67801133D01*
X25038172Y-67801122D01*
X25038171Y-67801119D01*
X25038170Y-67801113D01*
X24926922Y-67434376D01*
X24780263Y-67080310D01*
X24599605Y-66742324D01*
X24386689Y-66423673D01*
X24143565Y-66127425D01*
X24143564Y-66127424D01*
X24143560Y-66127419D01*
X23872580Y-65856439D01*
X23576332Y-65613315D01*
X23576329Y-65613313D01*
X23576327Y-65613311D01*
X23257676Y-65400395D01*
X23257671Y-65400392D01*
X23257664Y-65400388D01*
X22919697Y-65219740D01*
X22919692Y-65219738D01*
X22565625Y-65073078D01*
X22198877Y-64961827D01*
X22198866Y-64961824D01*
X21823011Y-64887063D01*
X21535763Y-64858772D01*
X21441619Y-64849500D01*
X21058381Y-64849500D01*
X20971394Y-64858067D01*
X20676988Y-64887063D01*
X20301133Y-64961824D01*
X20301122Y-64961827D01*
X19934374Y-65073078D01*
X19580307Y-65219738D01*
X19580302Y-65219740D01*
X19242328Y-65400392D01*
X19242317Y-65400399D01*
X19228875Y-65409380D01*
X19162196Y-65430254D01*
X19094817Y-65411766D01*
X19048129Y-65359785D01*
X19035991Y-65305607D01*
X19037242Y-65073078D01*
X19049167Y-62855000D01*
X52623513Y-62855000D01*
X53753712Y-62855000D01*
X53704085Y-62940956D01*
X53675122Y-63049048D01*
X53675122Y-63160952D01*
X53704085Y-63269044D01*
X53753712Y-63355000D01*
X52623513Y-63355000D01*
X52632131Y-63409413D01*
X52695366Y-63604029D01*
X52788262Y-63786349D01*
X52908539Y-63951894D01*
X52908539Y-63951895D01*
X53053226Y-64096582D01*
X53218772Y-64216859D01*
X53401090Y-64309755D01*
X53595704Y-64372990D01*
X53797805Y-64405000D01*
X53850122Y-64405000D01*
X53850122Y-63451409D01*
X53936078Y-63501037D01*
X54044170Y-63530000D01*
X54156074Y-63530000D01*
X54264166Y-63501037D01*
X54350122Y-63451409D01*
X54350122Y-64405000D01*
X54402439Y-64405000D01*
X54604539Y-64372990D01*
X54799153Y-64309755D01*
X54981471Y-64216859D01*
X55147016Y-64096582D01*
X55147017Y-64096582D01*
X55291704Y-63951895D01*
X55291704Y-63951894D01*
X55411981Y-63786349D01*
X55504877Y-63604029D01*
X55568112Y-63409413D01*
X55576731Y-63355000D01*
X54446532Y-63355000D01*
X54496159Y-63269044D01*
X54525122Y-63160952D01*
X54525122Y-63049048D01*
X54496159Y-62940956D01*
X54446532Y-62855000D01*
X55576731Y-62855000D01*
X55568112Y-62800586D01*
X55504877Y-62605970D01*
X55411981Y-62423650D01*
X55291704Y-62258105D01*
X55291704Y-62258104D01*
X55147017Y-62113417D01*
X54981471Y-61993140D01*
X54799153Y-61900244D01*
X54604539Y-61837009D01*
X54402439Y-61805000D01*
X54350122Y-61805000D01*
X54350122Y-62758590D01*
X54264166Y-62708963D01*
X54156074Y-62680000D01*
X54044170Y-62680000D01*
X53936078Y-62708963D01*
X53850122Y-62758590D01*
X53850122Y-61805000D01*
X53797805Y-61805000D01*
X53595704Y-61837009D01*
X53401090Y-61900244D01*
X53218772Y-61993140D01*
X53053227Y-62113417D01*
X53053226Y-62113417D01*
X52908539Y-62258104D01*
X52908539Y-62258105D01*
X52788262Y-62423650D01*
X52695366Y-62605970D01*
X52632131Y-62800586D01*
X52623513Y-62855000D01*
X19049167Y-62855000D01*
X19272492Y-21316464D01*
X19292535Y-21249536D01*
X19345585Y-21204065D01*
X19414796Y-21194494D01*
X19478194Y-21223860D01*
X19494865Y-21241649D01*
X19516679Y-21270078D01*
X19516685Y-21270085D01*
X19729914Y-21483314D01*
X19729921Y-21483320D01*
X19969168Y-21666900D01*
X20230328Y-21817681D01*
X20230329Y-21817681D01*
X20230332Y-21817683D01*
X20281632Y-21838932D01*
X20508939Y-21933086D01*
X20508940Y-21933086D01*
X20508942Y-21933087D01*
X20800232Y-22011138D01*
X21099217Y-22050500D01*
X21099224Y-22050500D01*
X21400776Y-22050500D01*
X21400783Y-22050500D01*
X21699768Y-22011138D01*
X21991058Y-21933087D01*
X22269668Y-21817683D01*
X22530832Y-21666900D01*
X22770080Y-21483319D01*
X22983319Y-21270080D01*
X23166900Y-21030832D01*
X23317683Y-20769668D01*
X23433087Y-20491058D01*
X23511138Y-20199768D01*
X23550500Y-19900783D01*
X23550500Y-19599217D01*
X23511138Y-19300232D01*
X23433087Y-19008942D01*
X23317683Y-18730332D01*
X23166900Y-18469168D01*
X23080853Y-18357029D01*
X22983320Y-18229921D01*
X22983314Y-18229914D01*
X22770085Y-18016685D01*
X22770078Y-18016679D01*
X22530831Y-17833099D01*
X22269671Y-17682318D01*
X22269661Y-17682314D01*
X21991060Y-17566913D01*
X21699766Y-17488861D01*
X21400793Y-17449501D01*
X21400788Y-17449500D01*
X21400783Y-17449500D01*
X21099217Y-17449500D01*
X21099211Y-17449500D01*
X21099206Y-17449501D01*
X20800233Y-17488861D01*
X20508939Y-17566913D01*
X20230338Y-17682314D01*
X20230328Y-17682318D01*
X19969168Y-17833099D01*
X19729921Y-18016679D01*
X19729914Y-18016685D01*
X19516685Y-18229914D01*
X19516674Y-18229926D01*
X19511828Y-18236242D01*
X19455397Y-18277440D01*
X19385651Y-18281589D01*
X19324733Y-18247371D01*
X19291986Y-18185651D01*
X19289461Y-18160088D01*
X19299335Y-16323526D01*
X19319379Y-16256597D01*
X19372429Y-16211126D01*
X19423526Y-16200196D01*
X76996164Y-16291872D01*
G37*
%TD.AperFunction*%
%TA.AperFunction,Conductor*%
G36*
X35053334Y-19478890D02*
G01*
X35097681Y-19507391D01*
X35262100Y-19671810D01*
X35262105Y-19671814D01*
X35437920Y-19799550D01*
X35461071Y-19816370D01*
X35514278Y-19843480D01*
X35565073Y-19891453D01*
X35581868Y-19959274D01*
X35581600Y-19963691D01*
X35581282Y-19967730D01*
X36144058Y-20530504D01*
X36083919Y-20546619D01*
X35968080Y-20613498D01*
X35873498Y-20708080D01*
X35806619Y-20823919D01*
X35790504Y-20884057D01*
X35227730Y-20321282D01*
X35223691Y-20321600D01*
X35155314Y-20307235D01*
X35105558Y-20258183D01*
X35103498Y-20254313D01*
X35076370Y-20201071D01*
X34987499Y-20078750D01*
X34931814Y-20002105D01*
X34931810Y-20002100D01*
X34767391Y-19837681D01*
X34763052Y-19829735D01*
X34755805Y-19824310D01*
X34746570Y-19799550D01*
X34733906Y-19776358D01*
X34734551Y-19767328D01*
X34731388Y-19758846D01*
X34737004Y-19733025D01*
X34738890Y-19706666D01*
X34744708Y-19697612D01*
X34746240Y-19690573D01*
X34767391Y-19662319D01*
X34922319Y-19507391D01*
X34983642Y-19473906D01*
X35053334Y-19478890D01*
G37*
%TD.AperFunction*%
%TA.AperFunction,Conductor*%
G36*
X37566974Y-19477004D02*
G01*
X37593334Y-19478890D01*
X37602387Y-19484708D01*
X37609427Y-19486240D01*
X37637681Y-19507391D01*
X37792609Y-19662319D01*
X37826094Y-19723642D01*
X37821110Y-19793334D01*
X37792609Y-19837681D01*
X37628189Y-20002100D01*
X37628185Y-20002105D01*
X37483630Y-20201069D01*
X37456518Y-20254279D01*
X37408543Y-20305075D01*
X37340722Y-20321869D01*
X37336307Y-20321601D01*
X37332268Y-20321283D01*
X36769494Y-20884057D01*
X36753381Y-20823919D01*
X36686502Y-20708080D01*
X36591920Y-20613498D01*
X36476081Y-20546619D01*
X36415941Y-20530504D01*
X36978715Y-19967731D01*
X36978398Y-19963693D01*
X36992762Y-19895316D01*
X37041813Y-19845559D01*
X37045641Y-19843521D01*
X37098929Y-19816370D01*
X37297901Y-19671809D01*
X37462319Y-19507391D01*
X37470264Y-19503052D01*
X37475690Y-19495805D01*
X37500449Y-19486570D01*
X37523642Y-19473906D01*
X37532671Y-19474551D01*
X37541154Y-19471388D01*
X37566974Y-19477004D01*
G37*
%TD.AperFunction*%
%TA.AperFunction,Conductor*%
G36*
X55373334Y-19478890D02*
G01*
X55417681Y-19507391D01*
X55582100Y-19671810D01*
X55582105Y-19671814D01*
X55757920Y-19799550D01*
X55781071Y-19816370D01*
X55834278Y-19843480D01*
X55885073Y-19891453D01*
X55901868Y-19959274D01*
X55901600Y-19963691D01*
X55901282Y-19967730D01*
X56464058Y-20530504D01*
X56403919Y-20546619D01*
X56288080Y-20613498D01*
X56193498Y-20708080D01*
X56126619Y-20823919D01*
X56110504Y-20884057D01*
X55547730Y-20321282D01*
X55543691Y-20321600D01*
X55475314Y-20307235D01*
X55425558Y-20258183D01*
X55423498Y-20254313D01*
X55396370Y-20201071D01*
X55307499Y-20078750D01*
X55251814Y-20002105D01*
X55251810Y-20002100D01*
X55087391Y-19837681D01*
X55083052Y-19829735D01*
X55075805Y-19824310D01*
X55066570Y-19799550D01*
X55053906Y-19776358D01*
X55054551Y-19767328D01*
X55051388Y-19758846D01*
X55057004Y-19733025D01*
X55058890Y-19706666D01*
X55064708Y-19697612D01*
X55066240Y-19690573D01*
X55087391Y-19662319D01*
X55242319Y-19507391D01*
X55303642Y-19473906D01*
X55373334Y-19478890D01*
G37*
%TD.AperFunction*%
%TA.AperFunction,Conductor*%
G36*
X57886974Y-19477004D02*
G01*
X57913334Y-19478890D01*
X57922387Y-19484708D01*
X57929427Y-19486240D01*
X57957681Y-19507391D01*
X58112609Y-19662319D01*
X58146094Y-19723642D01*
X58141110Y-19793334D01*
X58112609Y-19837681D01*
X57948189Y-20002100D01*
X57948185Y-20002105D01*
X57803630Y-20201069D01*
X57776518Y-20254279D01*
X57728543Y-20305075D01*
X57660722Y-20321869D01*
X57656307Y-20321601D01*
X57652268Y-20321283D01*
X57089494Y-20884057D01*
X57073381Y-20823919D01*
X57006502Y-20708080D01*
X56911920Y-20613498D01*
X56796081Y-20546619D01*
X56735941Y-20530504D01*
X57298715Y-19967731D01*
X57298398Y-19963693D01*
X57312762Y-19895316D01*
X57361813Y-19845559D01*
X57365641Y-19843521D01*
X57418929Y-19816370D01*
X57617901Y-19671809D01*
X57782319Y-19507391D01*
X57790264Y-19503052D01*
X57795690Y-19495805D01*
X57820449Y-19486570D01*
X57843642Y-19473906D01*
X57852671Y-19474551D01*
X57861154Y-19471388D01*
X57886974Y-19477004D01*
G37*
%TD.AperFunction*%
%TA.AperFunction,Conductor*%
G36*
X73153334Y-19478890D02*
G01*
X73197681Y-19507391D01*
X73362100Y-19671810D01*
X73362105Y-19671814D01*
X73537920Y-19799550D01*
X73561071Y-19816370D01*
X73614278Y-19843480D01*
X73665073Y-19891453D01*
X73681868Y-19959274D01*
X73681600Y-19963691D01*
X73681282Y-19967730D01*
X74244058Y-20530504D01*
X74183919Y-20546619D01*
X74068080Y-20613498D01*
X73973498Y-20708080D01*
X73906619Y-20823919D01*
X73890504Y-20884057D01*
X73327730Y-20321282D01*
X73323691Y-20321600D01*
X73255314Y-20307235D01*
X73205558Y-20258183D01*
X73203498Y-20254313D01*
X73176370Y-20201071D01*
X73087499Y-20078750D01*
X73031814Y-20002105D01*
X73031810Y-20002100D01*
X72867391Y-19837681D01*
X72863052Y-19829735D01*
X72855805Y-19824310D01*
X72846570Y-19799550D01*
X72833906Y-19776358D01*
X72834551Y-19767328D01*
X72831388Y-19758846D01*
X72837004Y-19733025D01*
X72838890Y-19706666D01*
X72844708Y-19697612D01*
X72846240Y-19690573D01*
X72867391Y-19662319D01*
X73022319Y-19507391D01*
X73083642Y-19473906D01*
X73153334Y-19478890D01*
G37*
%TD.AperFunction*%
%TA.AperFunction,Conductor*%
G36*
X40886619Y-18676081D02*
G01*
X40953498Y-18791920D01*
X41048080Y-18886502D01*
X41163919Y-18953381D01*
X41224057Y-18969494D01*
X40661283Y-19532268D01*
X40661601Y-19536307D01*
X40647236Y-19604684D01*
X40598184Y-19654440D01*
X40594279Y-19656518D01*
X40541069Y-19683630D01*
X40342105Y-19828185D01*
X40342100Y-19828189D01*
X40177681Y-19992609D01*
X40169735Y-19996947D01*
X40164310Y-20004195D01*
X40139550Y-20013429D01*
X40116358Y-20026094D01*
X40107328Y-20025448D01*
X40098846Y-20028612D01*
X40073025Y-20022995D01*
X40046666Y-20021110D01*
X40037612Y-20015291D01*
X40030573Y-20013760D01*
X40002319Y-19992609D01*
X39847391Y-19837681D01*
X39813906Y-19776358D01*
X39818890Y-19706666D01*
X39847391Y-19662319D01*
X39927067Y-19582643D01*
X40011809Y-19497901D01*
X40156370Y-19298929D01*
X40183481Y-19245718D01*
X40231452Y-19194926D01*
X40299273Y-19178130D01*
X40303693Y-19178398D01*
X40307731Y-19178715D01*
X40870504Y-18615941D01*
X40886619Y-18676081D01*
G37*
%TD.AperFunction*%
%TA.AperFunction,Conductor*%
G36*
X48506619Y-18676081D02*
G01*
X48573498Y-18791920D01*
X48668080Y-18886502D01*
X48783919Y-18953381D01*
X48844057Y-18969494D01*
X48281283Y-19532268D01*
X48281601Y-19536307D01*
X48267236Y-19604684D01*
X48218184Y-19654440D01*
X48214279Y-19656518D01*
X48161069Y-19683630D01*
X47962105Y-19828185D01*
X47962100Y-19828189D01*
X47797681Y-19992609D01*
X47789735Y-19996947D01*
X47784310Y-20004195D01*
X47759550Y-20013429D01*
X47736358Y-20026094D01*
X47727328Y-20025448D01*
X47718846Y-20028612D01*
X47693025Y-20022995D01*
X47666666Y-20021110D01*
X47657612Y-20015291D01*
X47650573Y-20013760D01*
X47622319Y-19992609D01*
X47467391Y-19837681D01*
X47433906Y-19776358D01*
X47438890Y-19706666D01*
X47467391Y-19662319D01*
X47547067Y-19582643D01*
X47631809Y-19497901D01*
X47776370Y-19298929D01*
X47803481Y-19245718D01*
X47851452Y-19194926D01*
X47919273Y-19178130D01*
X47923693Y-19178398D01*
X47927731Y-19178715D01*
X48490504Y-18615941D01*
X48506619Y-18676081D01*
G37*
%TD.AperFunction*%
%TA.AperFunction,Conductor*%
G36*
X61206619Y-18676081D02*
G01*
X61273498Y-18791920D01*
X61368080Y-18886502D01*
X61483919Y-18953381D01*
X61544057Y-18969494D01*
X60981283Y-19532268D01*
X60981601Y-19536307D01*
X60967236Y-19604684D01*
X60918184Y-19654440D01*
X60914279Y-19656518D01*
X60861069Y-19683630D01*
X60662105Y-19828185D01*
X60662100Y-19828189D01*
X60497681Y-19992609D01*
X60489735Y-19996947D01*
X60484310Y-20004195D01*
X60459550Y-20013429D01*
X60436358Y-20026094D01*
X60427328Y-20025448D01*
X60418846Y-20028612D01*
X60393025Y-20022995D01*
X60366666Y-20021110D01*
X60357612Y-20015291D01*
X60350573Y-20013760D01*
X60322319Y-19992609D01*
X60167391Y-19837681D01*
X60133906Y-19776358D01*
X60138890Y-19706666D01*
X60167391Y-19662319D01*
X60247067Y-19582643D01*
X60331809Y-19497901D01*
X60476370Y-19298929D01*
X60503481Y-19245718D01*
X60551452Y-19194926D01*
X60619273Y-19178130D01*
X60623693Y-19178398D01*
X60627731Y-19178715D01*
X61190504Y-18615941D01*
X61206619Y-18676081D01*
G37*
%TD.AperFunction*%
%TA.AperFunction,Conductor*%
G36*
X66286619Y-18676081D02*
G01*
X66353498Y-18791920D01*
X66448080Y-18886502D01*
X66563919Y-18953381D01*
X66624057Y-18969494D01*
X66061283Y-19532268D01*
X66061601Y-19536307D01*
X66047236Y-19604684D01*
X65998184Y-19654440D01*
X65994279Y-19656518D01*
X65941069Y-19683630D01*
X65742105Y-19828185D01*
X65742100Y-19828189D01*
X65577681Y-19992609D01*
X65569735Y-19996947D01*
X65564310Y-20004195D01*
X65539550Y-20013429D01*
X65516358Y-20026094D01*
X65507328Y-20025448D01*
X65498846Y-20028612D01*
X65473025Y-20022995D01*
X65446666Y-20021110D01*
X65437612Y-20015291D01*
X65430573Y-20013760D01*
X65402319Y-19992609D01*
X65247391Y-19837681D01*
X65213906Y-19776358D01*
X65218890Y-19706666D01*
X65247391Y-19662319D01*
X65327067Y-19582643D01*
X65411809Y-19497901D01*
X65556370Y-19298929D01*
X65583481Y-19245718D01*
X65631452Y-19194926D01*
X65699273Y-19178130D01*
X65703693Y-19178398D01*
X65707731Y-19178715D01*
X66270504Y-18615941D01*
X66286619Y-18676081D01*
G37*
%TD.AperFunction*%
%TA.AperFunction,Conductor*%
G36*
X32252268Y-19178715D02*
G01*
X32256307Y-19178398D01*
X32324684Y-19192763D01*
X32374440Y-19241815D01*
X32376519Y-19245721D01*
X32403632Y-19298932D01*
X32548185Y-19497894D01*
X32548189Y-19497899D01*
X32712609Y-19662319D01*
X32716947Y-19670264D01*
X32724195Y-19675690D01*
X32733429Y-19700449D01*
X32746094Y-19723642D01*
X32745448Y-19732671D01*
X32748612Y-19741154D01*
X32742995Y-19766974D01*
X32741110Y-19793334D01*
X32735291Y-19802387D01*
X32733760Y-19809427D01*
X32712609Y-19837681D01*
X32557681Y-19992609D01*
X32496358Y-20026094D01*
X32426666Y-20021110D01*
X32382319Y-19992609D01*
X32217899Y-19828189D01*
X32217894Y-19828185D01*
X32018932Y-19683632D01*
X32018931Y-19683631D01*
X32018929Y-19683630D01*
X31965721Y-19656519D01*
X31914925Y-19608544D01*
X31898130Y-19540723D01*
X31898398Y-19536307D01*
X31898715Y-19532268D01*
X31335941Y-18969495D01*
X31396081Y-18953381D01*
X31511920Y-18886502D01*
X31606502Y-18791920D01*
X31673381Y-18676081D01*
X31689495Y-18615942D01*
X32252268Y-19178715D01*
G37*
%TD.AperFunction*%
%TA.AperFunction,Conductor*%
G36*
X42412268Y-19178715D02*
G01*
X42416307Y-19178398D01*
X42484684Y-19192763D01*
X42534440Y-19241815D01*
X42536519Y-19245721D01*
X42563632Y-19298932D01*
X42708185Y-19497894D01*
X42708189Y-19497899D01*
X42872609Y-19662319D01*
X42876947Y-19670264D01*
X42884195Y-19675690D01*
X42893429Y-19700449D01*
X42906094Y-19723642D01*
X42905448Y-19732671D01*
X42908612Y-19741154D01*
X42902995Y-19766974D01*
X42901110Y-19793334D01*
X42895291Y-19802387D01*
X42893760Y-19809427D01*
X42872609Y-19837681D01*
X42717681Y-19992609D01*
X42656358Y-20026094D01*
X42586666Y-20021110D01*
X42542319Y-19992609D01*
X42377899Y-19828189D01*
X42377894Y-19828185D01*
X42178932Y-19683632D01*
X42178931Y-19683631D01*
X42178929Y-19683630D01*
X42125721Y-19656519D01*
X42074925Y-19608544D01*
X42058130Y-19540723D01*
X42058398Y-19536307D01*
X42058715Y-19532268D01*
X41495942Y-18969494D01*
X41556081Y-18953381D01*
X41671920Y-18886502D01*
X41766502Y-18791920D01*
X41833381Y-18676081D01*
X41849495Y-18615942D01*
X42412268Y-19178715D01*
G37*
%TD.AperFunction*%
%TA.AperFunction,Conductor*%
G36*
X50032268Y-19178715D02*
G01*
X50036307Y-19178398D01*
X50104684Y-19192763D01*
X50154440Y-19241815D01*
X50156519Y-19245721D01*
X50183632Y-19298932D01*
X50328185Y-19497894D01*
X50328189Y-19497899D01*
X50492609Y-19662319D01*
X50496947Y-19670264D01*
X50504195Y-19675690D01*
X50513429Y-19700449D01*
X50526094Y-19723642D01*
X50525448Y-19732671D01*
X50528612Y-19741154D01*
X50522995Y-19766974D01*
X50521110Y-19793334D01*
X50515291Y-19802387D01*
X50513760Y-19809427D01*
X50492609Y-19837681D01*
X50337681Y-19992609D01*
X50276358Y-20026094D01*
X50206666Y-20021110D01*
X50162319Y-19992609D01*
X49997899Y-19828189D01*
X49997894Y-19828185D01*
X49798932Y-19683632D01*
X49798931Y-19683631D01*
X49798929Y-19683630D01*
X49745721Y-19656519D01*
X49694925Y-19608544D01*
X49678130Y-19540723D01*
X49678398Y-19536307D01*
X49678715Y-19532268D01*
X49115942Y-18969494D01*
X49176081Y-18953381D01*
X49291920Y-18886502D01*
X49386502Y-18791920D01*
X49453381Y-18676081D01*
X49469495Y-18615942D01*
X50032268Y-19178715D01*
G37*
%TD.AperFunction*%
%TA.AperFunction,Conductor*%
G36*
X62732268Y-19178715D02*
G01*
X62736307Y-19178398D01*
X62804684Y-19192763D01*
X62854440Y-19241815D01*
X62856519Y-19245721D01*
X62883632Y-19298932D01*
X63028185Y-19497894D01*
X63028189Y-19497899D01*
X63192609Y-19662319D01*
X63196947Y-19670264D01*
X63204195Y-19675690D01*
X63213429Y-19700449D01*
X63226094Y-19723642D01*
X63225448Y-19732671D01*
X63228612Y-19741154D01*
X63222995Y-19766974D01*
X63221110Y-19793334D01*
X63215291Y-19802387D01*
X63213760Y-19809427D01*
X63192609Y-19837681D01*
X63037681Y-19992609D01*
X62976358Y-20026094D01*
X62906666Y-20021110D01*
X62862319Y-19992609D01*
X62697899Y-19828189D01*
X62697894Y-19828185D01*
X62498932Y-19683632D01*
X62498931Y-19683631D01*
X62498929Y-19683630D01*
X62445721Y-19656519D01*
X62394925Y-19608544D01*
X62378130Y-19540723D01*
X62378398Y-19536307D01*
X62378715Y-19532268D01*
X61815942Y-18969494D01*
X61876081Y-18953381D01*
X61991920Y-18886502D01*
X62086502Y-18791920D01*
X62153381Y-18676081D01*
X62169495Y-18615942D01*
X62732268Y-19178715D01*
G37*
%TD.AperFunction*%
%TA.AperFunction,Conductor*%
G36*
X67812268Y-19178715D02*
G01*
X67816307Y-19178398D01*
X67884684Y-19192763D01*
X67934440Y-19241815D01*
X67936519Y-19245721D01*
X67963632Y-19298932D01*
X68108185Y-19497894D01*
X68108189Y-19497899D01*
X68272609Y-19662319D01*
X68276947Y-19670264D01*
X68284195Y-19675690D01*
X68293429Y-19700449D01*
X68306094Y-19723642D01*
X68305448Y-19732671D01*
X68308612Y-19741154D01*
X68302995Y-19766974D01*
X68301110Y-19793334D01*
X68295291Y-19802387D01*
X68293760Y-19809427D01*
X68272609Y-19837681D01*
X68117681Y-19992609D01*
X68056358Y-20026094D01*
X67986666Y-20021110D01*
X67942319Y-19992609D01*
X67777899Y-19828189D01*
X67777894Y-19828185D01*
X67578932Y-19683632D01*
X67578931Y-19683631D01*
X67578929Y-19683630D01*
X67525721Y-19656519D01*
X67474925Y-19608544D01*
X67458130Y-19540723D01*
X67458398Y-19536307D01*
X67458715Y-19532268D01*
X66895942Y-18969494D01*
X66956081Y-18953381D01*
X67071920Y-18886502D01*
X67166502Y-18791920D01*
X67233381Y-18676081D01*
X67249495Y-18615942D01*
X67812268Y-19178715D01*
G37*
%TD.AperFunction*%
%TD*%
M02*
