%TF.GenerationSoftware,KiCad,Pcbnew,9.0.4*%
%TF.CreationDate,2025-10-03T14:28:08+07:00*%
%TF.ProjectId,Pi HAT- SmartDOOR,50692048-4154-42d2-9053-6d617274444f,rev?*%
%TF.SameCoordinates,Original*%
%TF.FileFunction,Legend,Top*%
%TF.FilePolarity,Positive*%
%FSLAX46Y46*%
G04 Gerber Fmt 4.6, Leading zero omitted, Abs format (unit mm)*
G04 Created by KiCad (PCBNEW 9.0.4) date 2025-10-03 14:28:08*
%MOMM*%
%LPD*%
G01*
G04 APERTURE LIST*
%ADD10C,0.150000*%
%ADD11C,0.100000*%
%ADD12C,0.400000*%
%ADD13C,0.127000*%
%ADD14C,0.300000*%
%ADD15C,0.120000*%
G04 APERTURE END LIST*
D10*
X19913095Y-14069819D02*
X19913095Y-14879342D01*
X19913095Y-14879342D02*
X19960714Y-14974580D01*
X19960714Y-14974580D02*
X20008333Y-15022200D01*
X20008333Y-15022200D02*
X20103571Y-15069819D01*
X20103571Y-15069819D02*
X20294047Y-15069819D01*
X20294047Y-15069819D02*
X20389285Y-15022200D01*
X20389285Y-15022200D02*
X20436904Y-14974580D01*
X20436904Y-14974580D02*
X20484523Y-14879342D01*
X20484523Y-14879342D02*
X20484523Y-14069819D01*
X21484523Y-15069819D02*
X20913095Y-15069819D01*
X21198809Y-15069819D02*
X21198809Y-14069819D01*
X21198809Y-14069819D02*
X21103571Y-14212676D01*
X21103571Y-14212676D02*
X21008333Y-14307914D01*
X21008333Y-14307914D02*
X20913095Y-14355533D01*
D11*
X49921380Y-59527495D02*
X49111857Y-59527495D01*
X49111857Y-59527495D02*
X49016619Y-59575114D01*
X49016619Y-59575114D02*
X48969000Y-59622733D01*
X48969000Y-59622733D02*
X48921380Y-59717971D01*
X48921380Y-59717971D02*
X48921380Y-59908447D01*
X48921380Y-59908447D02*
X48969000Y-60003685D01*
X48969000Y-60003685D02*
X49016619Y-60051304D01*
X49016619Y-60051304D02*
X49111857Y-60098923D01*
X49111857Y-60098923D02*
X49921380Y-60098923D01*
X49921380Y-60479876D02*
X49921380Y-61098923D01*
X49921380Y-61098923D02*
X49540428Y-60765590D01*
X49540428Y-60765590D02*
X49540428Y-60908447D01*
X49540428Y-60908447D02*
X49492809Y-61003685D01*
X49492809Y-61003685D02*
X49445190Y-61051304D01*
X49445190Y-61051304D02*
X49349952Y-61098923D01*
X49349952Y-61098923D02*
X49111857Y-61098923D01*
X49111857Y-61098923D02*
X49016619Y-61051304D01*
X49016619Y-61051304D02*
X48969000Y-61003685D01*
X48969000Y-61003685D02*
X48921380Y-60908447D01*
X48921380Y-60908447D02*
X48921380Y-60622733D01*
X48921380Y-60622733D02*
X48969000Y-60527495D01*
X48969000Y-60527495D02*
X49016619Y-60479876D01*
D10*
X22684819Y-31733333D02*
X23399104Y-31733333D01*
X23399104Y-31733333D02*
X23541961Y-31780952D01*
X23541961Y-31780952D02*
X23637200Y-31876190D01*
X23637200Y-31876190D02*
X23684819Y-32019047D01*
X23684819Y-32019047D02*
X23684819Y-32114285D01*
X23684819Y-30733333D02*
X23684819Y-31304761D01*
X23684819Y-31019047D02*
X22684819Y-31019047D01*
X22684819Y-31019047D02*
X22827676Y-31114285D01*
X22827676Y-31114285D02*
X22922914Y-31209523D01*
X22922914Y-31209523D02*
X22970533Y-31304761D01*
X68154819Y-29158333D02*
X68869104Y-29158333D01*
X68869104Y-29158333D02*
X69011961Y-29205952D01*
X69011961Y-29205952D02*
X69107200Y-29301190D01*
X69107200Y-29301190D02*
X69154819Y-29444047D01*
X69154819Y-29444047D02*
X69154819Y-29539285D01*
X68488152Y-28253571D02*
X69154819Y-28253571D01*
X68107200Y-28491666D02*
X68821485Y-28729761D01*
X68821485Y-28729761D02*
X68821485Y-28110714D01*
X68204819Y-42683333D02*
X68919104Y-42683333D01*
X68919104Y-42683333D02*
X69061961Y-42730952D01*
X69061961Y-42730952D02*
X69157200Y-42826190D01*
X69157200Y-42826190D02*
X69204819Y-42969047D01*
X69204819Y-42969047D02*
X69204819Y-43064285D01*
X68300057Y-42254761D02*
X68252438Y-42207142D01*
X68252438Y-42207142D02*
X68204819Y-42111904D01*
X68204819Y-42111904D02*
X68204819Y-41873809D01*
X68204819Y-41873809D02*
X68252438Y-41778571D01*
X68252438Y-41778571D02*
X68300057Y-41730952D01*
X68300057Y-41730952D02*
X68395295Y-41683333D01*
X68395295Y-41683333D02*
X68490533Y-41683333D01*
X68490533Y-41683333D02*
X68633390Y-41730952D01*
X68633390Y-41730952D02*
X69204819Y-42302380D01*
X69204819Y-42302380D02*
X69204819Y-41683333D01*
D12*
%TO.C,U1*%
X17050000Y-21250000D02*
G75*
G02*
X16650000Y-21250000I-200000J0D01*
G01*
X16650000Y-21250000D02*
G75*
G02*
X17050000Y-21250000I200000J0D01*
G01*
D13*
X102750000Y-69250000D02*
G75*
G02*
X99750000Y-72250000I-3000000J0D01*
G01*
X99750000Y-16250000D02*
G75*
G02*
X102750000Y-19250000I0J-3000000D01*
G01*
X20750000Y-72250000D02*
G75*
G02*
X17750000Y-69250000I1J3000001D01*
G01*
X17750000Y-19250000D02*
G75*
G02*
X20750000Y-16250000I3000001J-1D01*
G01*
X102750000Y-69250000D02*
X102750000Y-19250000D01*
X99750000Y-16250000D02*
X20750000Y-16250000D01*
X20750000Y-72250000D02*
X99750000Y-72250000D01*
X17750000Y-19250000D02*
X17750000Y-69250000D01*
%TO.C,U3*%
D14*
X40740000Y-68900000D02*
X18240000Y-68900000D01*
X18240000Y-29900000D01*
X40740000Y-29900000D01*
X40740000Y-68900000D01*
D15*
%TO.C,J1*%
X24230000Y-32780000D02*
X24230000Y-31400000D01*
X25610000Y-32780000D02*
X24230000Y-32780000D01*
X26880000Y-30020000D02*
X34610000Y-30020000D01*
X26880000Y-32780000D02*
X26880000Y-30020000D01*
X26880000Y-32780000D02*
X34610000Y-32780000D01*
X34610000Y-32780000D02*
X34610000Y-30020000D01*
%TO.C,J4*%
X69500000Y-31675000D02*
X69500000Y-32925000D01*
X69500000Y-32925000D02*
X70750000Y-32925000D01*
X69790000Y-25015000D02*
X69790000Y-32635000D01*
X69790000Y-32635000D02*
X75760000Y-32635000D01*
X69800000Y-25025000D02*
X69800000Y-26825000D01*
X69800000Y-26825000D02*
X70550000Y-26825000D01*
X69800000Y-28325000D02*
X69800000Y-29325000D01*
X69800000Y-29325000D02*
X70550000Y-29325000D01*
X69800000Y-30825000D02*
X69800000Y-32625000D01*
X69800000Y-32625000D02*
X70550000Y-32625000D01*
X70550000Y-25025000D02*
X69800000Y-25025000D01*
X70550000Y-26825000D02*
X70550000Y-25025000D01*
X70550000Y-28325000D02*
X69800000Y-28325000D01*
X70550000Y-29325000D02*
X70550000Y-28325000D01*
X70550000Y-30825000D02*
X69800000Y-30825000D01*
X70550000Y-32625000D02*
X70550000Y-30825000D01*
X72050000Y-25025000D02*
X72050000Y-25775000D01*
X72050000Y-25775000D02*
X75000000Y-25775000D01*
X72050000Y-31875000D02*
X75000000Y-31875000D01*
X72050000Y-32625000D02*
X72050000Y-31875000D01*
X75000000Y-25775000D02*
X75000000Y-28825000D01*
X75000000Y-31875000D02*
X75000000Y-28825000D01*
X75760000Y-25015000D02*
X69790000Y-25015000D01*
X75760000Y-32635000D02*
X75760000Y-25015000D01*
%TO.C,U2*%
D11*
X65010000Y-28800000D02*
X45010000Y-28800000D01*
X45010000Y-68800000D01*
X65010000Y-68800000D01*
X65010000Y-28800000D01*
X47010000Y-38800000D02*
G75*
G02*
X43010000Y-38800000I-2000000J0D01*
G01*
X43010000Y-38800000D02*
G75*
G02*
X47010000Y-38800000I2000000J0D01*
G01*
X47510000Y-58800000D02*
G75*
G02*
X42510000Y-58800000I-2500000J0D01*
G01*
X42510000Y-58800000D02*
G75*
G02*
X47510000Y-58800000I2500000J0D01*
G01*
X64010000Y-59800000D02*
G75*
G02*
X46010000Y-59800000I-9000000J0D01*
G01*
X46010000Y-59800000D02*
G75*
G02*
X64010000Y-59800000I9000000J0D01*
G01*
X57010000Y-68800000D02*
G75*
G02*
X53010000Y-68800000I-2000000J0D01*
G01*
X53010000Y-68800000D02*
G75*
G02*
X57010000Y-68800000I2000000J0D01*
G01*
X67010000Y-38800000D02*
G75*
G02*
X63010000Y-38800000I-2000000J0D01*
G01*
X63010000Y-38800000D02*
G75*
G02*
X67010000Y-38800000I2000000J0D01*
G01*
X67510000Y-58800000D02*
G75*
G02*
X62510000Y-58800000I-2500000J0D01*
G01*
X62510000Y-58800000D02*
G75*
G02*
X67510000Y-58800000I2500000J0D01*
G01*
D15*
%TO.C,J2*%
X69550000Y-48950000D02*
X70800000Y-48950000D01*
X69840000Y-48660000D02*
X75810000Y-48660000D01*
X75810000Y-48660000D02*
X75810000Y-36040000D01*
X69850000Y-48650000D02*
X70600000Y-48650000D01*
X70600000Y-48650000D02*
X70600000Y-46850000D01*
X72100000Y-48650000D02*
X72100000Y-47900000D01*
X72100000Y-47900000D02*
X75050000Y-47900000D01*
X75050000Y-47900000D02*
X75050000Y-42350000D01*
X69550000Y-47700000D02*
X69550000Y-48950000D01*
X69850000Y-46850000D02*
X69850000Y-48650000D01*
X70600000Y-46850000D02*
X69850000Y-46850000D01*
X69850000Y-45350000D02*
X70600000Y-45350000D01*
X70600000Y-45350000D02*
X70600000Y-39350000D01*
X69850000Y-39350000D02*
X69850000Y-45350000D01*
X70600000Y-39350000D02*
X69850000Y-39350000D01*
X69850000Y-37850000D02*
X70600000Y-37850000D01*
X70600000Y-37850000D02*
X70600000Y-36050000D01*
X72100000Y-36800000D02*
X75050000Y-36800000D01*
X75050000Y-36800000D02*
X75050000Y-42350000D01*
X69850000Y-36050000D02*
X69850000Y-37850000D01*
X70600000Y-36050000D02*
X69850000Y-36050000D01*
X72100000Y-36050000D02*
X72100000Y-36800000D01*
X69840000Y-36040000D02*
X69840000Y-48660000D01*
X75810000Y-36040000D02*
X69840000Y-36040000D01*
%TD*%
M02*
