%TF.GenerationSoftware,KiCad,Pcbnew,9.0.4*%
%TF.CreationDate,2025-10-03T14:28:08+07:00*%
%TF.ProjectId,Pi HAT- SmartDOOR,50692048-4154-42d2-9053-6d617274444f,rev?*%
%TF.SameCoordinates,Original*%
%TF.FileFunction,Copper,L2,Bot*%
%TF.FilePolarity,Positive*%
%FSLAX46Y46*%
G04 Gerber Fmt 4.6, Leading zero omitted, Abs format (unit mm)*
G04 Created by KiCad (PCBNEW 9.0.4) date 2025-10-03 14:28:08*
%MOMM*%
%LPD*%
G01*
G04 APERTURE LIST*
G04 Aperture macros list*
%AMRoundRect*
0 Rectangle with rounded corners*
0 $1 Rounding radius*
0 $2 $3 $4 $5 $6 $7 $8 $9 X,Y pos of 4 corners*
0 Add a 4 corners polygon primitive as box body*
4,1,4,$2,$3,$4,$5,$6,$7,$8,$9,$2,$3,0*
0 Add four circle primitives for the rounded corners*
1,1,$1+$1,$2,$3*
1,1,$1+$1,$4,$5*
1,1,$1+$1,$6,$7*
1,1,$1+$1,$8,$9*
0 Add four rect primitives between the rounded corners*
20,1,$1+$1,$2,$3,$4,$5,0*
20,1,$1+$1,$4,$5,$6,$7,0*
20,1,$1+$1,$6,$7,$8,$9,0*
20,1,$1+$1,$8,$9,$2,$3,0*%
G04 Aperture macros list end*
%TA.AperFunction,ComponentPad*%
%ADD10C,6.200000*%
%TD*%
%TA.AperFunction,ComponentPad*%
%ADD11C,3.000000*%
%TD*%
%TA.AperFunction,ComponentPad*%
%ADD12C,1.524000*%
%TD*%
%TA.AperFunction,ComponentPad*%
%ADD13R,1.524000X1.524000*%
%TD*%
%TA.AperFunction,ComponentPad*%
%ADD14C,2.540000*%
%TD*%
%TA.AperFunction,ComponentPad*%
%ADD15R,2.000000X2.000000*%
%TD*%
%TA.AperFunction,ComponentPad*%
%ADD16O,2.000000X2.000000*%
%TD*%
%TA.AperFunction,ComponentPad*%
%ADD17R,1.700000X1.700000*%
%TD*%
%TA.AperFunction,ComponentPad*%
%ADD18C,1.700000*%
%TD*%
%TA.AperFunction,ComponentPad*%
%ADD19RoundRect,0.250000X0.750000X-0.600000X0.750000X0.600000X-0.750000X0.600000X-0.750000X-0.600000X0*%
%TD*%
%TA.AperFunction,ComponentPad*%
%ADD20O,2.000000X1.700000*%
%TD*%
%TA.AperFunction,ComponentPad*%
%ADD21C,2.200000*%
%TD*%
%TA.AperFunction,ComponentPad*%
%ADD22R,1.600000X1.600000*%
%TD*%
%TA.AperFunction,ComponentPad*%
%ADD23C,1.600000*%
%TD*%
%TA.AperFunction,ComponentPad*%
%ADD24RoundRect,0.250000X0.725000X-0.600000X0.725000X0.600000X-0.725000X0.600000X-0.725000X-0.600000X0*%
%TD*%
%TA.AperFunction,ComponentPad*%
%ADD25O,1.950000X1.700000*%
%TD*%
%TA.AperFunction,Conductor*%
%ADD26C,1.000000*%
%TD*%
%TA.AperFunction,Conductor*%
%ADD27C,0.200000*%
%TD*%
%TA.AperFunction,Conductor*%
%ADD28C,0.600000*%
%TD*%
%TA.AperFunction,Conductor*%
%ADD29C,0.800000*%
%TD*%
%TA.AperFunction,Conductor*%
%ADD30C,0.400000*%
%TD*%
G04 APERTURE END LIST*
D10*
%TO.P,U1,S3,SHIELD*%
%TO.N,Net-(U1-SHIELD-PadS1)*%
X79250000Y-68750000D03*
%TO.P,U1,S2,SHIELD*%
X79250000Y-19750000D03*
D11*
%TO.P,U1,S1,SHIELD*%
X21250000Y-19750000D03*
D12*
%TO.P,U1,44,TR02*%
%TO.N,unconnected-(U1-TR02-Pad44)*%
X77940000Y-24603000D03*
%TO.P,U1,43,TR03*%
%TO.N,unconnected-(U1-TR03-Pad43)*%
X77940000Y-27143000D03*
%TO.P,U1,42,TR00*%
%TO.N,unconnected-(U1-TR00-Pad42)*%
X80480000Y-24603000D03*
%TO.P,U1,41,TR01*%
%TO.N,unconnected-(U1-TR01-Pad41)*%
X80480000Y-27143000D03*
%TO.P,U1,40,GPIO21*%
%TO.N,unconnected-(U1-GPIO21-Pad40)*%
X74380000Y-18480000D03*
%TO.P,U1,39,GND*%
%TO.N,GND*%
X74380000Y-21020000D03*
%TO.P,U1,38,GPIO20*%
%TO.N,unconnected-(U1-GPIO20-Pad38)*%
X71840000Y-18480000D03*
%TO.P,U1,37,GPIO26*%
%TO.N,unconnected-(U1-GPIO26-Pad37)*%
X71840000Y-21020000D03*
%TO.P,U1,36,GPIO16*%
%TO.N,unconnected-(U1-GPIO16-Pad36)*%
X69300000Y-18480000D03*
%TO.P,U1,35,GPIO19*%
%TO.N,unconnected-(U1-GPIO19-Pad35)*%
X69300000Y-21020000D03*
%TO.P,U1,34,GND*%
%TO.N,GND*%
X66760000Y-18480000D03*
%TO.P,U1,33,GPIO13*%
%TO.N,unconnected-(U1-GPIO13-Pad33)*%
X66760000Y-21020000D03*
%TO.P,U1,32,GPIO12*%
%TO.N,unconnected-(U1-GPIO12-Pad32)*%
X64220000Y-18480000D03*
%TO.P,U1,31,GPIO6*%
%TO.N,unconnected-(U1-GPIO6-Pad31)*%
X64220000Y-21020000D03*
%TO.P,U1,30,GND*%
%TO.N,GND*%
X61680000Y-18480000D03*
%TO.P,U1,29,GPIO5*%
%TO.N,unconnected-(U1-GPIO5-Pad29)*%
X61680000Y-21020000D03*
%TO.P,U1,28,ID_SC*%
%TO.N,unconnected-(U1-ID_SC-Pad28)*%
X59140000Y-18480000D03*
%TO.P,U1,27,ID_SD*%
%TO.N,unconnected-(U1-ID_SD-Pad27)*%
X59140000Y-21020000D03*
%TO.P,U1,26,GPIO7/~{SPI_CE1}*%
%TO.N,unconnected-(U1-GPIO7{slash}~{SPI_CE1}-Pad26)*%
X56600000Y-18480000D03*
%TO.P,U1,25,GND*%
%TO.N,GND*%
X56600000Y-21020000D03*
%TO.P,U1,24,GPIO8/~{SPI_CE0}*%
%TO.N,unconnected-(U1-GPIO8{slash}~{SPI_CE0}-Pad24)*%
X54060000Y-18480000D03*
%TO.P,U1,23,GPIO11/SPI_SCLK*%
%TO.N,unconnected-(U1-GPIO11{slash}SPI_SCLK-Pad23)*%
X54060000Y-21020000D03*
%TO.P,U1,22,GPIO25/GPIO_GEN6*%
%TO.N,unconnected-(U1-GPIO25{slash}GPIO_GEN6-Pad22)*%
X51520000Y-18480000D03*
%TO.P,U1,21,GPIO9/SPI_MISO*%
%TO.N,unconnected-(U1-GPIO9{slash}SPI_MISO-Pad21)*%
X51520000Y-21020000D03*
%TO.P,U1,20,GND*%
%TO.N,GND*%
X48980000Y-18480000D03*
%TO.P,U1,19,GPIO10/SPI_MOSI*%
%TO.N,unconnected-(U1-GPIO10{slash}SPI_MOSI-Pad19)*%
X48980000Y-21020000D03*
%TO.P,U1,18,GPIO24/GPIO_GEN5*%
%TO.N,SIG*%
X46440000Y-18480000D03*
%TO.P,U1,17,3V3*%
%TO.N,3V3*%
X46440000Y-21020000D03*
%TO.P,U1,16,GPIO23/GPIO_GEN4*%
%TO.N,unconnected-(U1-GPIO23{slash}GPIO_GEN4-Pad16)*%
X43900000Y-18480000D03*
%TO.P,U1,15,GPIO22/GPIO_GEN3*%
%TO.N,unconnected-(U1-GPIO22{slash}GPIO_GEN3-Pad15)*%
X43900000Y-21020000D03*
%TO.P,U1,14,GND*%
%TO.N,GND*%
X41360000Y-18480000D03*
%TO.P,U1,13,GPIO27/GPIO_GEN2*%
%TO.N,unconnected-(U1-GPIO27{slash}GPIO_GEN2-Pad13)*%
X41360000Y-21020000D03*
%TO.P,U1,12,GPIO18/GPIO_GEN1*%
%TO.N,unconnected-(U1-GPIO18{slash}GPIO_GEN1-Pad12)*%
X38820000Y-18480000D03*
%TO.P,U1,11,GPIO17/GPIO_GEN0*%
%TO.N,unconnected-(U1-GPIO17{slash}GPIO_GEN0-Pad11)*%
X38820000Y-21020000D03*
%TO.P,U1,10,GPIO15/RXD0*%
%TO.N,unconnected-(U1-GPIO15{slash}RXD0-Pad10)*%
X36280000Y-18480000D03*
%TO.P,U1,9,GND*%
%TO.N,GND*%
X36280000Y-21020000D03*
%TO.P,U1,8,GPIO14/TXD0*%
%TO.N,unconnected-(U1-GPIO14{slash}TXD0-Pad8)*%
X33740000Y-18480000D03*
%TO.P,U1,7,GPIO4/GPIO_GCKL*%
%TO.N,unconnected-(U1-GPIO4{slash}GPIO_GCKL-Pad7)*%
X33740000Y-21020000D03*
%TO.P,U1,6,GND*%
%TO.N,GND*%
X31200000Y-18480000D03*
%TO.P,U1,5,GPIO3/SCL1*%
%TO.N,SCL*%
X31200000Y-21020000D03*
%TO.P,U1,4,5V*%
%TO.N,VCC*%
X28660000Y-18480000D03*
%TO.P,U1,3,GPIO2/SDA1*%
%TO.N,SDA*%
X28660000Y-21020000D03*
%TO.P,U1,2,5V*%
%TO.N,VCC*%
X26120000Y-18480000D03*
D13*
%TO.P,U1,1,3V3*%
%TO.N,3V3*%
X26120000Y-21020000D03*
D10*
%TO.P,U1,S4,SHIELD*%
%TO.N,Net-(U1-SHIELD-PadS1)*%
X21250000Y-68750000D03*
%TD*%
D14*
%TO.P,U3,*%
%TO.N,*%
X38440000Y-61000000D03*
X20440000Y-61000000D03*
X38440000Y-34500000D03*
D15*
%TO.P,U3,7,SCL*%
%TO.N,SCL*%
X33240000Y-31400000D03*
D16*
%TO.P,U3,8,SDA*%
%TO.N,SDA*%
X30700000Y-31400000D03*
%TO.P,U3,9,VCC*%
%TO.N,VCC*%
X28160000Y-31400000D03*
%TO.P,U3,10,GND*%
%TO.N,GND*%
X25620000Y-31400000D03*
%TD*%
D17*
%TO.P,J1,1,Pin_1*%
%TO.N,GND*%
X25610000Y-31400000D03*
D18*
%TO.P,J1,2,Pin_2*%
%TO.N,VCC*%
X28150000Y-31400000D03*
%TO.P,J1,3,Pin_3*%
%TO.N,SDA*%
X30690000Y-31400000D03*
%TO.P,J1,4,Pin_4*%
%TO.N,SCL*%
X33230000Y-31400000D03*
%TD*%
D19*
%TO.P,J4,1,Pin_1*%
%TO.N,GND*%
X72250000Y-30075000D03*
D20*
%TO.P,J4,2,Pin_2*%
%TO.N,VCC*%
X72250000Y-27575000D03*
%TD*%
D21*
%TO.P,U2,*%
%TO.N,*%
X65010000Y-38800000D03*
X45010000Y-38800000D03*
X55010000Y-68800000D03*
D22*
%TO.P,U2,1,GND*%
%TO.N,GND*%
X58210000Y-32000000D03*
D23*
%TO.P,U2,2,VCC*%
%TO.N,VCC*%
X56210000Y-32000000D03*
%TO.P,U2,3,NC*%
%TO.N,unconnected-(U2-NC-Pad3)*%
X54210000Y-32000000D03*
%TO.P,U2,4,SIG*%
%TO.N,SIG*%
X52210000Y-32000000D03*
%TD*%
D24*
%TO.P,J2,1,Pin_1*%
%TO.N,GND*%
X72300000Y-46100000D03*
D25*
%TO.P,J2,2,Pin_2*%
%TO.N,VCC*%
X72300000Y-43600000D03*
%TO.P,J2,3,Pin_3*%
%TO.N,SDA*%
X72300000Y-41100000D03*
%TO.P,J2,4,Pin_4*%
%TO.N,SCL*%
X72300000Y-38600000D03*
%TD*%
D26*
%TO.N,VCC*%
X28100000Y-31340000D02*
X28160000Y-31400000D01*
X23870000Y-22770000D02*
X28100000Y-27000000D01*
X28100000Y-27000000D02*
X28100000Y-31340000D01*
X23870000Y-18990000D02*
X23870000Y-22770000D01*
X24380000Y-18480000D02*
X23870000Y-18990000D01*
X26120000Y-18480000D02*
X24380000Y-18480000D01*
D27*
%TO.N,SCL*%
X33240000Y-31340000D02*
X33240000Y-31400000D01*
X33180000Y-31340000D02*
X33240000Y-31340000D01*
%TO.N,SIG*%
X46480000Y-18480000D02*
X47000000Y-19000000D01*
X47710000Y-19750000D02*
X47750000Y-19750000D01*
D28*
X47000000Y-19000000D02*
X47750000Y-19750000D01*
D29*
X47750000Y-27540000D02*
X47750000Y-23050000D01*
X52210000Y-32000000D02*
X47750000Y-27540000D01*
D27*
X46440000Y-18480000D02*
X46480000Y-18480000D01*
D30*
X47750000Y-23050000D02*
X47700000Y-23000000D01*
X47700000Y-23000000D02*
X47700000Y-19800000D01*
X47700000Y-19800000D02*
X47750000Y-19750000D01*
D26*
%TO.N,VCC*%
X52400000Y-41600000D02*
X56210000Y-37790000D01*
X59250000Y-27500000D02*
X56210000Y-30540000D01*
X71750000Y-27500000D02*
X59250000Y-27500000D01*
D30*
X26120000Y-18568925D02*
X26120000Y-18480000D01*
D26*
X28160000Y-36960000D02*
X32800000Y-41600000D01*
X72250000Y-27535000D02*
X71785000Y-27535000D01*
X32800000Y-41600000D02*
X52400000Y-41600000D01*
X56210000Y-37790000D02*
X56210000Y-32000000D01*
X28160000Y-31400000D02*
X28160000Y-36960000D01*
D30*
X26120000Y-18480000D02*
X26030000Y-18390000D01*
X26030000Y-18390000D02*
X24470000Y-18390000D01*
D26*
X56210000Y-30540000D02*
X56210000Y-32000000D01*
X71785000Y-27535000D02*
X71750000Y-27500000D01*
%TO.N,GND*%
X58210000Y-39290000D02*
X58210000Y-32000000D01*
X25620000Y-31400000D02*
X25620000Y-38920000D01*
X30300000Y-43600000D02*
X53900000Y-43600000D01*
D27*
X25560000Y-31340000D02*
X25620000Y-31400000D01*
D26*
X74380000Y-27945000D02*
X74380000Y-21020000D01*
X72250000Y-30075000D02*
X70325000Y-32000000D01*
X72250000Y-30075000D02*
X74380000Y-27945000D01*
X58210000Y-32000000D02*
X70325000Y-32000000D01*
X25620000Y-38920000D02*
X30300000Y-43600000D01*
X53900000Y-43600000D02*
X58210000Y-39290000D01*
D27*
%TO.N,SDA*%
X30640000Y-31340000D02*
X30700000Y-31400000D01*
X28660000Y-21020000D02*
X29000000Y-21360000D01*
D26*
X30640000Y-25750000D02*
X30640000Y-31340000D01*
X28660000Y-23770000D02*
X30640000Y-25750000D01*
X28660000Y-21020000D02*
X28660000Y-23770000D01*
%TO.N,SCL*%
X33180000Y-25750000D02*
X33180000Y-31340000D01*
X31200000Y-23770000D02*
X33180000Y-25750000D01*
X31200000Y-21020000D02*
X31200000Y-23770000D01*
%TD*%
%TA.AperFunction,Conductor*%
%TO.N,GND*%
G36*
X19205203Y-20822947D02*
G01*
X19231387Y-20854660D01*
X19333099Y-21030831D01*
X19516679Y-21270078D01*
X19516685Y-21270085D01*
X19729914Y-21483314D01*
X19729921Y-21483320D01*
X19969168Y-21666900D01*
X20230328Y-21817681D01*
X20230329Y-21817681D01*
X20230332Y-21817683D01*
X20416072Y-21894619D01*
X20508939Y-21933086D01*
X20508940Y-21933086D01*
X20508942Y-21933087D01*
X20800232Y-22011138D01*
X21099217Y-22050500D01*
X21099224Y-22050500D01*
X21400776Y-22050500D01*
X21400783Y-22050500D01*
X21699768Y-22011138D01*
X21991058Y-21933087D01*
X22269668Y-21817683D01*
X22383504Y-21751959D01*
X22451399Y-21735488D01*
X22517426Y-21758340D01*
X22560617Y-21813261D01*
X22569500Y-21859348D01*
X22569500Y-22872351D01*
X22601522Y-23074535D01*
X22624385Y-23144896D01*
X22633151Y-23171876D01*
X22649604Y-23222515D01*
X22664781Y-23269223D01*
X22694078Y-23326720D01*
X22757713Y-23451611D01*
X22878034Y-23617219D01*
X22878036Y-23617221D01*
X26763181Y-27502366D01*
X26796666Y-27563689D01*
X26799500Y-27590047D01*
X26799500Y-29964385D01*
X26779815Y-30031424D01*
X26727011Y-30077179D01*
X26657853Y-30087123D01*
X26632167Y-30080567D01*
X26567380Y-30056403D01*
X26567372Y-30056401D01*
X26507844Y-30050000D01*
X26304279Y-30050000D01*
X26247984Y-30036485D01*
X26195802Y-30009897D01*
X25971247Y-29936934D01*
X25870000Y-29920897D01*
X25870000Y-30966988D01*
X25812993Y-30934075D01*
X25685826Y-30900000D01*
X25675826Y-30900000D01*
X25544174Y-30900000D01*
X25417007Y-30934075D01*
X25370000Y-30961214D01*
X25370000Y-29920897D01*
X25268752Y-29936934D01*
X25044197Y-30009897D01*
X24992016Y-30036485D01*
X24935721Y-30050000D01*
X24712155Y-30050000D01*
X24652627Y-30056401D01*
X24652620Y-30056403D01*
X24517913Y-30106645D01*
X24517906Y-30106649D01*
X24402812Y-30192809D01*
X24402809Y-30192812D01*
X24316649Y-30307906D01*
X24316645Y-30307913D01*
X24266403Y-30442620D01*
X24266401Y-30442627D01*
X24260000Y-30502155D01*
X24260000Y-30735347D01*
X24246485Y-30791642D01*
X24229897Y-30824197D01*
X24156934Y-31048752D01*
X24140898Y-31150000D01*
X25176988Y-31150000D01*
X25144075Y-31207007D01*
X25110000Y-31334174D01*
X25110000Y-31465826D01*
X25144075Y-31592993D01*
X25176988Y-31650000D01*
X24140898Y-31650000D01*
X24156934Y-31751247D01*
X24229895Y-31975797D01*
X24246485Y-32008356D01*
X24260000Y-32064651D01*
X24260000Y-32297844D01*
X24266401Y-32357372D01*
X24266403Y-32357379D01*
X24316645Y-32492086D01*
X24316649Y-32492093D01*
X24402809Y-32607187D01*
X24402812Y-32607190D01*
X24517906Y-32693350D01*
X24517913Y-32693354D01*
X24652620Y-32743596D01*
X24652627Y-32743598D01*
X24712155Y-32749999D01*
X24712172Y-32750000D01*
X24935721Y-32750000D01*
X24992016Y-32763515D01*
X25044195Y-32790102D01*
X25268744Y-32863063D01*
X25268750Y-32863065D01*
X25370000Y-32879101D01*
X25370000Y-31838785D01*
X25417007Y-31865925D01*
X25544174Y-31900000D01*
X25554174Y-31900000D01*
X25685826Y-31900000D01*
X25812993Y-31865925D01*
X25870000Y-31833012D01*
X25870000Y-32879100D01*
X25971249Y-32863065D01*
X25971255Y-32863063D01*
X26195804Y-32790102D01*
X26247984Y-32763515D01*
X26304279Y-32750000D01*
X26507828Y-32750000D01*
X26507844Y-32749999D01*
X26567372Y-32743598D01*
X26567379Y-32743596D01*
X26692167Y-32697054D01*
X26761858Y-32692070D01*
X26823182Y-32725555D01*
X26856666Y-32786878D01*
X26859500Y-32813236D01*
X26859500Y-37062351D01*
X26891523Y-37264535D01*
X26891523Y-37264538D01*
X26954778Y-37459216D01*
X26954780Y-37459219D01*
X26998092Y-37544224D01*
X27047713Y-37641611D01*
X27168034Y-37807219D01*
X31952781Y-42591966D01*
X32118389Y-42712287D01*
X32193387Y-42750500D01*
X32300781Y-42805220D01*
X32398123Y-42836848D01*
X32403110Y-42838468D01*
X32403114Y-42838470D01*
X32424379Y-42845379D01*
X32495465Y-42868477D01*
X32697648Y-42900500D01*
X32697649Y-42900500D01*
X52502351Y-42900500D01*
X52502352Y-42900500D01*
X52704535Y-42868477D01*
X52801876Y-42836848D01*
X52899219Y-42805220D01*
X53006613Y-42750500D01*
X53081611Y-42712287D01*
X53247219Y-42591966D01*
X57050150Y-38789032D01*
X57050157Y-38789027D01*
X57057217Y-38781967D01*
X57057219Y-38781966D01*
X57163744Y-38675441D01*
X63109500Y-38675441D01*
X63109500Y-38924558D01*
X63109501Y-38924575D01*
X63142017Y-39171561D01*
X63206498Y-39412207D01*
X63301830Y-39642361D01*
X63301837Y-39642376D01*
X63426400Y-39858126D01*
X63578060Y-40055774D01*
X63578066Y-40055781D01*
X63754218Y-40231933D01*
X63754225Y-40231939D01*
X63951873Y-40383599D01*
X64167623Y-40508162D01*
X64167638Y-40508169D01*
X64266825Y-40549253D01*
X64397793Y-40603502D01*
X64638435Y-40667982D01*
X64885435Y-40700500D01*
X64885442Y-40700500D01*
X65134558Y-40700500D01*
X65134565Y-40700500D01*
X65381565Y-40667982D01*
X65622207Y-40603502D01*
X65852373Y-40508164D01*
X66068127Y-40383599D01*
X66265776Y-40231938D01*
X66441938Y-40055776D01*
X66593599Y-39858127D01*
X66718164Y-39642373D01*
X66813502Y-39412207D01*
X66877982Y-39171565D01*
X66910500Y-38924565D01*
X66910500Y-38675435D01*
X66883467Y-38470097D01*
X70524500Y-38470097D01*
X70524500Y-38729902D01*
X70565140Y-38986493D01*
X70645422Y-39233576D01*
X70763368Y-39465054D01*
X70916066Y-39675225D01*
X70916071Y-39675231D01*
X71003159Y-39762319D01*
X71036644Y-39823642D01*
X71031660Y-39893334D01*
X71003159Y-39937681D01*
X70916071Y-40024768D01*
X70916066Y-40024774D01*
X70763368Y-40234945D01*
X70645422Y-40466423D01*
X70565140Y-40713506D01*
X70524500Y-40970097D01*
X70524500Y-41229902D01*
X70565140Y-41486493D01*
X70645422Y-41733576D01*
X70763368Y-41965054D01*
X70916066Y-42175225D01*
X70916071Y-42175231D01*
X71003159Y-42262319D01*
X71036644Y-42323642D01*
X71031660Y-42393334D01*
X71003159Y-42437681D01*
X70916071Y-42524768D01*
X70916066Y-42524774D01*
X70763368Y-42734945D01*
X70645422Y-42966423D01*
X70565140Y-43213506D01*
X70524500Y-43470097D01*
X70524500Y-43729902D01*
X70565140Y-43986493D01*
X70645422Y-44233576D01*
X70763368Y-44465054D01*
X70916066Y-44675225D01*
X70916071Y-44675231D01*
X71039908Y-44799068D01*
X71073393Y-44860391D01*
X71068409Y-44930083D01*
X71039909Y-44974430D01*
X70982682Y-45031657D01*
X70890643Y-45180875D01*
X70890641Y-45180880D01*
X70835494Y-45347302D01*
X70835493Y-45347309D01*
X70825000Y-45450013D01*
X70825000Y-45850000D01*
X71895854Y-45850000D01*
X71857370Y-45916657D01*
X71825000Y-46037465D01*
X71825000Y-46162535D01*
X71857370Y-46283343D01*
X71895854Y-46350000D01*
X70825001Y-46350000D01*
X70825001Y-46749986D01*
X70835494Y-46852697D01*
X70890641Y-47019119D01*
X70890643Y-47019124D01*
X70982684Y-47168345D01*
X71106654Y-47292315D01*
X71255875Y-47384356D01*
X71255880Y-47384358D01*
X71422302Y-47439505D01*
X71422309Y-47439506D01*
X71525019Y-47449999D01*
X72049999Y-47449999D01*
X72050000Y-47449998D01*
X72050000Y-46504145D01*
X72116657Y-46542630D01*
X72237465Y-46575000D01*
X72362535Y-46575000D01*
X72483343Y-46542630D01*
X72550000Y-46504145D01*
X72550000Y-47449999D01*
X73074972Y-47449999D01*
X73074986Y-47449998D01*
X73177697Y-47439505D01*
X73344119Y-47384358D01*
X73344124Y-47384356D01*
X73493345Y-47292315D01*
X73617315Y-47168345D01*
X73709356Y-47019124D01*
X73709358Y-47019119D01*
X73764505Y-46852697D01*
X73764506Y-46852690D01*
X73774999Y-46749986D01*
X73775000Y-46749973D01*
X73775000Y-46350000D01*
X72704146Y-46350000D01*
X72742630Y-46283343D01*
X72775000Y-46162535D01*
X72775000Y-46037465D01*
X72742630Y-45916657D01*
X72704146Y-45850000D01*
X73774999Y-45850000D01*
X73774999Y-45450028D01*
X73774998Y-45450013D01*
X73764505Y-45347302D01*
X73709358Y-45180880D01*
X73709356Y-45180875D01*
X73617315Y-45031654D01*
X73560091Y-44974430D01*
X73526606Y-44913107D01*
X73531590Y-44843415D01*
X73560087Y-44799072D01*
X73683931Y-44675229D01*
X73836634Y-44465051D01*
X73954579Y-44233572D01*
X74034860Y-43986493D01*
X74057539Y-43843298D01*
X74075500Y-43729902D01*
X74075500Y-43470097D01*
X74053947Y-43334021D01*
X74034860Y-43213507D01*
X73954579Y-42966428D01*
X73954577Y-42966425D01*
X73954577Y-42966423D01*
X73872439Y-42805220D01*
X73836634Y-42734949D01*
X73683931Y-42524771D01*
X73596841Y-42437681D01*
X73563356Y-42376358D01*
X73568340Y-42306666D01*
X73596841Y-42262319D01*
X73683931Y-42175229D01*
X73836634Y-41965051D01*
X73954579Y-41733572D01*
X74034860Y-41486493D01*
X74057539Y-41343298D01*
X74075500Y-41229902D01*
X74075500Y-40970097D01*
X74053947Y-40834021D01*
X74034860Y-40713507D01*
X73954579Y-40466428D01*
X73954577Y-40466425D01*
X73954577Y-40466423D01*
X73911787Y-40382445D01*
X73836634Y-40234949D01*
X73683931Y-40024771D01*
X73596841Y-39937681D01*
X73563356Y-39876358D01*
X73568340Y-39806666D01*
X73596841Y-39762319D01*
X73683931Y-39675229D01*
X73836634Y-39465051D01*
X73954579Y-39233572D01*
X74034860Y-38986493D01*
X74067253Y-38781968D01*
X74075500Y-38729902D01*
X74075500Y-38470097D01*
X74046851Y-38289218D01*
X74034860Y-38213507D01*
X73954579Y-37966428D01*
X73954577Y-37966425D01*
X73954577Y-37966423D01*
X73911787Y-37882445D01*
X73836634Y-37734949D01*
X73683931Y-37524771D01*
X73500229Y-37341069D01*
X73394889Y-37264535D01*
X73290054Y-37188368D01*
X73290053Y-37188367D01*
X73290051Y-37188366D01*
X73217764Y-37151534D01*
X73058576Y-37070422D01*
X72811493Y-36990140D01*
X72554902Y-36949500D01*
X72554897Y-36949500D01*
X72045103Y-36949500D01*
X72045098Y-36949500D01*
X71788506Y-36990140D01*
X71541423Y-37070422D01*
X71309945Y-37188368D01*
X71099774Y-37341066D01*
X71099768Y-37341071D01*
X70916071Y-37524768D01*
X70916066Y-37524774D01*
X70763368Y-37734945D01*
X70645422Y-37966423D01*
X70565140Y-38213506D01*
X70524500Y-38470097D01*
X66883467Y-38470097D01*
X66877982Y-38428435D01*
X66813502Y-38187793D01*
X66759253Y-38056825D01*
X66718169Y-37957638D01*
X66718162Y-37957623D01*
X66593599Y-37741873D01*
X66441939Y-37544225D01*
X66441933Y-37544218D01*
X66265781Y-37368066D01*
X66265774Y-37368060D01*
X66068126Y-37216400D01*
X65852376Y-37091837D01*
X65852361Y-37091830D01*
X65622207Y-36996498D01*
X65598479Y-36990140D01*
X65381565Y-36932018D01*
X65381564Y-36932017D01*
X65381561Y-36932017D01*
X65134575Y-36899501D01*
X65134570Y-36899500D01*
X65134565Y-36899500D01*
X64885435Y-36899500D01*
X64885429Y-36899500D01*
X64885424Y-36899501D01*
X64638438Y-36932017D01*
X64397792Y-36996498D01*
X64167638Y-37091830D01*
X64167623Y-37091837D01*
X63951873Y-37216400D01*
X63754225Y-37368060D01*
X63754218Y-37368066D01*
X63578066Y-37544218D01*
X63578060Y-37544225D01*
X63426400Y-37741873D01*
X63301837Y-37957623D01*
X63301830Y-37957638D01*
X63206498Y-38187792D01*
X63142017Y-38428438D01*
X63109501Y-38675424D01*
X63109500Y-38675441D01*
X57163744Y-38675441D01*
X57201966Y-38637219D01*
X57322287Y-38471610D01*
X57333286Y-38450022D01*
X57344287Y-38428434D01*
X57415221Y-38289218D01*
X57415222Y-38289215D01*
X57417502Y-38282195D01*
X57478477Y-38094534D01*
X57510500Y-37892351D01*
X57510500Y-37687648D01*
X57510500Y-33424000D01*
X57530185Y-33356961D01*
X57582989Y-33311206D01*
X57634500Y-33300000D01*
X57960000Y-33300000D01*
X57960000Y-32433012D01*
X58017007Y-32465925D01*
X58144174Y-32500000D01*
X58275826Y-32500000D01*
X58402993Y-32465925D01*
X58460000Y-32433012D01*
X58460000Y-33300000D01*
X59057828Y-33300000D01*
X59057844Y-33299999D01*
X59117372Y-33293598D01*
X59117379Y-33293596D01*
X59252086Y-33243354D01*
X59252093Y-33243350D01*
X59367187Y-33157190D01*
X59367190Y-33157187D01*
X59453350Y-33042093D01*
X59453354Y-33042086D01*
X59503596Y-32907379D01*
X59503598Y-32907372D01*
X59509999Y-32847844D01*
X59510000Y-32847827D01*
X59510000Y-32250000D01*
X58643012Y-32250000D01*
X58675925Y-32192993D01*
X58710000Y-32065826D01*
X58710000Y-31934174D01*
X58675925Y-31807007D01*
X58643012Y-31750000D01*
X59510000Y-31750000D01*
X59510000Y-31152172D01*
X59509999Y-31152155D01*
X59503598Y-31092627D01*
X59503596Y-31092620D01*
X59453354Y-30957913D01*
X59453350Y-30957906D01*
X59367190Y-30842812D01*
X59367187Y-30842809D01*
X59252093Y-30756649D01*
X59252086Y-30756645D01*
X59117379Y-30706403D01*
X59117372Y-30706401D01*
X59057844Y-30700000D01*
X58460000Y-30700000D01*
X58460000Y-31566988D01*
X58402993Y-31534075D01*
X58275826Y-31500000D01*
X58144174Y-31500000D01*
X58017007Y-31534075D01*
X57960000Y-31566988D01*
X57960000Y-30680546D01*
X57968644Y-30651105D01*
X57975168Y-30621119D01*
X57978922Y-30616103D01*
X57979685Y-30613507D01*
X57996319Y-30592865D01*
X58403227Y-30185957D01*
X58652251Y-29936934D01*
X59752366Y-28836819D01*
X59813689Y-28803334D01*
X59840047Y-28800500D01*
X70814564Y-28800500D01*
X70881603Y-28820185D01*
X70927358Y-28872989D01*
X70937302Y-28942147D01*
X70911832Y-29001409D01*
X70907684Y-29006654D01*
X70815643Y-29155875D01*
X70815641Y-29155880D01*
X70760494Y-29322302D01*
X70760493Y-29322309D01*
X70750000Y-29425013D01*
X70750000Y-29825000D01*
X71816988Y-29825000D01*
X71784075Y-29882007D01*
X71750000Y-30009174D01*
X71750000Y-30140826D01*
X71784075Y-30267993D01*
X71816988Y-30325000D01*
X70750001Y-30325000D01*
X70750001Y-30724986D01*
X70760494Y-30827697D01*
X70815641Y-30994119D01*
X70815643Y-30994124D01*
X70907684Y-31143345D01*
X71031654Y-31267315D01*
X71180875Y-31359356D01*
X71180880Y-31359358D01*
X71347302Y-31414505D01*
X71347309Y-31414506D01*
X71450019Y-31424999D01*
X71999999Y-31424999D01*
X72000000Y-31424998D01*
X72000000Y-30508012D01*
X72057007Y-30540925D01*
X72184174Y-30575000D01*
X72315826Y-30575000D01*
X72442993Y-30540925D01*
X72500000Y-30508012D01*
X72500000Y-31424999D01*
X73049972Y-31424999D01*
X73049986Y-31424998D01*
X73152697Y-31414505D01*
X73319119Y-31359358D01*
X73319124Y-31359356D01*
X73468345Y-31267315D01*
X73592315Y-31143345D01*
X73684356Y-30994124D01*
X73684358Y-30994119D01*
X73739505Y-30827697D01*
X73739506Y-30827690D01*
X73749999Y-30724986D01*
X73750000Y-30724973D01*
X73750000Y-30325000D01*
X72683012Y-30325000D01*
X72715925Y-30267993D01*
X72750000Y-30140826D01*
X72750000Y-30009174D01*
X72715925Y-29882007D01*
X72683012Y-29825000D01*
X73749999Y-29825000D01*
X73749999Y-29425028D01*
X73749998Y-29425013D01*
X73739505Y-29322302D01*
X73684358Y-29155880D01*
X73684356Y-29155875D01*
X73592315Y-29006654D01*
X73535091Y-28949430D01*
X73501606Y-28888107D01*
X73506590Y-28818415D01*
X73535087Y-28774072D01*
X73658931Y-28650229D01*
X73811634Y-28440051D01*
X73929579Y-28208572D01*
X74009860Y-27961493D01*
X74032539Y-27818298D01*
X74050500Y-27704902D01*
X74050500Y-27445097D01*
X74022129Y-27265971D01*
X74009860Y-27188507D01*
X73929579Y-26941428D01*
X73929577Y-26941425D01*
X73929577Y-26941423D01*
X73845855Y-26777112D01*
X73811634Y-26709949D01*
X73658931Y-26499771D01*
X73475229Y-26316069D01*
X73409160Y-26268067D01*
X73265054Y-26163368D01*
X73265053Y-26163367D01*
X73265051Y-26163366D01*
X73171323Y-26115609D01*
X73033576Y-26045422D01*
X72786493Y-25965140D01*
X72529902Y-25924500D01*
X72529897Y-25924500D01*
X71970103Y-25924500D01*
X71970098Y-25924500D01*
X71713506Y-25965140D01*
X71466423Y-26045422D01*
X71234949Y-26163365D01*
X71217809Y-26175819D01*
X71152002Y-26199298D01*
X71144924Y-26199500D01*
X59352351Y-26199500D01*
X59147648Y-26199500D01*
X59100779Y-26206923D01*
X58945468Y-26231522D01*
X58945467Y-26231522D01*
X58891006Y-26249218D01*
X58750778Y-26294781D01*
X58682090Y-26329780D01*
X58568387Y-26387714D01*
X58568384Y-26387716D01*
X58402778Y-26508036D01*
X55218036Y-29692778D01*
X55097713Y-29858388D01*
X55051246Y-29949585D01*
X55051245Y-29949584D01*
X55004778Y-30040783D01*
X55004776Y-30040787D01*
X54985701Y-30099499D01*
X54949701Y-30210298D01*
X54949700Y-30210302D01*
X54941522Y-30235468D01*
X54916129Y-30395793D01*
X54886200Y-30458928D01*
X54826888Y-30495859D01*
X54757026Y-30494861D01*
X54755338Y-30494326D01*
X54584787Y-30438910D01*
X54418903Y-30412636D01*
X54335962Y-30399500D01*
X54084038Y-30399500D01*
X53959626Y-30419205D01*
X53835214Y-30438910D01*
X53595616Y-30516760D01*
X53371151Y-30631132D01*
X53282885Y-30695261D01*
X53217079Y-30718741D01*
X53149025Y-30702915D01*
X53137115Y-30695261D01*
X53048848Y-30631132D01*
X53048847Y-30631131D01*
X53048845Y-30631130D01*
X52938684Y-30575000D01*
X52824383Y-30516760D01*
X52584785Y-30438909D01*
X52341657Y-30400402D01*
X52278522Y-30370473D01*
X52273374Y-30365610D01*
X48986819Y-27079055D01*
X48953334Y-27017732D01*
X48950500Y-26991374D01*
X48950500Y-22955513D01*
X48926053Y-22801165D01*
X48920940Y-22768882D01*
X48920938Y-22768878D01*
X48920938Y-22768873D01*
X48913122Y-22744817D01*
X48911127Y-22674976D01*
X48947208Y-22615144D01*
X49009909Y-22584316D01*
X49031053Y-22582500D01*
X49102970Y-22582500D01*
X49102971Y-22582500D01*
X49345886Y-22544026D01*
X49579792Y-22468026D01*
X49798929Y-22356370D01*
X49997901Y-22211809D01*
X50162319Y-22047391D01*
X50223642Y-22013906D01*
X50293334Y-22018890D01*
X50337681Y-22047391D01*
X50502100Y-22211810D01*
X50502105Y-22211814D01*
X50516859Y-22222533D01*
X50701071Y-22356370D01*
X50840426Y-22427375D01*
X50920207Y-22468026D01*
X50920210Y-22468027D01*
X51037161Y-22506026D01*
X51154114Y-22544026D01*
X51397029Y-22582500D01*
X51397030Y-22582500D01*
X51642970Y-22582500D01*
X51642971Y-22582500D01*
X51885886Y-22544026D01*
X52119792Y-22468026D01*
X52338929Y-22356370D01*
X52537901Y-22211809D01*
X52702319Y-22047391D01*
X52763642Y-22013906D01*
X52833334Y-22018890D01*
X52877681Y-22047391D01*
X53042100Y-22211810D01*
X53042105Y-22211814D01*
X53056859Y-22222533D01*
X53241071Y-22356370D01*
X53380426Y-22427375D01*
X53460207Y-22468026D01*
X53460210Y-22468027D01*
X53577161Y-22506026D01*
X53694114Y-22544026D01*
X53937029Y-22582500D01*
X53937030Y-22582500D01*
X54182970Y-22582500D01*
X54182971Y-22582500D01*
X54425886Y-22544026D01*
X54659792Y-22468026D01*
X54878929Y-22356370D01*
X55077901Y-22211809D01*
X55251809Y-22037901D01*
X55251811Y-22037897D01*
X55251814Y-22037895D01*
X55277938Y-22001936D01*
X55396370Y-21838929D01*
X55426511Y-21779773D01*
X55430145Y-21774210D01*
X55451853Y-21755677D01*
X55471452Y-21734926D01*
X55478086Y-21733282D01*
X55483285Y-21728845D01*
X55511570Y-21724990D01*
X55539273Y-21718130D01*
X55543693Y-21718398D01*
X55547731Y-21718715D01*
X56110504Y-21155941D01*
X56126619Y-21216081D01*
X56193498Y-21331920D01*
X56288080Y-21426502D01*
X56403919Y-21493381D01*
X56464057Y-21509494D01*
X55901283Y-22072268D01*
X55901283Y-22072269D01*
X55938567Y-22099358D01*
X56115562Y-22189542D01*
X56304477Y-22250924D01*
X56500679Y-22282000D01*
X56699321Y-22282000D01*
X56895520Y-22250924D01*
X56895523Y-22250924D01*
X57084437Y-22189542D01*
X57261425Y-22099362D01*
X57298716Y-22072268D01*
X56735942Y-21509494D01*
X56796081Y-21493381D01*
X56911920Y-21426502D01*
X57006502Y-21331920D01*
X57073381Y-21216081D01*
X57089495Y-21155942D01*
X57652268Y-21718715D01*
X57656307Y-21718398D01*
X57724684Y-21732763D01*
X57774440Y-21781815D01*
X57776519Y-21785721D01*
X57790551Y-21813261D01*
X57803632Y-21838932D01*
X57948185Y-22037894D01*
X57948189Y-22037899D01*
X58122100Y-22211810D01*
X58122105Y-22211814D01*
X58136859Y-22222533D01*
X58321071Y-22356370D01*
X58460426Y-22427375D01*
X58540207Y-22468026D01*
X58540210Y-22468027D01*
X58657161Y-22506026D01*
X58774114Y-22544026D01*
X59017029Y-22582500D01*
X59017030Y-22582500D01*
X59262970Y-22582500D01*
X59262971Y-22582500D01*
X59505886Y-22544026D01*
X59739792Y-22468026D01*
X59958929Y-22356370D01*
X60157901Y-22211809D01*
X60322319Y-22047391D01*
X60383642Y-22013906D01*
X60453334Y-22018890D01*
X60497681Y-22047391D01*
X60662100Y-22211810D01*
X60662105Y-22211814D01*
X60676859Y-22222533D01*
X60861071Y-22356370D01*
X61000426Y-22427375D01*
X61080207Y-22468026D01*
X61080210Y-22468027D01*
X61197161Y-22506026D01*
X61314114Y-22544026D01*
X61557029Y-22582500D01*
X61557030Y-22582500D01*
X61802970Y-22582500D01*
X61802971Y-22582500D01*
X62045886Y-22544026D01*
X62279792Y-22468026D01*
X62498929Y-22356370D01*
X62697901Y-22211809D01*
X62862319Y-22047391D01*
X62923642Y-22013906D01*
X62993334Y-22018890D01*
X63037681Y-22047391D01*
X63202100Y-22211810D01*
X63202105Y-22211814D01*
X63216859Y-22222533D01*
X63401071Y-22356370D01*
X63540426Y-22427375D01*
X63620207Y-22468026D01*
X63620210Y-22468027D01*
X63737161Y-22506026D01*
X63854114Y-22544026D01*
X64097029Y-22582500D01*
X64097030Y-22582500D01*
X64342970Y-22582500D01*
X64342971Y-22582500D01*
X64585886Y-22544026D01*
X64819792Y-22468026D01*
X65038929Y-22356370D01*
X65237901Y-22211809D01*
X65402319Y-22047391D01*
X65463642Y-22013906D01*
X65533334Y-22018890D01*
X65577681Y-22047391D01*
X65742100Y-22211810D01*
X65742105Y-22211814D01*
X65756859Y-22222533D01*
X65941071Y-22356370D01*
X66080426Y-22427375D01*
X66160207Y-22468026D01*
X66160210Y-22468027D01*
X66277161Y-22506026D01*
X66394114Y-22544026D01*
X66637029Y-22582500D01*
X66637030Y-22582500D01*
X66882970Y-22582500D01*
X66882971Y-22582500D01*
X67125886Y-22544026D01*
X67359792Y-22468026D01*
X67578929Y-22356370D01*
X67777901Y-22211809D01*
X67942319Y-22047391D01*
X68003642Y-22013906D01*
X68073334Y-22018890D01*
X68117681Y-22047391D01*
X68282100Y-22211810D01*
X68282105Y-22211814D01*
X68296859Y-22222533D01*
X68481071Y-22356370D01*
X68620426Y-22427375D01*
X68700207Y-22468026D01*
X68700210Y-22468027D01*
X68817161Y-22506026D01*
X68934114Y-22544026D01*
X69177029Y-22582500D01*
X69177030Y-22582500D01*
X69422970Y-22582500D01*
X69422971Y-22582500D01*
X69665886Y-22544026D01*
X69899792Y-22468026D01*
X70118929Y-22356370D01*
X70317901Y-22211809D01*
X70482319Y-22047391D01*
X70543642Y-22013906D01*
X70613334Y-22018890D01*
X70657681Y-22047391D01*
X70822100Y-22211810D01*
X70822105Y-22211814D01*
X70836859Y-22222533D01*
X71021071Y-22356370D01*
X71160426Y-22427375D01*
X71240207Y-22468026D01*
X71240210Y-22468027D01*
X71357161Y-22506026D01*
X71474114Y-22544026D01*
X71717029Y-22582500D01*
X71717030Y-22582500D01*
X71962970Y-22582500D01*
X71962971Y-22582500D01*
X72205886Y-22544026D01*
X72439792Y-22468026D01*
X72658929Y-22356370D01*
X72857901Y-22211809D01*
X73031809Y-22037901D01*
X73031811Y-22037897D01*
X73031814Y-22037895D01*
X73057938Y-22001936D01*
X73176370Y-21838929D01*
X73206511Y-21779773D01*
X73210145Y-21774210D01*
X73231853Y-21755677D01*
X73251452Y-21734926D01*
X73258086Y-21733282D01*
X73263285Y-21728845D01*
X73291570Y-21724990D01*
X73319273Y-21718130D01*
X73323693Y-21718398D01*
X73327731Y-21718715D01*
X73890504Y-21155941D01*
X73906619Y-21216081D01*
X73973498Y-21331920D01*
X74068080Y-21426502D01*
X74183919Y-21493381D01*
X74244057Y-21509494D01*
X73681283Y-22072268D01*
X73681283Y-22072269D01*
X73718567Y-22099358D01*
X73895562Y-22189542D01*
X74084477Y-22250924D01*
X74280679Y-22282000D01*
X74479321Y-22282000D01*
X74675520Y-22250924D01*
X74675523Y-22250924D01*
X74864437Y-22189542D01*
X75041425Y-22099362D01*
X75078716Y-22072268D01*
X74515942Y-21509494D01*
X74576081Y-21493381D01*
X74691920Y-21426502D01*
X74786502Y-21331920D01*
X74853381Y-21216081D01*
X74869495Y-21155941D01*
X75432268Y-21718715D01*
X75459364Y-21681422D01*
X75546856Y-21509709D01*
X75594830Y-21458912D01*
X75662651Y-21442117D01*
X75728786Y-21464654D01*
X75766699Y-21507550D01*
X75900388Y-21757664D01*
X75900399Y-21757682D01*
X76113305Y-22076318D01*
X76113315Y-22076332D01*
X76356439Y-22372580D01*
X76627419Y-22643560D01*
X76627424Y-22643564D01*
X76627425Y-22643565D01*
X76923673Y-22886689D01*
X76923680Y-22886694D01*
X76923690Y-22886701D01*
X77155777Y-23041776D01*
X77200583Y-23095388D01*
X77209290Y-23164713D01*
X77179136Y-23227740D01*
X77143185Y-23255361D01*
X77121069Y-23266630D01*
X76922105Y-23411185D01*
X76922100Y-23411189D01*
X76748189Y-23585100D01*
X76748185Y-23585105D01*
X76603632Y-23784067D01*
X76491973Y-24003207D01*
X76491972Y-24003210D01*
X76415974Y-24237112D01*
X76396445Y-24360414D01*
X76377500Y-24480029D01*
X76377500Y-24725971D01*
X76382578Y-24758031D01*
X76415974Y-24968887D01*
X76491972Y-25202789D01*
X76491973Y-25202792D01*
X76603632Y-25421932D01*
X76748185Y-25620894D01*
X76748189Y-25620899D01*
X76912609Y-25785319D01*
X76946094Y-25846642D01*
X76941110Y-25916334D01*
X76912609Y-25960681D01*
X76748189Y-26125100D01*
X76748185Y-26125105D01*
X76603632Y-26324067D01*
X76491973Y-26543207D01*
X76491972Y-26543210D01*
X76415974Y-26777112D01*
X76377500Y-27020029D01*
X76377500Y-27265970D01*
X76415974Y-27508887D01*
X76491972Y-27742789D01*
X76491973Y-27742792D01*
X76603632Y-27961932D01*
X76748185Y-28160894D01*
X76748189Y-28160899D01*
X76922100Y-28334810D01*
X76922105Y-28334814D01*
X77066953Y-28440051D01*
X77121071Y-28479370D01*
X77264322Y-28552360D01*
X77340207Y-28591026D01*
X77340210Y-28591027D01*
X77457161Y-28629026D01*
X77574114Y-28667026D01*
X77817029Y-28705500D01*
X77817030Y-28705500D01*
X78062970Y-28705500D01*
X78062971Y-28705500D01*
X78305886Y-28667026D01*
X78539792Y-28591026D01*
X78758929Y-28479370D01*
X78957901Y-28334809D01*
X79122319Y-28170391D01*
X79183642Y-28136906D01*
X79253334Y-28141890D01*
X79297681Y-28170391D01*
X79462100Y-28334810D01*
X79462105Y-28334814D01*
X79606953Y-28440051D01*
X79661071Y-28479370D01*
X79804322Y-28552360D01*
X79880207Y-28591026D01*
X79880210Y-28591027D01*
X79997161Y-28629026D01*
X80114114Y-28667026D01*
X80357029Y-28705500D01*
X80357030Y-28705500D01*
X80602970Y-28705500D01*
X80602971Y-28705500D01*
X80845886Y-28667026D01*
X81079792Y-28591026D01*
X81298929Y-28479370D01*
X81497901Y-28334809D01*
X81671809Y-28160901D01*
X81671811Y-28160897D01*
X81671814Y-28160895D01*
X81775682Y-28017932D01*
X81831011Y-27975266D01*
X81900625Y-27969287D01*
X81962420Y-28001892D01*
X81996777Y-28062731D01*
X82000000Y-28090817D01*
X82000000Y-65698834D01*
X81980315Y-65765873D01*
X81927511Y-65811628D01*
X81858353Y-65821572D01*
X81797335Y-65794687D01*
X81576332Y-65613315D01*
X81576331Y-65613314D01*
X81576327Y-65613311D01*
X81257676Y-65400395D01*
X81257671Y-65400392D01*
X81257664Y-65400388D01*
X80919697Y-65219740D01*
X80919692Y-65219738D01*
X80565625Y-65073078D01*
X80198877Y-64961827D01*
X80198866Y-64961824D01*
X79823011Y-64887063D01*
X79535763Y-64858772D01*
X79441619Y-64849500D01*
X79058381Y-64849500D01*
X78971394Y-64858067D01*
X78676988Y-64887063D01*
X78301133Y-64961824D01*
X78301122Y-64961827D01*
X77934374Y-65073078D01*
X77580307Y-65219738D01*
X77580302Y-65219740D01*
X77242335Y-65400388D01*
X77242317Y-65400399D01*
X76923681Y-65613305D01*
X76923667Y-65613315D01*
X76627419Y-65856439D01*
X76356439Y-66127419D01*
X76113315Y-66423667D01*
X76113305Y-66423681D01*
X75900399Y-66742317D01*
X75900388Y-66742335D01*
X75719740Y-67080302D01*
X75719738Y-67080307D01*
X75573078Y-67434374D01*
X75461827Y-67801122D01*
X75461824Y-67801133D01*
X75387063Y-68176988D01*
X75349500Y-68558384D01*
X75349500Y-68941615D01*
X75387063Y-69323011D01*
X75461824Y-69698866D01*
X75461827Y-69698877D01*
X75573078Y-70065625D01*
X75719738Y-70419692D01*
X75719740Y-70419697D01*
X75900388Y-70757664D01*
X75900399Y-70757682D01*
X76113305Y-71076318D01*
X76113315Y-71076332D01*
X76356439Y-71372580D01*
X76627419Y-71643560D01*
X76793851Y-71780147D01*
X76833185Y-71837892D01*
X76835056Y-71907737D01*
X76798869Y-71967505D01*
X76736113Y-71998221D01*
X76715186Y-72000000D01*
X23784814Y-72000000D01*
X23717775Y-71980315D01*
X23672020Y-71927511D01*
X23662076Y-71858353D01*
X23691101Y-71794797D01*
X23706149Y-71780147D01*
X23872575Y-71643565D01*
X24143565Y-71372575D01*
X24386689Y-71076327D01*
X24599605Y-70757676D01*
X24780263Y-70419690D01*
X24926922Y-70065624D01*
X25038170Y-69698887D01*
X25038172Y-69698877D01*
X25038175Y-69698866D01*
X25112936Y-69323011D01*
X25127852Y-69171565D01*
X25150500Y-68941619D01*
X25150500Y-68675441D01*
X53109500Y-68675441D01*
X53109500Y-68924558D01*
X53109501Y-68924575D01*
X53142017Y-69171561D01*
X53206498Y-69412207D01*
X53301830Y-69642361D01*
X53301837Y-69642376D01*
X53426400Y-69858126D01*
X53578060Y-70055774D01*
X53578066Y-70055781D01*
X53754218Y-70231933D01*
X53754225Y-70231939D01*
X53951873Y-70383599D01*
X54167623Y-70508162D01*
X54167638Y-70508169D01*
X54266825Y-70549253D01*
X54397793Y-70603502D01*
X54638435Y-70667982D01*
X54885435Y-70700500D01*
X54885442Y-70700500D01*
X55134558Y-70700500D01*
X55134565Y-70700500D01*
X55381565Y-70667982D01*
X55622207Y-70603502D01*
X55852373Y-70508164D01*
X56068127Y-70383599D01*
X56265776Y-70231938D01*
X56441938Y-70055776D01*
X56593599Y-69858127D01*
X56718164Y-69642373D01*
X56813502Y-69412207D01*
X56877982Y-69171565D01*
X56910500Y-68924565D01*
X56910500Y-68675435D01*
X56877982Y-68428435D01*
X56813502Y-68187793D01*
X56718164Y-67957627D01*
X56593599Y-67741873D01*
X56441938Y-67544224D01*
X56441933Y-67544218D01*
X56265781Y-67368066D01*
X56265774Y-67368060D01*
X56068126Y-67216400D01*
X55852376Y-67091837D01*
X55852361Y-67091830D01*
X55622207Y-66996498D01*
X55381561Y-66932017D01*
X55134575Y-66899501D01*
X55134570Y-66899500D01*
X55134565Y-66899500D01*
X54885435Y-66899500D01*
X54885429Y-66899500D01*
X54885424Y-66899501D01*
X54638438Y-66932017D01*
X54397792Y-66996498D01*
X54167638Y-67091830D01*
X54167623Y-67091837D01*
X53951873Y-67216400D01*
X53754225Y-67368060D01*
X53754218Y-67368066D01*
X53578066Y-67544218D01*
X53578060Y-67544225D01*
X53426400Y-67741873D01*
X53301837Y-67957623D01*
X53301830Y-67957638D01*
X53206498Y-68187792D01*
X53142017Y-68428438D01*
X53109501Y-68675424D01*
X53109500Y-68675441D01*
X25150500Y-68675441D01*
X25150500Y-68558381D01*
X25112936Y-68176988D01*
X25069305Y-67957638D01*
X25038175Y-67801133D01*
X25038172Y-67801122D01*
X25038171Y-67801119D01*
X25038170Y-67801113D01*
X24926922Y-67434376D01*
X24780263Y-67080310D01*
X24735464Y-66996498D01*
X24599611Y-66742335D01*
X24599610Y-66742333D01*
X24599605Y-66742324D01*
X24386689Y-66423673D01*
X24143565Y-66127425D01*
X24143564Y-66127424D01*
X24143560Y-66127419D01*
X23872580Y-65856439D01*
X23576332Y-65613315D01*
X23576331Y-65613314D01*
X23576327Y-65613311D01*
X23257676Y-65400395D01*
X23257671Y-65400392D01*
X23257664Y-65400388D01*
X22919697Y-65219740D01*
X22919692Y-65219738D01*
X22565625Y-65073078D01*
X22198877Y-64961827D01*
X22198866Y-64961824D01*
X21823011Y-64887063D01*
X21535763Y-64858772D01*
X21441619Y-64849500D01*
X21058381Y-64849500D01*
X20971394Y-64858067D01*
X20676988Y-64887063D01*
X20301133Y-64961824D01*
X20301122Y-64961827D01*
X19934374Y-65073078D01*
X19580307Y-65219738D01*
X19580302Y-65219740D01*
X19242335Y-65400388D01*
X19242307Y-65400405D01*
X19192890Y-65433425D01*
X19126213Y-65454303D01*
X19058833Y-65435818D01*
X19012143Y-65383839D01*
X19000000Y-65330323D01*
X19000000Y-62756305D01*
X19019685Y-62689266D01*
X19072489Y-62643511D01*
X19141647Y-62633567D01*
X19199484Y-62657928D01*
X19287223Y-62725252D01*
X19287230Y-62725256D01*
X19522268Y-62860956D01*
X19522273Y-62860958D01*
X19522276Y-62860960D01*
X19773031Y-62964826D01*
X20035199Y-63035074D01*
X20237018Y-63061643D01*
X20304291Y-63070500D01*
X20304292Y-63070500D01*
X20575709Y-63070500D01*
X20629526Y-63063414D01*
X20844801Y-63035074D01*
X21106969Y-62964826D01*
X21357724Y-62860960D01*
X21592777Y-62725252D01*
X21808105Y-62560025D01*
X22000025Y-62368105D01*
X22165252Y-62152777D01*
X22300960Y-61917724D01*
X22404826Y-61666969D01*
X22475074Y-61404801D01*
X22510500Y-61135708D01*
X22510500Y-60864292D01*
X22510500Y-60864291D01*
X36369500Y-60864291D01*
X36369500Y-61135708D01*
X36404925Y-61404797D01*
X36475175Y-61666973D01*
X36579038Y-61917720D01*
X36579043Y-61917731D01*
X36714743Y-62152769D01*
X36714754Y-62152785D01*
X36879973Y-62368103D01*
X36879979Y-62368110D01*
X37071889Y-62560020D01*
X37071895Y-62560025D01*
X37287223Y-62725252D01*
X37287230Y-62725256D01*
X37522268Y-62860956D01*
X37522273Y-62860958D01*
X37522276Y-62860960D01*
X37773031Y-62964826D01*
X38035199Y-63035074D01*
X38237018Y-63061643D01*
X38304291Y-63070500D01*
X38304292Y-63070500D01*
X38575709Y-63070500D01*
X38629526Y-63063414D01*
X38844801Y-63035074D01*
X39106969Y-62964826D01*
X39357724Y-62860960D01*
X39592777Y-62725252D01*
X39808105Y-62560025D01*
X40000025Y-62368105D01*
X40165252Y-62152777D01*
X40300960Y-61917724D01*
X40404826Y-61666969D01*
X40475074Y-61404801D01*
X40510500Y-61135708D01*
X40510500Y-60864292D01*
X40475074Y-60595199D01*
X40404826Y-60333031D01*
X40300960Y-60082276D01*
X40300958Y-60082273D01*
X40300956Y-60082268D01*
X40165256Y-59847230D01*
X40165252Y-59847223D01*
X40000025Y-59631895D01*
X40000020Y-59631889D01*
X39808110Y-59439979D01*
X39808103Y-59439973D01*
X39592785Y-59274754D01*
X39592783Y-59274752D01*
X39592777Y-59274748D01*
X39592772Y-59274745D01*
X39592769Y-59274743D01*
X39357731Y-59139043D01*
X39357720Y-59139038D01*
X39106973Y-59035175D01*
X38844797Y-58964925D01*
X38575709Y-58929500D01*
X38575708Y-58929500D01*
X38304292Y-58929500D01*
X38304291Y-58929500D01*
X38035202Y-58964925D01*
X37773026Y-59035175D01*
X37522279Y-59139038D01*
X37522268Y-59139043D01*
X37287230Y-59274743D01*
X37287214Y-59274754D01*
X37071896Y-59439973D01*
X37071889Y-59439979D01*
X36879979Y-59631889D01*
X36879973Y-59631896D01*
X36714754Y-59847214D01*
X36714743Y-59847230D01*
X36579043Y-60082268D01*
X36579038Y-60082279D01*
X36475175Y-60333026D01*
X36404925Y-60595202D01*
X36369500Y-60864291D01*
X22510500Y-60864291D01*
X22475074Y-60595199D01*
X22404826Y-60333031D01*
X22300960Y-60082276D01*
X22300958Y-60082273D01*
X22300956Y-60082268D01*
X22165256Y-59847230D01*
X22165252Y-59847223D01*
X22000025Y-59631895D01*
X22000020Y-59631889D01*
X21808110Y-59439979D01*
X21808103Y-59439973D01*
X21592785Y-59274754D01*
X21592783Y-59274752D01*
X21592777Y-59274748D01*
X21592772Y-59274745D01*
X21592769Y-59274743D01*
X21357731Y-59139043D01*
X21357720Y-59139038D01*
X21106973Y-59035175D01*
X20844797Y-58964925D01*
X20575709Y-58929500D01*
X20575708Y-58929500D01*
X20304292Y-58929500D01*
X20304291Y-58929500D01*
X20035202Y-58964925D01*
X19773026Y-59035175D01*
X19522279Y-59139038D01*
X19522268Y-59139043D01*
X19287230Y-59274743D01*
X19287213Y-59274754D01*
X19199486Y-59342070D01*
X19134317Y-59367264D01*
X19065872Y-59353225D01*
X19015882Y-59304411D01*
X19000000Y-59243694D01*
X19000000Y-20916660D01*
X19019685Y-20849621D01*
X19072489Y-20803866D01*
X19141647Y-20793922D01*
X19205203Y-20822947D01*
G37*
%TD.AperFunction*%
%TA.AperFunction,Conductor*%
G36*
X35806619Y-21216081D02*
G01*
X35873498Y-21331920D01*
X35968080Y-21426502D01*
X36083919Y-21493381D01*
X36144057Y-21509494D01*
X35581283Y-22072268D01*
X35581283Y-22072269D01*
X35618567Y-22099358D01*
X35795562Y-22189542D01*
X35984477Y-22250924D01*
X36180679Y-22282000D01*
X36379321Y-22282000D01*
X36575520Y-22250924D01*
X36575523Y-22250924D01*
X36764437Y-22189542D01*
X36941425Y-22099362D01*
X36978716Y-22072268D01*
X36415942Y-21509494D01*
X36476081Y-21493381D01*
X36591920Y-21426502D01*
X36686502Y-21331920D01*
X36753381Y-21216081D01*
X36769495Y-21155942D01*
X37332268Y-21718715D01*
X37336307Y-21718398D01*
X37404684Y-21732763D01*
X37454440Y-21781815D01*
X37456519Y-21785721D01*
X37470551Y-21813261D01*
X37483632Y-21838932D01*
X37628185Y-22037894D01*
X37628189Y-22037899D01*
X37802100Y-22211810D01*
X37802105Y-22211814D01*
X37816859Y-22222533D01*
X38001071Y-22356370D01*
X38140426Y-22427375D01*
X38220207Y-22468026D01*
X38220210Y-22468027D01*
X38337161Y-22506026D01*
X38454114Y-22544026D01*
X38697029Y-22582500D01*
X38697030Y-22582500D01*
X38942970Y-22582500D01*
X38942971Y-22582500D01*
X39185886Y-22544026D01*
X39419792Y-22468026D01*
X39638929Y-22356370D01*
X39837901Y-22211809D01*
X40002319Y-22047391D01*
X40063642Y-22013906D01*
X40133334Y-22018890D01*
X40177681Y-22047391D01*
X40342100Y-22211810D01*
X40342105Y-22211814D01*
X40356859Y-22222533D01*
X40541071Y-22356370D01*
X40680426Y-22427375D01*
X40760207Y-22468026D01*
X40760210Y-22468027D01*
X40877161Y-22506026D01*
X40994114Y-22544026D01*
X41237029Y-22582500D01*
X41237030Y-22582500D01*
X41482970Y-22582500D01*
X41482971Y-22582500D01*
X41725886Y-22544026D01*
X41959792Y-22468026D01*
X42178929Y-22356370D01*
X42377901Y-22211809D01*
X42542319Y-22047391D01*
X42603642Y-22013906D01*
X42673334Y-22018890D01*
X42717681Y-22047391D01*
X42882100Y-22211810D01*
X42882105Y-22211814D01*
X42896859Y-22222533D01*
X43081071Y-22356370D01*
X43220426Y-22427375D01*
X43300207Y-22468026D01*
X43300210Y-22468027D01*
X43417161Y-22506026D01*
X43534114Y-22544026D01*
X43777029Y-22582500D01*
X43777030Y-22582500D01*
X44022970Y-22582500D01*
X44022971Y-22582500D01*
X44265886Y-22544026D01*
X44499792Y-22468026D01*
X44718929Y-22356370D01*
X44917901Y-22211809D01*
X45082319Y-22047391D01*
X45143642Y-22013906D01*
X45213334Y-22018890D01*
X45257681Y-22047391D01*
X45422100Y-22211810D01*
X45422105Y-22211814D01*
X45436859Y-22222533D01*
X45621071Y-22356370D01*
X45760426Y-22427375D01*
X45840207Y-22468026D01*
X45840210Y-22468027D01*
X45957161Y-22506026D01*
X46074114Y-22544026D01*
X46317029Y-22582500D01*
X46317030Y-22582500D01*
X46468947Y-22582500D01*
X46535986Y-22602185D01*
X46581741Y-22654989D01*
X46591685Y-22724147D01*
X46586878Y-22744817D01*
X46579061Y-22768873D01*
X46579060Y-22768880D01*
X46549500Y-22955513D01*
X46549500Y-27634486D01*
X46579059Y-27821118D01*
X46637454Y-28000836D01*
X46706786Y-28136906D01*
X46723240Y-28169199D01*
X46834310Y-28322074D01*
X46834312Y-28322076D01*
X50575610Y-32063374D01*
X50609095Y-32124697D01*
X50610402Y-32131657D01*
X50648909Y-32374785D01*
X50726760Y-32614383D01*
X50841132Y-32838848D01*
X50989201Y-33042649D01*
X50989205Y-33042654D01*
X51167345Y-33220794D01*
X51167350Y-33220798D01*
X51291787Y-33311206D01*
X51371155Y-33368870D01*
X51479354Y-33424000D01*
X51595616Y-33483239D01*
X51595618Y-33483239D01*
X51595621Y-33483241D01*
X51835215Y-33561090D01*
X52084038Y-33600500D01*
X52084039Y-33600500D01*
X52335961Y-33600500D01*
X52335962Y-33600500D01*
X52584785Y-33561090D01*
X52824379Y-33483241D01*
X53048845Y-33368870D01*
X53137116Y-33304737D01*
X53202920Y-33281258D01*
X53270974Y-33297083D01*
X53282876Y-33304731D01*
X53371155Y-33368870D01*
X53477206Y-33422905D01*
X53595616Y-33483239D01*
X53595618Y-33483239D01*
X53595621Y-33483241D01*
X53835215Y-33561090D01*
X54084038Y-33600500D01*
X54084039Y-33600500D01*
X54335961Y-33600500D01*
X54335962Y-33600500D01*
X54584785Y-33561090D01*
X54747185Y-33508322D01*
X54817022Y-33506328D01*
X54876855Y-33542407D01*
X54907684Y-33605108D01*
X54909500Y-33626254D01*
X54909500Y-37199953D01*
X54889815Y-37266992D01*
X54873181Y-37287634D01*
X51897634Y-40263181D01*
X51836311Y-40296666D01*
X51809953Y-40299500D01*
X46497577Y-40299500D01*
X46430538Y-40279815D01*
X46384783Y-40227011D01*
X46374839Y-40157853D01*
X46403864Y-40094297D01*
X46409896Y-40087819D01*
X46441933Y-40055781D01*
X46441938Y-40055776D01*
X46593599Y-39858127D01*
X46718164Y-39642373D01*
X46813502Y-39412207D01*
X46877982Y-39171565D01*
X46910500Y-38924565D01*
X46910500Y-38675435D01*
X46877982Y-38428435D01*
X46813502Y-38187793D01*
X46759253Y-38056825D01*
X46718169Y-37957638D01*
X46718162Y-37957623D01*
X46593599Y-37741873D01*
X46441939Y-37544225D01*
X46441933Y-37544218D01*
X46265781Y-37368066D01*
X46265774Y-37368060D01*
X46068126Y-37216400D01*
X45852376Y-37091837D01*
X45852361Y-37091830D01*
X45622207Y-36996498D01*
X45598479Y-36990140D01*
X45381565Y-36932018D01*
X45381564Y-36932017D01*
X45381561Y-36932017D01*
X45134575Y-36899501D01*
X45134570Y-36899500D01*
X45134565Y-36899500D01*
X44885435Y-36899500D01*
X44885429Y-36899500D01*
X44885424Y-36899501D01*
X44638438Y-36932017D01*
X44397792Y-36996498D01*
X44167638Y-37091830D01*
X44167623Y-37091837D01*
X43951873Y-37216400D01*
X43754225Y-37368060D01*
X43754218Y-37368066D01*
X43578066Y-37544218D01*
X43578060Y-37544225D01*
X43426400Y-37741873D01*
X43301837Y-37957623D01*
X43301830Y-37957638D01*
X43206498Y-38187792D01*
X43142017Y-38428438D01*
X43109501Y-38675424D01*
X43109500Y-38675441D01*
X43109500Y-38924558D01*
X43109501Y-38924575D01*
X43142017Y-39171561D01*
X43206498Y-39412207D01*
X43301830Y-39642361D01*
X43301837Y-39642376D01*
X43426400Y-39858126D01*
X43578060Y-40055774D01*
X43578066Y-40055781D01*
X43610104Y-40087819D01*
X43643589Y-40149142D01*
X43638605Y-40218834D01*
X43596733Y-40274767D01*
X43531269Y-40299184D01*
X43522423Y-40299500D01*
X33390047Y-40299500D01*
X33323008Y-40279815D01*
X33302366Y-40263181D01*
X29496819Y-36457634D01*
X29463334Y-36396311D01*
X29460500Y-36369953D01*
X29460500Y-34364291D01*
X36369500Y-34364291D01*
X36369500Y-34635708D01*
X36404925Y-34904797D01*
X36475175Y-35166973D01*
X36579038Y-35417720D01*
X36579043Y-35417731D01*
X36714743Y-35652769D01*
X36714754Y-35652785D01*
X36879973Y-35868103D01*
X36879979Y-35868110D01*
X37071889Y-36060020D01*
X37071895Y-36060025D01*
X37287223Y-36225252D01*
X37287230Y-36225256D01*
X37522268Y-36360956D01*
X37522273Y-36360958D01*
X37522276Y-36360960D01*
X37773031Y-36464826D01*
X38035199Y-36535074D01*
X38237018Y-36561643D01*
X38304291Y-36570500D01*
X38304292Y-36570500D01*
X38575709Y-36570500D01*
X38629526Y-36563414D01*
X38844801Y-36535074D01*
X39106969Y-36464826D01*
X39357724Y-36360960D01*
X39592777Y-36225252D01*
X39808105Y-36060025D01*
X40000025Y-35868105D01*
X40165252Y-35652777D01*
X40300960Y-35417724D01*
X40404826Y-35166969D01*
X40475074Y-34904801D01*
X40510500Y-34635708D01*
X40510500Y-34364292D01*
X40475074Y-34095199D01*
X40404826Y-33833031D01*
X40300960Y-33582276D01*
X40300958Y-33582273D01*
X40300956Y-33582268D01*
X40165256Y-33347230D01*
X40165252Y-33347223D01*
X40085551Y-33243354D01*
X40000026Y-33131896D01*
X40000020Y-33131889D01*
X39808110Y-32939979D01*
X39808103Y-32939973D01*
X39592785Y-32774754D01*
X39592783Y-32774752D01*
X39592777Y-32774748D01*
X39592772Y-32774745D01*
X39592769Y-32774743D01*
X39357731Y-32639043D01*
X39357720Y-32639038D01*
X39106973Y-32535175D01*
X38844797Y-32464925D01*
X38575709Y-32429500D01*
X38575708Y-32429500D01*
X38304292Y-32429500D01*
X38304291Y-32429500D01*
X38035202Y-32464925D01*
X37773026Y-32535175D01*
X37522279Y-32639038D01*
X37522268Y-32639043D01*
X37287230Y-32774743D01*
X37287214Y-32774754D01*
X37071896Y-32939973D01*
X37071889Y-32939979D01*
X36879979Y-33131889D01*
X36879973Y-33131896D01*
X36714754Y-33347214D01*
X36714743Y-33347230D01*
X36579043Y-33582268D01*
X36579038Y-33582279D01*
X36475175Y-33833026D01*
X36404925Y-34095202D01*
X36369500Y-34364291D01*
X29460500Y-34364291D01*
X29460500Y-32969825D01*
X29480185Y-32902786D01*
X29532989Y-32857031D01*
X29602147Y-32847087D01*
X29659987Y-32871450D01*
X29697544Y-32900269D01*
X29697547Y-32900270D01*
X29697550Y-32900273D01*
X29766316Y-32939975D01*
X29901943Y-33018280D01*
X29901948Y-33018282D01*
X29901951Y-33018284D01*
X30120007Y-33108606D01*
X30347986Y-33169693D01*
X30581989Y-33200500D01*
X30581996Y-33200500D01*
X30818004Y-33200500D01*
X30818011Y-33200500D01*
X31052014Y-33169693D01*
X31279993Y-33108606D01*
X31498049Y-33018284D01*
X31560294Y-32982346D01*
X31628190Y-32965873D01*
X31694218Y-32988724D01*
X31709974Y-33002052D01*
X31737738Y-33029816D01*
X31890478Y-33125789D01*
X32060745Y-33185368D01*
X32060750Y-33185369D01*
X32151246Y-33195565D01*
X32195040Y-33200499D01*
X32195043Y-33200500D01*
X32195046Y-33200500D01*
X34284957Y-33200500D01*
X34284958Y-33200499D01*
X34352104Y-33192934D01*
X34419249Y-33185369D01*
X34419252Y-33185368D01*
X34419255Y-33185368D01*
X34589522Y-33125789D01*
X34742262Y-33029816D01*
X34869816Y-32902262D01*
X34965789Y-32749522D01*
X35025368Y-32579255D01*
X35040500Y-32444954D01*
X35040500Y-30355046D01*
X35025368Y-30220745D01*
X34965789Y-30050478D01*
X34869816Y-29897738D01*
X34742262Y-29770184D01*
X34619076Y-29692781D01*
X34589524Y-29674212D01*
X34589520Y-29674210D01*
X34563545Y-29665121D01*
X34506769Y-29624399D01*
X34481022Y-29559446D01*
X34480500Y-29548080D01*
X34480500Y-25647648D01*
X34476263Y-25620895D01*
X34448477Y-25445466D01*
X34440829Y-25421929D01*
X34386727Y-25255420D01*
X34385665Y-25251654D01*
X34311089Y-25105290D01*
X34292286Y-25068388D01*
X34232126Y-24985585D01*
X34232126Y-24985584D01*
X34232124Y-24985583D01*
X34204424Y-24947456D01*
X34171971Y-24902787D01*
X34171968Y-24902784D01*
X34171966Y-24902781D01*
X34027219Y-24758034D01*
X34027218Y-24758033D01*
X34024107Y-24754922D01*
X34024092Y-24754908D01*
X32536819Y-23267634D01*
X32503334Y-23206311D01*
X32500500Y-23179953D01*
X32500500Y-22289572D01*
X32520185Y-22222533D01*
X32572989Y-22176778D01*
X32642147Y-22166834D01*
X32705703Y-22195859D01*
X32712181Y-22201891D01*
X32722100Y-22211810D01*
X32722105Y-22211814D01*
X32736859Y-22222533D01*
X32921071Y-22356370D01*
X33060426Y-22427375D01*
X33140207Y-22468026D01*
X33140210Y-22468027D01*
X33257161Y-22506026D01*
X33374114Y-22544026D01*
X33617029Y-22582500D01*
X33617030Y-22582500D01*
X33862970Y-22582500D01*
X33862971Y-22582500D01*
X34105886Y-22544026D01*
X34339792Y-22468026D01*
X34558929Y-22356370D01*
X34757901Y-22211809D01*
X34931809Y-22037901D01*
X34931811Y-22037897D01*
X34931814Y-22037895D01*
X34957938Y-22001936D01*
X35076370Y-21838929D01*
X35106511Y-21779773D01*
X35110145Y-21774210D01*
X35131853Y-21755677D01*
X35151452Y-21734926D01*
X35158086Y-21733282D01*
X35163285Y-21728845D01*
X35191570Y-21724990D01*
X35219273Y-21718130D01*
X35223693Y-21718398D01*
X35227731Y-21718715D01*
X35790504Y-21155941D01*
X35806619Y-21216081D01*
G37*
%TD.AperFunction*%
%TA.AperFunction,Conductor*%
G36*
X35053334Y-19478890D02*
G01*
X35097681Y-19507391D01*
X35262100Y-19671810D01*
X35262105Y-19671814D01*
X35437920Y-19799550D01*
X35461071Y-19816370D01*
X35514278Y-19843480D01*
X35565073Y-19891453D01*
X35581868Y-19959274D01*
X35581600Y-19963691D01*
X35581282Y-19967730D01*
X36144058Y-20530504D01*
X36083919Y-20546619D01*
X35968080Y-20613498D01*
X35873498Y-20708080D01*
X35806619Y-20823919D01*
X35790504Y-20884057D01*
X35227730Y-20321282D01*
X35223691Y-20321600D01*
X35155314Y-20307235D01*
X35105558Y-20258183D01*
X35103498Y-20254313D01*
X35076370Y-20201071D01*
X34951072Y-20028612D01*
X34931814Y-20002105D01*
X34931810Y-20002100D01*
X34767391Y-19837681D01*
X34763052Y-19829735D01*
X34755805Y-19824310D01*
X34746570Y-19799550D01*
X34733906Y-19776358D01*
X34734551Y-19767328D01*
X34731388Y-19758846D01*
X34737004Y-19733025D01*
X34738890Y-19706666D01*
X34744708Y-19697612D01*
X34746240Y-19690573D01*
X34767391Y-19662319D01*
X34922319Y-19507391D01*
X34983642Y-19473906D01*
X35053334Y-19478890D01*
G37*
%TD.AperFunction*%
%TA.AperFunction,Conductor*%
G36*
X37593334Y-19478890D02*
G01*
X37637681Y-19507391D01*
X37792609Y-19662319D01*
X37826094Y-19723642D01*
X37821110Y-19793334D01*
X37792609Y-19837681D01*
X37628189Y-20002100D01*
X37628185Y-20002105D01*
X37483630Y-20201069D01*
X37456518Y-20254279D01*
X37408543Y-20305075D01*
X37340722Y-20321869D01*
X37336307Y-20321601D01*
X37332268Y-20321283D01*
X36769494Y-20884057D01*
X36753381Y-20823919D01*
X36686502Y-20708080D01*
X36591920Y-20613498D01*
X36476081Y-20546619D01*
X36415941Y-20530504D01*
X36978715Y-19967731D01*
X36978398Y-19963693D01*
X36992762Y-19895316D01*
X37041813Y-19845559D01*
X37045641Y-19843521D01*
X37098929Y-19816370D01*
X37297901Y-19671809D01*
X37462319Y-19507391D01*
X37523642Y-19473906D01*
X37593334Y-19478890D01*
G37*
%TD.AperFunction*%
%TA.AperFunction,Conductor*%
G36*
X55373334Y-19478890D02*
G01*
X55417681Y-19507391D01*
X55582100Y-19671810D01*
X55582105Y-19671814D01*
X55757920Y-19799550D01*
X55781071Y-19816370D01*
X55834278Y-19843480D01*
X55885073Y-19891453D01*
X55901868Y-19959274D01*
X55901600Y-19963691D01*
X55901282Y-19967730D01*
X56464058Y-20530504D01*
X56403919Y-20546619D01*
X56288080Y-20613498D01*
X56193498Y-20708080D01*
X56126619Y-20823919D01*
X56110504Y-20884057D01*
X55547730Y-20321282D01*
X55543691Y-20321600D01*
X55475314Y-20307235D01*
X55425558Y-20258183D01*
X55423498Y-20254313D01*
X55396370Y-20201071D01*
X55271072Y-20028612D01*
X55251814Y-20002105D01*
X55251810Y-20002100D01*
X55087391Y-19837681D01*
X55083052Y-19829735D01*
X55075805Y-19824310D01*
X55066570Y-19799550D01*
X55053906Y-19776358D01*
X55054551Y-19767328D01*
X55051388Y-19758846D01*
X55057004Y-19733025D01*
X55058890Y-19706666D01*
X55064708Y-19697612D01*
X55066240Y-19690573D01*
X55087391Y-19662319D01*
X55242319Y-19507391D01*
X55303642Y-19473906D01*
X55373334Y-19478890D01*
G37*
%TD.AperFunction*%
%TA.AperFunction,Conductor*%
G36*
X57886974Y-19477004D02*
G01*
X57913334Y-19478890D01*
X57922387Y-19484708D01*
X57929427Y-19486240D01*
X57957681Y-19507391D01*
X58112609Y-19662319D01*
X58146094Y-19723642D01*
X58141110Y-19793334D01*
X58112609Y-19837681D01*
X57948189Y-20002100D01*
X57948185Y-20002105D01*
X57803630Y-20201069D01*
X57776518Y-20254279D01*
X57728543Y-20305075D01*
X57660722Y-20321869D01*
X57656307Y-20321601D01*
X57652268Y-20321283D01*
X57089494Y-20884057D01*
X57073381Y-20823919D01*
X57006502Y-20708080D01*
X56911920Y-20613498D01*
X56796081Y-20546619D01*
X56735941Y-20530504D01*
X57298715Y-19967731D01*
X57298398Y-19963693D01*
X57312762Y-19895316D01*
X57361813Y-19845559D01*
X57365641Y-19843521D01*
X57418929Y-19816370D01*
X57617901Y-19671809D01*
X57782319Y-19507391D01*
X57790264Y-19503052D01*
X57795690Y-19495805D01*
X57820449Y-19486570D01*
X57843642Y-19473906D01*
X57852671Y-19474551D01*
X57861154Y-19471388D01*
X57886974Y-19477004D01*
G37*
%TD.AperFunction*%
%TA.AperFunction,Conductor*%
G36*
X73153334Y-19478890D02*
G01*
X73197681Y-19507391D01*
X73362100Y-19671810D01*
X73362105Y-19671814D01*
X73537920Y-19799550D01*
X73561071Y-19816370D01*
X73614278Y-19843480D01*
X73665073Y-19891453D01*
X73681868Y-19959274D01*
X73681600Y-19963691D01*
X73681282Y-19967730D01*
X74244058Y-20530504D01*
X74183919Y-20546619D01*
X74068080Y-20613498D01*
X73973498Y-20708080D01*
X73906619Y-20823919D01*
X73890504Y-20884057D01*
X73327730Y-20321282D01*
X73323691Y-20321600D01*
X73255314Y-20307235D01*
X73205558Y-20258183D01*
X73203498Y-20254313D01*
X73176370Y-20201071D01*
X73051072Y-20028612D01*
X73031814Y-20002105D01*
X73031810Y-20002100D01*
X72867391Y-19837681D01*
X72863052Y-19829735D01*
X72855805Y-19824310D01*
X72846570Y-19799550D01*
X72833906Y-19776358D01*
X72834551Y-19767328D01*
X72831388Y-19758846D01*
X72837004Y-19733025D01*
X72838890Y-19706666D01*
X72844708Y-19697612D01*
X72846240Y-19690573D01*
X72867391Y-19662319D01*
X73022319Y-19507391D01*
X73083642Y-19473906D01*
X73153334Y-19478890D01*
G37*
%TD.AperFunction*%
%TA.AperFunction,Conductor*%
G36*
X30726619Y-18676081D02*
G01*
X30793498Y-18791920D01*
X30888080Y-18886502D01*
X31003919Y-18953381D01*
X31064057Y-18969494D01*
X30501283Y-19532268D01*
X30501601Y-19536307D01*
X30487236Y-19604684D01*
X30438184Y-19654440D01*
X30434279Y-19656518D01*
X30381069Y-19683630D01*
X30182105Y-19828185D01*
X30182100Y-19828189D01*
X30017681Y-19992609D01*
X30009735Y-19996947D01*
X30004310Y-20004195D01*
X29979550Y-20013429D01*
X29956358Y-20026094D01*
X29947328Y-20025448D01*
X29938846Y-20028612D01*
X29913025Y-20022995D01*
X29886666Y-20021110D01*
X29877612Y-20015291D01*
X29870573Y-20013760D01*
X29842319Y-19992609D01*
X29687391Y-19837681D01*
X29653906Y-19776358D01*
X29658890Y-19706666D01*
X29687391Y-19662319D01*
X29750493Y-19599217D01*
X29851809Y-19497901D01*
X29996370Y-19298929D01*
X30023481Y-19245718D01*
X30071452Y-19194926D01*
X30139273Y-19178130D01*
X30143693Y-19178398D01*
X30147731Y-19178715D01*
X30710504Y-18615941D01*
X30726619Y-18676081D01*
G37*
%TD.AperFunction*%
%TA.AperFunction,Conductor*%
G36*
X40886619Y-18676081D02*
G01*
X40953498Y-18791920D01*
X41048080Y-18886502D01*
X41163919Y-18953381D01*
X41224057Y-18969494D01*
X40661283Y-19532268D01*
X40661601Y-19536307D01*
X40647236Y-19604684D01*
X40598184Y-19654440D01*
X40594279Y-19656518D01*
X40541069Y-19683630D01*
X40342105Y-19828185D01*
X40342100Y-19828189D01*
X40177681Y-19992609D01*
X40169735Y-19996947D01*
X40164310Y-20004195D01*
X40139550Y-20013429D01*
X40116358Y-20026094D01*
X40107328Y-20025448D01*
X40098846Y-20028612D01*
X40073025Y-20022995D01*
X40046666Y-20021110D01*
X40037612Y-20015291D01*
X40030573Y-20013760D01*
X40002319Y-19992609D01*
X39847391Y-19837681D01*
X39813906Y-19776358D01*
X39818890Y-19706666D01*
X39847391Y-19662319D01*
X39910493Y-19599217D01*
X40011809Y-19497901D01*
X40156370Y-19298929D01*
X40183481Y-19245718D01*
X40231452Y-19194926D01*
X40299273Y-19178130D01*
X40303693Y-19178398D01*
X40307731Y-19178715D01*
X40870504Y-18615941D01*
X40886619Y-18676081D01*
G37*
%TD.AperFunction*%
%TA.AperFunction,Conductor*%
G36*
X61206619Y-18676081D02*
G01*
X61273498Y-18791920D01*
X61368080Y-18886502D01*
X61483919Y-18953381D01*
X61544057Y-18969494D01*
X60981283Y-19532268D01*
X60981601Y-19536307D01*
X60967236Y-19604684D01*
X60918184Y-19654440D01*
X60914279Y-19656518D01*
X60861069Y-19683630D01*
X60662105Y-19828185D01*
X60662100Y-19828189D01*
X60497681Y-19992609D01*
X60489735Y-19996947D01*
X60484310Y-20004195D01*
X60459550Y-20013429D01*
X60436358Y-20026094D01*
X60427328Y-20025448D01*
X60418846Y-20028612D01*
X60393025Y-20022995D01*
X60366666Y-20021110D01*
X60357612Y-20015291D01*
X60350573Y-20013760D01*
X60322319Y-19992609D01*
X60167391Y-19837681D01*
X60133906Y-19776358D01*
X60138890Y-19706666D01*
X60167391Y-19662319D01*
X60230493Y-19599217D01*
X60331809Y-19497901D01*
X60476370Y-19298929D01*
X60503481Y-19245718D01*
X60551452Y-19194926D01*
X60619273Y-19178130D01*
X60623693Y-19178398D01*
X60627731Y-19178715D01*
X61190504Y-18615941D01*
X61206619Y-18676081D01*
G37*
%TD.AperFunction*%
%TA.AperFunction,Conductor*%
G36*
X66286619Y-18676081D02*
G01*
X66353498Y-18791920D01*
X66448080Y-18886502D01*
X66563919Y-18953381D01*
X66624057Y-18969494D01*
X66061283Y-19532268D01*
X66061601Y-19536307D01*
X66047236Y-19604684D01*
X65998184Y-19654440D01*
X65994279Y-19656518D01*
X65941069Y-19683630D01*
X65742105Y-19828185D01*
X65742100Y-19828189D01*
X65577681Y-19992609D01*
X65569735Y-19996947D01*
X65564310Y-20004195D01*
X65539550Y-20013429D01*
X65516358Y-20026094D01*
X65507328Y-20025448D01*
X65498846Y-20028612D01*
X65473025Y-20022995D01*
X65446666Y-20021110D01*
X65437612Y-20015291D01*
X65430573Y-20013760D01*
X65402319Y-19992609D01*
X65247391Y-19837681D01*
X65213906Y-19776358D01*
X65218890Y-19706666D01*
X65247391Y-19662319D01*
X65310493Y-19599217D01*
X65411809Y-19497901D01*
X65556370Y-19298929D01*
X65583481Y-19245718D01*
X65631452Y-19194926D01*
X65699273Y-19178130D01*
X65703693Y-19178398D01*
X65707731Y-19178715D01*
X66270504Y-18615941D01*
X66286619Y-18676081D01*
G37*
%TD.AperFunction*%
%TA.AperFunction,Conductor*%
G36*
X32252268Y-19178715D02*
G01*
X32256307Y-19178398D01*
X32324684Y-19192763D01*
X32374440Y-19241815D01*
X32376519Y-19245721D01*
X32403632Y-19298932D01*
X32548185Y-19497894D01*
X32548189Y-19497899D01*
X32712609Y-19662319D01*
X32716947Y-19670264D01*
X32724195Y-19675690D01*
X32733429Y-19700449D01*
X32746094Y-19723642D01*
X32745448Y-19732671D01*
X32748612Y-19741154D01*
X32742995Y-19766974D01*
X32741110Y-19793334D01*
X32735291Y-19802387D01*
X32733760Y-19809427D01*
X32712609Y-19837681D01*
X32557681Y-19992609D01*
X32496358Y-20026094D01*
X32426666Y-20021110D01*
X32382319Y-19992609D01*
X32217899Y-19828189D01*
X32217894Y-19828185D01*
X32018932Y-19683632D01*
X32018931Y-19683631D01*
X32018929Y-19683630D01*
X31965721Y-19656519D01*
X31914925Y-19608544D01*
X31898130Y-19540723D01*
X31898398Y-19536307D01*
X31898715Y-19532268D01*
X31335942Y-18969494D01*
X31396081Y-18953381D01*
X31511920Y-18886502D01*
X31606502Y-18791920D01*
X31673381Y-18676081D01*
X31689495Y-18615942D01*
X32252268Y-19178715D01*
G37*
%TD.AperFunction*%
%TA.AperFunction,Conductor*%
G36*
X42412268Y-19178715D02*
G01*
X42416307Y-19178398D01*
X42484684Y-19192763D01*
X42534440Y-19241815D01*
X42536519Y-19245721D01*
X42563632Y-19298932D01*
X42708185Y-19497894D01*
X42708189Y-19497899D01*
X42872609Y-19662319D01*
X42876947Y-19670264D01*
X42884195Y-19675690D01*
X42893429Y-19700449D01*
X42906094Y-19723642D01*
X42905448Y-19732671D01*
X42908612Y-19741154D01*
X42902995Y-19766974D01*
X42901110Y-19793334D01*
X42895291Y-19802387D01*
X42893760Y-19809427D01*
X42872609Y-19837681D01*
X42717681Y-19992609D01*
X42656358Y-20026094D01*
X42586666Y-20021110D01*
X42542319Y-19992609D01*
X42377899Y-19828189D01*
X42377894Y-19828185D01*
X42178932Y-19683632D01*
X42178931Y-19683631D01*
X42178929Y-19683630D01*
X42125721Y-19656519D01*
X42074925Y-19608544D01*
X42058130Y-19540723D01*
X42058398Y-19536307D01*
X42058715Y-19532268D01*
X41495942Y-18969494D01*
X41556081Y-18953381D01*
X41671920Y-18886502D01*
X41766502Y-18791920D01*
X41833381Y-18676081D01*
X41849495Y-18615942D01*
X42412268Y-19178715D01*
G37*
%TD.AperFunction*%
%TA.AperFunction,Conductor*%
G36*
X50032268Y-19178715D02*
G01*
X50036307Y-19178398D01*
X50104684Y-19192763D01*
X50154440Y-19241815D01*
X50156519Y-19245721D01*
X50183632Y-19298932D01*
X50328185Y-19497894D01*
X50328189Y-19497899D01*
X50492609Y-19662319D01*
X50496947Y-19670264D01*
X50504195Y-19675690D01*
X50513429Y-19700449D01*
X50526094Y-19723642D01*
X50525448Y-19732671D01*
X50528612Y-19741154D01*
X50522995Y-19766974D01*
X50521110Y-19793334D01*
X50515291Y-19802387D01*
X50513760Y-19809427D01*
X50492609Y-19837681D01*
X50337681Y-19992609D01*
X50276358Y-20026094D01*
X50206666Y-20021110D01*
X50162319Y-19992609D01*
X49997899Y-19828189D01*
X49997894Y-19828185D01*
X49798932Y-19683632D01*
X49798931Y-19683631D01*
X49798929Y-19683630D01*
X49745721Y-19656519D01*
X49694925Y-19608544D01*
X49678130Y-19540723D01*
X49678398Y-19536307D01*
X49678715Y-19532268D01*
X49115941Y-18969495D01*
X49176081Y-18953381D01*
X49291920Y-18886502D01*
X49386502Y-18791920D01*
X49453381Y-18676081D01*
X49469495Y-18615942D01*
X50032268Y-19178715D01*
G37*
%TD.AperFunction*%
%TA.AperFunction,Conductor*%
G36*
X62732268Y-19178715D02*
G01*
X62736307Y-19178398D01*
X62804684Y-19192763D01*
X62854440Y-19241815D01*
X62856519Y-19245721D01*
X62883632Y-19298932D01*
X63028185Y-19497894D01*
X63028189Y-19497899D01*
X63192609Y-19662319D01*
X63196947Y-19670264D01*
X63204195Y-19675690D01*
X63213429Y-19700449D01*
X63226094Y-19723642D01*
X63225448Y-19732671D01*
X63228612Y-19741154D01*
X63222995Y-19766974D01*
X63221110Y-19793334D01*
X63215291Y-19802387D01*
X63213760Y-19809427D01*
X63192609Y-19837681D01*
X63037681Y-19992609D01*
X62976358Y-20026094D01*
X62906666Y-20021110D01*
X62862319Y-19992609D01*
X62697899Y-19828189D01*
X62697894Y-19828185D01*
X62498932Y-19683632D01*
X62498931Y-19683631D01*
X62498929Y-19683630D01*
X62445721Y-19656519D01*
X62394925Y-19608544D01*
X62378130Y-19540723D01*
X62378398Y-19536307D01*
X62378715Y-19532268D01*
X61815942Y-18969494D01*
X61876081Y-18953381D01*
X61991920Y-18886502D01*
X62086502Y-18791920D01*
X62153381Y-18676081D01*
X62169495Y-18615942D01*
X62732268Y-19178715D01*
G37*
%TD.AperFunction*%
%TA.AperFunction,Conductor*%
G36*
X67812268Y-19178715D02*
G01*
X67816307Y-19178398D01*
X67884684Y-19192763D01*
X67934440Y-19241815D01*
X67936519Y-19245721D01*
X67963632Y-19298932D01*
X68108185Y-19497894D01*
X68108189Y-19497899D01*
X68272609Y-19662319D01*
X68276947Y-19670264D01*
X68284195Y-19675690D01*
X68293429Y-19700449D01*
X68306094Y-19723642D01*
X68305448Y-19732671D01*
X68308612Y-19741154D01*
X68302995Y-19766974D01*
X68301110Y-19793334D01*
X68295291Y-19802387D01*
X68293760Y-19809427D01*
X68272609Y-19837681D01*
X68117681Y-19992609D01*
X68056358Y-20026094D01*
X67986666Y-20021110D01*
X67942319Y-19992609D01*
X67777899Y-19828189D01*
X67777894Y-19828185D01*
X67578932Y-19683632D01*
X67578931Y-19683631D01*
X67578929Y-19683630D01*
X67525721Y-19656519D01*
X67474925Y-19608544D01*
X67458130Y-19540723D01*
X67458398Y-19536307D01*
X67458715Y-19532268D01*
X66895942Y-18969494D01*
X66956081Y-18953381D01*
X67071920Y-18886502D01*
X67166502Y-18791920D01*
X67233381Y-18676081D01*
X67249495Y-18615942D01*
X67812268Y-19178715D01*
G37*
%TD.AperFunction*%
%TA.AperFunction,Conductor*%
G36*
X81943039Y-15019685D02*
G01*
X81988794Y-15072489D01*
X82000000Y-15124000D01*
X82000000Y-16698834D01*
X81980315Y-16765873D01*
X81927511Y-16811628D01*
X81858353Y-16821572D01*
X81797335Y-16794687D01*
X81576332Y-16613315D01*
X81576331Y-16613314D01*
X81576327Y-16613311D01*
X81257676Y-16400395D01*
X81257671Y-16400392D01*
X81257664Y-16400388D01*
X80919697Y-16219740D01*
X80919692Y-16219738D01*
X80565625Y-16073078D01*
X80198877Y-15961827D01*
X80198866Y-15961824D01*
X79823011Y-15887063D01*
X79535763Y-15858772D01*
X79441619Y-15849500D01*
X79058381Y-15849500D01*
X78971394Y-15858067D01*
X78676988Y-15887063D01*
X78301133Y-15961824D01*
X78301122Y-15961827D01*
X77934374Y-16073078D01*
X77580307Y-16219738D01*
X77580302Y-16219740D01*
X77242335Y-16400388D01*
X77242317Y-16400399D01*
X76923681Y-16613305D01*
X76923667Y-16613315D01*
X76627419Y-16856439D01*
X76356439Y-17127419D01*
X76113315Y-17423667D01*
X76113305Y-17423681D01*
X75937014Y-17687518D01*
X75883402Y-17732323D01*
X75814077Y-17741030D01*
X75751049Y-17710875D01*
X75723426Y-17674920D01*
X75716367Y-17661066D01*
X75571814Y-17462105D01*
X75571810Y-17462100D01*
X75397899Y-17288189D01*
X75397894Y-17288185D01*
X75198932Y-17143632D01*
X75198931Y-17143631D01*
X75198929Y-17143630D01*
X75128722Y-17107858D01*
X74979792Y-17031973D01*
X74979789Y-17031972D01*
X74745887Y-16955974D01*
X74624428Y-16936737D01*
X74502971Y-16917500D01*
X74257029Y-16917500D01*
X74176057Y-16930324D01*
X74014112Y-16955974D01*
X73780210Y-17031972D01*
X73780207Y-17031973D01*
X73561067Y-17143632D01*
X73362105Y-17288185D01*
X73362100Y-17288189D01*
X73197681Y-17452609D01*
X73136358Y-17486094D01*
X73066666Y-17481110D01*
X73022319Y-17452609D01*
X72857899Y-17288189D01*
X72857894Y-17288185D01*
X72658932Y-17143632D01*
X72658931Y-17143631D01*
X72658929Y-17143630D01*
X72588722Y-17107858D01*
X72439792Y-17031973D01*
X72439789Y-17031972D01*
X72205887Y-16955974D01*
X72084428Y-16936737D01*
X71962971Y-16917500D01*
X71717029Y-16917500D01*
X71636057Y-16930324D01*
X71474112Y-16955974D01*
X71240210Y-17031972D01*
X71240207Y-17031973D01*
X71021067Y-17143632D01*
X70822105Y-17288185D01*
X70822100Y-17288189D01*
X70657681Y-17452609D01*
X70596358Y-17486094D01*
X70526666Y-17481110D01*
X70482319Y-17452609D01*
X70317899Y-17288189D01*
X70317894Y-17288185D01*
X70118932Y-17143632D01*
X70118931Y-17143631D01*
X70118929Y-17143630D01*
X70048722Y-17107858D01*
X69899792Y-17031973D01*
X69899789Y-17031972D01*
X69665887Y-16955974D01*
X69544428Y-16936737D01*
X69422971Y-16917500D01*
X69177029Y-16917500D01*
X69096057Y-16930324D01*
X68934112Y-16955974D01*
X68700210Y-17031972D01*
X68700207Y-17031973D01*
X68481067Y-17143632D01*
X68282105Y-17288185D01*
X68282100Y-17288189D01*
X68108189Y-17462100D01*
X68108185Y-17462105D01*
X67963630Y-17661069D01*
X67936518Y-17714279D01*
X67888543Y-17765075D01*
X67820722Y-17781869D01*
X67816307Y-17781601D01*
X67812268Y-17781283D01*
X67249494Y-18344057D01*
X67233381Y-18283919D01*
X67166502Y-18168080D01*
X67071920Y-18073498D01*
X66956081Y-18006619D01*
X66895942Y-17990504D01*
X67458716Y-17427731D01*
X67458715Y-17427730D01*
X67421432Y-17400641D01*
X67244437Y-17310457D01*
X67055522Y-17249075D01*
X66859321Y-17218000D01*
X66660679Y-17218000D01*
X66464479Y-17249075D01*
X66464476Y-17249075D01*
X66275562Y-17310457D01*
X66098564Y-17400643D01*
X66061283Y-17427729D01*
X66061282Y-17427730D01*
X66624058Y-17990504D01*
X66563919Y-18006619D01*
X66448080Y-18073498D01*
X66353498Y-18168080D01*
X66286619Y-18283919D01*
X66270504Y-18344057D01*
X65707730Y-17781282D01*
X65703691Y-17781600D01*
X65690525Y-17778834D01*
X65677222Y-17780847D01*
X65656998Y-17771790D01*
X65635314Y-17767235D01*
X65624341Y-17757166D01*
X65613454Y-17752291D01*
X65598865Y-17733789D01*
X65590145Y-17725788D01*
X65586506Y-17720216D01*
X65556370Y-17661071D01*
X65472325Y-17545392D01*
X65472311Y-17545371D01*
X65411814Y-17462105D01*
X65411810Y-17462100D01*
X65237899Y-17288189D01*
X65237894Y-17288185D01*
X65038932Y-17143632D01*
X65038931Y-17143631D01*
X65038929Y-17143630D01*
X64968722Y-17107858D01*
X64819792Y-17031973D01*
X64819789Y-17031972D01*
X64585887Y-16955974D01*
X64464428Y-16936737D01*
X64342971Y-16917500D01*
X64097029Y-16917500D01*
X64016057Y-16930324D01*
X63854112Y-16955974D01*
X63620210Y-17031972D01*
X63620207Y-17031973D01*
X63401067Y-17143632D01*
X63202105Y-17288185D01*
X63202100Y-17288189D01*
X63028189Y-17462100D01*
X63028185Y-17462105D01*
X62883630Y-17661069D01*
X62856518Y-17714279D01*
X62808543Y-17765075D01*
X62740722Y-17781869D01*
X62736307Y-17781601D01*
X62732268Y-17781283D01*
X62169494Y-18344057D01*
X62153381Y-18283919D01*
X62086502Y-18168080D01*
X61991920Y-18073498D01*
X61876081Y-18006619D01*
X61815942Y-17990504D01*
X62378716Y-17427731D01*
X62378715Y-17427730D01*
X62341432Y-17400641D01*
X62164437Y-17310457D01*
X61975522Y-17249075D01*
X61779321Y-17218000D01*
X61580679Y-17218000D01*
X61384479Y-17249075D01*
X61384476Y-17249075D01*
X61195562Y-17310457D01*
X61018564Y-17400643D01*
X60981283Y-17427729D01*
X60981282Y-17427730D01*
X61544058Y-17990504D01*
X61483919Y-18006619D01*
X61368080Y-18073498D01*
X61273498Y-18168080D01*
X61206619Y-18283919D01*
X61190504Y-18344057D01*
X60627730Y-17781282D01*
X60623691Y-17781600D01*
X60610525Y-17778834D01*
X60597222Y-17780847D01*
X60576998Y-17771790D01*
X60555314Y-17767235D01*
X60544341Y-17757166D01*
X60533454Y-17752291D01*
X60518865Y-17733789D01*
X60510145Y-17725788D01*
X60506506Y-17720216D01*
X60476370Y-17661071D01*
X60392325Y-17545392D01*
X60392311Y-17545371D01*
X60331814Y-17462105D01*
X60331810Y-17462100D01*
X60157899Y-17288189D01*
X60157894Y-17288185D01*
X59958932Y-17143632D01*
X59958931Y-17143631D01*
X59958929Y-17143630D01*
X59888722Y-17107858D01*
X59739792Y-17031973D01*
X59739789Y-17031972D01*
X59505887Y-16955974D01*
X59384428Y-16936737D01*
X59262971Y-16917500D01*
X59017029Y-16917500D01*
X58936057Y-16930324D01*
X58774112Y-16955974D01*
X58540210Y-17031972D01*
X58540207Y-17031973D01*
X58321067Y-17143632D01*
X58122105Y-17288185D01*
X58122100Y-17288189D01*
X57957681Y-17452609D01*
X57896358Y-17486094D01*
X57826666Y-17481110D01*
X57782319Y-17452609D01*
X57617899Y-17288189D01*
X57617894Y-17288185D01*
X57418932Y-17143632D01*
X57418931Y-17143631D01*
X57418929Y-17143630D01*
X57348722Y-17107858D01*
X57199792Y-17031973D01*
X57199789Y-17031972D01*
X56965887Y-16955974D01*
X56844428Y-16936737D01*
X56722971Y-16917500D01*
X56477029Y-16917500D01*
X56396057Y-16930324D01*
X56234112Y-16955974D01*
X56000210Y-17031972D01*
X56000207Y-17031973D01*
X55781067Y-17143632D01*
X55582105Y-17288185D01*
X55582100Y-17288189D01*
X55417681Y-17452609D01*
X55356358Y-17486094D01*
X55286666Y-17481110D01*
X55242319Y-17452609D01*
X55077899Y-17288189D01*
X55077894Y-17288185D01*
X54878932Y-17143632D01*
X54878931Y-17143631D01*
X54878929Y-17143630D01*
X54808722Y-17107858D01*
X54659792Y-17031973D01*
X54659789Y-17031972D01*
X54425887Y-16955974D01*
X54304428Y-16936737D01*
X54182971Y-16917500D01*
X53937029Y-16917500D01*
X53856057Y-16930324D01*
X53694112Y-16955974D01*
X53460210Y-17031972D01*
X53460207Y-17031973D01*
X53241067Y-17143632D01*
X53042105Y-17288185D01*
X53042100Y-17288189D01*
X52877681Y-17452609D01*
X52816358Y-17486094D01*
X52746666Y-17481110D01*
X52702319Y-17452609D01*
X52537899Y-17288189D01*
X52537894Y-17288185D01*
X52338932Y-17143632D01*
X52338931Y-17143631D01*
X52338929Y-17143630D01*
X52268722Y-17107858D01*
X52119792Y-17031973D01*
X52119789Y-17031972D01*
X51885887Y-16955974D01*
X51764428Y-16936737D01*
X51642971Y-16917500D01*
X51397029Y-16917500D01*
X51316057Y-16930324D01*
X51154112Y-16955974D01*
X50920210Y-17031972D01*
X50920207Y-17031973D01*
X50701067Y-17143632D01*
X50502105Y-17288185D01*
X50502100Y-17288189D01*
X50328189Y-17462100D01*
X50328185Y-17462105D01*
X50183630Y-17661069D01*
X50156518Y-17714279D01*
X50108543Y-17765075D01*
X50040722Y-17781869D01*
X50036307Y-17781601D01*
X50032268Y-17781283D01*
X49469494Y-18344057D01*
X49453381Y-18283919D01*
X49386502Y-18168080D01*
X49291920Y-18073498D01*
X49176081Y-18006619D01*
X49115942Y-17990504D01*
X49678716Y-17427731D01*
X49678715Y-17427730D01*
X49641432Y-17400641D01*
X49464437Y-17310457D01*
X49275522Y-17249075D01*
X49079321Y-17218000D01*
X48880679Y-17218000D01*
X48684479Y-17249075D01*
X48684476Y-17249075D01*
X48495562Y-17310457D01*
X48318564Y-17400643D01*
X48281283Y-17427729D01*
X48281282Y-17427730D01*
X48844058Y-17990504D01*
X48783919Y-18006619D01*
X48668080Y-18073498D01*
X48573498Y-18168080D01*
X48506619Y-18283919D01*
X48490504Y-18344058D01*
X47927730Y-17781282D01*
X47923691Y-17781600D01*
X47910525Y-17778834D01*
X47897222Y-17780847D01*
X47876998Y-17771790D01*
X47855314Y-17767235D01*
X47844341Y-17757166D01*
X47833454Y-17752291D01*
X47818865Y-17733789D01*
X47810145Y-17725788D01*
X47806506Y-17720216D01*
X47776370Y-17661071D01*
X47692325Y-17545392D01*
X47692311Y-17545371D01*
X47631814Y-17462105D01*
X47631810Y-17462100D01*
X47457899Y-17288189D01*
X47457894Y-17288185D01*
X47258932Y-17143632D01*
X47258931Y-17143631D01*
X47258929Y-17143630D01*
X47188722Y-17107858D01*
X47039792Y-17031973D01*
X47039789Y-17031972D01*
X46805887Y-16955974D01*
X46684428Y-16936737D01*
X46562971Y-16917500D01*
X46317029Y-16917500D01*
X46236057Y-16930324D01*
X46074112Y-16955974D01*
X45840210Y-17031972D01*
X45840207Y-17031973D01*
X45621067Y-17143632D01*
X45422105Y-17288185D01*
X45422100Y-17288189D01*
X45257681Y-17452609D01*
X45196358Y-17486094D01*
X45126666Y-17481110D01*
X45082319Y-17452609D01*
X44917899Y-17288189D01*
X44917894Y-17288185D01*
X44718932Y-17143632D01*
X44718931Y-17143631D01*
X44718929Y-17143630D01*
X44648722Y-17107858D01*
X44499792Y-17031973D01*
X44499789Y-17031972D01*
X44265887Y-16955974D01*
X44144428Y-16936737D01*
X44022971Y-16917500D01*
X43777029Y-16917500D01*
X43696057Y-16930324D01*
X43534112Y-16955974D01*
X43300210Y-17031972D01*
X43300207Y-17031973D01*
X43081067Y-17143632D01*
X42882105Y-17288185D01*
X42882100Y-17288189D01*
X42708189Y-17462100D01*
X42708185Y-17462105D01*
X42563630Y-17661069D01*
X42536518Y-17714279D01*
X42488543Y-17765075D01*
X42420722Y-17781869D01*
X42416307Y-17781601D01*
X42412268Y-17781283D01*
X41849494Y-18344057D01*
X41833381Y-18283919D01*
X41766502Y-18168080D01*
X41671920Y-18073498D01*
X41556081Y-18006619D01*
X41495942Y-17990504D01*
X42058716Y-17427731D01*
X42058715Y-17427730D01*
X42021432Y-17400641D01*
X41844437Y-17310457D01*
X41655522Y-17249075D01*
X41459321Y-17218000D01*
X41260679Y-17218000D01*
X41064479Y-17249075D01*
X41064476Y-17249075D01*
X40875562Y-17310457D01*
X40698564Y-17400643D01*
X40661283Y-17427729D01*
X40661282Y-17427730D01*
X41224058Y-17990504D01*
X41163919Y-18006619D01*
X41048080Y-18073498D01*
X40953498Y-18168080D01*
X40886619Y-18283919D01*
X40870504Y-18344057D01*
X40307730Y-17781282D01*
X40303691Y-17781600D01*
X40290525Y-17778834D01*
X40277222Y-17780847D01*
X40256998Y-17771790D01*
X40235314Y-17767235D01*
X40224341Y-17757166D01*
X40213454Y-17752291D01*
X40198865Y-17733789D01*
X40190145Y-17725788D01*
X40186506Y-17720216D01*
X40156370Y-17661071D01*
X40072325Y-17545392D01*
X40072311Y-17545371D01*
X40011814Y-17462105D01*
X40011810Y-17462100D01*
X39837899Y-17288189D01*
X39837894Y-17288185D01*
X39638932Y-17143632D01*
X39638931Y-17143631D01*
X39638929Y-17143630D01*
X39568722Y-17107858D01*
X39419792Y-17031973D01*
X39419789Y-17031972D01*
X39185887Y-16955974D01*
X39064428Y-16936737D01*
X38942971Y-16917500D01*
X38697029Y-16917500D01*
X38616057Y-16930324D01*
X38454112Y-16955974D01*
X38220210Y-17031972D01*
X38220207Y-17031973D01*
X38001067Y-17143632D01*
X37802105Y-17288185D01*
X37802100Y-17288189D01*
X37637681Y-17452609D01*
X37576358Y-17486094D01*
X37506666Y-17481110D01*
X37462319Y-17452609D01*
X37297899Y-17288189D01*
X37297894Y-17288185D01*
X37098932Y-17143632D01*
X37098931Y-17143631D01*
X37098929Y-17143630D01*
X37028722Y-17107858D01*
X36879792Y-17031973D01*
X36879789Y-17031972D01*
X36645887Y-16955974D01*
X36524428Y-16936737D01*
X36402971Y-16917500D01*
X36157029Y-16917500D01*
X36076057Y-16930324D01*
X35914112Y-16955974D01*
X35680210Y-17031972D01*
X35680207Y-17031973D01*
X35461067Y-17143632D01*
X35262105Y-17288185D01*
X35262100Y-17288189D01*
X35097681Y-17452609D01*
X35036358Y-17486094D01*
X34966666Y-17481110D01*
X34922319Y-17452609D01*
X34757899Y-17288189D01*
X34757894Y-17288185D01*
X34558932Y-17143632D01*
X34558931Y-17143631D01*
X34558929Y-17143630D01*
X34488722Y-17107858D01*
X34339792Y-17031973D01*
X34339789Y-17031972D01*
X34105887Y-16955974D01*
X33984428Y-16936737D01*
X33862971Y-16917500D01*
X33617029Y-16917500D01*
X33536057Y-16930324D01*
X33374112Y-16955974D01*
X33140210Y-17031972D01*
X33140207Y-17031973D01*
X32921067Y-17143632D01*
X32722105Y-17288185D01*
X32722100Y-17288189D01*
X32548189Y-17462100D01*
X32548185Y-17462105D01*
X32403630Y-17661069D01*
X32376518Y-17714279D01*
X32328543Y-17765075D01*
X32260722Y-17781869D01*
X32256307Y-17781601D01*
X32252268Y-17781283D01*
X31689494Y-18344057D01*
X31673381Y-18283919D01*
X31606502Y-18168080D01*
X31511920Y-18073498D01*
X31396081Y-18006619D01*
X31335942Y-17990504D01*
X31898716Y-17427731D01*
X31898715Y-17427730D01*
X31861432Y-17400641D01*
X31684437Y-17310457D01*
X31495522Y-17249075D01*
X31299321Y-17218000D01*
X31100679Y-17218000D01*
X30904479Y-17249075D01*
X30904476Y-17249075D01*
X30715562Y-17310457D01*
X30538564Y-17400643D01*
X30501283Y-17427729D01*
X30501282Y-17427730D01*
X31064058Y-17990504D01*
X31003919Y-18006619D01*
X30888080Y-18073498D01*
X30793498Y-18168080D01*
X30726619Y-18283919D01*
X30710504Y-18344057D01*
X30147730Y-17781282D01*
X30143691Y-17781600D01*
X30130525Y-17778834D01*
X30117222Y-17780847D01*
X30096998Y-17771790D01*
X30075314Y-17767235D01*
X30064341Y-17757166D01*
X30053454Y-17752291D01*
X30038865Y-17733789D01*
X30030145Y-17725788D01*
X30026506Y-17720216D01*
X29996370Y-17661071D01*
X29912325Y-17545392D01*
X29912311Y-17545371D01*
X29851814Y-17462105D01*
X29851810Y-17462100D01*
X29677899Y-17288189D01*
X29677894Y-17288185D01*
X29478932Y-17143632D01*
X29478931Y-17143631D01*
X29478929Y-17143630D01*
X29408722Y-17107858D01*
X29259792Y-17031973D01*
X29259789Y-17031972D01*
X29025887Y-16955974D01*
X28904428Y-16936737D01*
X28782971Y-16917500D01*
X28537029Y-16917500D01*
X28456057Y-16930324D01*
X28294112Y-16955974D01*
X28060210Y-17031972D01*
X28060207Y-17031973D01*
X27841067Y-17143632D01*
X27642105Y-17288185D01*
X27642100Y-17288189D01*
X27477681Y-17452609D01*
X27416358Y-17486094D01*
X27346666Y-17481110D01*
X27302319Y-17452609D01*
X27137899Y-17288189D01*
X27137894Y-17288185D01*
X26938932Y-17143632D01*
X26938931Y-17143631D01*
X26938929Y-17143630D01*
X26868722Y-17107858D01*
X26719792Y-17031973D01*
X26719789Y-17031972D01*
X26485887Y-16955974D01*
X26364428Y-16936737D01*
X26242971Y-16917500D01*
X25997029Y-16917500D01*
X25916057Y-16930324D01*
X25754112Y-16955974D01*
X25520210Y-17031972D01*
X25520207Y-17031973D01*
X25301070Y-17143630D01*
X25284296Y-17155818D01*
X25218490Y-17179298D01*
X25211410Y-17179500D01*
X24482352Y-17179500D01*
X24277648Y-17179500D01*
X24210253Y-17190174D01*
X24075463Y-17211523D01*
X23978123Y-17243150D01*
X23978123Y-17243151D01*
X23925352Y-17260297D01*
X23880774Y-17274782D01*
X23789584Y-17321245D01*
X23789585Y-17321246D01*
X23698388Y-17367713D01*
X23532778Y-17488036D01*
X22974788Y-18046026D01*
X22913465Y-18079511D01*
X22843773Y-18074527D01*
X22799426Y-18046026D01*
X22770085Y-18016685D01*
X22770078Y-18016679D01*
X22530831Y-17833099D01*
X22269671Y-17682318D01*
X22269661Y-17682314D01*
X21991060Y-17566913D01*
X21699766Y-17488861D01*
X21400793Y-17449501D01*
X21400788Y-17449500D01*
X21400783Y-17449500D01*
X21099217Y-17449500D01*
X21099211Y-17449500D01*
X21099206Y-17449501D01*
X20800233Y-17488861D01*
X20508939Y-17566913D01*
X20230338Y-17682314D01*
X20230328Y-17682318D01*
X19969168Y-17833099D01*
X19729921Y-18016679D01*
X19729914Y-18016685D01*
X19516685Y-18229914D01*
X19516679Y-18229921D01*
X19333099Y-18469168D01*
X19231387Y-18645339D01*
X19180820Y-18693555D01*
X19112213Y-18706778D01*
X19047348Y-18680810D01*
X19006820Y-18623895D01*
X19000000Y-18583339D01*
X19000000Y-15124000D01*
X19019685Y-15056961D01*
X19072489Y-15011206D01*
X19124000Y-15000000D01*
X81876000Y-15000000D01*
X81943039Y-15019685D01*
G37*
%TD.AperFunction*%
%TD*%
M02*
