M48
; DRILL file {KiCad 9.0.4} date 2025-10-03T14:28:02+0700
; FORMAT={-:-/ absolute / metric / decimal}
; #@! TF.CreationDate,2025-10-03T14:28:02+07:00
; #@! TF.GenerationSoftware,Kicad,Pcbnew,9.0.4
; #@! TF.FileFunction,Plated,1,2,PTH
FMAT,2
METRIC
; #@! TA.AperFunction,Plated,PTH,ComponentDrill
T1C0.950
; #@! TA.AperFunction,Plated,PTH,ComponentDrill
T2C1.000
; #@! TA.AperFunction,Plated,PTH,ComponentDrill
T3C1.016
; #@! TA.AperFunction,Plated,PTH,ComponentDrill
T4C1.920
; #@! TA.AperFunction,Plated,PTH,ComponentDrill
T5C2.000
; #@! TA.AperFunction,Plated,PTH,ComponentDrill
T6C2.750
%
G90
G05
T1
X72.3Y-38.6
X72.3Y-41.1
X72.3Y-43.6
X72.3Y-46.1
T2
X25.61Y-31.4
X25.62Y-31.4
X28.15Y-31.4
X28.16Y-31.4
X30.69Y-31.4
X30.7Y-31.4
X33.23Y-31.4
X33.24Y-31.4
X52.21Y-32.0
X54.21Y-32.0
X56.21Y-32.0
X58.21Y-32.0
X72.25Y-27.575
X72.25Y-30.075
T3
X26.12Y-18.48
X26.12Y-21.02
X28.66Y-18.48
X28.66Y-21.02
X31.2Y-18.48
X31.2Y-21.02
X33.74Y-18.48
X33.74Y-21.02
X36.28Y-18.48
X36.28Y-21.02
X38.82Y-18.48
X38.82Y-21.02
X41.36Y-18.48
X41.36Y-21.02
X43.9Y-18.48
X43.9Y-21.02
X46.44Y-18.48
X46.44Y-21.02
X48.98Y-18.48
X48.98Y-21.02
X51.52Y-18.48
X51.52Y-21.02
X54.06Y-18.48
X54.06Y-21.02
X56.6Y-18.48
X56.6Y-21.02
X59.14Y-18.48
X59.14Y-21.02
X61.68Y-18.48
X61.68Y-21.02
X64.22Y-18.48
X64.22Y-21.02
X66.76Y-18.48
X66.76Y-21.02
X69.3Y-18.48
X69.3Y-21.02
X71.84Y-18.48
X71.84Y-21.02
X74.38Y-18.48
X74.38Y-21.02
X77.94Y-24.603
X77.94Y-27.143
X80.48Y-24.603
X80.48Y-27.143
T4
X45.01Y-38.8
X55.01Y-68.8
X65.01Y-38.8
T5
X20.44Y-61.0
X38.44Y-34.5
X38.44Y-61.0
T6
X21.25Y-19.75
X21.25Y-68.75
X79.25Y-19.75
X79.25Y-68.75
M30
